<?xml version="1.0" encoding="utf-8"?>
<!-- Generator: Adobe Illustrator 23.1.0, SVG Export Plug-In . SVG Version: 6.00 Build 0)  -->
<svg version="1.1" xmlns="http://www.w3.org/2000/svg" xmlns:xlink="http://www.w3.org/1999/xlink" x="0px" y="0px"
	 viewBox="0 0 8503.9 8503.9" style="enable-background:new 0 0 8503.9 8503.9;" xml:space="preserve">
<style type="text/css">
	.st0{fill:#A2D45E;}
	.st1{fill:#4A8B2C;}
	.st2{fill:#636569;}
</style>
<g id="Logo">
	<g>
		<path class="st0" d="M5010.5,3831.6c460.8-646.6,310.1-1544.3-336.5-2005.1c-428.3-305.2-966.8-342.1-1415.5-144.4
			c486.3-334.6,1149.5-348.4,1658.1,14c650,463.2,801.5,1365.6,338.3,2015.6c-173.2,243-407.7,416.3-667.5,513.9
			C4748.9,4127.4,4893.8,3995.4,5010.5,3831.6z"/>
		<path class="st1" d="M5087.4,4421.5c-272.5,0-527.2-75.8-744.3-207.5c-352-213.4-605.1-573.7-674.3-995.8
			c-12.5-76.3-19-154.5-19-234.3c0-525.9,282.4-985.9,703.9-1236.5c-554.7,201.9-950.8,733.9-950.8,1358.4
			c0,798.2,647,1445.2,1445.2,1445.2c298.4,0,575.7-90.4,805.9-245.4C5480.1,4380.2,5288.6,4421.5,5087.4,4421.5z"/>
		<path class="st2" d="M5140.8,2965.3c-153.6-147.2-384.1-330.7-384.1-330.7l-0.4,0.2c-285.8-226.2-626-442.4-1005.6-630.7
			c-271.8-134.9-542.7-245-804.3-330.1c305.1,118.8,623.3,276.8,939.1,472c253.1,156.4,485.5,324.9,692.8,498.7
			c-267.5-153.7-568.3-294.9-893.4-414.7c-284.7-105-565.8-185.5-835-242.1c316.1,85.4,649.4,208.5,984.3,368.8
			c238.5,114.1,461.8,239.4,666.3,371.6l-6.3,2.3l-53.3,17.1c0,0-392.6-8.5-450.2,29.9c64,40.5,119.5,138.7,341.4,102.4
			c-110.7,167.1-362.4,319.9-663.2,338.3c31,189.3,99,366.1,196.3,522.8c246.8-98.9,461.8-264.7,620.1-477.3
			c-120.4,247.4-308.6,453.2-538.1,595.7c108.6,141.3,242.9,261.8,395.9,354.6c92.6-62.4,194.6-213.5,228.3-258.4
			c66.4-88.3,159.7-335.2,268.5-343.8c108.8-8.5,102.4,55.5,194.2,14.9c-46.9-38.4-229.4-138.7-263-236.9
			c-33.6-98.2-54.9-292.3-18.7-373.4c53.3,72.5,64,106.7,91.8,149.4c10.7-79-4.3-221.9,59.7-283.8c44.8,83.2,23.5,130.2,23.5,130.2
			s134.4,42.7,138.7,147.2c-49.1,4.3-72.5-10.4-72.5-10.4s86.1,307.2,136.6,375.2c56.9,76.7,196.3,283.8,260.3,260.3
			c105.9-38.8,98.2-77.2,132.8-117.7c16.7-19.6-90.1-63.6-66.6-87.1c23.5-23.5,79,66.1,119.5,27.7
			C5642.1,3545,5294.4,3112.6,5140.8,2965.3z"/>
	</g>
	<g>
		<g>
			<path d="M1101,5157.9c0-5-1.4-8.4-4.2-10.2c-2.9-1.8-9.8-2.7-20.5-2.7v-13.4l59.2-2.7L1132,5278c14-26,29-46.3,45.3-60.7
				c16.2-14.4,30.4-21.7,42.4-21.7c29,0,52.3,13.4,69.8,40.3c17.5,26.8,27.1,63.4,28.9,109.6h42.9v14.6h-286.3l-12.1-14.6
				c25.4,0,38.1-12.5,37.9-37.6V5157.9z M1221.3,5209c-12.6,0-26.7,8.9-42.4,26.6c-15.6,17.8-28.7,37.1-39.3,58.1
				c-10.6,21-17.1,38.2-19.7,51.7h164c-0.3-42.4-6.5-75.8-18.6-100C1253.2,5221.2,1238.5,5209,1221.3,5209z"/>
			<path d="M1427.8,5360h-70.4v-14.6h62.9c14.7,0,25-1.8,31-5.4c-38.8-25.2-58.3-54.6-58.3-88.3c0-18.6,8.1-34.4,24.4-47.2
				c16.3-12.8,36.2-19.3,59.7-19.3c23.6,0.1,43.1,6.8,58.6,19.9c15.5,13.2,23.2,29.6,23.2,49.4c0,19.8-7.3,36.4-22,49.8
				c-14.7,13.4-31.3,25.2-50.1,35.3c5.7,4,13.1,5.9,22,5.7h99.9v14.6h-94.3c-21.2,0-36.9-3.1-47.1-9.4
				C1456.2,5356.9,1443,5360,1427.8,5360z M1508.9,5213.1c-7.9-9.6-18.8-14.4-32.9-14.4c-14,0-25.6,4.5-34.8,13.4
				c-9.1,8.9-13.7,21.7-13.7,38.3c0,16.6,4.1,31.6,12.4,45c8.3,13.4,19,24.6,32.2,33.5c1.5-0.8,2.9-1.8,4.2-3.1
				c8.7-5.7,14.9-10.2,18.7-13.4c12.5-10.6,20-21.8,22.7-33.7c1.9-7.7,2.9-18.1,2.9-31.4C1520.7,5234.1,1516.7,5222.6,1508.9,5213.1
				z M1472.6,5106.1c5.4,0,10.1,2,14.2,5.9c4.1,3.8,6.1,8.6,6.1,14.2c0,5.6-2,10.4-6.1,14.4c-4.1,4-8.8,5.9-14.2,5.9
				c-5.4,0-10.2-2-14.4-5.9c-4.1-4-6.1-8.7-6.1-14.4c0-5.6,2-10.3,6.1-14.2C1462.3,5108.2,1467.1,5106.3,1472.6,5106.1z"/>
			<path d="M1737.6,5360h-4.6c-19.4,0-35.8-10.2-49.1-30.7c-8,20.4-27.3,30.7-57.9,30.7h-25.1v-14.6h18c19.7,0,29.4-12.1,29.3-36.4
				v-98.5c0-4.5-0.9-7.5-2.7-9.2c-1.8-1.7-6.6-3.8-14.6-6.5l51.7-9.8v100c0,13.9,4.1,27.5,12.3,40.6c8.2,13.2,18.7,19.7,31.6,19.7
				h10.9V5360z M1659.2,5104.2c5.7-0.1,10.5,1.7,14.4,5.6c3.8,3.8,5.7,8.6,5.6,14.2c0,5.6-1.9,10.4-5.7,14.4
				c-3.9,4-8.7,5.9-14.3,5.9c-5.6,0-10.3-2-14.2-5.9c-3.9-4-5.8-8.7-5.8-14.4c0-5.6,1.9-10.3,5.7-14.2
				C1648.7,5105.9,1653.5,5104.1,1659.2,5104.2z"/>
			<path d="M1730.5,5360v-14.6h8.7c20.8,0,31.1-12.5,31-37.6v-171.5c0-5-0.8-8.5-2.5-10.5c-1.7-2-6.6-4.3-14.8-6.7l51.7-10v199.9
				c0,16.1-5.3,28.6-15.9,37.6c-10.6,8.9-24.4,13.4-41.4,13.4H1730.5z"/>
			<path d="M1856.8,5360v-223.6c0-5-0.8-8.5-2.5-10.5c-1.7-2-6.5-4.3-14.4-6.7l51.4-10V5360H1856.8z"/>
			<path d="M2230.1,5298.1c0,34.2-10.2,64.4-30.5,90.4c-20.4,26.1-48.5,39-84.1,38.9c-24,0-45-6.5-62.9-19.4
				c-17.9-12.9-31-29-39.3-48.1c-8.3-19.2-12.5-39.8-12.5-61.7v-54.7c0-4.7-1.9-8-5.8-9.8c-4-1.8-11.5-2.7-22.6-2.9v-13.4l62.9-2.9
				v83.5c0,43.9,8.4,74.7,25.3,92.4c14.8,15.7,33.1,23.6,54.7,23.6c21.6,0,40.4-8.4,56.2-25.3c16-16.9,24-47.1,24-90.6v-161.9
				c0-5-0.9-8.5-2.7-10.5c-1.8-2-6.7-4.3-14.6-6.7l51.8-10V5298.1z"/>
			<path d="M2333.5,5360c-14.5,0-28.1-5.7-40.9-17.2c-12.8-11.5-19.3-26.1-19.4-43.9c0-33.7,10.7-60.9,32-81.4
				c21.4-20.6,48.9-30.9,82.7-30.9h29.9v96.2c0,26.2-0.9,47.1-2.7,62.7h50.6v14.6h-54.2c-12.5,48.2-42.1,72.2-89,72.2
				c-5.8,0-16.6-0.6-32.3-1.9l9.4-1.7c29.8-6.1,51.4-18.8,64.8-37.9c6-8.7,10.7-18.9,14.2-30.7H2333.5z M2383.4,5333.4v-134.7h-4.4
				c-18.2,0-34.7,9.3-49.3,28c-14.7,18.7-22,41.9-22,69.8c-0.1,12.5,3,23.8,9.4,33.9c6.4,10.1,14.8,15.1,25.2,15.1h40.3
				C2383.1,5340.4,2383.4,5336.3,2383.4,5333.4z"/>
			<path d="M2529.6,5360h-70.3v-14.6h62.8c14.6,0,24.9-1.8,30.9-5.4c-38.7-25.2-58.1-54.6-58.1-88.3c0-18.6,8.1-34.4,24.4-47.2
				c16.3-12.8,36.2-19.3,59.7-19.3c23.6,0.1,43.1,6.8,58.6,19.9c15.5,13.2,23.2,29.6,23.2,49.4c0,19.8-7.3,36.4-22,49.8
				c-14.7,13.4-31.3,25.2-50.1,35.3c5.7,4,13.1,5.9,22,5.7h99.9v14.6h-94.4c-21.2,0-36.9-3.1-47.1-9.4
				C2557.9,5356.9,2544.7,5360,2529.6,5360z M2546.1,5106.1c5.9,0,10.7,2,14.6,5.9c3.8,4.1,5.7,8.8,5.7,14.2c0,5.4-1.9,10-5.7,14
				c-3.8,4-8.7,5.9-14.6,5.9c-5.9,0-10.7-1.9-14.4-5.7c-3.7-3.8-5.5-8.6-5.4-14.4c0-5.7,1.8-10.5,5.4-14.4
				C2535.3,5107.9,2540,5106,2546.1,5106.1z M2610.7,5213.1c-7.9-9.6-18.8-14.4-33-14.4c-14.1,0-25.7,4.5-34.8,13.4
				c-9.1,8.9-13.6,21.7-13.6,38.3c0,16.6,4.1,31.6,12.4,45c8.3,13.4,19,24.6,32.2,33.5c9.7-6.1,16.6-10.7,20.6-13.8
				c4.1-3.1,8.8-7.7,14.1-13.8c5.2-6.1,8.8-13.2,10.7-21.1c2-7.9,3.1-18.7,3.1-32.2C2622.5,5234.3,2618.6,5222.6,2610.7,5213.1z
				 M2602.6,5106.1c5.7,0,10.5,2,14.4,5.9c3.8,4.1,5.7,8.8,5.7,14.2c0,5.4-1.9,10-5.7,14c-3.8,4-8.6,5.9-14.4,5.9s-10.5-2-14.4-5.9
				c-3.8-4-5.7-8.7-5.6-14.2c-0.1-5.5,1.7-10.2,5.6-14C2592,5108.2,2596.8,5106.3,2602.6,5106.1z"/>
			<path d="M2702.8,5360v-14.6h180.1c-0.5-42.2-7-75.2-19.5-99.3c-12.5-24-27.2-36-44.1-36c-16.7,0-30.9,6.9-42.5,20.7
				c-11.6,13.8-20.9,31.9-27.8,54.2l-16.1-29.5c5.7-3.2,11-8.3,15.7-15.3c8.4-13.4,18-24,28.7-31.8c10.6-7.8,25.4-11.7,44.3-11.7
				c18.9,0,36.2,7.5,51.7,22.4c15.6,14.9,27.5,33.4,35.6,55.6c7.9,22.2,12.1,45.7,12.6,70.7h14.6l-9,14.6H2702.8z"/>
			<path d="M3104.1,5360c-39,0-58.5-16.4-58.6-49.1v-72.2c0-4.7-1.9-8-5.6-9.8c-3.9-1.8-11.3-2.7-22.4-2.7v-13.4l62.5-2.7v102.3
				c0,20.7,8.8,31.7,26.3,33h93.1c19.4,0,29.2-12.5,29.2-37.6v-95.4c0-5-0.9-8.5-2.7-10.5c-1.8-2-6.8-4.4-14.9-7.1l52.1-9.8v124
				c0,16.6-4.7,29.3-14,37.9c-9.3,8.7-22.6,13-39.9,13H3104.1z M3106.8,5131.8c3.7-3.8,8.4-5.7,14.2-5.7c5.7,0,10.5,2,14.4,5.9
				c3.8,4,5.7,8.7,5.6,14.2c0,5.5-1.9,10.2-5.7,14.2c-4,3.8-8.8,5.7-14.4,5.7c-5.6,0-10.3-1.9-14-5.7c-3.7-3.8-5.6-8.6-5.6-14.2
				C3101.2,5140.4,3103,5135.6,3106.8,5131.8z M3177.8,5126.1c5.6,0,10.3,2,14.2,5.9c3.8,4,5.7,8.7,5.7,14.2
				c0,5.5-1.9,10.2-5.7,14.2c-3.8,3.8-8.6,5.7-14.2,5.7c-5.6,0-10.4-1.9-14.4-5.7c-3.8-3.8-5.7-8.6-5.7-14.2
				c0-5.5,1.9-10.2,5.7-14.2C3167.3,5128,3172.1,5126.1,3177.8,5126.1z"/>
			<path d="M3326.9,5311v-172.3c0-4.7-2-8-5.9-10c-4-1.9-11.4-2.9-22.4-3.1v-13.4l62.9-2.3v202.6c0,20.7,8.6,31.7,25.9,33h19.7v14.6
				h-22C3346.3,5360,3326.9,5343.7,3326.9,5311z"/>
			<path d="M3398.2,5360v-14.6h14.4c24.3,0,41-9.2,50.2-27.6c3.4-6.6,5.9-12.2,7.3-16.7c1.4-4.5,3.4-11.4,5.9-20.7
				c8.8-33,23.1-53.9,42.9-62.7c9.5-4.2,20.9-6.2,34.3-6.2c22.2,0,40,9,53.3,27.1c13.4,18.1,20.1,37.5,20.1,58.2
				c0,20.7-7.3,39.2-22,55.4c-14.7,16.2-35.1,24.3-61.3,24.3c-11.1,0-21.3-2-30.5-6.1c-9.2-4-15.7-7.8-19.5-11.4
				c-3.8-3.5-8.8-8.7-14.8-15.5c-10.5,11-25.1,16.5-43.9,16.5H3398.2z M3548.3,5224.9c-9.3,0-16.7,3.6-22.2,10.7
				c-5.5,7.2-9.5,15.1-11.9,23.8c-11.2,39.7-18.6,62.7-22,68.8l3.4,4.8c5,5.7,9.2,10.3,12.6,13.6c3.4,3.3,8.7,7,15.9,10.9
				c7.2,3.8,14.5,5.7,22,5.6c12.5,0,23.3-6.3,32.4-19c9.1-12.6,13.6-28.4,13.6-47.3c-0.1-18.9-3.9-35.5-11.3-49.8
				c-7.4-14.3-17.8-21.7-31-22H3548.3z"/>
			<path d="M3776.1,5345.5v-48.3c0-35.3-1.8-60.6-5.4-76.1c-3.6-15.5-10.2-23.2-19.7-23.2c-6.5,0-14.4,5.1-23.8,15.3
				c-9.3,10.2-20.6,24.8-33.9,43.9l-7.1-30.5c5.5-0.3,10.5-1.8,15.1-4.6c4.6-2.8,10.8-8.6,18.6-17.4c11.2-13.4,23.2-20.1,35.8-20.1
				h0.8c29.4,0.6,47.8,36.4,55.2,107.2c1.8,17,2.7,34.9,2.9,53.8h36.8v14.6h-177.3l-12.3-14.6H3776.1z"/>
			<path d="M3844.3,5360v-14.6h180.1c-0.5-42.2-7-75.2-19.5-99.3c-12.5-24-27.2-36-44.1-36c-16.7,0-30.9,6.9-42.5,20.7
				c-11.6,13.8-20.9,31.9-27.8,54.2l-16.1-29.5c5.7-3.2,11-8.3,15.7-15.3c8.4-13.4,18-24,28.7-31.8c10.6-7.8,25.4-11.7,44.3-11.7
				c18.9,0,36.2,7.5,51.7,22.4c15.6,14.9,27.5,33.4,35.6,55.6c7.9,22.2,12.1,45.7,12.6,70.7h14.6l-9,14.6H3844.3z M3958.5,5121.1
				c5.4,0.1,10.1,2.1,14.2,5.9c4.1,3.8,6.1,8.6,6.1,14.4s-2,10.6-6.1,14.6c-4.1,4-8.8,5.9-14.2,5.9c-5.4,0-10.2-2-14.4-5.9
				c-4.1-4-6.1-8.8-6.1-14.6s2-10.5,6.1-14.4C3948.3,5123.2,3953,5121.2,3958.5,5121.1z"/>
			<path d="M4183,5360h-1.9c-14.7-0.5-28.4-6.4-41.1-17.8c-12.7-11.4-19.1-25.8-19.2-43.3c0-33.7,10.7-60.9,32-81.4
				c21.4-20.6,48.9-30.9,82.7-30.9h29.9v96.2c0,25.4-2,47.5-6.1,66.3c-4.1,18.8-9.1,33.4-15.1,43.9c-6.1,10.5-13.7,18.8-22.6,24.9
				c-8.9,6.1-17.4,10.1-25.3,11.9c-7.9,1.8-15.7,2.6-23.4,2.5c-7.7,0-19.4-0.6-35.1-1.9l9.4-1.7c10.2-2.3,19-5.1,26.4-8.4
				c7.4-3.2,15.7-8.2,24.9-15c18.1-13.6,29.2-38.4,33.2-74.4c-3.5,5.8-6.8,10.4-10.2,13.9c-3.3,3.5-8.3,7-15,10.5
				C4199.9,5358.4,4192,5360,4183,5360z M4231,5288v-89.3h-4.4c-18.2,0-34.7,9.2-49.3,27.7c-14.7,18.5-22,41.5-22,69
				c-0.1,12.6,3,24.2,9.4,34.7c6.4,10.5,15,15.9,25.8,16.1c10.8,0.3,20.3-5.6,28.5-17.5C4227.1,5317.2,4231.2,5303.6,4231,5288z"/>
			<path d="M4433,5360c-39,0-58.5-16.4-58.6-49.1v-72.2c0-4.7-1.9-8-5.6-9.8c-3.9-1.8-11.3-2.7-22.4-2.7v-13.4l62.5-2.7v102.3
				c0,20.7,8.8,31.7,26.3,33h93.1c19.4,0,29.2-12.5,29.2-37.6v-95.4c0-5-0.9-8.5-2.7-10.5c-1.8-2-6.8-4.4-14.9-7.1l52.1-9.8v124
				c0,16.6-4.7,29.3-14,37.9c-9.3,8.7-22.6,13-39.9,13H4433z M4435.7,5131.8c3.7-3.8,8.4-5.7,14.2-5.7s10.5,2,14.4,5.9
				c3.8,4,5.7,8.7,5.6,14.2c0,5.5-1.9,10.2-5.7,14.2c-4,3.8-8.8,5.7-14.4,5.7c-5.6,0-10.3-1.9-14-5.7c-3.7-3.8-5.6-8.6-5.6-14.2
				C4430.1,5140.4,4432,5135.6,4435.7,5131.8z M4506.8,5126.1c5.6,0,10.3,2,14.2,5.9c3.8,4,5.7,8.7,5.7,14.2
				c0,5.5-1.9,10.2-5.7,14.2c-3.8,3.8-8.6,5.7-14.2,5.7c-5.6,0-10.4-1.9-14.4-5.7c-3.8-3.8-5.7-8.6-5.7-14.2
				c0-5.5,1.9-10.2,5.7-14.2C4496.2,5128,4501,5126.1,4506.8,5126.1z"/>
			<path d="M4655.9,5311v-172.3c0-4.7-2-8-5.9-10c-4-1.9-11.4-2.9-22.4-3.1v-13.4l62.9-2.3v202.6c0,20.7,8.6,31.7,25.9,33h19.7v14.6
				h-22C4675.2,5360,4655.9,5343.7,4655.9,5311z"/>
			<path d="M4724.1,5401.8c3.7-3.8,8.5-5.7,14.4-5.7c5.9,0,10.7,1.9,14.6,5.7c3.8,3.8,5.7,8.5,5.7,14c0,5.5-1.9,10.2-5.7,14.2
				c-3.8,4-8.7,5.9-14.6,5.9c-5.9,0-10.7-1.9-14.4-5.7c-3.7-3.8-5.6-8.6-5.6-14.2C4718.5,5410.4,4720.4,5405.6,4724.1,5401.8z
				 M4876.7,5360H4861c-19.4,0-35.8-10.2-49.1-30.7c-8,20.4-27.4,30.7-58,30.7h-25.1v-14.6h18c19.7,0,29.4-12.1,29.3-36.4v-98.5
				c0-4.5-0.9-7.5-2.7-9.2c-1.8-1.7-6.6-3.8-14.6-6.5l51.7-9.8v100c0,13.9,4.1,27.5,12.3,40.6c8.2,13.2,18.7,19.7,31.6,19.7h22V5360
				z M4795.1,5396.1c5.7,0,10.4,1.9,14.3,5.7c3.8,3.8,5.8,8.5,5.8,14c0,5.5-1.9,10.2-5.8,14.2c-3.9,4-8.6,5.9-14.2,5.9
				c-5.6,0-10.4-2-14.3-6.1c-3.8-3.8-5.7-8.5-5.7-14c0-5.5,1.9-10.2,5.7-14C4784.6,5398,4789.4,5396.1,4795.1,5396.1z"/>
			<path d="M5015.2,5360h-8.6c-19.7,0-36.2-10.2-49.4-30.7c-8.1,20.4-27.6,30.7-58.4,30.7h-28.9v-14.6h21.8
				c19.7,0,29.5-12.1,29.5-36.4v-175.1c0-4.5-0.9-7.5-2.7-9.2c-1.8-1.7-6.6-3.8-14.6-6.5l51.7-9.8v176.7c0,13.9,4.3,27.5,12.8,40.6
				c8.6,13.2,19,19.7,31.4,19.7h15.3V5360z"/>
			<path d="M5078.4,5360h-70.3v-14.6h62.8c14.6,0,24.9-1.8,30.9-5.4c-38.7-25.2-58.1-54.6-58.1-88.3c0-18.6,8.1-34.4,24.4-47.2
				c16.3-12.8,36.2-19.3,59.7-19.3c23.6,0.1,43.1,6.8,58.6,19.9c15.5,13.2,23.2,29.6,23.2,49.4c0,19.8-7.3,36.4-22,49.8
				c-14.7,13.4-31.3,25.2-50.1,35.3c5.7,4,13.1,5.9,22,5.7h99.9v14.6h-94.4c-21.2,0-36.9-3.1-47.1-9.4
				C5106.8,5356.9,5093.6,5360,5078.4,5360z M5094.9,5106.1c5.9,0,10.7,2,14.6,5.9c3.8,4.1,5.7,8.8,5.7,14.2c0,5.4-1.9,10-5.7,14
				c-3.8,4-8.7,5.9-14.6,5.9c-5.9,0-10.7-1.9-14.4-5.7c-3.7-3.8-5.5-8.6-5.4-14.4c0-5.7,1.8-10.5,5.4-14.4
				C5084.1,5107.9,5088.9,5106,5094.9,5106.1z M5159.6,5213.1c-7.9-9.6-18.8-14.4-33-14.4c-14.1,0-25.7,4.5-34.8,13.4
				c-9.1,8.9-13.6,21.7-13.6,38.3c0,16.6,4.1,31.6,12.4,45c8.3,13.4,19,24.6,32.2,33.5c9.7-6.1,16.6-10.7,20.6-13.8
				c4.1-3.1,8.8-7.7,14.1-13.8c5.2-6.1,8.8-13.2,10.7-21.1c2-7.9,3.1-18.7,3.1-32.2C5171.4,5234.3,5167.4,5222.6,5159.6,5213.1z
				 M5151.4,5106.1c5.7,0,10.5,2,14.4,5.9c3.8,4.1,5.7,8.8,5.7,14.2c0,5.4-1.9,10-5.7,14c-3.8,4-8.6,5.9-14.4,5.9
				c-5.7,0-10.5-2-14.4-5.9c-3.8-4-5.7-8.7-5.6-14.2c-0.1-5.5,1.7-10.2,5.6-14C5140.9,5108.2,5145.7,5106.3,5151.4,5106.1z"/>
			<path d="M5388.3,5360h-4.6c-19.4,0-35.8-10.2-49.1-30.7c-8,20.4-27.3,30.7-57.9,30.7h-25.1v-14.6h18c19.7,0,29.4-12.1,29.3-36.4
				v-98.5c0-4.5-0.9-7.5-2.7-9.2c-1.8-1.7-6.6-3.8-14.6-6.5l51.7-9.8v100c0,13.9,4.1,27.5,12.3,40.6c8.2,13.2,18.7,19.7,31.6,19.7
				h10.9V5360z M5309.9,5104.2c5.7-0.1,10.5,1.7,14.4,5.6c3.8,3.8,5.7,8.6,5.6,14.2c0,5.6-1.9,10.4-5.7,14.4
				c-3.9,4-8.7,5.9-14.3,5.9c-5.6,0-10.3-2-14.2-5.9c-3.9-4-5.8-8.7-5.8-14.4c0-5.6,1.9-10.3,5.7-14.2
				C5299.4,5105.9,5304.2,5104.1,5309.9,5104.2z"/>
			<path d="M5526.8,5360h-8.6c-19.7,0-36.2-10.2-49.4-30.7c-8.1,20.4-27.6,30.7-58.4,30.7h-28.9v-14.6h21.8
				c19.7,0,29.5-12.1,29.5-36.4v-175.1c0-4.5-0.9-7.5-2.7-9.2c-1.8-1.7-6.6-3.8-14.6-6.5l51.7-9.8v176.7c0,13.9,4.3,27.5,12.8,40.6
				c8.6,13.2,19,19.7,31.4,19.7h15.3V5360z"/>
			<path d="M5518.8,5360v-14.6h8.7c20.8,0,31.1-12.5,31-37.6v-171.5c0-5-0.8-8.5-2.5-10.5c-1.7-2-6.6-4.3-14.8-6.7l51.7-10v199.9
				c0,16.1-5.3,28.6-15.9,37.6c-10.6,8.9-24.4,13.4-41.4,13.4H5518.8z"/>
			<path d="M5760.8,5360c-39,0-58.5-16.4-58.6-49.1v-72.2c0-4.7-1.9-8-5.6-9.8c-3.9-1.8-11.3-2.7-22.4-2.7v-13.4l62.5-2.7v102.3
				c0,20.7,8.8,31.7,26.3,33h93.1c19.4,0,29.2-12.5,29.2-37.6v-95.4c0-5-0.9-8.5-2.7-10.5c-1.8-2-6.8-4.4-14.9-7.1l52.1-9.8v124
				c0,16.6-4.7,29.3-14,37.9c-9.3,8.7-22.6,13-39.9,13H5760.8z M5763.5,5131.8c3.7-3.8,8.4-5.7,14.2-5.7s10.5,2,14.4,5.9
				c3.8,4,5.7,8.7,5.6,14.2c0,5.5-1.9,10.2-5.7,14.2c-4,3.8-8.8,5.7-14.4,5.7c-5.6,0-10.3-1.9-14-5.7c-3.7-3.8-5.6-8.6-5.6-14.2
				C5757.9,5140.4,5759.8,5135.6,5763.5,5131.8z M5834.6,5126.1c5.6,0,10.3,2,14.2,5.9c3.8,4,5.7,8.7,5.7,14.2
				c0,5.5-1.9,10.2-5.7,14.2c-3.8,3.8-8.6,5.7-14.2,5.7c-5.6,0-10.4-1.9-14.4-5.7c-3.8-3.8-5.7-8.6-5.7-14.2
				c0-5.5,1.9-10.2,5.7-14.2C5824,5128,5828.8,5126.1,5834.6,5126.1z"/>
			<path d="M5971.8,5360v-223.6c0-5-0.8-8.5-2.5-10.5c-1.7-2-6.5-4.3-14.4-6.7l51.4-10V5360H5971.8z"/>
			<path d="M6094.6,5212.5c-0.1-5-1.1-8.5-2.9-10.5c-1.8-2-6.7-4.4-14.8-7.1l52.1-9.8v97.7c0,40.4-3.1,69.9-9.4,88.7
				c-6.3,18.8-16.2,33.3-29.7,43.7c-13.5,10.3-32.1,15.5-55.6,15.5c-6,0-15.4-0.6-28.2-1.7c19.9-5.1,35.9-12,47.9-20.7
				c25-18,38.5-50.1,40.4-96.2V5212.5z"/>
			<path d="M6193.1,5311v-172.3c0-4.7-2-8-5.9-10c-4-1.9-11.4-2.9-22.4-3.1v-13.4l62.9-2.3v202.6c0,20.7,8.6,31.7,25.9,33h19.7v14.6
				h-22C6212.5,5360,6193.1,5343.7,6193.1,5311z"/>
			<path d="M6264.4,5360v-14.6h14.4c24.3,0,41-9.2,50.2-27.6c3.4-6.6,5.9-12.2,7.3-16.7c1.4-4.5,3.4-11.4,5.9-20.7
				c8.8-33,23.1-53.9,42.9-62.7c9.5-4.2,20.9-6.2,34.3-6.2c22.2,0,40,9,53.3,27.1c13.4,18.1,20.1,37.5,20.1,58.2
				c0,20.7-7.3,39.2-22,55.4c-14.7,16.2-35.1,24.3-61.3,24.3c-11.1,0-21.3-2-30.5-6.1c-9.2-4-15.7-7.8-19.5-11.4
				c-3.8-3.5-8.8-8.7-14.8-15.5c-10.5,11-25.1,16.5-43.9,16.5H6264.4z M6414.4,5224.9c-9.3,0-16.7,3.6-22.2,10.7
				c-5.5,7.2-9.5,15.1-11.9,23.8c-11.2,39.7-18.6,62.7-22,68.8l3.4,4.8c5,5.7,9.2,10.3,12.6,13.6c3.4,3.3,8.7,7,15.9,10.9
				c7.2,3.8,14.5,5.7,22,5.6c12.5,0,23.3-6.3,32.4-19c9.1-12.6,13.6-28.4,13.6-47.3c-0.1-18.9-3.9-35.5-11.3-49.8
				c-7.4-14.3-17.8-21.7-31-22H6414.4z"/>
			<path d="M6591.3,5412.5c0,7.2-3.8,10.7-11.5,10.7s-11.6-3.2-11.7-9.6c0-3.1,1.8-5.6,5.3-7.7c-1.6-2.6-4.1-3.8-7.7-3.8
				c-3.6,0-6.4,1.7-8.3,5c-1.9,3.6-2.9,8.2-2.9,13.8c0,5.6,2.2,11.8,6.6,18.4c4.5,6.6,10.4,10,17.8,10.2h17.4v10.9h-67.8l4-10.9h18
				c-10.2-7-15.3-15.3-15.3-24.9c0-9.6,2.8-17.4,8.5-23.4c5.8-6,12.8-9,21-9s14.7,2,19.5,5.9
				C6588.9,5402.1,6591.3,5406.9,6591.3,5412.5z M6560.7,5345.5v-173.8c0-4.7-1-8.1-2.9-10.2c-1.9-2-7.1-4.4-15.5-7.1l52.9-9.8
				v200.8h24.3c19.3,0,29-12.5,29-37.6v-172.3c-0.1-5-1.1-8.5-2.9-10.5c-1.8-2-6.6-4.3-14.3-6.9l51.7-9.8v200.6
				c0,16.6-4.7,29.3-14,37.9c-9.3,8.7-22.6,13-39.9,13h-99.8l9.4-14.6H6560.7z"/>
			<path d="M6734.8,5360v-223.6c0-5-0.8-8.5-2.5-10.5c-1.7-2-6.5-4.3-14.4-6.7l51.4-10V5360H6734.8z"/>
			<path d="M6914.8,5311v-172.3c0-4.7-2-8-5.9-10c-4-1.9-11.4-2.9-22.4-3.1v-13.4l62.9-2.3v202.6c0,20.7,8.6,31.7,25.9,33h19.7v14.6
				h-22C6934.1,5360,6914.8,5343.7,6914.8,5311z"/>
			<path d="M6988.1,5360v-14.6h31.6c0-0.8,0.4-2.3,1.1-4.7c0.6-2.4,1.1-5.4,1.7-8.8c4.4-22.5,12.7-40.4,24.9-53.8
				c12.2-13.2,27.2-19.9,44.7-19.9s31.4,4.6,41.5,13.9c10,9.3,15.1,20.2,15.3,32.7c0,7.4-3,14.7-8.9,21.9
				c-5.9,7.2-13.8,13.4-23.6,18.6h61.4c-0.5-41.6-8-74.7-22.6-99.1c-14.6-24.4-30.3-36.6-47.1-36.6c-16.7,0-29.4,4.2-38.1,12.6
				c-8.7,8.4-15.1,20-19.4,34.7h-16.9c3.7-20.3,12.1-35.2,25.3-44.6c13.2-9.5,28.9-14.2,47.3-14.2c29.3,0,54.1,15.1,74.5,45.4
				s30.9,64.2,31.4,101.8h49.4v14.6H6988.1z M7114.5,5299.3c0-8-2.6-14.6-7.8-19.7c-5.2-5.1-11.2-7.7-18-7.9
				c-10.5,0-20.5,5.5-30.2,16.5c-9.7,11-16.7,26.2-21,45.5l-2.6,11.8h19.7c15.7-0.3,29.6-4.1,41.8-11.5
				C7108.4,5326.6,7114.5,5315,7114.5,5299.3z"/>
			<path d="M7252,5360v-14.6h14.4c24.3,0,41-9.2,50.2-27.6c3.4-6.6,5.9-12.2,7.3-16.7c1.4-4.5,3.4-11.4,5.9-20.7
				c8.8-33,23.1-53.9,42.9-62.7c9.5-4.2,20.9-6.2,34.3-6.2c22.2,0,40,9,53.3,27.1c13.4,18.1,20.1,37.5,20.1,58.2
				c0,20.7-7.3,39.2-22,55.4c-14.7,16.2-35.1,24.3-61.3,24.3c-11.1,0-21.3-2-30.5-6.1c-9.2-4-15.7-7.8-19.5-11.4
				c-3.8-3.5-8.8-8.7-14.8-15.5c-10.5,11-25.1,16.5-43.9,16.5H7252z M7402.1,5224.9c-9.3,0-16.7,3.6-22.2,10.7
				c-5.5,7.2-9.5,15.1-11.9,23.8c-11.2,39.7-18.6,62.7-22,68.8l3.4,4.8c5,5.7,9.2,10.3,12.6,13.6c3.4,3.3,8.7,7,15.9,10.9
				c7.2,3.8,14.5,5.7,22,5.6c12.5,0,23.3-6.3,32.4-19c9.1-12.6,13.6-28.4,13.6-47.3c-0.1-18.9-3.9-35.5-11.3-49.8
				c-7.4-14.3-17.8-21.7-31-22H7402.1z"/>
		</g>
	</g>
	<rect x="1032" y="6247" width="960" height="70"/>
	<rect x="6522" y="6247" width="960" height="70"/>
</g>
<g id="text">
	<g>
		<path d="M1768.1,5615.3l-57,118.5c-21.4,44.5-38.9,83.4-52.6,116.6h-7.7c-4.7-11.4-18.3-40.6-40.7-87.7l-68.7-142.1v148.2
			c0,34.5,1.4,54.1,4.1,58.7s11.3,7,25.7,7h7.1v12.1c-17.8-0.9-32.3-1.3-43.4-1.3c-8.1,0-24.1,0.4-48.2,1.3v-12.1h12.5
			c8.4,0,14.1-1.2,16.9-3.6c2.8-2.4,4.5-6.8,5.2-13.2c1.7-17.9,2.5-37.2,2.5-57.9v-108.5c0-26.2-0.6-43.5-1.7-51.9
			c-0.5-4.3-2.4-7.7-5.7-10c-3.3-2.3-9.7-3.4-19.5-3.4H1487v-12.1c22.2,0.9,36.2,1.3,42,1.3c7.3,0,17.6-0.4,31-1.3
			c15.5,34.4,33.3,72.3,53.5,113.7l50.4,103.7l46.6-96.1c16.4-33.6,35-74.1,56-121.4c16,0.9,27.2,1.3,33.7,1.3
			c7.5,0,21.1-0.4,40.8-1.3v12.1h-12.5c-11.3,0-18.2,1.9-20.7,5.8c-2.5,3.9-3.8,17.9-3.8,42.1v140.1c0,31.2,1.3,49.1,3.9,53.7
			c2.6,4.6,10,6.9,22.1,6.9h11v12.1c-17.8-0.9-34.8-1.3-51-1.3c-17.9,0-36.6,0.4-56.1,1.3v-12.1h12.6c10.1,0,16.2-2.2,18.3-6.6
			c2.1-4.4,3.2-23.3,3.2-56.8V5615.3z"/>
		<path d="M1876.6,5713.4l0.2-12.8l-0.2-13.2l20.9-11.9c9.5-5.4,17.7-9.1,24.8-11.1c7.1-2,14.7-3.1,22.7-3.1
			c17.6,0,31.8,4,42.6,11.9c10.8,7.9,17.3,18,19.5,30.2c1.5,9.2,2.5,32,2.9,68.3c0.3,34.3,1,53.3,2.3,56.9c1.3,3.6,4.5,5.4,9.6,5.4
			h14.9v12.6c-14.6-0.9-24.7-1.3-30.5-1.3c-7.2,0-16.7,0.4-28.7,1.3l0.2-17c0-5.5-0.1-11-0.2-16.7l-39.7,30.3
			c-3.6,2.7-7.1,4.6-10.5,5.6c-3.4,1.1-8.2,1.6-14.4,1.6c-16.5,0-29.1-4.1-37.8-12.1c-8.7-8.1-13-19-13-32.6
			c0-12.9,3.1-24.1,9.3-33.8c6.2-9.6,15-16.7,26.4-21.3c11.4-4.6,38-10.6,79.6-18c-0.3-16.2-3.8-28.4-10.7-36.4
			c-8.7-10.1-21.1-15.1-37.2-15.1c-6.1,0-11.9,0.8-17.2,2.3c-5.4,1.5-10.3,3.8-14.9,6.8c-3.7,9.1-7.1,17.9-10.2,26.3L1876.6,5713.4z
			 M1977.6,5743.9c-35.5,7.6-58.1,14.8-67.6,21.5c-9.6,6.7-14.4,17-14.4,31.1c0,9.4,2.7,17,8.2,22.7c5.5,5.7,12.6,8.5,21.3,8.5
			c9.6,0,18.7-2.7,27.5-8c8.7-5.4,17.1-13.3,25-23.9l-0.4-42.4L1977.6,5743.9z"/>
		<path d="M2115,5697.7l25.1-22c5.9-5.5,11.7-9.3,17.3-11.3c5.7-2,12.6-3.1,20.6-3.1c14.2,0,26.5,2.8,36.9,8.5
			c10.4,5.7,17.6,13,21.7,21.8c4,8.9,6,24,6,45.3l-1.1,56.7c0,12.8,0.5,22.9,1.5,30.3c0.4,3.1,1.4,5.4,3.2,6.9s5.5,2.6,11.2,3.1
			l14.6,1.5v11.1c-12.4-0.9-24.5-1.3-36.2-1.3c-10.1,0-20.1,0.4-30.1,1.3c2.3-32.1,3.4-63.6,3.4-94.7c0-20.8-1.3-34.9-3.9-42.3
			c-2.6-7.4-7.3-13.3-14.1-17.6c-6.8-4.3-15.3-6.5-25.7-6.5c-10.6,0-20.2,2.5-28.9,7.6c-8.7,5-14.7,10.9-18,17.5
			c-2.3,4.7-3.4,16-3.4,33.7v33.3c0,30.4,0.7,47.2,2.1,50.4c1.4,3.2,6.5,5.2,15.3,5.9l16.7,1.5v11.1c-19.9-0.9-36-1.3-48.1-1.3
			c-12.6,0-29.2,0.4-49.6,1.3v-11.1l12.1-1.5c7.5-0.9,12.3-1.9,14.2-3.2c1.9-1.2,3.2-4,3.8-8.3c0.9-6.9,1.3-22.3,1.3-46.3v-129.2
			c0-34.1-0.9-53.2-2.7-57.3c-1.1-2.8-6.3-4.2-15.5-4.2h-13.2v-11.7c19.8-2,35.6-4.9,47.5-8.6l15.7-5.4c2,0,3.1,1.3,3.1,4l-0.6,7.8
			l-1.1,34.4c-0.6,17.3-1,30.8-1,40.4V5697.7z"/>
		<path d="M2301.2,5713.4l0.2-12.8l-0.2-13.2l20.9-11.9c9.5-5.4,17.7-9.1,24.8-11.1c7.1-2,14.7-3.1,22.7-3.1
			c17.6,0,31.8,4,42.6,11.9c10.8,7.9,17.3,18,19.5,30.2c1.5,9.2,2.5,32,2.9,68.3c0.3,34.3,1,53.3,2.3,56.9c1.3,3.6,4.5,5.4,9.6,5.4
			h14.9v12.6c-14.6-0.9-24.7-1.3-30.5-1.3c-7.2,0-16.7,0.4-28.7,1.3l0.2-17c0-5.5-0.1-11-0.2-16.7l-39.7,30.3
			c-3.6,2.7-7.1,4.6-10.5,5.6c-3.4,1.1-8.2,1.6-14.4,1.6c-16.5,0-29.1-4.1-37.8-12.1c-8.7-8.1-13-19-13-32.6
			c0-12.9,3.1-24.1,9.3-33.8c6.2-9.6,15-16.7,26.4-21.3c11.4-4.6,38-10.6,79.6-18c-0.3-16.2-3.8-28.4-10.7-36.4
			c-8.7-10.1-21.1-15.1-37.2-15.1c-6.1,0-11.9,0.8-17.2,2.3c-5.4,1.5-10.3,3.8-14.9,6.8c-3.7,9.1-7.1,17.9-10.2,26.3L2301.2,5713.4z
			 M2402.2,5743.9c-35.5,7.6-58.1,14.8-67.6,21.5c-9.6,6.7-14.4,17-14.4,31.1c0,9.4,2.7,17,8.2,22.7c5.5,5.7,12.6,8.5,21.3,8.5
			c9.6,0,18.7-2.7,27.5-8c8.7-5.4,17.1-13.3,25-23.9l-0.4-42.4L2402.2,5743.9z"/>
		<path d="M2577,5710.1c0-42,13.5-75.9,40.7-101.6c27.1-25.7,63.2-38.5,108.3-38.5c44.2,0,78.9,11.9,104,35.7
			c25.1,23.8,37.7,55.5,37.7,95c0,42.5-14.6,78.1-43.7,106.7c-29.1,28.6-65.9,42.9-110.3,42.9c-27.7,0-51.6-5.6-71.7-16.9
			c-20.1-11.2-35.9-27.7-47.6-49.2C2582.8,5762.7,2577,5738,2577,5710.1z M2615.9,5694.4c0,28.9,5,54,14.9,75.4
			c9.9,21.4,23.2,37.4,39.8,48.1c16.6,10.7,35.6,16,57,16c19.8,0,37.1-4.5,52-13.6c14.8-9.1,26.5-22.6,35-40.6s12.8-39.9,12.8-65.7
			c0-27.1-4.7-50.2-14.1-69.5c-9.4-19.2-22.3-33.7-38.6-43.4c-16.4-9.7-35.7-14.6-58.1-14.6c-20.5,0-38.1,4.3-52.9,12.8
			c-14.8,8.6-26.5,21.1-34.9,37.7C2620.1,5653.6,2615.9,5672.7,2615.9,5694.4z"/>
		<path d="M2947.6,5694.6v74.5c0,35.8,1.1,55.8,3.2,60s8.5,6.3,19.3,6.3h16.9v11.1c-21-0.9-36-1.3-45.1-1.3l-60.7,1.3v-11.1h12.8
			c10,0,15.8-2,17.6-5.9c2.4-5.4,3.6-25.5,3.6-60.4v-74.5l-27.6,1.7v-8c9.1-4.4,18.3-9.1,27.6-14.1v-24.4c0-12.4,1.7-22.5,5.1-30.3
			c3.4-7.8,10.2-17,20.5-27.6c13.6-14.2,24.1-23.5,31.7-27.8c5-2.9,11.3-4.4,18.8-4.4c5,0,10.6,0.8,16.7,2.5
			c-0.4,6.5-0.6,11.8-0.6,15.7c0,4,0.2,9.4,0.6,16.3l-4.8,2.1c-7.5-6.6-16.2-10-25.9-10c-10.7,0-18.4,3.6-22.9,10.9
			c-4.5,7.3-6.8,25.1-6.8,53.4v25.5c20.7-0.1,37.6-0.8,50.8-1.9l1.3,1.9l-3.1,18.4l-23.6-0.6
			C2967.3,5694,2958.8,5694.2,2947.6,5694.6z"/>
		<path d="M3192.5,5716.3v47l0.2,27.1c0,16.9,0.2,29.2,0.6,37c18.7,1.4,38.7,2.1,60.1,2.1c14.3,0,26.4-0.6,36.1-1.9
			c6.3-0.8,12.9-2.4,20-5c3.2-11.2,6.5-25.3,9.8-42.2h12.6c-3.4,28.1-5.2,46.8-5.2,56.1l0.4,8.7c-14.7,1.3-29.1,1.9-43.3,1.9
			l-30.1-0.6c-33.2-0.9-57.6-1.3-73.2-1.3c-14.9,0-34.8,0.4-59.6,1.3v-12.1h5.9c11.1,0,18.1-1.1,21-3.3c2.9-2.2,4.8-7.3,5.7-15.3
			c1-8,1.4-25.8,1.4-53.3v-105.2c0-17.2-0.4-31.4-1.2-42.3c-0.8-11-1.7-17.5-2.7-19.6c-1-2.1-2.3-3.7-4.1-4.9
			c-1.8-1.1-7.3-2.2-16.5-3.1l-14.8-1.5v-12.1h20.7l20.3,0.7c11.4,0.4,20,0.7,25.9,0.7l73.6-1.1l34.9-0.2c11.9-0.1,23.9,0.3,36,1.3
			c-4.9,15.2-7.5,34.9-8,59.2h-13c0-14.1-0.7-25.7-2.1-35.1c-15.1-5.6-33.6-8.4-55.6-8.4c-17.5,0-35.8,0.8-55,2.3
			c0.1,12,0,24-0.4,36l-0.4,29.5v38.8c12.6,0.9,23.8,1.3,33.5,1.3c30.4,0,47.6-1.1,51.6-3.2c4-2.1,6-8.7,6-19.6v-12.5h13
			c-0.9,19.3-1.3,34.7-1.3,46.2c0,12.1,0.4,26.4,1.3,42.9h-13v-11.1c0-12.3-2.4-19.8-7.2-22.5c-4.8-2.7-21.7-4.1-50.7-4.1
			C3215.1,5714.9,3204,5715.4,3192.5,5716.3z"/>
		<path d="M3419,5695.6l25.7-23c4.1-3.7,8.4-6.3,13-7.9c6.6-2.3,13.2-3.5,19.7-3.5c14.4,0,26,2.6,34.8,7.8
			c8.7,5.2,16.8,14.5,24,27.9l24.8-22.6c4.2-3.8,9.4-6.8,15.5-8.8c8.1-2.8,15.9-4.2,23.4-4.2c11.5,0,21.9,2.7,31.3,8.1
			c9.3,5.4,16.3,12.3,20.8,20.9s6.8,20.2,6.8,34.9l-0.8,75c0,16.8,1,26.6,2.9,29.6c1.9,3,6.9,4.7,14.8,5.1l14.1,0.6v11.1l-9.2-0.4
			c-14.9-0.6-25-0.9-30.3-0.9c-8.1,0-17.5,0.4-28.3,1.3c1.8-23.6,2.7-51.3,2.7-82.9c0-26.7-1.1-44.3-3.4-52.7s-6.7-15-13.2-19.8
			c-6.5-4.8-14.7-7.2-24.5-7.2c-11.1,0-20.6,3-28.5,9c-7.9,6-12.8,13.2-14.7,21.6c-1.3,5.3-1.9,28-1.9,68.2
			c0,23.6,0.2,37.1,0.6,40.4c0.4,3.3,1.4,5.6,3.2,7s7.2,2.6,16.6,3.6l12.8,1.6v11.1c-22.6-0.9-39.2-1.3-49.8-1.3
			c-8.4,0-24.8,0.4-49.1,1.3v-11.1h12.8c7.7,0,12.6-1.1,14.9-3.3s3.6-7.3,4-15.4c1-21,1.5-42.8,1.5-65.6c0-20.3-1.4-34.4-4.1-42.1
			c-2.7-7.7-7.4-13.8-14-18.3c-6.6-4.5-14.5-6.7-23.7-6.7c-9.8,0-18.8,2.8-26.8,8.3c-8,5.5-13.5,12.2-16.5,20
			c-1.9,5.4-2.9,20.6-2.9,45.7c0,27.5,0.3,47.7,0.8,60.6c0.3,6,1.2,9.9,2.9,11.5c1.7,1.7,7.2,2.9,16.5,3.8l13.2,1.5v11.1
			c-16-0.9-31-1.3-45.2-1.3c-16.1,0-33.6,0.4-52.5,1.3v-11.1h14.6c8.3,0,13.3-2.2,14.9-6.6c1.7-4.4,2.5-28.5,2.5-72.1
			c0-32-0.2-50.9-0.6-56.7s-1.5-9.4-3.3-11c-1.8-1.5-7.2-2.3-16.3-2.3h-11.9v-10.5c18.8-2.6,34.9-6.1,48.5-10.5l14-5.4
			c2.3,0,3.4,1.5,3.4,4.6l-0.4,6.9C3419,5678.9,3418.8,5686.8,3419,5695.6z"/>
		<path d="M3764.3,5660.5l4.6,2.9c-0.9,9.6-1.5,20.1-1.7,31.6c-0.9,37.3-1.3,64.8-1.3,82.6c0,16.6,0.6,30.8,1.7,42.5
			c0.5,4.6,1.7,7.8,3.6,9.6c1.9,1.8,6.5,3.1,13.8,4l13,1.7v11.1c-18.7-0.9-35.6-1.3-51-1.3c-15.1,0-30.3,0.4-45.6,1.3v-11.1
			l16.5-1.7c6.4-0.5,10.3-1.7,11.8-3.6c1.5-1.9,2.4-8,2.8-18.5c0.6-16.3,1-38.7,1-67.2c0-19.9-0.3-35.2-1-45.9
			c-0.3-4-1.4-6.8-3.4-8.5c-2-1.7-6.4-2.5-13.3-2.5h-14.4v-11.1c15.6-2.3,27-4.4,34.4-6.2C3743.2,5668.3,3752.7,5665,3764.3,5660.5z
			 M3749,5575.6c5.9,0,10.9,2.1,15.1,6.4c4.2,4.3,6.3,9.4,6.3,15.4c0,6-2.1,11.1-6.3,15.3s-9.3,6.3-15.1,6.3c-6,0-11.1-2.1-15.3-6.3
			c-4.2-4.2-6.3-9.3-6.3-15.3c0-6,2.1-11.1,6.3-15.4C3737.8,5577.8,3742.9,5575.6,3749,5575.6z"/>
		<path d="M3878.5,5704.8c5.1-4.9,10.7-11.2,16.7-19.2c7.2-9.3,13.8-15.7,20-19.2c6.1-3.4,12.6-5.2,19.4-5.2c7,0,12.4,0.8,16.1,2.5
			c1.8,0.8,2.7,2,2.7,3.6l-0.2,1.9c-2,10.3-3.2,24.8-3.4,43.5h-8.6c-2.9-6.5-6.4-11.1-10.4-13.8c-4-2.7-8.8-4-14.4-4
			c-7.5,0-14.5,2.6-20.9,7.7c-6.4,5.1-10.7,12.2-12.9,21.4c-2.2,9.2-3.2,27.2-3.2,54.2c0,17.7,0.7,32.7,2.1,44.8
			c0.5,4.5,1.8,7.3,3.8,8.4c4.9,2.7,12,4,21.5,4h11.5v11.1c-19.5-0.9-38.1-1.3-55.6-1.3c-17,0-33.8,0.4-50.4,1.3v-11.1l18.4-1.5
			c6.5-0.5,10.6-1.7,12.4-3.6c1.7-1.9,2.8-8.1,3.4-18.6c0.9-18.4,1.3-40.2,1.3-65.5c0-30.8-1.2-48.9-3.6-54.2
			c-1.7-3.4-6.9-5.2-15.7-5.2h-16.1v-11.1c12.4-1.4,23.4-3.2,33.2-5.5c9.7-2.2,18.3-5.1,25.9-8.5c1.8-0.9,3.3-1.3,4.4-1.3
			c1.4,0,2.4,0.4,2.9,1.2c0.5,0.8,0.8,2.5,0.8,5.2L3878.5,5704.8z"/>
		<path d="M3988.3,5713.4l0.2-12.8l-0.2-13.2l20.9-11.9c9.5-5.4,17.7-9.1,24.8-11.1c7.1-2,14.7-3.1,22.7-3.1
			c17.6,0,31.8,4,42.6,11.9c10.8,7.9,17.3,18,19.4,30.2c1.5,9.2,2.5,32,2.9,68.3c0.3,34.3,1,53.3,2.3,56.9c1.3,3.6,4.5,5.4,9.6,5.4
			h14.9v12.6c-14.6-0.9-24.7-1.3-30.5-1.3c-7.2,0-16.7,0.4-28.7,1.3l0.2-17c0-5.5-0.1-11-0.2-16.7l-39.7,30.3
			c-3.6,2.7-7.1,4.6-10.5,5.6c-3.4,1.1-8.2,1.6-14.4,1.6c-16.5,0-29.1-4.1-37.8-12.1c-8.7-8.1-13-19-13-32.6
			c0-12.9,3.1-24.1,9.3-33.8c6.2-9.6,15-16.7,26.4-21.3c11.4-4.6,38-10.6,79.6-18c-0.3-16.2-3.8-28.4-10.7-36.4
			c-8.7-10.1-21.1-15.1-37.2-15.1c-6.1,0-11.9,0.8-17.2,2.3c-5.4,1.5-10.3,3.8-14.9,6.8c-3.7,9.1-7.1,17.9-10.2,26.3L3988.3,5713.4z
			 M4089.3,5743.9c-35.5,7.6-58.1,14.8-67.6,21.5c-9.6,6.7-14.4,17-14.4,31.1c0,9.4,2.7,17,8.2,22.7c5.5,5.7,12.6,8.5,21.3,8.5
			c9.6,0,18.7-2.7,27.5-8c8.7-5.4,17.1-13.3,25-23.9l-0.4-42.4L4089.3,5743.9z"/>
		<path d="M4228.4,5696v75.2c0,19.6,0.6,32.1,1.9,37.6c1.3,5.5,3.9,9.8,7.8,12.9c3.9,3.1,8.8,4.6,14.9,4.6c3.7,0,7.3-0.7,10.8-2.2
			c3.5-1.5,7-3.7,10.4-6.6l5.6,6.7l-18.7,21.9c-4.1,1.4-8.1,2.5-11.9,3.3s-7.6,1.1-11.2,1.1c-9.5,0-17.5-1.7-24.1-5.1
			c-6.5-3.4-11.3-7.8-14.2-13.2c-3-5.4-4.4-13.6-4.4-24.6l0.8-37v-72.8c-9.8,0-20,0.4-30.5,1.3v-8.2c11-4.2,21.1-8.6,30.5-13.2
			c-0.1-18.3-0.6-38.1-1.5-59.4c14.9-6.3,25.6-11.3,32.2-15.1l5,3.8c-1,10-2.1,33.5-3.3,70.7c15.6,0,28.3-0.2,38.1-0.6l15.3-0.8
			l-2.1,19.7l-7.9-0.2l-36.8,0.2H4228.4z"/>
		<path d="M4332.6,5753.8c0.6,25.2,7.1,44.3,19.3,57.3c12.2,13,28.3,19.5,48.2,19.5c8.9,0,17.8-1.5,26.6-4.4
			c8.8-2.9,17.5-7.3,26.2-13.2l3.3,2.9l-6.1,16.1c-10.6,6.1-21.5,10.7-32.8,13.8c-11.2,3.1-22.8,4.6-34.7,4.6
			c-25.9,0-46.9-8.2-62.8-24.6c-15.9-16.4-23.9-38.7-23.9-66.8c0-21.5,4.5-40,13.4-55.8c5.9-10.3,16.7-19.9,32.6-28.7
			c15.8-8.8,31.2-13.2,46.2-13.2c22.6,0,40.5,6.6,53.8,19.9c13.2,13.3,19.8,31.9,19.8,55.8l-0.4,11.3c-8.4,2-16.5,3.4-24.1,4
			c-13.7,1-32.6,1.5-56.8,1.5H4332.6z M4333,5739.4c19.8,0.9,41.6,1.3,65.5,1.3c9.6,0,18.8-0.4,27.8-1.3v-10.7
			c0-11.2-2.2-21.9-6.7-32c-2.8-6.3-7.7-11.5-14.8-15.6c-7-4.1-15.1-6.2-24.3-6.2c-14.3,0-25.7,5.2-34.3,15.7
			C4337.7,5701.1,4333.3,5717.3,4333,5739.4z"/>
		<path d="M4502.2,5787.9v12.5c0,10,0.9,16.2,2.7,18.7c3.3,4.1,9.8,8.1,19.5,11.9c9.6,3.8,19.6,5.8,29.8,5.8
			c13.2,0,23.9-3.5,32.2-10.6c8.3-7.1,12.5-15.6,12.5-25.4c0-7.8-2.4-14.1-7.3-18.8c-4.9-4.7-14.1-8.5-27.8-11.3
			c-25.4-5.1-42.2-9.6-50.4-13.4c-8.2-3.8-14.3-9-18.4-15.3c-4.1-6.4-6.1-14.1-6.1-23.2c0-17,6.2-30.8,18.5-41.4
			s29.8-15.9,52.5-15.9c17.9,0,35.8,3.6,53.5,10.7c-1.1,8.7-2,23.3-2.7,43.7h-11.5c-0.3-11.2-1.5-18.7-3.6-22.2
			c-2.9-4.7-8.3-9-16.1-12.8c-7.8-3.8-16.1-5.7-24.9-5.7c-11.6,0-20.9,3-27.8,8.9c-6.9,5.9-10.4,13.4-10.4,22.4
			c0,8.6,2.7,15,8.2,19.4c5.5,4.5,20.7,9.2,45.6,14.2c18.4,3.7,30.5,7.2,36.4,10.4c5.9,3.2,10.6,8,14.2,14.6
			c3.6,6.5,5.4,14,5.4,22.4c0,17.2-7.4,32.1-22.1,44.6c-14.8,12.5-34.5,18.8-59.1,18.8c-15.7,0-33.3-2.5-52.9-7.4
			c-3.4-0.9-5.2-2.2-5.2-4l0.6-2.7c0.5-1.9,1-5.3,1.3-10.2c1.2-12.4,1.7-22.1,1.7-29l-0.2-9.2H4502.2z"/>
		<path d="M4878,5591.3c-1.4,19.2-2.1,39.3-2.1,60.6v109.2c0,40.6,1,63,3.1,67.2c2,4.2,9.3,6.2,21.8,6.2h14.4v12.1
			c-22.6-0.9-41.8-1.3-57.5-1.3c-15.8,0-34.9,0.4-57.1,1.3v-12.1h16.1c8.4,0,13.9-1.1,16.5-3.4c2.6-2.2,4.2-6.6,4.8-13.1
			c1.3-14.9,1.9-34.2,1.9-57.9v-109.4c0-21.6-0.4-41.4-1.3-59.4H4819c-31.5,0-48.8,0.7-52,2.2c-3.2,1.5-5.3,7.2-6.3,17.2l-2.7,25.7
			H4746l0.4-22.8c0-9.2-0.8-22.4-2.3-39.7c69,0.9,109.5,1.3,121.7,1.3l106-1.3c-2.4,21.6-3.8,42.4-4.2,62.5h-12.1l-1.9-25.1
			c-0.8-8.7-1.9-13.8-3.3-15.4c-1.4-1.6-4.5-2.6-9.4-3c-14.1-1-30-1.5-47.9-1.5H4878z"/>
		<path d="M5050.7,5704.8c5.1-4.9,10.7-11.2,16.7-19.2c7.2-9.3,13.8-15.7,20-19.2c6.1-3.4,12.6-5.2,19.4-5.2c7,0,12.4,0.8,16.1,2.5
			c1.8,0.8,2.7,2,2.7,3.6l-0.2,1.9c-2,10.3-3.2,24.8-3.4,43.5h-8.6c-2.9-6.5-6.4-11.1-10.4-13.8c-4-2.7-8.8-4-14.4-4
			c-7.5,0-14.5,2.6-20.9,7.7c-6.4,5.1-10.7,12.2-12.9,21.4c-2.2,9.2-3.2,27.2-3.2,54.2c0,17.7,0.7,32.7,2.1,44.8
			c0.5,4.5,1.8,7.3,3.8,8.4c4.9,2.7,12,4,21.5,4h11.5v11.1c-19.5-0.9-38.1-1.3-55.6-1.3c-17,0-33.8,0.4-50.4,1.3v-11.1l18.4-1.5
			c6.5-0.5,10.6-1.7,12.4-3.6c1.7-1.9,2.8-8.1,3.4-18.6c0.9-18.4,1.3-40.2,1.3-65.5c0-30.8-1.2-48.9-3.6-54.2
			c-1.7-3.4-6.9-5.2-15.7-5.2h-16.1v-11.1c12.4-1.4,23.4-3.2,33.2-5.5c9.7-2.2,18.3-5.1,25.9-8.5c1.8-0.9,3.3-1.3,4.4-1.3
			c1.4,0,2.4,0.4,2.9,1.2c0.5,0.8,0.8,2.5,0.8,5.2L5050.7,5704.8z"/>
		<path d="M5160.5,5713.4l0.2-12.8l-0.2-13.2l20.9-11.9c9.5-5.4,17.7-9.1,24.8-11.1c7.1-2,14.7-3.1,22.7-3.1
			c17.6,0,31.8,4,42.6,11.9c10.8,7.9,17.3,18,19.4,30.2c1.5,9.2,2.5,32,2.9,68.3c0.3,34.3,1,53.3,2.3,56.9c1.3,3.6,4.5,5.4,9.6,5.4
			h14.9v12.6c-14.6-0.9-24.7-1.3-30.5-1.3c-7.2,0-16.7,0.4-28.7,1.3l0.2-17c0-5.5-0.1-11-0.2-16.7l-39.7,30.3
			c-3.6,2.7-7.1,4.6-10.5,5.6c-3.4,1.1-8.2,1.6-14.4,1.6c-16.5,0-29.1-4.1-37.8-12.1c-8.7-8.1-13-19-13-32.6
			c0-12.9,3.1-24.1,9.3-33.8c6.2-9.6,15-16.7,26.4-21.3c11.4-4.6,38-10.6,79.6-18c-0.3-16.2-3.8-28.4-10.7-36.4
			c-8.7-10.1-21.1-15.1-37.2-15.1c-6.1,0-11.9,0.8-17.2,2.3c-5.4,1.5-10.3,3.8-14.9,6.8c-3.7,9.1-7.1,17.9-10.2,26.3L5160.5,5713.4z
			 M5261.5,5743.9c-35.5,7.6-58.1,14.8-67.6,21.5c-9.6,6.7-14.4,17-14.4,31.1c0,9.4,2.7,17,8.2,22.7c5.5,5.7,12.6,8.5,21.3,8.5
			c9.6,0,18.7-2.7,27.5-8c8.7-5.4,17.1-13.3,25-23.9l-0.4-42.4L5261.5,5743.9z"/>
		<path d="M5398.5,5697.9l29-25.7c3.5-3.1,7.1-5.3,10.9-6.7c8.4-2.8,16.9-4.2,25.3-4.2c13.7,0,25.5,2.8,35.5,8.3
			c10,5.6,17.1,12.8,21.5,21.7c4.3,8.9,6.5,22.8,6.5,41.7l-0.8,60.4c0,20.8,0.9,32.8,2.7,36c2.4,4.1,7.1,6.1,14.1,6.1h13.7v11.1
			c-13.6-0.9-25.4-1.3-35.3-1.3c-9.7,0-20.1,0.4-31.1,1.3c2.4-24.9,3.6-58.6,3.6-101c0-17.1-1.5-29.3-4.5-36.4
			c-3-7.2-8.1-12.9-15.2-17.2c-7.1-4.3-15.7-6.5-25.6-6.5c-12.4,0-22.9,3.1-31.6,9.4c-8.6,6.3-14,13.2-16,20.7
			c-1.3,5-1.9,18-1.9,39.1c0,23.4,0.2,45.1,0.6,65.2c0.1,6,1,9.8,2.7,11.3c3.2,2.9,8.5,4.4,15.8,4.4h13.7v11.1
			c-21.6-0.9-38.8-1.3-51.6-1.3c-13.6,0-29,0.4-46.3,1.3v-11.1h13.8c9.5,0,15-2.2,16.6-6.6c1.6-4.4,2.4-30.9,2.4-79.5
			c0-21.8-0.3-38.9-0.8-51.3c-0.3-4.1-1.3-6.9-3.1-8.4c-1.8-1.5-6.8-2.3-15.1-2.3h-13.8v-11.1c11-1.3,20.8-3,29.4-5.2
			c8.7-2.2,18.4-5.5,29.2-10c1.1-0.5,2.2-0.8,3.2-0.8c2,0,3.1,1.5,3.1,4.4l-0.2,7.3L5398.5,5697.9z"/>
		<path d="M5586.8,5787.9v12.5c0,10,0.9,16.2,2.7,18.7c3.3,4.1,9.8,8.1,19.5,11.9c9.6,3.8,19.6,5.8,29.8,5.8
			c13.2,0,23.9-3.5,32.2-10.6c8.3-7.1,12.5-15.6,12.5-25.4c0-7.8-2.4-14.1-7.3-18.8c-4.9-4.7-14.1-8.5-27.8-11.3
			c-25.4-5.1-42.2-9.6-50.4-13.4c-8.2-3.8-14.3-9-18.4-15.3c-4.1-6.4-6.1-14.1-6.1-23.2c0-17,6.2-30.8,18.5-41.4
			s29.8-15.9,52.5-15.9c17.9,0,35.8,3.6,53.5,10.7c-1.1,8.7-2,23.3-2.7,43.7h-11.5c-0.3-11.2-1.5-18.7-3.6-22.2
			c-2.9-4.7-8.3-9-16.1-12.8c-7.8-3.8-16.1-5.7-24.9-5.7c-11.6,0-20.9,3-27.8,8.9c-6.9,5.9-10.4,13.4-10.4,22.4
			c0,8.6,2.7,15,8.2,19.4c5.5,4.5,20.7,9.2,45.6,14.2c18.4,3.7,30.5,7.2,36.4,10.4c5.9,3.2,10.6,8,14.2,14.6
			c3.6,6.5,5.4,14,5.4,22.4c0,17.2-7.4,32.1-22.1,44.6c-14.8,12.5-34.5,18.8-59.1,18.8c-15.7,0-33.3-2.5-52.9-7.4
			c-3.4-0.9-5.2-2.2-5.2-4l0.6-2.7c0.5-1.9,1-5.3,1.3-10.2c1.2-12.4,1.7-22.1,1.7-29l-0.2-9.2H5586.8z"/>
		<path d="M5798.4,5700l26.8-23.8c6.8-6,12.5-9.8,17.2-11.3c7.5-2.4,16.3-3.6,26.4-3.6c22.7,0,41.1,7,55.1,21.1
			c14,14.1,21.1,32.2,21.1,54.4c0,11.1-1.6,22.1-4.8,32.9c-3.2,10.8-7.1,19.6-11.7,26.4c-4.6,6.8-9.8,12.6-15.5,17.2
			c-1.9,1.5-9.7,6.6-23.3,15.1l-7.7,5.6c-9.7,6.8-17.5,11.2-23.4,13.3c-5.9,2.1-12.7,3.2-20.4,3.2c-6,0-12.3-0.9-18.9-2.6
			c-6.6-1.7-13.6-4.2-20.9-7.6v27c0,27.7,0.4,47.3,1.2,58.6c0.4,5,2,8.6,4.8,10.8c2.8,2.2,8.7,3.4,17.8,3.4h10.3v10.7
			c-24.2-0.9-41.9-1.3-53.2-1.3c-12.4,0-28.2,0.4-47.4,1.3v-10.7h14c9.8,0,15.6-2.1,17.4-6.3c1.8-4.2,2.7-26.7,2.7-67.5v-117.7
			c0-20.4-0.5-36.2-1.5-47.3c-0.5-5.4-1.8-8.9-3.7-10.6c-2-1.7-6.6-2.6-13.9-2.6h-14.9v-11.9c17.8-1.9,35.3-5.6,52.5-10.9l11.7-4.6
			c2,0,3.1,1.8,3.1,5.4l-0.6,20.3L5798.4,5700z M5798.4,5805.4c8.2,9.2,16.3,15.7,24.5,19.5c8.2,3.8,17,5.7,26.4,5.7
			c20.2,0,35.6-7.6,46.3-22.8c10.7-15.2,16.1-33.3,16.1-54.2c0-14.1-2.5-26.1-7.4-36.1c-4.9-10-12.1-17.9-21.5-23.6
			c-9.4-5.7-19.6-8.5-30.4-8.5c-7.7,0-15.1,1.5-22.5,4.6c-7.3,3.1-13.7,7.3-19.2,12.7c-5.5,5.4-9,10.4-10.5,15
			c-1.1,3.4-1.7,12.6-1.7,27.4V5805.4z"/>
		<path d="M5973.7,5754.6c0-17.6,4.1-33.6,12.3-47.8c8.2-14.2,19.6-25.4,34.4-33.4c14.8-8,31.5-12.1,50.3-12.1
			c27.2,0,49,8,65.3,24.1c16.4,16.1,24.5,37.6,24.5,64.4c0,31.7-10.7,56.8-32,75.5c-19,16.7-41.8,25.1-68.4,25.1
			c-25.6,0-46.3-8.6-62.4-25.8C5981.7,5807.4,5973.7,5784.1,5973.7,5754.6z M6009.8,5741.1c0,26.3,5.4,48.9,16.2,67.6
			c10.8,18.7,26.3,28.1,46.7,28.1c15.5,0,27.9-5.9,37.5-17.7c9.5-11.8,14.3-29.6,14.3-53.5c0-19.3-2.8-36-8.4-50.2
			c-5.6-14.1-13-24.4-22.2-30.9c-9.2-6.5-19.5-9.7-30.9-9.7c-10.1,0-19.2,2.6-27.3,7.7c-8.1,5.1-14.1,12-17.9,20.5
			C6012.4,5714.7,6009.8,5727.4,6009.8,5741.1z"/>
		<path d="M6246.8,5704.8c5.1-4.9,10.7-11.2,16.7-19.2c7.2-9.3,13.8-15.7,20-19.2c6.1-3.4,12.6-5.2,19.4-5.2c7,0,12.4,0.8,16.1,2.5
			c1.8,0.8,2.7,2,2.7,3.6l-0.2,1.9c-2,10.3-3.2,24.8-3.4,43.5h-8.6c-2.9-6.5-6.4-11.1-10.4-13.8c-4-2.7-8.8-4-14.4-4
			c-7.5,0-14.5,2.6-20.9,7.7c-6.4,5.1-10.7,12.2-12.9,21.4c-2.2,9.2-3.2,27.2-3.2,54.2c0,17.7,0.7,32.7,2.1,44.8
			c0.5,4.5,1.8,7.3,3.8,8.4c4.9,2.7,12,4,21.5,4h11.5v11.1c-19.5-0.9-38.1-1.3-55.6-1.3c-17,0-33.8,0.4-50.4,1.3v-11.1l18.4-1.5
			c6.5-0.5,10.6-1.7,12.4-3.6c1.7-1.9,2.8-8.1,3.4-18.6c0.9-18.4,1.3-40.2,1.3-65.5c0-30.8-1.2-48.9-3.6-54.2
			c-1.7-3.4-6.9-5.2-15.7-5.2h-16.1v-11.1c12.4-1.4,23.4-3.2,33.2-5.5c9.7-2.2,18.3-5.1,25.9-8.5c1.8-0.9,3.3-1.3,4.4-1.3
			c1.4,0,2.4,0.4,2.9,1.2c0.5,0.8,0.8,2.5,0.8,5.2L6246.8,5704.8z"/>
		<path d="M6400.5,5696v75.2c0,19.6,0.6,32.1,1.9,37.6c1.3,5.5,3.9,9.8,7.8,12.9c3.9,3.1,8.8,4.6,14.9,4.6c3.7,0,7.3-0.7,10.8-2.2
			c3.5-1.5,7-3.7,10.4-6.6l5.6,6.7l-18.7,21.9c-4.1,1.4-8.1,2.5-11.9,3.3s-7.6,1.1-11.2,1.1c-9.5,0-17.5-1.7-24.1-5.1
			c-6.5-3.4-11.3-7.8-14.2-13.2c-3-5.4-4.4-13.6-4.4-24.6l0.8-37v-72.8c-9.8,0-20,0.4-30.5,1.3v-8.2c11-4.2,21.1-8.6,30.5-13.2
			c-0.1-18.3-0.6-38.1-1.5-59.4c14.9-6.3,25.6-11.3,32.2-15.1l5,3.8c-1,10-2.1,33.5-3.3,70.7c15.6,0,28.3-0.2,38.1-0.6l15.3-0.8
			l-2.1,19.7l-7.9-0.2l-36.8,0.2H6400.5z"/>
		<path d="M6529.8,5660.5l4.6,2.9c-0.9,9.6-1.5,20.1-1.7,31.6c-0.9,37.3-1.3,64.8-1.3,82.6c0,16.6,0.6,30.8,1.7,42.5
			c0.5,4.6,1.7,7.8,3.6,9.6c1.9,1.8,6.5,3.1,13.8,4l13,1.7v11.1c-18.7-0.9-35.6-1.3-51-1.3c-15.1,0-30.3,0.4-45.6,1.3v-11.1
			l16.5-1.7c6.4-0.5,10.3-1.7,11.8-3.6c1.5-1.9,2.4-8,2.8-18.5c0.6-16.3,1-38.7,1-67.2c0-19.9-0.3-35.2-1-45.9
			c-0.3-4-1.4-6.8-3.4-8.5c-2-1.7-6.4-2.5-13.3-2.5H6467v-11.1c15.6-2.3,27-4.4,34.4-6.2C6508.7,5668.3,6518.2,5665,6529.8,5660.5z
			 M6514.5,5575.6c5.9,0,10.9,2.1,15.1,6.4c4.2,4.3,6.3,9.4,6.3,15.4c0,6-2.1,11.1-6.3,15.3s-9.3,6.3-15.1,6.3
			c-6,0-11.1-2.1-15.3-6.3s-6.3-9.3-6.3-15.3c0-6,2.1-11.1,6.3-15.4C6503.4,5577.8,6508.5,5575.6,6514.5,5575.6z"/>
		<path d="M6640.6,5697.9l29-25.7c3.5-3.1,7.1-5.3,10.9-6.7c8.4-2.8,16.9-4.2,25.3-4.2c13.7,0,25.5,2.8,35.5,8.3
			c10,5.6,17.1,12.8,21.5,21.7c4.3,8.9,6.5,22.8,6.5,41.7l-0.8,60.4c0,20.8,0.9,32.8,2.7,36c2.4,4.1,7.1,6.1,14.1,6.1h13.7v11.1
			c-13.6-0.9-25.4-1.3-35.3-1.3c-9.7,0-20.1,0.4-31.1,1.3c2.4-24.9,3.6-58.6,3.6-101c0-17.1-1.5-29.3-4.5-36.4
			c-3-7.2-8.1-12.9-15.2-17.2c-7.1-4.3-15.7-6.5-25.6-6.5c-12.4,0-22.9,3.1-31.6,9.4c-8.6,6.3-14,13.2-16,20.7
			c-1.3,5-1.9,18-1.9,39.1c0,23.4,0.2,45.1,0.6,65.2c0.1,6,1,9.8,2.7,11.3c3.2,2.9,8.5,4.4,15.8,4.4h13.7v11.1
			c-21.6-0.9-38.8-1.3-51.6-1.3c-13.6,0-29,0.4-46.3,1.3v-11.1h13.8c9.5,0,15-2.2,16.6-6.6c1.6-4.4,2.4-30.9,2.4-79.5
			c0-21.8-0.3-38.9-0.8-51.3c-0.3-4.1-1.3-6.9-3.1-8.4c-1.8-1.5-6.8-2.3-15.1-2.3h-13.8v-11.1c11-1.3,20.8-3,29.4-5.2
			c8.7-2.2,18.4-5.5,29.2-10c1.1-0.5,2.2-0.8,3.2-0.8c2,0,3.1,1.5,3.1,4.4l-0.2,7.3L6640.6,5697.9z"/>
		<path d="M6971.3,5696.9c2.9,8.2,4.4,14.9,4.4,20.2c0,11.4-3.5,22.4-10.4,32.9c-6.9,10.6-16.7,19.1-29.5,25.5
			c-12.8,6.5-26.6,9.7-41.4,9.7l-9-0.2c-8.4,6.2-13.7,10.9-16,13.9c-2.2,3.1-3.3,6-3.3,9c0,4.8,2.5,8.6,7.5,11.4
			c5,2.8,15.1,4.2,30.5,4.2c5.9,0,14.3-0.2,25.3-0.6c15.7-0.7,27.1-1.1,34.1-1.1c10.1,0,17.8,1.6,23.2,4.9c5.4,3.3,10,9,13.8,17.1
			c3.8,8.1,5.7,17.3,5.7,27.5c0,14.3-4.3,28-13,41.2c-8.7,13.1-21.3,23.6-37.9,31.6c-16.6,7.9-35.7,11.9-57.3,11.9
			c-26.3,0-46.6-5.7-60.7-17.2c-14.2-11.4-21.3-25.5-21.3-42.3c0-10.3,3.7-20.8,11.1-31.4c13.3-6.3,24.5-12.6,33.5-19
			c-10.5-3.4-17.2-6.6-20.2-9.5c-3-2.9-4.5-6.5-4.5-11c0-5.3,1.5-10.6,4.4-15.9c1.7-3.2,5.9-7.1,12.6-11.7l18.6-13.2
			c-15.3-3.8-26.4-9.3-33.1-16.3c-8.9-9.5-13.4-21.6-13.4-36.3c0-12.9,3.3-24.7,10-35.3c6.6-10.6,16.4-19,29.3-25.1
			c16.5-7.8,32.4-11.7,47.7-11.7c9.7,0,18.2,1.3,25.6,3.8c7.3,2.6,14.9,6.9,22.5,13h16.1c16.6,0,29.5-0.6,38.7-1.7l2.1,4.1
			c-3.8,5.5-7.2,11.3-10.2,17.4H6971.3z M6890,5849.3c-9.1,0-15.2,1-18.6,3.1c-10.7,6.9-17.2,12.5-19.5,16.7
			c-3.8,6.7-5.7,15-5.7,25.2c0,14,5.2,25.5,15.5,34.6c10.3,9.1,24.7,13.6,43.1,13.6c14.2,0,26.6-2.6,37.3-7.9
			c10.7-5.3,19-12.5,25-21.6c5.9-9.2,8.9-18.6,8.9-28.3c0-8.3-2.1-15.6-6.2-21.9c-4.1-6.3-9.1-10.3-14.8-12.1
			c-2.9-0.9-9.6-1.3-20.1-1.3H6890z M6942.4,5727.2c0-16-4.1-28.9-12.3-38.7c-8.2-9.7-18.5-14.6-30.9-14.6c-12.3,0-22.2,4-29.7,11.9
			s-11.2,19-11.2,33.1c0,17.1,4.1,30.4,12.2,40.1c8.1,9.7,18.3,14.5,30.6,14.5c12.3,0,22.2-4.1,29.9-12.2
			C6938.6,5753.2,6942.4,5741.8,6942.4,5727.2z"/>
		<path d="M2619.8,6177l11.7-17.4c13.2,0.6,23.4,1,30.7,1l24.1-0.6c23.8-0.6,43.5-1,59.2-1.2c-2,10.9-3.5,20.1-4.4,27.6
			c-13.7-2.2-32.1-3.6-55.2-4.4c1.5,6.6,2.3,12.3,2.3,16.9c0,10.3-2.5,21-7.4,31.8c-4.9,10.9-13.3,22.5-25.2,35.1
			c13,9.6,25.4,16.5,37.2,20.6c11.8,4.2,22.4,6.2,32,6.2c4.9,0,12.2-3.1,22-9.2l2.9,9.2c-16.1,11.5-27.4,20.3-33.9,26.3
			c-5.1,1.7-10.3,2.5-15.7,2.5c-19.5,0-42.4-10.6-68.6-31.8c-14.7,12-28,20.3-40,24.9c-12,4.6-25.2,6.9-39.5,6.9
			c-23.5,0-42.7-7.4-57.7-22.2c-14.9-14.8-22.4-33.2-22.4-55.2c0-18.7,5.5-35.2,16.5-49.6c7.5-9.8,22.1-21.4,43.7-34.7
			c-7.4-19.4-11.1-35.8-11.1-49.2c0-10.3,1.5-19.4,4.6-27c2-5.2,6-10.4,11.9-15.5c15.1-12.9,24.6-20.4,28.6-22.4
			c5.7-2.9,12.5-4.4,20.1-4.4c10.9,0,19.4,3.3,25.6,10c6.2,6.6,9.3,15.6,9.3,26.8c0,26.2-18.7,52.3-56.1,78.4
			c21,38.7,47.4,72.2,79.3,100.6c7.3-8.8,12.3-16.9,15-24.3c2.7-7.4,4.1-15.2,4.1-23.4c0-8.9-1.5-16.3-4.6-22.2
			c-1.4-2.7-3.4-4.4-6.1-5.2c-4.6-1.3-15.2-1.9-31.8-1.7L2619.8,6177z M2619.8,6279.6c-30.3-27.8-57.4-63.1-81.2-105.8
			c-12.3,8.6-20.9,17.3-25.9,26.2c-5,8.9-7.5,18.7-7.5,29.6c0,17.9,6.2,33.9,18.6,47.9c12.4,14.1,27.8,21.1,46.4,21.1
			C2586.1,6298.5,2602.7,6292.2,2619.8,6279.6z M2558.3,6142.7c23.5-18.9,35.3-37.5,35.3-55.8c0-8-2-14.5-5.9-19.3
			c-4-4.8-8.9-7.2-14.9-7.2c-7.2,0-13,2.8-17.5,8.5c-4.5,5.7-6.8,14.4-6.8,26.2C2548.3,6108.3,2551.6,6124.1,2558.3,6142.7z"/>
		<path d="M2864.9,6181.1c0-42,13.5-75.9,40.7-101.6c27.1-25.7,63.2-38.5,108.3-38.5c44.2,0,78.9,11.9,104,35.7
			c25.1,23.8,37.7,55.5,37.7,95c0,42.5-14.6,78.1-43.7,106.7c-29.1,28.6-65.9,42.9-110.3,42.9c-27.7,0-51.6-5.6-71.7-16.9
			c-20.1-11.2-35.9-27.7-47.6-49.2C2870.7,6233.6,2864.9,6208.9,2864.9,6181.1z M2903.8,6165.4c0,28.9,5,54,14.9,75.4
			c9.9,21.4,23.2,37.4,39.8,48.1c16.6,10.7,35.6,16,57,16c19.8,0,37.1-4.5,52-13.6c14.8-9.1,26.5-22.6,35-40.6s12.8-39.9,12.8-65.7
			c0-27.1-4.7-50.2-14.1-69.5c-9.4-19.2-22.3-33.7-38.6-43.4c-16.4-9.7-35.7-14.6-58.1-14.6c-20.5,0-38.1,4.3-52.9,12.8
			c-14.8,8.6-26.5,21.1-34.9,37.7C2908,6124.5,2903.8,6143.6,2903.8,6165.4z"/>
		<path d="M3237.2,6131.4l4.6,2.9c-0.9,9.6-1.5,20.1-1.7,31.6c-0.9,37.3-1.3,64.8-1.3,82.6c0,16.6,0.6,30.8,1.7,42.5
			c0.5,4.6,1.7,7.8,3.6,9.6c1.9,1.8,6.5,3.1,13.8,4l13,1.7v11.1c-18.7-0.9-35.6-1.3-51-1.3c-15.1,0-30.3,0.4-45.6,1.3v-11.1
			l16.5-1.7c6.4-0.5,10.3-1.7,11.8-3.6c1.5-1.9,2.4-8,2.8-18.5c0.6-16.3,1-38.7,1-67.2c0-19.9-0.3-35.2-1-45.9
			c-0.3-4-1.4-6.8-3.4-8.5c-2-1.7-6.4-2.5-13.3-2.5h-14.4v-11.1c15.6-2.3,27-4.4,34.4-6.2C3216.1,6139.2,3225.6,6136,3237.2,6131.4z
			 M3221.9,6046.5c5.9,0,10.9,2.1,15.1,6.4c4.2,4.3,6.3,9.4,6.3,15.4c0,6-2.1,11.1-6.3,15.3s-9.3,6.3-15.1,6.3
			c-6,0-11.1-2.1-15.3-6.3c-4.2-4.2-6.3-9.3-6.3-15.3c0-6,2.1-11.1,6.3-15.4C3210.8,6048.7,3215.9,6046.5,3221.9,6046.5z"/>
		<path d="M3355.3,6032.9c-2.2,37.4-3.3,71.3-3.3,101.6v98.5c0,39.1,0.8,61.3,2.5,66.5c0.9,2.7,5.1,4.4,12.6,5.2l16.3,1.7v11.1
			c-14-0.9-27.3-1.3-39.9-1.3c-14.1,0-32.5,0.4-55.3,1.3v-11.1l16.5-1.3c7.3-0.6,11.4-2.5,12.5-5.6c1.7-5,2.5-27.7,2.5-68v-97.9
			l-0.2-36.8l-0.6-25.1c0-6.3-0.7-10.1-2.1-11.5c-2-2-6.3-3.1-12.8-3.1h-15.7v-11.5c26.6-2.4,47.9-7.4,63.8-14.9L3355.3,6032.9z"/>
		<path d="M3573.5,6187.2v65.8c0,26.1,1.4,41.4,4.2,45.8c2.8,4.4,10,6.6,21.5,6.6h13.6v12.1c-24.3-0.9-43.6-1.3-58.1-1.3
			c-14.6,0-33.4,0.4-56.5,1.3v-12.1h15.3c11,0,17.7-2.1,20.2-6.3s3.7-19.6,3.7-46.1v-144.6c0-25.9-1.4-41-4.1-45.2
			c-2.7-4.2-9.9-6.3-21.4-6.3h-13.8v-12.1c21.2,0.9,40.3,1.3,57.3,1.3l110.2-2.1c11.5,0,22.4,0.6,32.6,1.7
			c-4.1,13.7-6.3,33-6.7,58.1h-12.3c-0.8-13.3-2.3-25.2-4.6-35.6c-17.5-4.6-35.2-6.9-53.1-6.9c-15.6,0-30.9,0.8-45.8,2.5
			c-1.5,16.6-2.3,31.7-2.3,45.2v60.9c7.7,0.4,15.2,0.6,22.6,0.6c19.2,0,36-0.5,50.4-1.5c4.9-0.3,8.1-1.3,9.9-3.2
			c1.7-1.8,3.2-6.8,4.3-14.9l1.9-14.6h12.1c-1,23.4-1.5,38.4-1.5,45l0.2,45.2h-12.6v-14.8c0-11.8-2.2-18.9-6.7-21.5
			c-4.5-2.6-21.6-3.8-51.4-3.8C3594.5,6186.6,3584.8,6186.8,3573.5,6187.2z"/>
		<path d="M3782,6131.4l4.6,2.9c-0.9,9.6-1.5,20.1-1.7,31.6c-0.9,37.3-1.3,64.8-1.3,82.6c0,16.6,0.6,30.8,1.7,42.5
			c0.5,4.6,1.7,7.8,3.6,9.6c1.9,1.8,6.5,3.1,13.8,4l13,1.7v11.1c-18.7-0.9-35.6-1.3-51-1.3c-15.1,0-30.3,0.4-45.6,1.3v-11.1
			l16.5-1.7c6.4-0.5,10.3-1.7,11.8-3.6c1.5-1.9,2.4-8,2.8-18.5c0.6-16.3,1-38.7,1-67.2c0-19.9-0.3-35.2-1-45.9
			c-0.3-4-1.4-6.8-3.4-8.5c-2-1.7-6.4-2.5-13.3-2.5h-14.4v-11.1c15.6-2.3,27-4.4,34.4-6.2C3760.9,6139.2,3770.4,6136,3782,6131.4z
			 M3766.7,6046.5c5.9,0,10.9,2.1,15.1,6.4c4.2,4.3,6.3,9.4,6.3,15.4c0,6-2.1,11.1-6.3,15.3s-9.3,6.3-15.1,6.3
			c-6,0-11.1-2.1-15.3-6.3c-4.2-4.2-6.3-9.3-6.3-15.3c0-6,2.1-11.1,6.3-15.4C3755.6,6048.7,3760.7,6046.5,3766.7,6046.5z"/>
		<path d="M3871.1,6224.8c0.6,25.2,7.1,44.3,19.3,57.3c12.2,13,28.3,19.5,48.2,19.5c8.9,0,17.8-1.5,26.6-4.4
			c8.8-2.9,17.5-7.3,26.2-13.2l3.3,2.9l-6.1,16.1c-10.6,6.1-21.5,10.7-32.8,13.8c-11.2,3.1-22.8,4.6-34.7,4.6
			c-25.9,0-46.9-8.2-62.8-24.6c-15.9-16.4-23.9-38.7-23.9-66.8c0-21.5,4.5-40,13.4-55.8c5.9-10.3,16.7-19.9,32.6-28.7
			c15.8-8.8,31.2-13.2,46.2-13.2c22.6,0,40.5,6.6,53.8,19.9c13.2,13.3,19.8,31.9,19.8,55.8l-0.4,11.3c-8.4,2-16.5,3.4-24.1,4
			c-13.7,1-32.6,1.5-56.8,1.5H3871.1z M3871.5,6210.4c19.8,0.9,41.6,1.3,65.5,1.3c9.6,0,18.8-0.4,27.8-1.3v-10.7
			c0-11.2-2.2-21.9-6.7-32c-2.8-6.3-7.7-11.5-14.8-15.6c-7-4.1-15.1-6.2-24.3-6.2c-14.3,0-25.7,5.2-34.3,15.7
			C3876.2,6172,3871.8,6188.3,3871.5,6210.4z"/>
		<path d="M4088,6032.9c-2.2,37.4-3.3,71.3-3.3,101.6v98.5c0,39.1,0.8,61.3,2.5,66.5c0.9,2.7,5.1,4.4,12.6,5.2l16.3,1.7v11.1
			c-14-0.9-27.3-1.3-39.9-1.3c-14.1,0-32.5,0.4-55.3,1.3v-11.1l16.5-1.3c7.3-0.6,11.4-2.5,12.5-5.6c1.7-5,2.5-27.7,2.5-68v-97.9
			l-0.2-36.8l-0.6-25.1c0-6.3-0.7-10.1-2.1-11.5c-2-2-6.3-3.1-12.8-3.1H4021v-11.5c26.6-2.4,47.9-7.4,63.8-14.9L4088,6032.9z"/>
		<path d="M4289.2,6143.9v-69.5c0-8.1-0.9-13.1-2.7-15.2c-1.8-2-5.9-3.1-12.3-3.1h-16.5v-11.5c22.8-1.5,44.1-6.2,63.8-14l3.5,2.3
			c-0.9,13-1.7,28.8-2.3,47.2l-0.8,51l-0.4,16.5v114.5c0,21.3,0.6,33.2,1.9,35.7c1.9,3.5,7.2,5.8,15.9,6.9l13.6,1.7v11.1
			c-15.8-1.2-29.7-1.7-41.7-1.7c-2.2,0-10.3,0.6-24.2,1.7c0.9-8.6,1.6-20.9,2.1-36.8c-10.8,8.4-24.7,20.2-41.5,35.3
			c-10.8,3.6-20.4,5.3-28.7,5.3c-21.6,0-39.6-8.1-54.2-24.3c-14.5-16.2-21.8-37.9-21.8-65.2c0-17,2.8-31.5,8.4-43.5
			c5.6-12,12.3-20.7,20.1-26.2c7.8-5.4,19.9-12.3,36.4-20.6c12.6-6.3,24.3-9.4,35-9.4c7.3,0,14.8,1,22.5,2.9
			C4273.1,6137,4281.1,6139.9,4289.2,6143.9z M4289.2,6176.9c-8.8-9.5-18-16.6-27.5-21.3c-9.5-4.7-19.4-7.1-29.7-7.1
			c-16.7,0-30.2,6.1-40.4,18.3s-15.3,30.1-15.3,53.6c0,23.9,5.8,42.7,17.5,56.3c11.7,13.6,25.9,20.4,42.6,20.4
			c10.2,0,19.6-2.8,28.1-8.5c8.5-5.7,14.8-13.1,18.7-22.2c4-9.1,5.9-23.3,5.9-42.8V6176.9z"/>
		<path d="M4394.6,6258.9v12.5c0,10,0.9,16.2,2.7,18.7c3.3,4.1,9.8,8.1,19.5,11.9c9.6,3.8,19.6,5.8,29.8,5.8
			c13.2,0,23.9-3.5,32.2-10.6c8.3-7.1,12.5-15.6,12.5-25.4c0-7.8-2.4-14.1-7.3-18.8c-4.9-4.7-14.1-8.5-27.8-11.3
			c-25.4-5.1-42.2-9.6-50.4-13.4c-8.2-3.8-14.3-9-18.4-15.3c-4.1-6.4-6.1-14.1-6.1-23.2c0-17,6.2-30.8,18.5-41.4
			s29.8-15.9,52.5-15.9c17.9,0,35.8,3.6,53.5,10.7c-1.1,8.7-2,23.3-2.7,43.7h-11.5c-0.3-11.2-1.5-18.7-3.6-22.2
			c-2.9-4.7-8.3-9-16.1-12.8c-7.8-3.8-16.1-5.7-24.9-5.7c-11.6,0-20.9,3-27.8,8.9c-6.9,5.9-10.4,13.4-10.4,22.4
			c0,8.6,2.7,15,8.2,19.4c5.5,4.5,20.7,9.2,45.6,14.2c18.4,3.7,30.5,7.2,36.4,10.4c5.9,3.2,10.6,8,14.2,14.6
			c3.6,6.5,5.4,14,5.4,22.4c0,17.2-7.4,32.1-22.1,44.6c-14.8,12.5-34.5,18.8-59.1,18.8c-15.7,0-33.3-2.5-52.9-7.4
			c-3.4-0.9-5.2-2.2-5.2-4l0.6-2.7c0.5-1.9,1-5.3,1.3-10.2c1.2-12.4,1.7-22.1,1.7-29l-0.2-9.2H4394.6z"/>
		<path d="M4813.9,6057.7c-3.6,13.3-5.5,30.9-5.7,52.9h-13.2v-15.3c0-10-1.3-16.7-4-20.3c-2.7-3.6-9.7-7.4-21-11.4
			c-11.3-4-23.2-6-35.7-6c-20.4,0-36.5,5.2-48.2,15.5c-11.7,10.3-17.5,23.6-17.5,39.8c0,10.2,2.4,19,7.2,26.3
			c4.8,7.3,11.2,12.6,19.4,15.9c8.1,3.3,25.3,6.1,51.6,8.6c26.3,2.6,44.1,5.9,53.4,10.2c9.3,4.2,16.7,11,22.2,20.3
			c5.6,9.3,8.3,20.4,8.3,33.2c0,25.7-10.7,47.8-32.2,66.3s-50.1,27.8-85.8,27.8c-12.3,0-24.6-1.2-37.1-3.7c-12.5-2.5-25-6.2-37.7-11
			c2.3-15.3,3.4-35,3.3-59h13v9.6c0,12.4,0.6,20.1,1.9,23c1.3,2.9,4.3,6.1,9,9.4c7,5,15.4,8.8,25.1,11.4c9.7,2.6,20.2,3.9,31.4,3.9
			c24.1,0,42.8-5.7,56-17.1c13.2-11.4,19.7-25.8,19.7-43.3c0-10.2-2.2-18.9-6.7-26c-4.5-7.1-10.7-12.4-18.8-15.8
			c-8-3.4-22.9-6.1-44.6-7.9c-28.9-2.3-48.5-5.7-58.8-10.3c-10.3-4.6-18.5-11.8-24.3-21.7c-5.9-9.9-8.8-22.2-8.8-36.9
			c0-24.9,9-45.3,27-61.1c18-15.8,42.9-23.8,74.7-23.8c12.8,0,25.6,1.4,38.4,4.1C4788.1,6047.9,4801,6052,4813.9,6057.7z"/>
		<path d="M4883.5,6224.8c0.6,25.2,7.1,44.3,19.3,57.3c12.2,13,28.3,19.5,48.2,19.5c8.9,0,17.8-1.5,26.6-4.4
			c8.8-2.9,17.5-7.3,26.2-13.2l3.3,2.9l-6.1,16.1c-10.6,6.1-21.5,10.7-32.8,13.8c-11.2,3.1-22.8,4.6-34.7,4.6
			c-25.9,0-46.9-8.2-62.8-24.6c-15.9-16.4-23.9-38.7-23.9-66.8c0-21.5,4.5-40,13.4-55.8c5.9-10.3,16.7-19.9,32.6-28.7
			c15.8-8.8,31.2-13.2,46.2-13.2c22.6,0,40.5,6.6,53.8,19.9c13.2,13.3,19.8,31.9,19.8,55.8l-0.4,11.3c-8.4,2-16.5,3.4-24.1,4
			c-13.7,1-32.6,1.5-56.8,1.5H4883.5z M4883.9,6210.4c19.8,0.9,41.6,1.3,65.5,1.3c9.6,0,18.8-0.4,27.8-1.3v-10.7
			c0-11.2-2.2-21.9-6.7-32c-2.8-6.3-7.7-11.5-14.8-15.6c-7-4.1-15.1-6.2-24.3-6.2c-14.3,0-25.7,5.2-34.3,15.7
			C4888.5,6172,4884.1,6188.3,4883.9,6210.4z"/>
		<path d="M5096.6,6175.7c5.1-4.9,10.7-11.2,16.7-19.2c7.2-9.3,13.8-15.7,20-19.2c6.1-3.4,12.6-5.2,19.4-5.2c7,0,12.4,0.8,16.1,2.5
			c1.8,0.8,2.7,2,2.7,3.6l-0.2,1.9c-2,10.3-3.2,24.8-3.4,43.5h-8.6c-2.9-6.5-6.4-11.1-10.4-13.8c-4-2.7-8.8-4-14.4-4
			c-7.5,0-14.5,2.6-20.9,7.7c-6.4,5.1-10.7,12.2-12.9,21.4c-2.2,9.2-3.2,27.2-3.2,54.2c0,17.7,0.7,32.7,2.1,44.8
			c0.5,4.5,1.8,7.3,3.8,8.4c4.9,2.7,12,4,21.5,4h11.5v11.1c-19.5-0.9-38.1-1.3-55.6-1.3c-17,0-33.8,0.4-50.4,1.3v-11.1l18.4-1.5
			c6.5-0.5,10.6-1.7,12.4-3.6c1.7-1.9,2.8-8.1,3.4-18.6c0.9-18.4,1.3-40.2,1.3-65.5c0-30.8-1.2-48.9-3.6-54.2
			c-1.7-3.4-6.9-5.2-15.7-5.2h-16.1v-11.1c12.4-1.4,23.4-3.2,33.2-5.5c9.7-2.2,18.3-5.1,25.9-8.5c1.8-0.9,3.3-1.3,4.4-1.3
			c1.4,0,2.4,0.4,2.9,1.2c0.5,0.8,0.8,2.5,0.8,5.2L5096.6,6175.7z"/>
		<path d="M5317.6,6147.2V6136c13.2,0.9,24.9,1.3,35.3,1.3c12,0,24.9-0.4,38.6-1.3v11.1h-5.9c-2.9,0-5.8,0.6-8.6,1.7
			c-2,0.9-3.7,2-5,3.5c-1.3,1.4-5.9,10.3-13.8,26.7c-14.4,29.8-25.5,53.3-33.1,70.5c-7.7,17.2-17.4,40.5-29.1,69.7H5276
			c-16.9-42-34.1-82.9-51.8-122.6c-6.5-14.6-10.5-23.9-11.9-28c-2.8-8.3-6-14-9.5-17c-3.5-3-8-4.5-13.5-4.5h-6.3V6136
			c18.8,0.9,34.4,1.3,47,1.3c13.4,0,28.1-0.4,44.1-1.3v11.1h-8.4c-7.8,0-13.3,0.8-16.5,2.5c-2.2,1.3-3.3,3.2-3.3,5.7
			c0,2.2,1.1,6.6,3.4,13.2c2.3,6.6,17.8,45.3,46.4,115.9l34.3-82.8c7.8-19.2,12.6-32.4,14.4-39.9c0.5-2,0.8-3.8,0.8-5.2
			c0-2.4-0.8-4.2-2.5-5.4c-1.7-1.1-5.9-2.1-12.8-2.9L5317.6,6147.2z"/>
		<path d="M5473.3,6131.4l4.6,2.9c-0.9,9.6-1.5,20.1-1.7,31.6c-0.9,37.3-1.3,64.8-1.3,82.6c0,16.6,0.6,30.8,1.7,42.5
			c0.5,4.6,1.7,7.8,3.6,9.6c1.9,1.8,6.5,3.1,13.8,4l13,1.7v11.1c-18.7-0.9-35.6-1.3-51-1.3c-15.1,0-30.3,0.4-45.6,1.3v-11.1
			l16.5-1.7c6.4-0.5,10.3-1.7,11.8-3.6c1.5-1.9,2.4-8,2.8-18.5c0.6-16.3,1-38.7,1-67.2c0-19.9-0.3-35.2-1-45.9
			c-0.3-4-1.4-6.8-3.4-8.5c-2-1.7-6.4-2.5-13.3-2.5h-14.4v-11.1c15.6-2.3,27-4.4,34.4-6.2C5452.2,6139.2,5461.7,6136,5473.3,6131.4z
			 M5458,6046.5c5.9,0,10.9,2.1,15.1,6.4c4.2,4.3,6.3,9.4,6.3,15.4c0,6-2.1,11.1-6.3,15.3s-9.3,6.3-15.1,6.3c-6,0-11.1-2.1-15.3-6.3
			s-6.3-9.3-6.3-15.3c0-6,2.1-11.1,6.3-15.4C5446.9,6048.7,5452,6046.5,5458,6046.5z"/>
		<path d="M5670.1,6290.3l5.2,4.6l-7.9,12.3c-8.7,4.7-17.6,8.3-26.8,10.6c-9.2,2.4-18.6,3.5-28.2,3.5c-18.8,0-34.7-3.6-47.8-10.7
			c-13.1-7.2-23.2-17.5-30.4-31c-7.2-13.5-10.7-29.6-10.7-48.3c0-16.5,2.7-30.8,8.2-43c5.5-12.2,13.2-21.8,23.1-28.6
			c9.9-6.9,22.3-13.7,37.1-20.3c10.5-4.7,22.2-7.1,35.1-7.1c9.8,0,18.3,0.8,25.4,2.4c7.1,1.6,14.7,4.5,22.9,8.6
			c-3.2,16.9-4.9,33.8-5.2,50.7H5658v-9.6c0-8.2-1.2-14-3.5-17.3c-2.4-3.4-7.8-6.7-16.2-10.1c-8.4-3.3-17.6-5-27.6-5
			c-17.2,0-30.5,5.3-39.9,15.8c-9.3,10.5-14,26.3-14,47.2c0,26.9,6.9,48.5,20.7,64.7c12.4,14.7,28.4,22,47.9,22
			c7.7,0,15.2-1,22.6-2.9C5655.5,6296.8,5662.8,6294,5670.1,6290.3z"/>
		<path d="M5736.6,6224.8c0.6,25.2,7.1,44.3,19.3,57.3c12.2,13,28.3,19.5,48.2,19.5c8.9,0,17.8-1.5,26.6-4.4
			c8.8-2.9,17.5-7.3,26.2-13.2l3.3,2.9l-6.1,16.1c-10.6,6.1-21.5,10.7-32.8,13.8c-11.2,3.1-22.8,4.6-34.7,4.6
			c-25.9,0-46.9-8.2-62.8-24.6c-15.9-16.4-23.9-38.7-23.9-66.8c0-21.5,4.5-40,13.4-55.8c5.9-10.3,16.7-19.9,32.6-28.7
			c15.8-8.8,31.2-13.2,46.2-13.2c22.6,0,40.5,6.6,53.8,19.9c13.2,13.3,19.8,31.9,19.8,55.8l-0.4,11.3c-8.4,2-16.5,3.4-24.1,4
			c-13.7,1-32.6,1.5-56.8,1.5H5736.6z M5737,6210.4c19.8,0.9,41.6,1.3,65.5,1.3c9.6,0,18.8-0.4,27.8-1.3v-10.7
			c0-11.2-2.2-21.9-6.7-32c-2.8-6.3-7.7-11.5-14.8-15.6c-7-4.1-15.1-6.2-24.3-6.2c-14.3,0-25.7,5.2-34.3,15.7
			C5741.6,6172,5737.2,6188.3,5737,6210.4z"/>
		<path d="M5906.2,6258.9v12.5c0,10,0.9,16.2,2.7,18.7c3.3,4.1,9.8,8.1,19.5,11.9c9.6,3.8,19.6,5.8,29.8,5.8
			c13.2,0,23.9-3.5,32.2-10.6c8.3-7.1,12.5-15.6,12.5-25.4c0-7.8-2.4-14.1-7.3-18.8c-4.9-4.7-14.1-8.5-27.8-11.3
			c-25.4-5.1-42.2-9.6-50.4-13.4c-8.2-3.8-14.3-9-18.4-15.3c-4.1-6.4-6.1-14.1-6.1-23.2c0-17,6.2-30.8,18.5-41.4
			s29.8-15.9,52.5-15.9c17.9,0,35.8,3.6,53.5,10.7c-1.1,8.7-2,23.3-2.7,43.7h-11.5c-0.3-11.2-1.5-18.7-3.6-22.2
			c-2.9-4.7-8.3-9-16.1-12.8c-7.8-3.8-16.1-5.7-24.9-5.7c-11.6,0-20.9,3-27.8,8.9c-6.9,5.9-10.4,13.4-10.4,22.4
			c0,8.6,2.7,15,8.2,19.4c5.5,4.5,20.7,9.2,45.6,14.2c18.4,3.7,30.5,7.2,36.4,10.4c5.9,3.2,10.6,8,14.2,14.6
			c3.6,6.5,5.4,14,5.4,22.4c0,17.2-7.4,32.1-22.1,44.6c-14.8,12.5-34.5,18.8-59.1,18.8c-15.7,0-33.3-2.5-52.9-7.4
			c-3.4-0.9-5.2-2.2-5.2-4l0.6-2.7c0.5-1.9,1-5.3,1.3-10.2c1.2-12.4,1.7-22.1,1.7-29l-0.2-9.2H5906.2z"/>
	</g>
</g>
</svg>
