<?xml version="1.0" encoding="utf-8"?>
<!-- Generator: Adobe Illustrator 23.1.0, SVG Export Plug-In . SVG Version: 6.00 Build 0)  -->
<svg version="1.1" id="artwork" xmlns="http://www.w3.org/2000/svg" xmlns:xlink="http://www.w3.org/1999/xlink" x="0px" y="0px"
	 viewBox="0 0 3000 3000" style="enable-background:new 0 0 3000 3000;" xml:space="preserve">
<style type="text/css">
	.st0{fill:#CDA276;}
	.st1{fill:#845D32;}
</style>
<g>
	<rect x="350.3" y="2294.3" class="st0" width="856.3" height="21.3"/>
	<rect x="1793.7" y="2294.2" class="st0" width="856.3" height="21.3"/>
	<rect x="350.3" y="1378.7" class="st0" width="766.9" height="21.3"/>
	<rect x="1883.1" y="1378.7" class="st0" width="766.9" height="21.3"/>
</g>
<g>
	<path class="st1" d="M1383.9,2247.6c-13.6,0-23.7,7.9-30.2,23.8c-4.9,11.4-7.4,25.2-7.4,41.4c0,14.1,2.9,27.8,8.6,40.9
		c7,17,16.5,25.5,28.5,25.5c12.1,0,21.8-4.6,29.3-13.8l6.2,5.7c-9.8,14.6-22.1,21.9-36.9,21.9c-18.9,0-33.9-8-45.2-24
		c-10.2-14.1-15.2-31-15.2-50.7c0-20.1,4.8-38.2,14.5-54.2c11.3-18.7,26.2-28.1,45-28.1c4.4,0,10.3,1.5,17.5,4.5
		c7.2,3,12.7,4.5,16.5,4.5c4.1,0,10.1-3,17.8-9l-18.6,25.5C1406.3,2252.2,1396.1,2247.6,1383.9,2247.6z"/>
	<path class="st1" d="M1506.4,2391h-17.6v-7.1c-6.5,5.2-15.4,7.6-26.6,7.1c-10.9,0-19.9-4.4-26.9-13.3c-6.2-7.6-9.3-15.8-9.3-24.5
		c0-10.6,4-19.6,11.9-26.9c5.7-5.5,22.8-12.1,51.2-19.5v-7.6c-0.2-8.2-3-14.2-8.6-17.8c-3.8-2.7-8.4-4-13.8-4
		c-10.5,0-18,3.4-22.6,10.2l-13.1-21.6c4.1,4.8,8.2,7.1,12.4,7.1c2.5,0,6.4-1.1,11.7-3.3c5.2-2.2,10.1-3.3,14.5-3.3
		c9.2,0,17.3,2.4,24.3,7.1c8.4,5.9,12.6,14,12.6,24.3V2391z M1488.8,2360.8v-44.7c-8.9,2.5-13.6,3.9-14,4c-4.8,1.4-8.6,3-11.7,4.8
		c-12.5,7.1-18.8,16.3-18.8,27.4c0,7.6,1.7,14.3,5,20c4.1,6.8,9.8,10.2,17.1,10c7,0,12.4-2,16.4-6.1
		C1486.8,2372.1,1488.8,2367,1488.8,2360.8z"/>
	<path class="st1" d="M1581.1,2248c-1.7-7.1-6.2-10.7-13.3-10.7c-9.7,0-14.5,5.1-14.5,15.2v14.5h20.2v8.6h-20.2V2391h-17.6
		l-0.2-133.2c0-8.4,2.3-15.4,7-20.9c4.7-5.5,10.4-8.3,17.2-8.3c6.2,0,11.3,1.7,15.3,5.2C1579.1,2237.2,1581.1,2242,1581.1,2248z"/>
	<path class="st1" d="M1678.4,2323.4l-71.8,12.4c0.2,10.9,2.8,21.1,7.9,30.5c5.5,10.6,12.4,15.9,20.5,15.9
		c10.6,0,19.7-4.3,27.1-12.8l13.1,22.1c-4-4.9-8-7.4-12.1-7.4c-4.4,0-9.3,1.3-14.5,3.9s-9.8,3.8-13.6,3.7
		c-14.6-0.2-26.3-7-35.2-20.5c-7.9-12.1-11.9-26.1-11.9-42.1c0.2-15.5,3.7-29.3,10.7-41.4c8.4-14.4,19.7-21.6,34-21.6
		c11.9,0,22.1,4.6,30.7,13.8C1673.4,2290.5,1678.4,2305,1678.4,2323.4z M1660.3,2317.5c-0.2-9.2-2.5-18.2-7.1-27.1
		c-5.2-10.1-11.6-15.3-19-15.5c-8.4,0-15.2,6-20.5,18.1c-4.3,10.2-6.5,21.5-6.7,34L1660.3,2317.5z M1657.3,2215.9
		c-2.9,0-6.3,2.4-10.5,7.1l-20,23.1h-10.7l10.7-30.2H1657.3z"/>
</g>
<g>
	<path class="st1" d="M704.8,1703.4c-24.6-50.2-60.1-75.3-106.7-75.3h-120v182.7h142v31.4l-142,0.8v255.7h-65.9v-438.4
		c0-20.4-7.8-36.9-23.5-49.4c-12.5-9.9-25.4-14.9-38.4-14.9h322.3L704.8,1703.4z"/>
	<path class="st0" d="M1268.1,2213.2c-93.1,0-176.2-63.5-249.4-190.6l-86.3-148.2h-48.6l-0.8,224.3h-65.1l-0.8-438.4
		c0-19.9-7.6-36.1-22.7-48.6c-13.1-10.5-26.2-15.7-39.2-15.7H963c101.4,0,151.9,46.8,151.4,140.4c-0.5,76.3-37.1,121.1-109.8,134.1
		l94.9,168.6C1152.8,2137.3,1209,2195.4,1268.1,2213.2z M1050.8,1736.3c0.5-32.9-6.3-58.6-20.4-76.9c-15.7-21.4-40.5-32.2-74.5-32.2
		l-72.2,0.8v214.1l74.5,0.8C1018.4,1843,1049.2,1807.4,1050.8,1736.3z"/>
	<path class="st1" d="M1518.3,1693.2c-18.3-43.9-49.7-65.6-94.1-65.1H1290v182.7h149v31.4l-149,0.8v224.3h214.9v31.4h-280.8v-438.4
		c0-20.4-7.8-36.9-23.5-49.4c-12.5-9.9-25.6-14.9-39.2-14.9h331.8L1518.3,1693.2z"/>
	<path class="st1" d="M1850,2108.1c-42.4-62.7-120-179.1-232.9-349v339.6h-32.2v-509c77.9,116.1,155.8,232.2,233.7,348.2v-275.3
		c0-40.3-21.4-62.5-64.3-66.7h95.7V2108.1z"/>
	<path class="st1" d="M2258.6,1596.7l-250.2,470.6H2170c43.9,0,77.6-22.7,101.2-68.2l-24.3,99.6h-327.1l249.4-471.4h-233.7v-30.6
		H2258.6z"/>
	<path class="st1" d="M2650,1693.2c-18.3-43.9-49.7-65.6-94.1-65.1h-134.1v182.7h149v31.4l-149,0.8v224.3h214.9v31.4h-280.8v-438.4
		c0-20.4-7.8-36.9-23.5-49.4c-12.5-9.9-25.6-14.9-39.2-14.9h331.8L2650,1693.2z"/>
</g>
<g>
	<path class="st0" d="M1500,633.4c199.9,0,361.9,162,361.9,361.9s-162,361.9-361.9,361.9s-361.9-162-361.9-361.9
		S1300.1,633.4,1500,633.4 M1500,612.1c-51.7,0-101.9,10.1-149.2,30.1c-45.6,19.3-86.6,46.9-121.8,82.1
		c-35.2,35.2-62.8,76.2-82.1,121.8c-20,47.3-30.1,97.5-30.1,149.2c0,51.7,10.1,101.9,30.1,149.2c19.3,45.6,46.9,86.6,82.1,121.8
		c35.2,35.2,76.2,62.8,121.8,82.1c47.3,20,97.5,30.1,149.2,30.1s101.9-10.1,149.2-30.1c45.6-19.3,86.6-46.9,121.8-82.1
		c35.2-35.2,62.8-76.2,82.1-121.8c20-47.3,30.1-97.5,30.1-149.2c0-51.7-10.1-101.9-30.1-149.2c-19.3-45.6-46.9-86.6-82.1-121.8
		c-35.2-35.2-76.2-62.8-121.8-82.1C1601.9,622.2,1551.7,612.1,1500,612.1L1500,612.1z"/>
	<g>
		<g>
			<path class="st0" d="M1392.3,1128.9c29.5,23.2,66.7,37,107.1,37c95.8,0,173.5-77.7,173.5-173.5c0-40.4-13.8-77.6-37-107.1
				L1392.3,1128.9z"/>
		</g>
		<path class="st1" d="M1260.5,1055.8c-5.1-19.7-7.8-40.4-7.8-61.8H1426l73.4-73.3h-235.6c31.3-100.3,125.1-173.4,235.6-173.4
			c21.3,0,42,2.7,61.8,7.9c25.9,6.7,50.1,17.5,72,31.7L1686,734c-20.6-14.8-43-27.3-66.9-36.9c-37-14.9-77.4-23.2-119.8-23.2
			c-151.5,0-278.5,105.3-311.6,246.7c-5.5,23.5-8.5,48.1-8.5,73.3c0,42.4,8.2,82.8,23.2,119.8c9.6,23.9,22.1,46.3,36.9,66.9
			l52.9-52.9C1278,1106,1267.2,1081.7,1260.5,1055.8z"/>
	</g>
	<path class="st1" d="M1817.2,1262.3l-68.1-68.1c44-54.8,70.3-124.4,70.3-200.2c0-25.2-2.9-49.8-8.5-73.3
		c-12.1-51.7-36.7-98.6-70.6-137.2l-52.1,52.1c20.8,24.7,36.8,53.6,46.7,85.2c7.2,23.2,11.1,47.8,11.1,73.3
		c0,136.1-110.7,246.7-246.7,246.7c-60.3,0-115.6-21.7-158.5-57.8l-52.1,52.1c56.2,49.3,129.9,79.1,210.6,79.1
		c74.6,0,143.2-25.5,197.6-68.3l68,68.8L1817.2,1262.3z"/>
</g>
</svg>
