<?xml version="1.0" encoding="utf-8"?>
<!-- Generator: Adobe Illustrator 23.1.0, SVG Export Plug-In . SVG Version: 6.00 Build 0)  -->
<svg version="1.1" id="NN_Logo" xmlns="http://www.w3.org/2000/svg" xmlns:xlink="http://www.w3.org/1999/xlink" x="0px" y="0px"
	 viewBox="0 0 1133.9 1133.9" style="enable-background:new 0 0 1133.9 1133.9;" xml:space="preserve">
<style type="text/css">
	.st0{fill:#020202;}
	.st1{fill:#555555;}
	.st2{fill:#FFFFFF;}
	.st3{fill:#ED1E24;}
	.st4{fill:#19B24B;}
	.st5{fill:#68BE55;}
	.st6{fill:#F15757;}
	.st7{fill:#1DB24C;}
	.st8{fill:#1CB24B;}
	.st9{opacity:0.8;}
</style>
<g>
	<g>
		<path class="st0" d="M283.6,786.9c128.9-17,106.8-85,106.6-217.7C241.1,572.2,327.6,766.5,283.6,786.9z"/>
		<path class="st1" d="M312,729.6c95-12.5,78.7-62.6,78.5-160.3C280.7,571.4,344.4,714.6,312,729.6z"/>
		<path class="st2" d="M319.6,759.9c35.1-53.7,55-112.6,54.3-178.6c14.8,57.4,4.5,113.4-19.7,168.6c6.6-25.6,11.3-50.2,13.4-73.7
			C358.5,711.6,343.2,740.8,319.6,759.9z"/>
	</g>
	<path class="st3" d="M944.4,457.5c-4.7-17-20.7-27.3-40.2-31.1c4.5-1.2,9.2-2.8,13.4-5.2c5.8-3.3,14.1-12.5,14.1-13.1
		c-3.1,0.1-7.5-3.5-10.1-7.5c-1.4-2.2-7.1-15.2-11.1-20.9c-2-2.9-12.1-19.4-26.6-21.9c-3.7-0.6-9.1-0.4-12.1,0.5
		c-14.6,1.9-24.9,19.2-24.9,38.2c0,6.7,1.4,13,3.9,18.5c1.5,3.3,3,5.7,5.2,8.2c1.4,1.6,3.2,3.2,5,4.6c-5.4,1.2-10.2,3-15.4,5.2
		c-8.7,3.8-14.2,8-15.9,10.2c-1.8-0.6-3.6-1-5.4-1.2c-12.2-1.1-21.6,7.8-21.2,18.6c0.1,3,0.8,5.8,2,8.3
		c-6.9,6.3-13.1,16.1-13.2,26.2c0,11.1,10,20.2,20.9,20.3c7.1,0.1,15.4-3.9,5.4-7.2c-8.1-2.6-19.6,2.2-21.5-9.7
		c-1.4-9.1,5.9-18.3,13.6-22.8c4.4,3.8,10.2,6,15.9,6c1.7,0,0.9,0,1.1,0.1c-4.6,4.6-6.5,11.3-4.1,17.6c4.4,12.1,12.7,12.7,21.6,13.3
		c-28.6-14.6-7.6-25.6,4.4-34.1c18.1-12.8,26.3,4.7,28.2,7.6c3.9,5.9,5,14,8.2,13.8c3.2-0.2,4.1-2.9,2.7-3.8c0,0-2.9-3.6-4.8-6.8
		c-4.7-7.8-16.6-29.3-38.4-20.1c-0.7,0.3-1.4,3.2-2.1,3.5c2.5-1.8,2.7-6.1,2.7-9.7c0-4.5-1.8-8.7-4.6-12.1c1.5-1.1,6-4.2,20.4-7.1
		c15.2-3.1,28.6-3.3,47.3,0.3c24.1,4.5,51.5,31.1,9.3,65.8c-15.8,13-46.2,34.3-81.4,25.6c-24.7-6.1-17.8,10.3,1.5,9.8
		C918.1,543.1,956.5,501.1,944.4,457.5z M843.5,462.2c0.2,4.9-1,9.5-4.1,12.7c-0.6,0.7-2.3,1.9-4.2,2.8c-1.7,0.7-3.7,1.1-6,1.2
		c-8.5,0.3-15.6-8.8-15.6-17.3c0-8.5,6.1-15.2,14.6-15.2C836.7,446.4,843.1,454.1,843.5,462.2z M875.6,428.9
		c-12.5,0.9-23.7-11.6-24.9-28c-1.2-16.4,8-30.5,20.5-31.4c12.5-0.9,23.7,11.6,24.9,28C897.3,413.9,888.1,428,875.6,428.9z
		 M860.6,515.5c2-2.9,11.4-17.4,9-21.3c-1.6-2.6-7.4,0.5-7.8,6.2c-0.6,8.9-12.3,36.6-52.3,19.4c-5.1-2.2-21.5-14.1-40.9-18.1
		c10.4-4.2,17.9-15.7,17.9-29.2c0-17.1-12-31-26.7-31c-14.8,0-28.4,9.5-28.4,26.6c0,13.2,8.1,27.1,18.7,32.7
		c-1.9,0.3-3.9,0.6-5.8,1.1c-17.9,4.8-17.7,17.4-18.4,22.5c1.4-1.6,8.4-5.9,10.5-6.6c16.7-5.4,34.2-4.6,55.8,5
		C815.6,533.3,843.6,540.4,860.6,515.5z M756,472.1c0-12.9,6.4-23.3,14.2-23.3c7.8,0,14.2,10.4,14.2,23.3c0,12.9-6.4,23.3-14.2,23.3
		C762.4,495.4,756,485,756,472.1z"/>
	<path class="st4" d="M823,395.7c-181-46.2-210.2,69-338.7,134.3C603.3,495.4,633,376,823,395.7z"/>
	<g>
		<path class="st4" d="M500.8,344c-129,16.3-107.2,84.4-107.8,217.1C542.2,559,456.8,364.2,500.8,344z"/>
		<path class="st5" d="M472.2,401.2c-95,12-79,62.2-79.4,159.9C502.7,559.5,439.7,416,472.2,401.2z"/>
		<path class="st2" d="M464.7,370.9c-35.3,53.5-55.6,112.3-55.2,178.4c-14.5-57.5-3.9-113.4,20.5-168.5
			c-6.8,25.5-11.5,50.1-13.8,73.6C425.6,419,441,389.8,464.7,370.9z"/>
	</g>
	<g>
		<path class="st3" d="M168,451.1c15.4,129.1,83.6,107.9,216.3,109.4C383.3,411.3,187.8,495.3,168,451.1z"/>
		<path class="st6" d="M225,480.2c11.3,95.1,61.6,79.5,159.3,80.6C383.6,450.9,239.6,512.8,225,480.2z"/>
		<path class="st2" d="M194.6,487.4c53.2,35.7,111.9,56.5,177.9,56.6c-57.6,14-113.4,3.1-168.3-21.8c25.5,7,50.1,11.9,73.5,14.4
			C242.4,526.9,213.4,511.3,194.6,487.4z"/>
	</g>
	<path class="st0" d="M408.1,719.1c212.3,160.7,336.9,7.8,513.9,0C770.2,693.7,653.7,852.2,408.1,719.1z"/>
	<g>
		<path class="st7" d="M964.2,608.8c-2.1,0-4.2,0-6.3,0c-0.8,0-1-0.3-1-1c0-15,0-30,0-45c0-0.5-0.1-1,0.6-1.2c2.3-0.6,4.4-1.5,6.7-2
			C964.2,576,964.2,592.4,964.2,608.8z"/>
		<path class="st7" d="M851.6,559.3c0.1,0.4,0.5,0.2,0.8,0.3c2.1,0.6,3.3,2.5,3,4.5c-0.3,1.9-2.3,3.5-4.3,3.4
			c-2.1-0.1-3.8-1.6-4-3.5c-0.2-2.2,1-4,3.2-4.5c0.2-0.1,0.6,0.1,0.7-0.3C851.2,559.3,851.4,559.3,851.6,559.3z"/>
		<path class="st7" d="M772.3,559.3c1.6,0.6,3.1,1.3,3.6,3.2c0.5,2.1-0.6,4.2-2.7,4.9c-2,0.6-4-0.4-4.8-2.4c-0.8-2,0.2-4.3,2.2-5.2
			c0.4-0.2,0.9,0,1.2-0.5C771.9,559.3,772.1,559.3,772.3,559.3z"/>
		<path class="st8" d="M613,591.5c-1.4-8.4-6.5-14.6-14.1-16.3c-6.1-1.3-12.1-0.5-17.6,2.7c-3.6,2.1-6.2,5.1-8.7,8.8v-4.3
			c0-6.8,0-13.5,0-20.3c0-1.2-0.3-1.4-1.4-1c-1.5,0.5-3,1-4.5,1.4c-1.2,0.3-1.6,0.8-1.6,2.1c0.1,12.1,0,24.2,0.1,36.3
			c0,1-0.2,1.4-1.4,1.4c-3.4-0.1-6.9,0.1-10.3,0c-4.9,0-7.3-2.5-7.3-7.4c0-6.5,0-13,0-19.5c0-1.1-0.2-1.4-1.3-1
			c-1.6,0.5-3.1,1.1-4.7,1.4c-1.1,0.2-1.3,0.8-1.3,1.8c0,5.9,0.1,11.8-0.1,17.7c-0.2,4.7-2.6,6.9-7.3,6.9c-4.6,0-9.1,0-13.7,0
			c-4.9,0-7.3-2.5-7.3-7.4c0-6.5,0-13.1,0-19.6c0-1-0.2-1.2-1.1-0.9c-1.6,0.5-3.2,1.1-4.9,1.5c-1.1,0.2-1.3,0.8-1.3,1.8
			c0,6.1,0,12.1-0.1,18.2c-0.1,3.7-2.5,6.2-6.2,6.3c-5.5,0.2-11,0.1-16.6,0c-3.4-0.1-5.6-2.4-6-5.8c-0.1-0.7-0.1-1.5-0.1-2.2
			c0-5.7,0-11.3,0-17c0-3.1,0-3.2-3.2-3.1c-5.1,0.1-10.1-0.3-15.2,0.2c-5.2,0.6-8.9,3.3-10.5,8.3c-1.9,5.6-1.7,11.3-0.1,17
			c0.9,3.1,2.6,5.6,5.5,7.2c3.8,2.1,7.8,2.2,11.9,1.5c3.1-0.5,5.6-1.9,7.2-4.8c1.3,2.4,3.2,3.7,5.6,4.4c1.5,0.4,3,0.7,4.6,0.7
			c5.6,0,11.2,0,16.8,0c3.5,0,6.6-1,9.3-3.3c0.5-0.5,0.8-0.5,1.3,0c2.7,2.4,5.9,3.4,9.4,3.4c5.1,0,10.2,0,15.3,0
			c3.6,0,6.9-1,9.7-3.4c0.5-0.5,0.8-0.4,1.2,0c2.7,2.4,6,3.4,9.6,3.4c19.1,0,38.1,0,57.2,0c3,0,3,0,3.1-3
			C613.4,601,613.8,596.3,613,591.5z M467.2,587.4c0,2.9,0.2,5.9-0.4,8.8c-0.9,4.5-3.1,6.3-7.5,6.3c-4.2,0-6.4-1.9-7.2-6.3
			c-0.6-3.5-0.6-7,0.2-10.5c0.8-3.4,2.9-5.2,6.4-5.3c2.5-0.1,5.1,0,7.6-0.1c0.7,0,0.9,0.2,0.9,0.9
			C467.1,583.3,467.2,585.3,467.2,587.4z M606.4,601.5c0,0.9-0.5,0.9-1.2,0.9c-5.3,0-10.6,0-15.9,0c-5.3,0-10.6,0-15.9,0
			c-0.9,0-1.2-0.1-0.9-1.1c2-6.9,5.9-12.5,11.6-16.8c3.4-2.5,7.2-3.6,11.4-2.9c5.8,1,8.8,4.9,10.1,10.4
			C606.5,595.1,606.6,598.3,606.4,601.5z"/>
		<path class="st8" d="M950.6,561.2c0-1.4-0.4-1.5-1.5-1.1c-1.5,0.5-3.1,1-4.6,1.4c-1,0.2-1.2,0.7-1.2,1.7c0,10.3,0,20.5,0,30.8
			c0,0.6,0,1.1,0,1.7c-0.3,4.2-2.3,6.4-6.4,6.6c-3.9,0.3-7.8,0.1-11.7,0.2c-1.1,0-1.5-0.3-1.5-1.4c0-4.6-0.2-9.1-1.3-13.5
			c-1.4-5.6-4.5-10-10.2-11.9c-8.8-2.9-17.1-0.7-24,5.8c-0.6,0.5-0.2,0.7,0.2,1c1.3,1.2,2.7,2.4,3.9,3.7c0.6,0.6,0.9,0.5,1.4-0.1
			c1.7-1.8,3.6-3.2,5.9-4.2c7.5-3.2,14.4,0.5,15.9,8.5c0.7,3.6,0.7,7.3,0.7,11c0,1-0.3,1.2-1.3,1.2c-14.2-0.1-28.4-0.1-42.7-0.1
			c-1,0-1.3-0.3-1.2-1.2c0.1-3.2,0-6.3-0.6-9.5c-1.3-7.4-4.7-13.5-12.2-15.8c-8.5-2.7-16.4-1-23.1,5c-4.1,3.8-6.8,8.5-8.6,13.8
			c-0.1,0.3-0.1,0.7-0.6,0.9V581c-2.1,0.6-4,1.2-6,1.7c-0.9,0.2-1.2,0.6-1.2,1.6c0.1,5.7,0,11.3,0,17c0,0.8-0.1,1.2-1,1.2
			c-6.5,0-13,0-19.5,0c-2.7,0-3.8-1.2-3.8-3.9v-37.1c0-0.3,0-0.6,0-0.8c0.1-0.8-0.2-0.9-0.9-0.7c-1.7,0.6-3.4,1.1-5.1,1.6
			c-1,0.3-1.3,0.8-1.3,1.8c0,11.8,0,23.7,0,35.5c0,6.5,3.6,10.1,10.1,10.1h139.2c0.4,0,0.7,0,1.1,0c7.2-0.2,12.5-5.3,13-12.4
			c0.1-0.9,0.1-1.7,0.1-2.6C950.6,582.9,950.6,572,950.6,561.2z M863.7,601.3c0,0.9-0.4,1.1-1.3,1.1c-5.3,0-10.6,0-15.9,0
			c-5.2,0-10.5,0-15.7,0c-1,0-1.3-0.3-1.1-1.2c0.3-2,0.9-3.8,1.9-5.6c3-5.3,6.8-9.9,12.3-12.6c8.7-4.2,17-0.2,19.1,9.2
			C863.8,595.2,863.9,598.2,863.7,601.3z"/>
		<path class="st8" d="M680.4,559.9c-1.8,0.5-3.5,1.1-5.3,1.6c-1,0.2-1.2,0.7-1.2,1.6c0,10.3,0,20.5,0,30.8c0,0.6,0,1.1,0,1.7
			c-0.3,4.3-2.3,6.4-6.5,6.7c-5.5,0.4-11,0.2-16.5,0.3c-1.1,0-1.2-0.3-1.2-1.3c0-4.5,0.5-8.9-0.3-13.3c-0.8-4.9-2.7-9.1-7.5-11.3
			c-3.2-1.4-6.5-1.5-9.9-1c-3.9,0.6-7,2.7-9.1,6.1c-2.6,4.2-3.2,8.9-2.8,13.7c0.6,6.9,4.9,11.7,11.6,13.1c2.5,0.5,5.1,0.4,7.7,0.4
			c2.6,0,2.6,0,1.6,2.4c-1.8,4.4-5.8,6.4-11.2,5.7c-3-0.4-5.9-1.3-9.1-2.6c1,2.2,1.9,4,2.7,5.9c0.4,1.1,1.1,1.7,2.1,2
			c4.4,1.5,9,1.9,13.4,0.2c5.5-2.1,8.5-6.4,9.8-12c0.3-1.2,0.7-1.7,2-1.7c5.7,0.1,11.4,0.1,17.1,0c8.5-0.1,13.5-6.3,13.5-12.6
			c0.1-11.9,0.1-23.7,0.1-35.6C681.3,559.8,681,559.7,680.4,559.9z M642.5,601.5c0,0.5,0,0.9-0.7,0.9c-2.7-0.1-5.4,0.3-8.1-0.2
			c-3.5-0.6-5.5-2.6-6.1-6.2c-0.6-3.3-0.4-6.5,0.8-9.6c1.2-3.4,3.9-5,7.5-4.7c3.4,0.3,5.4,2.1,6.2,5.8c0.6,2.9,0.5,5.8,0.4,7.9
			C642.5,598,642.5,599.7,642.5,601.5z"/>
		<path class="st8" d="M780.6,574.3c-2,0.6-3.9,1.2-5.8,1.7c-1,0.3-1.4,0.7-1.4,1.9c0.1,5.7,0.1,11.4,0,17.1c0,4.4-2.2,7.3-6.1,7.4
			c-5.7,0.2-11.4,0.1-17.1,0c-3.1-0.1-5.2-2-5.8-5.1c-0.2-0.9-0.2-1.8-0.2-2.7c0-5.8,0-11.6,0-17.4c0-2.8,0-2.9-2.9-2.8
			c-5.1,0.1-10.3-0.3-15.4,0.2c-5.2,0.6-8.8,3.3-10.6,8.4c-1.5,4.3-1.5,8.8-0.9,13.2c0.4,3.2,1.4,6.3,3.7,8.7
			c3.3,3.6,7.7,4.1,12.2,3.9c3.9-0.2,7.4-1.3,9.5-5c2.8,3.6,5.4,5,9.8,5c6,0.1,12.1,0.1,18.1,0c7.1-0.1,12.8-5.4,13-12.3
			C780.7,589.2,780.6,581.9,780.6,574.3z M736.7,587.7c0,2.7,0.2,5.7-0.4,8.6c-0.9,4.3-3.1,6.1-7.3,6.1c-4.2,0-6.4-1.7-7.3-6
			c-0.8-3.6-0.7-7.3,0.1-10.9c0.8-3.3,2.9-5,6.3-5.2c2.6-0.1,5.1,0,7.7-0.1c0.7,0,0.9,0.2,0.9,0.9
			C736.7,583.3,736.7,585.3,736.7,587.7z"/>
		<path class="st7" d="M695.3,584.1c0,7.8,0,15.6,0,23.5c0,1-0.2,1.4-1.3,1.3c-1.7-0.1-3.4-0.1-5.1,0c-0.8,0-1-0.3-1-1
			c0-3.2,0-6.4,0-9.7c0-11.6,0-23.3,0-34.9c0-1.1,0.3-1.6,1.3-1.8c1.6-0.4,3.3-0.9,4.9-1.5c1-0.4,1.2-0.2,1.2,0.9
			c0,6.4,0,12.8,0,19.2C695.3,581.3,695.3,582.7,695.3,584.1z"/>
		<path class="st7" d="M460.6,563.6c0,2.2-1.8,4-4,4.1c-2.2,0-4.1-1.8-4.1-4c0-2.1,1.7-3.9,3.9-4
			C458.6,559.6,460.6,561.4,460.6,563.6z"/>
		<path class="st7" d="M730.1,563.6c0,2.2-1.8,4-4,4c-2.2,0-4-1.8-4-4c0-2.1,1.8-3.9,3.9-3.9C728.2,559.6,730.1,561.4,730.1,563.6z"
			/>
		<path class="st7" d="M546.5,563.6c0,2.2-1.8,4.1-4,4.1c-2.1,0-4-1.8-4-3.9c-0.1-2.2,1.8-4,4-4.1
			C544.6,559.7,546.4,561.4,546.5,563.6z"/>
		<path class="st7" d="M502.1,623.5c-2.2,0-3.9-1.7-4-3.9c0-2.2,1.7-4,3.9-4c2.2,0,4,1.7,4.1,3.8
			C506.1,621.6,504.3,623.4,502.1,623.5z"/>
		<path class="st7" d="M512.2,615.5c2.2,0,4.1,1.8,4,4c0,2.1-1.9,3.9-4,3.9c-2.1,0-3.9-1.8-3.9-4
			C508.3,617.3,510.1,615.5,512.2,615.5z"/>
		<path class="st7" d="M470.8,563.6c0,2.2-1.9,4-4,4c-2.1,0-3.9-1.9-3.9-4c0-2.1,1.9-4,4-3.9C469,559.7,470.8,561.5,470.8,563.6z"/>
		<path class="st7" d="M740.3,563.7c0,2.2-1.9,4-4.1,4c-2.1-0.1-3.9-1.9-3.8-4.1c0.1-2.2,1.9-3.9,4-3.9
			C738.6,559.7,740.4,561.5,740.3,563.7z"/>
	</g>
	<g>
		<path d="M474.2,691.4c-4.7,0-0.5-4.2-11.1-25.9c-0.9-1.8-6.9-13.3-9.1-13.3c-1.7,0-1.2,7.5-1.2,8.8c0,19.3,2.8,26.3,2.8,29.8
			c0,0.9-1.3,0.6-1.9,0.6h-6.4c-1.7,0-3.8,1.3-3.8-24.3c0-33.8,3.6-32.6,4.7-32.6h5.4c2.6,0,7.8,5.5,20.6,29.1
			c0.2,0.3,0.5,1.2,1.2,1.2c0.7,0,0.5-2.9,0.5-3.9c0-12.8-3.5-24.1-3.5-25.7c0-1,1.5-0.8,2.8-0.8h5.2c1.5,0,4.7-1.2,4.7,32.6
			c0,25.6-2.1,24.3-3.8,24.3H474.2z"/>
		<path d="M506.9,662.9c2-0.3,3.6-0.7,3.6-2.9c0-3.5-3.6-5.3-6.6-5.3c-7,0-6,5.9-7.5,5.9c-2.2,0-4.6-2.7-4.6-5.6
			c0-5.1,5.7-8.3,12-8.3c2.2,0,11.6-0.1,15,9.5c1.4,4,1.6,24.2,1.6,26.6c0,3,0.5,4.8,0.5,7.1c0,1.4-6.4,1.6-12.5,1.6
			c-16.5,0-17.6-8.5-17.6-12.6C490.8,670.2,499.3,664.2,506.9,662.9z M511.2,674.9c0-2.4,0.4-5.3-2.9-5.3c-4,0-8.3,3.4-8.3,7.6
			c0,3.8,3.4,6.1,7,6.1c4,0,4.2-2.1,4.2-5.4V674.9z"/>
		<path d="M543.3,639.1c0,1.8-2.1,6-2.1,6.8c0,1.2,0.3,2.1,1.4,2.1c0.9,0,1.7-0.3,2.6-0.3c2.6,0,2.7,1.8,2.7,4.2c0,1,0,3.6-1.4,3.6
			c-0.5,0-1.9-0.6-3.1-0.6c-3.8,0-3.8,4.4-3.8,10.5c0,18.2,3.8,21.2,3.8,22.4c0,1-7.9,4.9-9.5,4.9c-2.6,0-3.3-15.3-3.3-19
			c0-8.4,0.4-11.7,0.4-13c0-2.1,0.6-5.7-2.5-5.7c-1.2,0-1.9,0.8-2.7,0.8c-0.9,0-0.8-0.9-0.8-2.1c0-5.2,1.5-5.8,4.1-5.8
			c0.3,0,0.8,0.3,1.3,0.3c2.1,0,2.3-3.4,2.7-5.7c0.3-2.6,8-4.5,9.4-4.5C542.9,637.6,543.3,637.8,543.3,639.1z"/>
		<path d="M555.7,691.4c-3.4,0-3.6,1.4-3.6-22.6c0-23.4,1.1-21.1,3.4-21.1h3.8c2.9,0,2.9,0.2,2.9,1c0,2.5-0.8,5.1-0.8,12.5
			c0,17.2,2.7,27.8,2.7,28.5c0,2.2-2.1,1.8-3.6,1.8H555.7z M552.8,637.8c0-2.9,2.5-4.7,5.3-4.7s5.3,1.8,5.3,4.7
			c0,2.9-2.5,4.5-5.3,4.5S552.8,640.7,552.8,637.8z"/>
		<path d="M568.6,669.4c0-11,5.3-22.8,17.2-22.8c11.9,0,17.2,11.8,17.2,22.8c0,16.1-9.3,23-17.2,23
			C577.9,692.4,568.6,685.5,568.6,669.4z M594.4,667.7c0-5.4-1.9-13.1-8.7-13.1c-6.8,0-8.7,7.7-8.7,13.1c0,5.5,1.8,13.3,8.7,13.3
			C592.6,681,594.4,673.2,594.4,667.7z"/>
		<path d="M628.6,691.4c-0.9,0-2.4,0.2-2.4-1.1c0-0.7,3.5-9.8,3.5-23.7c0-4.9-0.4-10.9-5.1-10.9c-2.6,0-7.9,1.7-7.9,15.3
			c0,8.2,2,18.7,2,19.6c0,1-1.2,0.9-1.8,0.9H611c-2.5,0-3.6,1.2-3.6-16.9c0-31,2.4-29.1,7.7-29.1c2.4,0,4.9-0.3,4.9,1.2
			c0,0.7-0.6,1.5-0.6,2.5c0,0.7,0.3,1.3,1,1.3c1.2,0,4.3-2.8,8.7-2.8c1.9,0,9.8,0.3,9.8,18.3c0,26.9-2.1,25.5-4.4,25.5H628.6z"/>
		<path d="M660.5,662.9c2-0.3,3.6-0.7,3.6-2.9c0-3.5-3.6-5.3-6.6-5.3c-7,0-6,5.9-7.5,5.9c-2.2,0-4.6-2.7-4.6-5.6
			c0-5.1,5.7-8.3,12-8.3c2.2,0,11.6-0.1,15,9.5c1.4,4,1.6,24.2,1.6,26.6c0,3,0.5,4.8,0.5,7.1c0,1.4-6.4,1.6-12.5,1.6
			c-16.5,0-17.6-8.5-17.6-12.6C644.4,670.2,652.8,664.2,660.5,662.9z M664.7,674.9c0-2.4,0.4-5.3-2.9-5.3c-4,0-8.3,3.4-8.3,7.6
			c0,3.8,3.4,6.1,7,6.1c4,0,4.2-2.1,4.2-5.4V674.9z"/>
		<path d="M683.5,691.4c-2.4,0-2.1-22.9-2.1-24.5c0-3.2-0.3-33.9,2.8-33.9h6.5c0.8,0,2.8-0.2,2.8,1.3c0,0.4-2.9,10.3-2.9,27.3
			c0,18.8,2.6,28,2.6,28.9c0,1.2-1.8,0.8-2.5,0.8H683.5z"/>
		<path d="M749.2,691.4c-4.7,0-0.5-4.2-11.1-25.9c-0.9-1.8-6.9-13.3-9.1-13.3c-1.7,0-1.2,7.5-1.2,8.8c0,19.3,2.8,26.3,2.8,29.8
			c0,0.9-1.3,0.6-1.9,0.6h-6.4c-1.7,0-3.8,1.3-3.8-24.3c0-33.8,3.6-32.6,4.7-32.6h5.4c2.6,0,7.8,5.5,20.6,29.1
			c0.2,0.3,0.5,1.2,1.2,1.2c0.7,0,0.5-2.9,0.5-3.9c0-12.8-3.5-24.1-3.5-25.7c0-1,1.5-0.8,2.8-0.8h5.2c1.5,0,4.7-1.2,4.7,32.6
			c0,25.6-2.1,24.3-3.8,24.3H749.2z"/>
		<path d="M795.5,647.6c2.9,0,2.9,14.4,2.9,20.9c0,25.1-1.8,23.9-6.7,23.9c-7.2,0-1.7-3.8-5.6-3.8c-0.6,0-2.2,1.4-3.4,2.3
			c-1.2,0.8-2.8,1.6-5.1,1.6c-5.7,0-10.9-3.6-10.9-23.1c0-1.2,0.5-21.7,3.4-21.7h6.3c0.9,0,2.7-0.3,2.7,1c0,1-3.1,7.9-3.1,20.8
			c0,3.8-0.1,14.2,5.8,14.2c2.3,0,7.5-0.7,7.5-15.4c0-8.2-2.4-18.7-2.4-19.8c0-0.9,1.6-0.8,2.3-0.8H795.5z"/>
		<path d="M808.6,691.4c-2.5,0-3.8,2.1-3.8-20.5c0-18.9-0.5-23.2,1.4-23.3h5.7c1,0,2.3-0.3,2.3,1c0.1,1,0.3,2.3,1.6,2.3
			c1,0,2.2-1.1,3.6-2.2c1.4-1,3.1-2.1,4.9-2.1c3.5,0,6.4,3,6.4,6.7c0,4.8-3.9,7.7-6,7.7c-0.8,0,0.1-4.6-4.6-4.6
			c-5.7,0-6.2,9.2-6.2,13.3c0,13.6,2.3,19.4,2.3,20.6c-0.1,1.1-1.6,1.1-2.3,1.1H808.6z"/>
		<path d="M833.4,680.2c0-3.2,1.6-7.3,2.2-7.3c0.3,0,2.1,10.3,11.8,10.3c2.8,0,6.1-1.4,6.1-4.9c0-7-18.5-5.2-18.5-18.8
			c0-8.3,6.7-12.9,14.1-12.9c8.5,0,13.3,5.1,13.3,6.5c0,1.3-3.8,6.8-5.4,6.8c-1.8,0-2.2-5.3-8.5-5.3c-2.1,0-5,1-5,3
			c0,7,20,6.9,20,20.8c0,8.9-7.4,14-15.6,14C840.6,692.4,833.4,688.2,833.4,680.2z"/>
		<path d="M867.6,671.3c0-16.6,9.2-24.8,18.3-24.8c7.5,0,13.9,4.2,13.9,12.3c0,14.7-22,11.6-22,18.7c0,3.2,5.2,5.5,8.6,5.5
			c11.2,0,11.2-8.5,12.2-8.5c1,0,1.2,3.6,1.2,4.1c0,8.7-6.7,13.7-14.9,13.7C872.6,692.4,867.6,682.3,867.6,671.3z M876.8,664.6
			c0,0.8,0.3,1.5,1.2,1.5c0.8,0,13.3-2.7,13.3-6.2c0-3.4-3.1-5.2-5.7-5.2C880,654.6,876.8,660.6,876.8,664.6z"/>
		<path d="M909,691.4c-2.5,0-3.8,2.1-3.8-20.5c0-18.9-0.5-23.2,1.4-23.3h5.7c1,0,2.3-0.3,2.3,1c0.1,1,0.3,2.3,1.6,2.3
			c1,0,2.2-1.1,3.6-2.2c1.4-1,3.1-2.1,4.9-2.1c3.5,0,6.4,3,6.4,6.7c0,4.8-3.9,7.7-6,7.7c-0.8,0,0.1-4.6-4.6-4.6
			c-5.7,0-6.2,9.2-6.2,13.3c0,13.6,2.3,19.4,2.3,20.6c-0.1,1.1-1.6,1.1-2.3,1.1H909z"/>
		<path d="M934.3,683.8c0-0.8,0.1-2.8,2-2.8c7.9,0,9.9-2.5,9.9-3.4c0-2.9-11.9-7.7-11.9-26.7c0-3.1-0.1-3.2,2.6-3.2h5.6
			c0.9,0,2.4-0.2,2.4,1.2c0,1-0.6,3.1-0.6,5.1c0,8,6.7,15.5,8.1,15.5c2.7,0,4.6-8.2,4.6-13.5c0-3.4-0.8-6.3-0.8-7.4
			c0-1.2,1.7-1,2.5-1h6.1c1.3,0.2,1.1,2.4,1.1,5.3c0.6,20-14.8,39.5-29.9,39.5c-1.6,0-1.6-1-1.6-2.6V683.8z"/>
	</g>
	<g class="st9">
		<path class="st6" d="M861.8,500.3c-0.2,3.5-2.2,9.8-6.8,15.2c1.9-0.1,3.9-0.2,5.8-0.4c2.3-3.4,11.2-17.2,8.8-21.1
			C868,491.6,862.2,494.6,861.8,500.3z"/>
		<path class="st6" d="M786.5,472.4c0-17.1-12-31-26.7-31c-6.1,0-12,1.6-16.8,4.7c-2.3,4.6-3.6,9.3-3.6,14.3
			c0,15.6,12.3,29.7,32.1,39.8C780.3,495.1,786.5,484.6,786.5,472.4z M756,472.1c0-12.9,6.4-23.3,14.2-23.3
			c7.8,0,14.2,10.4,14.2,23.3c0,12.9-6.4,23.3-14.2,23.3C762.4,495.4,756,485,756,472.1z"/>
		<path class="st6" d="M944.4,457.5c-4.7-17-20.7-27.3-40.2-31.1c4.5-1.2,9.2-2.8,13.4-5.2c0.3-0.2,0.6-0.4,0.9-0.5
			c-7.1-3.6-15.1-6.7-23.9-9.1c-3.1,9.8-10.2,16.8-18.9,17.4c-11.4,0.8-21.7-9.5-24.3-23.8c-1.2,0-2.4-0.1-3.5-0.1
			c0.7,3.5,1.7,6.9,3.1,9.9c1.5,3.3,3,5.7,5.2,8.2c1.4,1.6,3.2,3.2,5,4.6c-5.4,1.2-10.2,3-15.4,5.2c-8.7,3.8-14.2,8-15.9,10.2
			c-1.8-0.6-3.6-1-5.4-1.2c-12.2-1.1-21.6,7.8-21.2,18.6c0.1,3,0.8,5.8,2,8.3c-6.9,6.3-13.1,16.1-13.2,26.2c0,6.1,3,11.6,7.5,15.3
			c6.5,1.6,13.3,2.9,20.4,3.8c3.6-1.4,4.9-3.9-1.6-6c-8.1-2.6-19.6,2.2-21.5-9.7c-1.4-9.1,5.9-18.3,13.6-22.8c4.4,3.8,10.2,6,15.9,6
			c1.7,0,0.9,0,1.1,0.1c-4.6,4.6-6.5,11.3-4.1,17.6c4.4,12.1,12.7,12.7,21.6,13.3c-28.6-14.6-7.6-25.6,4.4-34.1
			c18.1-12.8,26.3,4.7,28.2,7.6c3.9,5.9,5,14,8.2,13.8c3.2-0.2,4.1-2.9,2.7-3.8c0,0-2.9-3.6-4.8-6.8c-4.7-7.8-16.6-29.3-38.4-20.1
			c0.5-1.9,0.6-4.1,0.6-6.2c0-4.5-1.8-8.7-4.6-12.1c1.5-1.1,6-4.2,20.4-7.1c15.2-3.1,28.6-3.3,47.3,0.3
			c18.6,3.5,39.2,20.2,28.1,43.5c4-3.7,7.2-7.7,9.5-11.9C946.8,469.8,946.1,463.7,944.4,457.5z M843.1,472.9
			c0.1-0.1,0.2-0.2,0.3-0.3C843.3,472.8,843.2,472.9,843.1,472.9z M843.5,462.2c0.2,4.9-1,9.5-4.1,12.7c-0.6,0.7-2.3,1.9-4.2,2.8
			c-1.7,0.7-3.7,1.1-6,1.2c-8.5,0.3-15.6-8.8-15.6-17.3c0-8.5,6.1-15.2,14.6-15.2C836.7,446.4,843.1,454.1,843.5,462.2z"/>
	</g>
</g>
</svg>
