<?xml version="1.0" encoding="utf-8"?>
<!-- Generator: Adobe Illustrator 23.1.0, SVG Export Plug-In . SVG Version: 6.00 Build 0)  -->
<svg version="1.1" id="artwork" xmlns="http://www.w3.org/2000/svg" xmlns:xlink="http://www.w3.org/1999/xlink" x="0px" y="0px"
	 viewBox="0 0 2826.8 916.3" style="enable-background:new 0 0 2826.8 916.3;" xml:space="preserve">
<style type="text/css">
	.st0{fill:#FBB41E;}
	.st1{fill:#845D32;}
</style>
<g>
	<g>
		<path class="st0" d="M1963.7,485.5c6.7-3.3,8.5-12.3,4-20.2c-4.3-8-13.2-11.7-19.9-8.5c-6.7,3.1-8.5,12.3-4.2,20.2
			C1948.1,485.1,1957,488.8,1963.7,485.5z"/>
		<path class="st0" d="M2057.8,560.4c-6.7,3.3-8.5,12.3-4.2,20.2c4.5,8,13.4,11.7,20.1,8.5c6.5-3.3,8.5-12.3,4-20.2
			C2073.4,560.9,2064.4,557.2,2057.8,560.4z"/>
		<path class="st0" d="M2088.9,560.4c-6.7,3.3-8.5,12.3-4.2,20.2c4.5,8,13.4,11.7,20.1,8.5c6.7-3.3,8.5-12.3,4-20.2
			C2104.5,560.9,2095.6,557.2,2088.9,560.4z"/>
		<path class="st0" d="M2752.2,405.4c6.7-3.3,8.5-12.3,4.2-20.2c-4.5-8-13.4-11.9-19.9-8.6c-6.7,3.3-8.6,12.3-4.2,20.4
			C2736.6,404.8,2745.7,408.6,2752.2,405.4z"/>
		<path class="st0" d="M2754.4,426c4.5,7.9,13.4,11.7,19.9,8.5c6.7-3.3,8.6-12.3,4.2-20.4c-4.3-7.9-13.4-11.7-19.9-8.5
			C2751.9,408.9,2750.1,418,2754.4,426z"/>
		<path class="st0" d="M2743.4,434.5c6.7-3.3,8.5-12.3,4.2-20.4c-4.5-7.9-13.4-11.7-20.1-8.5c-6.7,3.3-8.5,12.3-4,20.4
			C2727.8,433.9,2736.7,437.8,2743.4,434.5z"/>
		<path class="st0" d="M2305.8,525c-24.8,3.3-31.7-23.6-35.7-42.7c-1-6.7-1.9-14-3.3-21.3c-1.9-11.3-25.9-3.9-25.7,7.9
			c0.1,16.5,5.4,30.8,8.2,47.4c-0.4,4.6,0.1,9.8-4,12.8c-9.2,6.5-18.9-5.9-23-12.3c-4.8-16.5-7.7-35.1-10-54.7
			c-0.3-2.7,0.3-5.6-1-6.8c-6.8-0.1-21.6-0.7-23.6,12.8c-2.2,13.5,6.1,34.2,6.8,52.5c0.1,5.1-2.5,8.9-6.7,9.7
			c-12.9,2.4-18.7-11.7-22.3-21.6c-4.9-14.1-7.9-30.9-8.6-48.5c-0.1-2.1-0.9-4.9-3.4-5.1c-20.5-1.3-29.1,15.2-25.3,32.3
			c0.7,2.4,1.3,4.9,2.1,7.3c4.3,14.7,1.6,4.2,5.5,16.1c8.3,13.7-8.5,14.1-14.9,14.3l0,0c-16.6,2.1-24.7-0.2-32.5-15.9
			c-8.3-21.1-6.2-38.5-9.4-56.6c-8-13.8-31.5,4.5-26.9,17.4c-0.3,10,13.1,43,5.4,49.2c-4.2,3.3-8.9,5.5-14.9,5.9
			c-25.4,3.4-33-26.5-36.3-45.8c-0.1-1.6-0.1-3.4,0.6-4.6c0.9-1.5,3-1.2,4.2-1.8c1.3-0.4,2.2-1.6,1.6-2.5c-7.7-11.4-26-9.2-32.9,1.9
			c-1.8,2.8-2.1,7.6-1.9,11.3c0.9,17.5,22.7,66.8-1.2,79.1c-18.1,9.4-46.4,0.1-53.5-13.2c-14-17.5-8.8-53.4,6.8-65.4
			c2.2-1.8,4.9-4.5,6.1-6.8c0.4-0.7-1.5-1.9-2.7-1.6c-14.9,3.1-26.2,8.3-37,19c-8,7.9-13.4,18.1-12.6,34.5
			c3.9,32.4,26.5,52.3,60.1,53.7c31.4,1.2,58.4,0.6,71.2-40.4c7.9,3.9,18.9,4.8,27.5,3.9l0,0c13.1-0.6,26.7-7.1,35.2-15.3
			c8.2,13.1,27.6,15.3,43.1,15.3l0,0l0,0l0,0c8.8-0.3,31.1-1.6,38.6-11.3c3.9,4.2,30.2,35.4,58-1.3c15.8,16.9,34,15.6,47.6,8.9
			c2.2-1.6,4.3-3.6,5.9-5.9c6.4,8.5,22.9,10.9,34.8,9.7h43.4c0.7-7.7,1.7-14.7,3-21.1h-46.4V525z"/>
		<path class="st0" d="M2819.9,465.9c0.4-1,3.1-1.8,4.8-3.1c0.1-0.1,0.1-1.5,0.1-1.5c-8.3-11.4-33.7-10.7-33.6,5.1
			c0.1,16.5,5.4,30.8,8.2,47.4c-0.4,4.6,0.1,9.8-4,12.8c-9.2,6.5-18.9-5.8-23-12.2c-4.8-16.7-7.7-35.2-10-54.9
			c-0.3-2.7,0.3-5.6-1-6.8c-6.8-0.1-21.6-0.7-23.8,12.8c-2.1,13.5,6.2,34.2,7,52.5c0.1,5.1-2.7,8.9-6.7,9.7
			c-12.9,2.4-18.9-11.7-22.3-21.6c-4.9-14.1-7.9-30.8-8.6-48.5c-0.1-2.1-0.9-4.9-3.4-5.1c-23.3-1.5-28.4,15-23.8,34.8
			c0.6,2.5,1.3,4.9,2.1,7.3c4.3,14.7,1.6,4.3,5.5,16.1c1.8,7.6-8.5,14.3-14.9,14.4c-10.4,1.3-18.1-2.2-23.3-11
			c-0.1-21.7-9.1-37.3-22.5-45.9c-12.5-7.9-27.8-12.6-42.5-8.9c-22.3,5.6-25.3,32.7-21.6,50.8c0.7,3.6,0.7,6.4,0.3,8.5
			c-3.6,6.1-13.2,6.7-20.4,6.5h-59.2H2464c-2.4,6.8-5.8,13.7-10.9,21.1h30.2h59.2l0,0c10.4,1,43.7-13.1,47.4-9.8
			c14.3,13.2,34.8,15,49.1,2.4c7.1,7.1,22.3,8.5,33.5,7.4l0,0c13.5-0.6,25.9-7,37.2-14c0.4,0,1,0,1.6,0.1c3.9,1.9,11.7,8,16.5,10.1
			c11.6,4.8,24.5,6.5,39.8-11.6c23,23.8,58.7,15.9,58.7-14.4C2828.6,500.8,2817,473,2819.9,465.9z M2612.3,530
			c-3.7,2.1-12.6-4-14.6-6.7c-7-9.8-11.2-31.1-4.3-43.7c1-2.1,3-3.6,4.8-3.7C2620,473.3,2631.3,519.4,2612.3,530z"/>
	</g>
	<g>
		<path class="st1" d="M749.4,902.7c18.5-64.4,39.4-146.5,62.8-246.1c23.4-99.7,40.3-166.6,50.6-200.8
			c21.2-70.5,45.4-123.6,72.6-159.2c27.2-35.7,57.2-53.5,89.8-53.5c19.1,0,33.6,5,43.6,15c10,10,15,24.5,15,43.6
			c0,19.4-5.2,37.8-15.4,55.4c-10.3,17.5-27.8,37.5-52.6,59.9c-9.1,8.5-18,15.6-26.8,21.5s-14.4,8.9-16.8,8.9
			c-1.8,0-3.2-0.5-4.1-1.4s-1.4-2-1.4-3.2c0-1.5,3.8-5.6,11.3-12.2c41.4-35.7,62.2-73.6,62.2-113.9c0-15.1-3.4-28-10.2-38.8
			c-6.8-10.7-14.3-16.1-22.4-16.1c-23.9,0-46,27-66.2,81c-20.3,54-51.1,182.5-92.6,385.4c26.6-31.5,52.1-55,76.4-70.5
			c24.3-15.6,47.7-23.4,70.1-23.4c19.7,0,34.6,4.9,44.9,14.7c10.3,9.8,15.4,23.8,15.4,42c0,20.3-8.9,43.3-26.5,69
			c-17.7,25.7-47.1,57.9-88.2,96.6h78.9c26.6,0,50.8-9.1,72.6-27.2c4.2-3.6,7-5.4,8.2-5.4c1.5,0,2.9,0.5,4.3,1.6s2,2,2,2.9
			c0,11.5-13.2,26.8-39.7,45.8c-26.5,19.1-54.7,28.6-84.6,28.6h-90.3c45.7-66.2,75.4-112.4,89.2-138.6s20.6-46.8,20.6-61.9
			c0-11.8-3.1-20.6-9.3-26.5c-6.2-5.9-15.2-8.9-27-8.9c-21.5,0-44.1,10.4-67.8,31.3s-43.6,48.2-59.7,82.1
			c-12.1,26-25.1,57.8-39,95.3l-1.8,5c-3.6,10-7.1,16.2-10.4,18.6c-3.3,2.4-10.3,3.6-20.9,3.6h-16.8V902.7z"/>
		<path class="st1" d="M1318.8,831.9c-25.1,28.7-46.7,48.5-64.9,59.2c-18.1,10.7-37.4,16.1-57.6,16.1c-23.9,0-41.8-5.9-53.8-17.7
			c-11.9-11.8-17.9-29.6-17.9-53.5c0-24.8,6.2-48.9,18.6-72.4c12.4-23.4,30.7-45.9,54.9-67.4c23.6-20.6,47.3-35.8,71.2-45.6
			c23.9-9.8,49.4-14.7,76.7-14.7c22.4,0,39.8,5.4,52.4,16.3s18.8,25.9,18.8,44.9c0,11.8-5.1,31.5-15.2,59.2s-24.9,61.9-44.2,102.8
			h35.4c26.3,0,49.3-8.6,69-25.9c5.7-5.1,9.7-7.7,11.8-7.7c1.5,0,2.7,0.4,3.6,1.4c0.9,0.9,1.4,2,1.4,3.2c0,8.5-11.7,23.4-34.9,44.9
			c-23.3,21.5-44.6,32.2-64,32.2c-18.1,0-31.9-5.7-41.3-17C1329.4,878.9,1322.7,859.4,1318.8,831.9z M1333.8,652.7
			c-23.6,0-44.6,5.2-63.1,15.6s-36.7,27.6-54.9,51.5c-13.9,18.4-24.5,36.1-31.8,52.9s-10.9,32-10.9,45.6c0,14.8,3.5,25.3,10.4,31.5
			c7,6.2,19.8,9.3,38.6,9.3c20,0,35.4-2.3,46.3-6.8s21.5-12.3,31.8-23.1c17.5-18.1,33.1-42.3,46.7-72.4s20.4-54.5,20.4-73.3
			c0-11.5-2.4-19.5-7.3-24C1355.2,655,1346.5,652.7,1333.8,652.7z"/>
		<path class="st1" d="M1480.3,902.7c24.2-61.4,41.4-113.6,51.7-156.7c10.3-43.1,15.4-83.7,15.4-121.8c0-8.2-0.1-14.2-0.2-18.1
			c-0.2-3.9-0.4-7.4-0.7-10.4c16.3,10,28.1,22.5,35.4,37.7c7.3,15.1,10.9,34.9,10.9,59.4v15.9c23-25.4,43.9-44.2,62.8-56.2
			c18.9-12.1,36.7-18.1,53.3-18.1c17.2,0,30.5,5.8,39.9,17.5c9.4,11.6,14.1,28.2,14.1,49.7v10.9c25.7-27.2,49.1-47,70.1-59.4
			s41.7-18.6,61.9-18.6c19.3,0,34.7,5.1,46,15.4s17,24,17,41.3c0,15.7-6.8,34.3-20.4,55.8s-43.4,58.1-89.4,109.8h65.3
			c26.6,0,51.1-9.1,73.5-27.2c4.2-3.6,7-5.4,8.2-5.4c1.5,0,2.8,0.5,3.9,1.4c1,0.9,1.6,2,1.6,3.2c0,11.5-13.1,26.8-39.2,45.8
			c-26.2,19.1-54.2,28.6-84.2,28.6h-81.7c39-57.5,66.4-101.5,82.1-132s23.6-54.4,23.6-71.7c0-12.4-3-21.8-9.1-28.1
			c-6.1-6.4-15.1-9.5-27.2-9.5c-16.6,0-37.1,11.3-61.2,33.8c-24.2,22.5-41.9,48-53.1,76.4c-8.8,23-18.3,49.4-28.6,79.4
			c-11.8,34.5-23.3,51.7-34.5,51.7h-31.8l44-142.9c3.9-13,6.9-24.9,8.9-35.6s2.9-20.3,2.9-28.8c0-13-1.7-21.9-5-26.8
			c-3.3-4.8-9.4-7.3-18.1-7.3c-18.5,0-38,11-58.8,32.9c-20.7,21.9-38.6,51.2-53.8,87.8c-7,16.9-15,37.7-24,62.2
			c-14.2,39-30.4,58.5-48.5,58.5h-23V902.7z"/>
		<path class="st1" d="M2099.1,698.1c-12.4,13.6-24.7,29.1-37,46.5c-12.2,17.4-20.6,26.1-25.2,26.1c-0.9,0-1.7-0.5-2.5-1.6
			s-1.1-2.3-1.1-3.9c0-5.4,7.9-20.6,23.6-45.4c5.4-8.8,9.7-15.7,12.7-20.9c24.2-38.4,42.8-63,55.8-73.7s27.2-16.1,42.7-16.1
			c7,0,12.2,1.5,15.9,4.5c3.6,3,5.4,7.4,5.4,13.2c0,10-7.4,18.4-22.2,25.4c-11.8,5.4-21.2,10.9-28.1,16.3
			c1.5,10,10.9,24.5,28.1,43.6c17.2,19.1,25.9,38,25.9,56.7c0,17.5-4.8,33.9-14.5,49s-23.4,28-41.3,38.6h27.2
			c23.9,0,43.7-5.6,59.4-16.8c15.7-11.2,24.9-16.8,27.7-16.8c1.5,0,2.6,0.2,3.4,0.7c0.8,0.4,1.1,1.1,1.1,2
			c0,9.1-13.6,24.2-40.8,45.4c-27.2,21.2-52.6,31.8-76.2,31.8h-131.6l14.5-37.2c1.2-3.3,3.3-5.7,6.4-7c3-1.4,7.4-2,13.2-2h41.7
			c22.4,0,40.7-6.3,54.9-18.8s21.3-26.1,21.3-40.6c0-10.3-9.2-24.5-27.7-42.7C2113.3,736.2,2102.5,717.4,2099.1,698.1z"/>
		<path class="st1" d="M2311.9,863.7h58.5c25.7,0,49.7-10,72.1-29.9c5.7-4.8,9.2-7.3,10.4-7.3c1.5,0,3,0.6,4.5,1.8
			c1.5,1.2,2.3,2.4,2.3,3.6c0,7.9-13.1,23-39.5,45.4c-26.3,22.4-50.1,33.6-71.2,33.6c-20,0-35.3-5.8-46-17.5
			c-10.7-11.6-16.1-28.4-16.1-50.1c0-11.5,2.9-30.7,8.9-57.6c5.9-26.9,14.4-60.5,25.6-100.7c0.3-1.5,1.1-4.2,2.3-8.2
			c7-26,15.1-39,24.5-39h27.7c6.4,0,10.3,0.7,11.8,2s2.3,3.6,2.3,6.6c0,0.6-0.9,3.3-2.7,8.2c-7.9,19.4-15,39.8-21.3,61.2
			c-1.8,6-4.5,15.3-8.2,27.7C2343.5,795.1,2328.2,835.2,2311.9,863.7z M2370.4,593.3v-8.2c0-36,3.5-61.2,10.4-75.8
			c7-14.5,18.7-21.8,35.4-21.8c10,0,17.2,1.5,21.8,4.5c4.5,3,6.8,8,6.8,15c0,10-6.5,22.5-19.5,37.7c-1.2,1.2-2.1,2.3-2.7,3.2
			l-39.9,45.4L2370.4,593.3L2370.4,593.3z"/>
		<path class="st1" d="M2462.5,902.7c24.5-61.1,41.8-113.3,51.9-156.5c10.1-43.3,15.2-84.5,15.2-123.9v-13.2
			c15.1,8.2,26,18.8,32.7,32c6.6,13.2,10,30.3,10,51.5c0,5.8-0.4,15-1.4,27.7c-0.3,2.1-0.4,3.8-0.4,5c29.3-32.4,55.3-55.6,78-69.9
			c22.7-14.2,44.9-21.3,66.7-21.3c19.7,0,34.6,4.9,44.9,14.7c10.3,9.8,15.4,23.8,15.4,42c0,20.3-8.9,43.3-26.5,69
			c-17.7,25.7-47.3,57.9-88.7,96.6h79.4c26.6,0,50.8-9.1,72.6-27.2c4.2-3.6,7-5.4,8.2-5.4c1.5,0,2.9,0.5,4.3,1.6c1.4,1.1,2,2,2,2.9
			c0,11.5-13.2,26.8-39.7,45.8c-26.5,19.1-54.7,28.6-84.6,28.6h-92.1c36.6-49,64.2-90.4,82.8-124.1s27.9-59.2,27.9-76.4
			c0-11.5-2.8-20.1-8.4-25.9c-5.6-5.7-14-8.6-25.2-8.6c-21.2,0-43.1,9-65.8,27s-40.1,40.6-52.2,67.8c-13.3,29-24.8,54.6-34.5,76.7
			s-15.6,35.8-17.7,41.3c-4.2,10.6-7.9,17-11.1,19.1c-3.2,2.1-10.1,3.2-20.6,3.2L2462.5,902.7L2462.5,902.7z"/>
	</g>
	<g>
		<g>
			<path class="st1" d="M1268.9,319.3c0,0-44,19-22.2,68.4C1270.2,370.6,1288.9,353.7,1268.9,319.3z"/>
			<path class="st1" d="M1276.1,316.7c0,0,44.3-18.4,64.6,31.6C1312,353.3,1286.9,355,1276.1,316.7z"/>
		</g>
		<g>
			<path class="st1" d="M1241.4,277.5c0,0-41.3,24.5-13.3,70.6C1249.3,328.2,1265.6,309,1241.4,277.5z"/>
			<path class="st1" d="M1248.3,274c0,0,41.6-24,68.1,23.1C1288.6,305.7,1263.9,310.5,1248.3,274z"/>
		</g>
		<g>
			<path class="st1" d="M1208.5,240.4c0,0-37.8,29.5-4.2,71.8C1222.8,289.6,1236.6,268.6,1208.5,240.4z"/>
			<path class="st1" d="M1214.9,236c0,0,38.2-29,70.5,14.2C1258.9,262.4,1235,270.3,1214.9,236z"/>
		</g>
		<g>
			<path class="st1" d="M1171.5,208.6c0,0-34.5,33.4,3.5,71.8C1191,256,1202.4,233.6,1171.5,208.6z"/>
			<path class="st1" d="M1177.4,203.6c0,0,34.9-32.9,71.6,6.7C1223.9,225.1,1201.1,235.5,1177.4,203.6z"/>
		</g>
		<g>
			<path class="st1" d="M1122.6,182.3c0,0-24.2,41.4,22.7,68.2C1154.1,222.8,1159.1,198.1,1122.6,182.3z"/>
			<path class="st1" d="M1126.9,175.9c0,0,24.7-41.1,70.7-12.9C1177.5,184.1,1158.3,200.3,1126.9,175.9z"/>
		</g>
		<g>
			<path class="st1" d="M1078,165.8c0,0-19.9,43.6,29.4,65.6C1113.4,202.9,1115.9,177.9,1078,165.8z"/>
			<path class="st1" d="M1081.6,159c0,0,20.4-43.4,69.1-19.9C1132.8,162.1,1115.3,180.1,1081.6,159z"/>
		</g>
		<path class="st1" d="M1311,406.2c0,0-25.4,36.3,12.3,66.4l15.6,49.4l-7.2-55.8C1340,443.3,1341.6,422.7,1311,406.2z"/>
		<g>
			<path class="st1" d="M1268.4,425.7l22.2,66.2l-10.4-70c17.8-15,28.4-31.8,11-60.6C1291.3,361.3,1250.3,379.8,1268.4,425.7z"/>
			<path class="st1" d="M1354.7,398.1l20.5,66.7l-32.4-62.9c-23.2-1.9-41.6-9.3-44.3-42.8C1298.6,359.1,1342.7,350.3,1354.7,398.1z"
				/>
		</g>
	</g>
	<g>
		<path class="st1" d="M1055,153.6c-9.6-2.3-19.4-3.6-29.1-4.6c-9.8-1-19.6-1.4-29.3-1.4c-9.8,0-19.5,0.4-29.2,1.2
			c-9.7,0.9-19.3,2.2-28.9,3.8c-9.6,1.7-19,3.9-28.3,6.4l-7,2l-3.5,1l-3.4,1.1l-6.9,2.3l-6.8,2.5c-2.3,0.8-4.5,1.7-6.7,2.6l-6.7,2.7
			c-2.2,0.9-4.4,2-6.6,2.9c-2.2,1-4.4,1.9-6.6,3l-6.5,3.2l-3.2,1.6l-3.2,1.7c-4.2,2.3-8.5,4.5-12.6,7l-6.2,3.7l-6.1,3.9
			c-2,1.3-4.2,2.6-6.2,4l-5.9,4l-2.9,2l-2.9,2.1l-5.8,4.3c-3.8,2.9-7.6,5.9-11.3,9s-7.4,6.1-10.9,9.4c-1.8,1.6-3.6,3.2-5.3,4.8
			l-5.2,5c-6.8,6.8-13.4,13.7-19.5,21.1c-12.3,14.6-23.2,30.4-32.2,47.2c-4.5,8.4-8.5,17-12,25.8c-1.7,4.4-3.3,8.9-4.7,13.3
			c-0.7,2.2-1.3,4.5-1.9,6.7c-0.3,1.1-0.6,2.2-0.8,3.3l-0.4,1.6l-0.3,1.4l-0.2,0.9v0.2c-0.1,0.4-0.3,1.1-0.4,1.7l-0.4,1.9
			c-0.3,1.3-0.5,2.6-0.7,4c-0.4,2.7-0.6,5.3-0.7,7.9c-0.1,5.2,0.6,10.2,2.3,13.9c1.7,3.7,4.2,6.1,8.2,7.4c2,0.6,4.2,1.1,6.7,1.1h0.5
			h0.2h0.1c0.1,0-0.5,0-0.2,0h0.1h1.1h2.3c0.8,0,1.4-0.1,2-0.1l1.8-0.2c5.2-0.5,10.5-1.9,15.7-3.8s10.2-4.4,15-7.3
			c9.7-5.8,18.8-13.1,27.1-21.2c4.2-4,8.2-8.3,11.9-12.8c0.9-1.1,1.8-2.2,2.7-3.3c0.5-0.6,0.8-1,1.2-1.6l1.2-1.8
			c1.6-2.4,3.1-4.9,4.5-7.4c2.9-5.1,5.5-10.3,7.8-15.7c2.3-5.4,4.3-10.9,6-16.5c1.6-5.6,2.8-11.4,3.6-17.2
			c0.8-5.8,1.1-11.7,0.9-17.6c-0.2-5.9-1-11.8-2.4-17.6c-1.4-5.8-3.4-11.4-5.9-16.9c3.2,5.1,5.8,10.6,7.9,16.3
			c2.1,5.7,3.5,11.7,4.3,17.8c0.8,6.1,1.1,12.3,0.8,18.4c-0.3,6.2-1.1,12.3-2.4,18.4c-1.2,6.1-2.9,12-4.9,17.9s-4.4,11.6-7.1,17.1
			c-1.4,2.8-2.8,5.5-4.4,8.3l-1.2,2c-0.4,0.7-0.9,1.5-1.4,2.1c-0.9,1.3-1.8,2.6-2.7,3.8c-3.7,5-7.6,9.8-11.8,14.4
			c-8.4,9.2-17.8,17.6-28.4,24.6c-5.3,3.5-11,6.6-17,9.1s-12.4,4.4-19.1,5.4l-2.7,0.3c-0.9,0.1-1.8,0.2-2.5,0.2l-2.3,0.1l-1.1,0.1
			h-0.4h-0.2h-0.3h-0.7c-3.5,0-7.3-0.5-11-1.6c-3.8-1.1-7.6-3-10.8-5.7s-5.8-6.1-7.5-9.7c-3.5-7.2-4.3-14.4-4.4-21.2
			c0-3.4,0.2-6.8,0.6-10.1c0.2-1.7,0.5-3.3,0.8-4.9l0.5-2.5c0.2-0.9,0.3-1.6,0.6-2.6l-0.2,1c0.1-0.9,0.2-1.5,0.4-2.2l0.4-2
			c0.3-1.3,0.6-2.6,0.9-3.9c0.6-2.5,1.3-5,2-7.5c1.5-5,3.1-9.8,4.9-14.6c3.6-9.6,7.8-18.9,12.6-27.9s10-17.7,15.7-26.2
			c5.7-8.4,12-16.4,18.5-24.2c6.5-7.8,13.6-15.1,20.8-22.2l5.5-5.2c1.9-1.7,3.8-3.4,5.7-5c3.8-3.4,7.7-6.5,11.6-9.8
			c1.9-1.6,4-3.1,6-4.6s4-3.1,6.1-4.5l6.2-4.4l3.1-2.2l3.2-2.1l6.4-4.2c2.1-1.4,4.2-2.6,6.4-3.9l6.5-3.9l6.6-3.6
			c8.8-4.9,17.9-9.2,27.2-13.3c2.3-1,4.7-1.9,7-2.9c2.3-0.9,4.7-1.9,7-2.8c4.8-1.7,9.4-3.5,14.3-4.9l7.2-2.3l7.3-2l3.6-1l3.7-0.9
			l7.3-1.7c9.9-2,19.7-3.7,29.7-4.9c10-1.1,20-1.9,30-2s20,0.2,29.9,1.1s19.8,2.3,29.5,4.2c4.9,0.9,9.7,2.1,14.5,3.4
			C1045.6,150.5,1050.4,151.9,1055,153.6z"/>
		<path class="st1" d="M759.8,195.8c-6-3.4-12.4-6.1-18.7-8.6c-6.4-2.5-12.9-4.7-19.4-6.5c-6.6-1.8-13.2-3.4-19.9-4.5
			c-6.7-1.2-13.4-2.1-20.1-2.5c-6.7-0.5-13.4-0.6-20.1-0.4c-6.7,0.2-13.3,0.9-19.8,1.9s-13,2.4-19.3,4.2c-6.3,1.7-12.5,3.9-18.6,6.4
			c-6,2.5-12,5.3-17.6,8.5l-2.3,1.2c-0.8,0.4-1.5,0.8-2.2,1.2l-4,2.5c-1.3,0.8-2.6,1.8-4,2.7c-1.3,0.9-2.7,1.8-3.9,2.8
			c-5.2,3.8-10,8-14.6,12.4l-3.4,3.4l-3.2,3.5c-1.1,1.1-2.1,2.4-3.1,3.6s-2,2.4-3,3.7c-7.9,9.9-14.4,21-19.5,32.6
			c-2.5,5.8-4.7,11.7-6.6,17.7c-0.9,3-1.8,6-2.5,9c-0.3,1.5-0.7,3-1,4.5l-0.4,2.2l-0.2,1l-0.1,0.5c0,0.1,0,0.3,0,0.3l-0.3,1.5
			l-0.3,1.9l-0.3,2.4c-0.2,1.7-0.4,3.4-0.5,5.1c-0.3,3.4-0.4,6.9-0.4,10.5c0,7,0.5,14.1,1.3,21.1c1.7,14.1,5.2,27.9,10.3,41.1
			s11.7,25.8,19.5,37.6c7.9,11.8,17,22.9,27.2,33c5.1,5.1,10.4,10,15.8,14.7l17.7,15c11.9,10.2,23.8,20.4,35.6,31
			s23.5,21.5,34.9,33.4s22.4,25.2,31.8,39.5c1.2,1.8,2.3,3.6,3.4,5.4c1.1,1.8,2.2,3.6,3.3,5.4c2,3.6,4.2,7.2,6.1,10.8
			c1.9,3.6,3.9,7.2,5.7,10.7l2.8,5.3c0.8,1.5,0.8,1.6,1.6,3.3l0.5,1l0.4,0.9l0.7,1.7c3.7,9.1,6.2,17.7,8.1,26.5
			c1.9,8.7,3.1,17.5,3.7,26.4c2.6,35.2-5,71.3-21.1,102.7c-8,15.7-18.1,30.3-29.5,43.3c-5.7,6.5-11.8,12.7-18.1,18.5
			c-1.6,1.5-3.2,2.9-4.8,4.3s-3.2,2.8-4.9,4.2l-1.2,1l-1.5,1.2l-2.3,1.8l-2.3,1.8l-2.8,2.1l-2.8,2.1l-2.7,1.9
			c-1.8,1.3-3.6,2.5-5.5,3.7c-1.8,1.2-3.7,2.4-5.6,3.5c-1.9,1.2-3.8,2.3-5.7,3.3c-7.7,4.3-15.7,8.2-24,11.4
			c-16.6,6.5-34.2,10.5-51.8,12c-17.6,1.6-35.2,0.7-52.3-2.1c-17.1-2.8-33.6-7.5-49.5-13.7c-7.9-3.1-15.7-6.6-23.3-10.5
			c-3.8-2-7.6-4-11.5-6.3l-3-1.9l-0.4-0.3c0.2,0.1-1.1-0.7,0.2,0.1l-1-0.7l-1.6-1c-2-1.4-3.9-2.7-5.7-4
			c-14.3-10.8-26.5-23.2-37.1-37.3c-10.5-14.1-19.1-29.8-24.9-46.7c-5.9-16.8-8.7-34.7-8.8-52.2v-6.1c0-2.4,0.1-4.7,0.3-6.9
			c0.3-4.5,0.8-8.9,1.5-13.2c1.4-8.7,3.4-17.2,6.1-25.6c5.5-16.6,13.8-32.5,24.8-46.4c10.9-13.9,24.6-25.4,39.4-34.2
			c7.4-4.4,15.2-8.1,23-11.2c7.9-3.1,15.9-5.6,24-7.5l1.5-0.4l0.8-0.2l0.4-0.1c-0.1,0,2.1-0.5,1.4-0.3c1.3-0.2,2.4-0.3,3.6-0.5
			c2.3-0.2,4.5-0.4,6.7-0.4c4.5-0.1,8.9,0,13.5,0.5c4.5,0.5,9.1,1.4,13.7,2.8c4.6,1.4,9.2,3.5,13.6,6.3c4.3,2.8,8.3,6.6,11.4,11
			c3.1,4.4,5.2,9.2,6.5,14.1c0.6,2.4,1.1,4.8,1.4,7.2l0.1,1.1l0.1,0.7l0.1,1.5l0.1,1.5l0.1,1.8c0.1,2.4,0,4.6,0,6.8
			c-0.1,2.2-0.3,4.4-0.6,6.5c-1,8.7-3.3,16.9-6.3,24.8c-3,7.8-6.7,15.2-10.8,22.2c-8.3,14-18.4,26.6-29.1,38.2
			c-10.8,11.6-22.4,22.3-34.6,32.2c-12.2,9.9-24.7,19.3-37.9,27.6c11.9-10.1,23.2-20.7,34-31.9c10.7-11.2,20.9-22.8,30.1-35
			c9.2-12.2,17.4-25,23.8-38.5c6.4-13.4,10.7-27.5,11.1-41.3c0.1-1.7,0-3.4,0-5.1c-0.1-1.7-0.2-3.4-0.4-4.9l-0.1-1.1l-0.2-1.4
			l-0.2-1.4l-0.1-0.7c0-0.2,0,0.3,0,0l-0.1-0.3c-0.3-1.5-0.7-2.9-1.2-4.2c-1.9-5.3-5-8.9-9.6-11.3c-4.5-2.5-10.6-3.8-17-4
			c-3.2-0.1-6.5,0-9.8,0.3c-1.6,0.2-3.3,0.4-4.9,0.7c-0.8,0.1-1.6,0.3-2.2,0.4c-0.9,0.2,1.1-0.3,0.7-0.2l-0.3,0.1l-0.6,0.2l-1.3,0.4
			c-13.7,4.6-26.7,10.8-38.1,18.7c-11.4,7.9-21.1,17.7-28.8,28.7c-7.7,11.1-13.3,23.6-16.7,36.7c-1.7,6.6-3,13.3-3.7,20
			c-0.4,3.4-0.6,6.7-0.6,10c0,1.6,0,3.3,0.1,4.7l0.1,1c0,0.2,0,0.3,0,0.3l0.1,1.8l0.1,2.5c0.6,13.5,3.6,26.7,8.3,39.1
			c4.8,12.4,11.7,24.1,20.2,34.6c4.2,5.3,8.9,10.3,13.8,14.9c4.9,4.6,10.2,9,15.5,12.8c1.3,0.9,2.7,1.8,3.9,2.6l2.1,1.3l2,1.1
			c2.9,1.6,5.9,3.2,9.1,4.7c6.3,3,12.8,5.8,19.4,8.2c26.5,9.6,54.5,14.2,81.2,11.4c13.4-1.4,26.4-4.6,38.7-9.5
			c6.2-2.5,12.2-5.4,18-8.7c1.5-0.8,2.9-1.7,4.3-2.6c1.4-0.9,2.9-1.8,4.3-2.7c1.4-0.9,2.8-1.9,4.2-2.9l2.1-1.5l1.9-1.4l1.9-1.4
			l2.3-1.8l2.3-1.8l1.8-1.5c1.3-1.1,2.7-2.3,4-3.4c1.3-1.2,2.6-2.3,3.9-3.5c5.1-4.8,10-9.7,14.5-14.9c9-10.4,16.9-21.6,23.1-33.5
			c6.2-12,10.8-24.6,13.5-37.7c2.8-13.1,3.8-26.6,3-40c-0.4-6.7-1.2-13.4-2.5-19.9c-1.3-6.4-3-12.9-5.2-18.2l-0.4-1l-0.3-0.8
			c0-0.1-0.8-1.8-0.9-2l-2.5-5.1c-1.7-3.4-3.4-6.7-5.1-10c-1.7-3.3-3.5-6.4-5.2-9.6c-1.8-3-3.5-6.2-5.4-9.1
			c-7.4-11.9-16-22.9-25.8-33.7c-9.8-10.8-20.7-21.4-31.7-32s-22.4-21-33.7-31.5l-17.3-15.8c-6.1-5.6-12-11.5-17.7-17.7
			c-11.3-12.4-21.5-25.9-30.3-40.3c-4.4-7.2-8.3-14.7-11.9-22.4c-3.5-7.7-6.6-15.6-9.2-23.7c-5.2-16.1-8.5-32.9-9.7-49.8
			c-0.6-8.5-0.6-17,0-25.5c0.3-4.3,0.7-8.5,1.3-12.8c0.3-2.1,0.7-4.3,1.1-6.5c0.2-1.1,0.4-2.2,0.7-3.3l0.4-1.7l0.5-2l-0.3,1.5l0.2-1
			l0.2-0.8l0.3-1.5l0.7-2.9c0.5-1.9,1-3.7,1.6-5.5c1.1-3.6,2.3-7.2,3.7-10.7c2.7-7,5.7-13.8,9.2-20.4c7-13.2,15.5-25.5,25.6-36.5
			c5-5.5,10.4-10.7,16.1-15.4c5.8-4.7,11.7-9.1,18-12.9c1.5-1,3.2-1.9,4.8-2.8s3.1-1.9,4.9-2.7l5.1-2.6c0.9-0.5,1.6-0.8,2.4-1.1
			l2.4-1.1c6.7-3.1,13.5-5.5,20.4-7.7c13.8-4.3,28.2-6.9,42.5-7.7c14.3-0.8,28.7,0.1,42.6,2.7c7,1.3,13.8,2.9,20.6,4.9
			c6.7,2,13.3,4.4,19.8,7.1s12.7,5.7,18.9,9C748.4,188,754.3,191.7,759.8,195.8z"/>
		<path class="st1" d="M-0.7,913.6c0,0,1.4-0.1,4-0.2c2.6-0.2,6.5-0.4,11.4-0.7c4.9-0.3,10.8-0.8,17.6-1.3
			c6.8-0.6,14.4-1.3,22.8-2.1c8.3-0.8,17.3-1.9,26.8-3.1s19.5-2.6,29.8-4.2c5.2-0.8,10.4-1.7,15.7-2.5c5.3-0.9,10.6-1.9,16-2.9
			c5.4-1.1,10.8-2,16.2-3.2c5.4-1.1,10.9-2.2,16.3-3.5l8.1-1.8c2.7-0.7,5.4-1.3,8.1-2c5.4-1.3,10.7-2.7,16-4.1
			c2.6-0.7,5.3-1.4,7.9-2.2c2.6-0.7,5.2-1.5,7.8-2.2c5.2-1.5,10.2-3.2,15.2-4.6c5-1.5,9.8-3.3,14.5-4.8c4.8-1.6,9.3-3.4,13.8-4.9
			s8.8-3.4,13-5c4.2-1.5,8.2-3.3,12.1-4.9c3.8-1.6,7.5-3.2,11-4.8c3.5-1.6,6.8-3,9.9-4.4c6.1-3,11.5-5.6,15.9-7.7
			c4.3-2.3,7.8-4,10.1-5.3c2.4-1.2,3.6-1.8,3.6-1.8s-1.1,0.8-3.2,2.4c-2.1,1.5-5.2,3.9-9.2,6.7c-4.1,2.7-9.1,6.1-14.9,9.7
			c-5.9,3.5-12.5,7.6-20.1,11.4c-7.4,4-15.7,8-24.6,12c-4.5,1.9-9,4-13.8,5.9c-4.7,1.9-9.6,3.8-14.6,5.6c-10,3.6-20.4,7.1-31.1,10.2
			c-5.4,1.5-10.7,3.1-16.2,4.4c-2.7,0.7-5.5,1.4-8.2,2.1l-8.3,1.9c-11,2.5-22.1,4.6-33.1,6.5c-11,1.8-21.8,3.3-32.3,4.4
			c-5.3,0.6-10.4,1.1-15.5,1.5c-5.1,0.5-10,0.8-14.9,1.1c-4.8,0.3-9.5,0.5-14.1,0.7c-4.6,0.1-9,0.3-13.2,0.3c-8.4,0.2-16.2,0-23-0.2
			c-6.9-0.2-12.8-0.5-17.7-0.9c-4.9-0.3-8.8-0.7-11.4-1C0.7,913.8-0.7,913.6-0.7,913.6z"/>
	</g>
	<path class="st0" d="M669.5,24.6C610.1,5.7,547-2.9,484.3,0.9C358.7,7.5,236.8,63.4,147.7,152.5C103.5,197.5,67.5,250.4,42,308
		C16.8,365.7,2,428,0,490.7c-3.6,62.6,5.8,125.7,25.3,184.8c20.4,58.9,50.9,114.2,91,161.3C80.4,786.6,52.4,731,36,672.2
		c-16.9-58.5-24.1-120-18.5-180.5c1.8-23.2,5-46.3,9.6-69.1l80.1,225.5L40.4,400.4l104.4,234.4L58.9,393.1l122.2,225.6L76.7,384.3
		L216,599.7L93.7,374.1l155.6,204L109.9,362.7l171,191.3L125.3,350l185.3,177.5l-171-191.3l198.5,162.6L152.8,321.3L363.3,468
		L164.8,305.4l221.2,130L175.5,288.7l230.6,112.5L184.9,271.3l238.6,94.2L192.9,253.1l245.2,75.5l-238.6-94.2l250.3,56.2
		l-245.2-75.4l253.9,36.7L209.4,196c0-0.1,0-0.1,0.1-0.2l254.8,16.8l-249.8-36c0-0.2,0.1-0.4,0.1-0.6l252.3-3l-248.5-16.4
		c0.1-0.4,0.1-0.8,0.2-1.2l247.9-22.2l-245.4,2.9c0-0.1,0-0.1,0-0.2L459.3,90l-225.4,19.5c24.4-17.2,50.3-32.2,77.3-44.8
		C365.9,39,425.4,24.2,485.7,18.5c121-10.9,245.5,23.9,346.2,95.4C784.2,74.4,728.7,44.1,669.5,24.6z"/>
</g>
</svg>
