<?xml version="1.0" encoding="utf-8"?>
<!-- Generator: Adobe Illustrator 23.1.0, SVG Export Plug-In . SVG Version: 6.00 Build 0)  -->
<svg version="1.1" id="artwork" xmlns="http://www.w3.org/2000/svg" xmlns:xlink="http://www.w3.org/1999/xlink" x="0px" y="0px"
	 viewBox="0 0 3000 3000" style="enable-background:new 0 0 3000 3000;" xml:space="preserve">
<style type="text/css">
	.st0{fill:#FBB41E;}
	.st1{fill:#845D32;}
</style>
<g>
	<g>
		<path class="st0" d="M2049.6,1433.1c6.7-3.3,8.5-12.3,4-20.2c-4.3-8-13.2-11.7-19.9-8.5c-6.7,3.1-8.5,12.3-4.2,20.2
			C2034,1432.7,2042.9,1436.4,2049.6,1433.1z"/>
		<path class="st0" d="M2143.7,1508c-6.7,3.3-8.5,12.3-4.2,20.2c4.5,8,13.4,11.7,20.1,8.5c6.5-3.3,8.5-12.3,4-20.2
			C2159.3,1508.5,2150.3,1504.8,2143.7,1508z"/>
		<path class="st0" d="M2174.8,1508c-6.7,3.3-8.5,12.3-4.2,20.2c4.5,8,13.4,11.7,20.1,8.5c6.7-3.3,8.5-12.3,4-20.2
			C2190.4,1508.5,2181.5,1504.8,2174.8,1508z"/>
		<path class="st0" d="M2838.1,1353c6.7-3.3,8.5-12.3,4.2-20.2c-4.5-8-13.4-11.9-19.9-8.6c-6.7,3.3-8.6,12.3-4.2,20.4
			C2822.5,1352.4,2831.6,1356.2,2838.1,1353z"/>
		<path class="st0" d="M2840.3,1373.6c4.5,7.9,13.4,11.7,19.9,8.5c6.7-3.3,8.6-12.3,4.2-20.4c-4.3-7.9-13.4-11.7-19.9-8.5
			C2837.8,1356.5,2836,1365.6,2840.3,1373.6z"/>
		<path class="st0" d="M2829.3,1382.1c6.7-3.3,8.5-12.3,4.2-20.4c-4.5-7.9-13.4-11.7-20.1-8.5c-6.7,3.3-8.5,12.3-4,20.4
			C2813.7,1381.5,2822.6,1385.4,2829.3,1382.1z"/>
		<path class="st0" d="M2391.7,1472.6c-24.8,3.3-31.7-23.6-35.7-42.7c-1-6.7-1.9-14-3.3-21.3c-1.9-11.3-25.9-3.9-25.7,7.9
			c0.1,16.5,5.4,30.8,8.2,47.4c-0.4,4.6,0.1,9.8-4,12.8c-9.2,6.5-18.9-5.9-23-12.3c-4.8-16.5-7.7-35.1-10-54.7
			c-0.3-2.7,0.3-5.6-1-6.8c-6.8-0.1-21.6-0.7-23.6,12.8c-2.2,13.5,6.1,34.2,6.8,52.5c0.1,5.1-2.5,8.9-6.7,9.7
			c-12.9,2.4-18.7-11.7-22.3-21.6c-4.9-14.1-7.9-30.9-8.6-48.5c-0.1-2.1-0.9-4.9-3.4-5.1c-20.5-1.3-29.1,15.2-25.3,32.3
			c0.7,2.4,1.3,4.9,2.1,7.3c4.3,14.7,1.6,4.2,5.5,16.1c8.3,13.7-8.5,14.1-14.9,14.3v0c-16.6,2.1-24.7-0.2-32.5-15.9
			c-8.3-21.1-6.2-38.5-9.4-56.6c-8-13.8-31.5,4.5-26.9,17.4c-0.3,10,13.1,43,5.4,49.2c-4.2,3.3-8.9,5.5-14.9,5.9
			c-25.4,3.4-33-26.5-36.3-45.8c-0.1-1.6-0.1-3.4,0.6-4.6c0.9-1.5,3-1.2,4.2-1.8c1.3-0.4,2.2-1.6,1.6-2.5c-7.7-11.4-26-9.2-32.9,1.9
			c-1.8,2.8-2.1,7.6-1.9,11.3c0.9,17.5,22.7,66.8-1.2,79.1c-18.1,9.4-46.4,0.1-53.5-13.2c-14-17.5-8.8-53.4,6.8-65.4
			c2.2-1.8,4.9-4.5,6.1-6.8c0.4-0.7-1.5-1.9-2.7-1.6c-14.9,3.1-26.2,8.3-37,19c-8,7.9-13.4,18.1-12.6,34.5
			c3.9,32.4,26.5,52.3,60.1,53.7c31.4,1.2,58.4,0.6,71.2-40.4c7.9,3.9,18.9,4.8,27.5,3.9v0c13.1-0.6,26.7-7.1,35.2-15.3
			c8.2,13.1,27.6,15.3,43.1,15.3c0,0,0,0,0,0c0,0,0,0,0,0v0c8.8-0.3,31.1-1.6,38.6-11.3c3.9,4.2,30.2,35.4,58-1.3
			c15.8,16.9,34,15.6,47.6,8.9c2.2-1.6,4.3-3.6,5.9-5.9c6.4,8.5,22.9,10.9,34.8,9.7h43.4c0.7-7.7,1.7-14.7,3-21.1H2391.7z"/>
		<path class="st0" d="M2905.8,1413.5c0.4-1,3.1-1.8,4.8-3.1c0.1-0.1,0.1-1.5,0.1-1.5c-8.3-11.4-33.7-10.7-33.6,5.1
			c0.1,16.5,5.4,30.8,8.2,47.4c-0.4,4.6,0.1,9.8-4,12.8c-9.2,6.5-18.9-5.8-23-12.2c-4.8-16.7-7.7-35.2-10-54.9
			c-0.3-2.7,0.3-5.6-1-6.8c-6.8-0.1-21.6-0.7-23.8,12.8c-2.1,13.5,6.2,34.2,7,52.5c0.1,5.1-2.7,8.9-6.7,9.7
			c-12.9,2.4-18.9-11.7-22.3-21.6c-4.9-14.1-7.9-30.8-8.6-48.5c-0.1-2.1-0.9-4.9-3.4-5.1c-23.3-1.5-28.4,15-23.8,34.8
			c0.6,2.5,1.3,4.9,2.1,7.3c4.3,14.7,1.6,4.3,5.5,16.1c1.8,7.6-8.5,14.3-14.9,14.4c-10.4,1.3-18.1-2.2-23.3-11
			c-0.1-21.7-9.1-37.3-22.5-45.9c-12.5-7.9-27.8-12.6-42.5-8.9c-22.3,5.6-25.3,32.7-21.6,50.8c0.7,3.6,0.7,6.4,0.3,8.5
			c-3.6,6.1-13.2,6.7-20.4,6.5h-59.2h-19.3c-2.4,6.8-5.8,13.7-10.9,21.1h30.2h59.2c0,0,0,0,0,0c10.4,1,43.7-13.1,47.4-9.8
			c14.3,13.2,34.8,15,49.1,2.4c7.1,7.1,22.3,8.5,33.5,7.4v0c13.5-0.6,25.9-7,37.2-14c0.4,0,1,0,1.6,0.1c3.9,1.9,11.7,8,16.5,10.1
			c11.6,4.8,24.5,6.5,39.8-11.6c23,23.8,58.7,15.9,58.7-14.4C2914.5,1448.4,2902.9,1420.6,2905.8,1413.5z M2698.2,1477.6
			c-3.7,2.1-12.6-4-14.6-6.7c-7-9.8-11.2-31.1-4.3-43.7c1-2.1,3-3.6,4.8-3.7C2705.9,1420.9,2717.2,1467,2698.2,1477.6z"/>
	</g>
	<g>
		<path class="st1" d="M835.3,1850.3c18.5-64.4,39.4-146.5,62.8-246.1c23.4-99.7,40.3-166.6,50.6-200.8
			c21.2-70.5,45.4-123.6,72.6-159.2c27.2-35.7,57.2-53.5,89.8-53.5c19.1,0,33.6,5,43.6,15c10,10,15,24.5,15,43.6
			c0,19.4-5.2,37.8-15.4,55.4c-10.3,17.5-27.8,37.5-52.6,59.9c-9.1,8.5-18,15.6-26.8,21.5c-8.8,5.9-14.4,8.9-16.8,8.9
			c-1.8,0-3.2-0.5-4.1-1.4c-0.9-0.9-1.4-2-1.4-3.2c0-1.5,3.8-5.6,11.3-12.2c41.4-35.7,62.2-73.6,62.2-113.9c0-15.1-3.4-28-10.2-38.8
			c-6.8-10.7-14.3-16.1-22.4-16.1c-23.9,0-46,27-66.2,81c-20.3,54-51.1,182.5-92.6,385.4c26.6-31.5,52.1-55,76.4-70.5
			c24.3-15.6,47.7-23.4,70.1-23.4c19.7,0,34.6,4.9,44.9,14.7c10.3,9.8,15.4,23.8,15.4,42c0,20.3-8.9,43.3-26.5,69
			c-17.7,25.7-47.1,57.9-88.2,96.6h78.9c26.6,0,50.8-9.1,72.6-27.2c4.2-3.6,7-5.4,8.2-5.4c1.5,0,2.9,0.5,4.3,1.6c1.4,1.1,2,2,2,2.9
			c0,11.5-13.2,26.8-39.7,45.8c-26.5,19.1-54.7,28.6-84.6,28.6h-90.3c45.7-66.2,75.4-112.4,89.2-138.6
			c13.8-26.2,20.6-46.8,20.6-61.9c0-11.8-3.1-20.6-9.3-26.5c-6.2-5.9-15.2-8.9-27-8.9c-21.5,0-44.1,10.4-67.8,31.3
			c-23.7,20.9-43.6,48.2-59.7,82.1c-12.1,26-25.1,57.8-39,95.3l-1.8,5c-3.6,10-7.1,16.2-10.4,18.6c-3.3,2.4-10.3,3.6-20.9,3.6H835.3
			z"/>
		<path class="st1" d="M1404.7,1779.5c-25.1,28.7-46.7,48.5-64.9,59.2c-18.1,10.7-37.4,16.1-57.6,16.1c-23.9,0-41.8-5.9-53.8-17.7
			c-11.9-11.8-17.9-29.6-17.9-53.5c0-24.8,6.2-48.9,18.6-72.4c12.4-23.4,30.7-45.9,54.9-67.4c23.6-20.6,47.3-35.8,71.2-45.6
			c23.9-9.8,49.4-14.7,76.7-14.7c22.4,0,39.8,5.4,52.4,16.3c12.6,10.9,18.8,25.9,18.8,44.9c0,11.8-5.1,31.5-15.2,59.2
			c-10.1,27.7-24.9,61.9-44.2,102.8h35.4c26.3,0,49.3-8.6,69-25.9c5.7-5.1,9.7-7.7,11.8-7.7c1.5,0,2.7,0.4,3.6,1.4
			c0.9,0.9,1.4,2,1.4,3.2c0,8.5-11.7,23.4-34.9,44.9c-23.3,21.5-44.6,32.2-64,32.2c-18.1,0-31.9-5.7-41.3-17
			C1415.3,1826.5,1408.6,1807,1404.7,1779.5z M1419.7,1600.3c-23.6,0-44.6,5.2-63.1,15.6c-18.5,10.4-36.7,27.6-54.9,51.5
			c-13.9,18.4-24.5,36.1-31.8,52.9c-7.3,16.8-10.9,32-10.9,45.6c0,14.8,3.5,25.3,10.4,31.5c7,6.2,19.8,9.3,38.6,9.3
			c20,0,35.4-2.3,46.3-6.8c10.9-4.5,21.5-12.3,31.8-23.1c17.5-18.1,33.1-42.3,46.7-72.4c13.6-30.1,20.4-54.5,20.4-73.3
			c0-11.5-2.4-19.5-7.3-24C1441.1,1602.6,1432.4,1600.3,1419.7,1600.3z"/>
		<path class="st1" d="M1566.2,1850.3c24.2-61.4,41.4-113.6,51.7-156.7c10.3-43.1,15.4-83.7,15.4-121.8c0-8.2-0.1-14.2-0.2-18.1
			c-0.2-3.9-0.4-7.4-0.7-10.4c16.3,10,28.1,22.5,35.4,37.7c7.3,15.1,10.9,34.9,10.9,59.4v15.9c23-25.4,43.9-44.2,62.8-56.2
			c18.9-12.1,36.7-18.1,53.3-18.1c17.2,0,30.5,5.8,39.9,17.5c9.4,11.6,14.1,28.2,14.1,49.7v10.9c25.7-27.2,49.1-47,70.1-59.4
			c21-12.4,41.7-18.6,61.9-18.6c19.3,0,34.7,5.1,46,15.4c11.3,10.3,17,24,17,41.3c0,15.7-6.8,34.3-20.4,55.8
			c-13.6,21.5-43.4,58.1-89.4,109.8h65.3c26.6,0,51.1-9.1,73.5-27.2c4.2-3.6,7-5.4,8.2-5.4c1.5,0,2.8,0.5,3.9,1.4
			c1,0.9,1.6,2,1.6,3.2c0,11.5-13.1,26.8-39.2,45.8c-26.2,19.1-54.2,28.6-84.2,28.6h-81.7c39-57.5,66.4-101.5,82.1-132
			c15.7-30.5,23.6-54.4,23.6-71.7c0-12.4-3-21.8-9.1-28.1c-6.1-6.4-15.1-9.5-27.2-9.5c-16.6,0-37.1,11.3-61.2,33.8
			c-24.2,22.5-41.9,48-53.1,76.4c-8.8,23-18.3,49.4-28.6,79.4c-11.8,34.5-23.3,51.7-34.5,51.7h-31.8l44-142.9
			c3.9-13,6.9-24.9,8.9-35.6c2-10.7,2.9-20.3,2.9-28.8c0-13-1.7-21.9-5-26.8c-3.3-4.8-9.4-7.3-18.1-7.3c-18.5,0-38,11-58.8,32.9
			c-20.7,21.9-38.6,51.2-53.8,87.8c-7,16.9-15,37.7-24,62.2c-14.2,39-30.4,58.5-48.5,58.5H1566.2z"/>
		<path class="st1" d="M2185,1645.7c-12.4,13.6-24.7,29.1-37,46.5c-12.2,17.4-20.6,26.1-25.2,26.1c-0.9,0-1.7-0.5-2.5-1.6
			c-0.8-1.1-1.1-2.3-1.1-3.9c0-5.4,7.9-20.6,23.6-45.4c5.4-8.8,9.7-15.7,12.7-20.9c24.2-38.4,42.8-63,55.8-73.7
			c13-10.7,27.2-16.1,42.7-16.1c7,0,12.2,1.5,15.9,4.5c3.6,3,5.4,7.4,5.4,13.2c0,10-7.4,18.4-22.2,25.4
			c-11.8,5.4-21.2,10.9-28.1,16.3c1.5,10,10.9,24.5,28.1,43.6c17.2,19.1,25.9,38,25.9,56.7c0,17.5-4.8,33.9-14.5,49
			c-9.7,15.1-23.4,28-41.3,38.6h27.2c23.9,0,43.7-5.6,59.4-16.8c15.7-11.2,24.9-16.8,27.7-16.8c1.5,0,2.6,0.2,3.4,0.7
			c0.8,0.4,1.1,1.1,1.1,2c0,9.1-13.6,24.2-40.8,45.4c-27.2,21.2-52.6,31.8-76.2,31.8h-131.6l14.5-37.2c1.2-3.3,3.3-5.7,6.4-7
			c3-1.4,7.4-2,13.2-2h41.7c22.4,0,40.7-6.3,54.9-18.8s21.3-26.1,21.3-40.6c0-10.3-9.2-24.5-27.7-42.7
			C2199.2,1683.8,2188.4,1665,2185,1645.7z"/>
		<path class="st1" d="M2397.8,1811.3h58.5c25.7,0,49.7-10,72.1-29.9c5.7-4.8,9.2-7.3,10.4-7.3c1.5,0,3,0.6,4.5,1.8
			c1.5,1.2,2.3,2.4,2.3,3.6c0,7.9-13.1,23-39.5,45.4c-26.3,22.4-50.1,33.6-71.2,33.6c-20,0-35.3-5.8-46-17.5
			c-10.7-11.6-16.1-28.4-16.1-50.1c0-11.5,2.9-30.7,8.9-57.6c5.9-26.9,14.4-60.5,25.6-100.7c0.3-1.5,1.1-4.2,2.3-8.2
			c7-26,15.1-39,24.5-39h27.7c6.4,0,10.3,0.7,11.8,2s2.3,3.6,2.3,6.6c0,0.6-0.9,3.3-2.7,8.2c-7.9,19.4-15,39.8-21.3,61.2
			c-1.8,6-4.5,15.3-8.2,27.7C2429.4,1742.7,2414.1,1782.8,2397.8,1811.3z M2456.3,1540.9v-8.2c0-36,3.5-61.2,10.4-75.8
			c7-14.5,18.7-21.8,35.4-21.8c10,0,17.2,1.5,21.8,4.5c4.5,3,6.8,8,6.8,15c0,10-6.5,22.5-19.5,37.7c-1.2,1.2-2.1,2.3-2.7,3.2
			l-39.9,45.4H2456.3z"/>
		<path class="st1" d="M2548.4,1850.3c24.5-61.1,41.8-113.3,51.9-156.5c10.1-43.3,15.2-84.5,15.2-123.9v-13.2
			c15.1,8.2,26,18.8,32.7,32c6.6,13.2,10,30.3,10,51.5c0,5.8-0.4,15-1.4,27.7c-0.3,2.1-0.4,3.8-0.4,5c29.3-32.4,55.3-55.6,78-69.9
			c22.7-14.2,44.9-21.3,66.7-21.3c19.7,0,34.6,4.9,44.9,14.7c10.3,9.8,15.4,23.8,15.4,42c0,20.3-8.9,43.3-26.5,69
			c-17.7,25.7-47.3,57.9-88.7,96.6h79.4c26.6,0,50.8-9.1,72.6-27.2c4.2-3.6,7-5.4,8.2-5.4c1.5,0,2.9,0.5,4.3,1.6c1.4,1.1,2,2,2,2.9
			c0,11.5-13.2,26.8-39.7,45.8c-26.5,19.1-54.7,28.6-84.6,28.6h-92.1c36.6-49,64.2-90.4,82.8-124.1c18.6-33.7,27.9-59.2,27.9-76.4
			c0-11.5-2.8-20.1-8.4-25.9c-5.6-5.7-14-8.6-25.2-8.6c-21.2,0-43.1,9-65.8,27c-22.7,18-40.1,40.6-52.2,67.8
			c-13.3,29-24.8,54.6-34.5,76.7c-9.7,22.1-15.6,35.8-17.7,41.3c-4.2,10.6-7.9,17-11.1,19.1c-3.2,2.1-10.1,3.2-20.6,3.2H2548.4z"/>
	</g>
	<g>
		<g>
			<path class="st1" d="M1354.8,1266.9c0,0-44,19-22.2,68.4C1356.1,1318.2,1374.8,1301.3,1354.8,1266.9z"/>
			<path class="st1" d="M1362,1264.3c0,0,44.3-18.4,64.6,31.6C1397.9,1300.9,1372.8,1302.6,1362,1264.3z"/>
		</g>
		<g>
			<path class="st1" d="M1327.3,1225.1c0,0-41.3,24.5-13.3,70.6C1335.2,1275.8,1351.5,1256.6,1327.3,1225.1z"/>
			<path class="st1" d="M1334.2,1221.6c0,0,41.6-24,68.1,23.1C1374.5,1253.3,1349.8,1258.1,1334.2,1221.6z"/>
		</g>
		<g>
			<path class="st1" d="M1294.4,1188c0,0-37.8,29.5-4.2,71.8C1308.7,1237.2,1322.5,1216.2,1294.4,1188z"/>
			<path class="st1" d="M1300.8,1183.6c0,0,38.2-29,70.5,14.2C1344.8,1210,1320.9,1217.9,1300.8,1183.6z"/>
		</g>
		<g>
			<path class="st1" d="M1257.4,1156.2c0,0-34.5,33.4,3.5,71.8C1276.9,1203.6,1288.3,1181.2,1257.4,1156.2z"/>
			<path class="st1" d="M1263.3,1151.2c0,0,34.9-32.9,71.6,6.7C1309.8,1172.7,1287,1183.1,1263.3,1151.2z"/>
		</g>
		<g>
			<path class="st1" d="M1208.5,1129.9c0,0-24.2,41.4,22.7,68.2C1240,1170.4,1245,1145.7,1208.5,1129.9z"/>
			<path class="st1" d="M1212.8,1123.5c0,0,24.7-41.1,70.7-12.9C1263.4,1131.7,1244.2,1147.9,1212.8,1123.5z"/>
		</g>
		<g>
			<path class="st1" d="M1163.9,1113.4c0,0-19.9,43.6,29.4,65.6C1199.3,1150.5,1201.8,1125.5,1163.9,1113.4z"/>
			<path class="st1" d="M1167.5,1106.6c0,0,20.4-43.4,69.1-19.9C1218.7,1109.7,1201.2,1127.7,1167.5,1106.6z"/>
		</g>
		<path class="st1" d="M1396.9,1353.8c0,0-25.4,36.3,12.3,66.4l15.6,49.4l-7.2-55.8C1425.9,1390.9,1427.5,1370.3,1396.9,1353.8z"/>
		<g>
			<path class="st1" d="M1354.3,1373.3l22.2,66.2l-10.4-70c17.8-15,28.4-31.8,11-60.6C1377.2,1308.9,1336.2,1327.4,1354.3,1373.3z"
				/>
			<path class="st1" d="M1440.6,1345.7l20.5,66.7l-32.4-62.9c-23.2-1.9-41.6-9.3-44.3-42.8
				C1384.5,1306.7,1428.6,1297.9,1440.6,1345.7z"/>
		</g>
	</g>
	<g>
		<path class="st1" d="M1140.9,1101.2c-9.6-2.3-19.4-3.6-29.1-4.6c-9.8-1-19.6-1.4-29.3-1.4c-9.8,0-19.5,0.4-29.2,1.2
			c-9.7,0.9-19.3,2.2-28.9,3.8c-9.6,1.7-19,3.9-28.3,6.4l-7,2l-3.5,1l-3.4,1.1l-6.9,2.3l-6.8,2.5c-2.3,0.8-4.5,1.7-6.7,2.6l-6.7,2.7
			c-2.2,0.9-4.4,2-6.6,2.9c-2.2,1-4.4,1.9-6.6,3l-6.5,3.2l-3.2,1.6l-3.2,1.7c-4.2,2.3-8.5,4.5-12.6,7l-6.2,3.7l-6.1,3.9
			c-2,1.3-4.2,2.6-6.2,4l-5.9,4l-2.9,2l-2.9,2.1l-5.8,4.3c-3.8,2.9-7.6,5.9-11.3,9c-3.7,3.1-7.4,6.1-10.9,9.4
			c-1.8,1.6-3.6,3.2-5.3,4.8l-5.2,5c-6.8,6.8-13.4,13.7-19.5,21.1c-12.3,14.6-23.2,30.4-32.2,47.2c-4.5,8.4-8.5,17-12,25.8
			c-1.7,4.4-3.3,8.9-4.7,13.3c-0.7,2.2-1.3,4.5-1.9,6.7c-0.3,1.1-0.6,2.2-0.8,3.3l-0.4,1.6l-0.3,1.4l-0.2,0.9l0,0.2
			c-0.1,0.4-0.3,1.1-0.4,1.7l-0.4,1.9c-0.3,1.3-0.5,2.6-0.7,4c-0.4,2.7-0.6,5.3-0.7,7.9c-0.1,5.2,0.6,10.2,2.3,13.9
			c1.7,3.7,4.2,6.1,8.2,7.4c2,0.6,4.2,1.1,6.7,1.1l0.5,0l0.2,0l0.1,0c0.1,0-0.5,0-0.2,0l0.1,0l1.1,0l2.3,0c0.8,0,1.4-0.1,2-0.1
			l1.8-0.2c5.2-0.5,10.5-1.9,15.7-3.8c5.2-1.9,10.2-4.4,15-7.3c9.7-5.8,18.8-13.1,27.1-21.2c4.2-4,8.2-8.3,11.9-12.8
			c0.9-1.1,1.8-2.2,2.7-3.3c0.5-0.6,0.8-1,1.2-1.6l1.2-1.8c1.6-2.4,3.1-4.9,4.5-7.4c2.9-5.1,5.5-10.3,7.8-15.7
			c2.3-5.4,4.3-10.9,6-16.5c1.6-5.6,2.8-11.4,3.6-17.2c0.8-5.8,1.1-11.7,0.9-17.6c-0.2-5.9-1-11.8-2.4-17.6
			c-1.4-5.8-3.4-11.4-5.9-16.9c3.2,5.1,5.8,10.6,7.9,16.3c2.1,5.7,3.5,11.7,4.3,17.8c0.8,6.1,1.1,12.3,0.8,18.4
			c-0.3,6.2-1.1,12.3-2.4,18.4c-1.2,6.1-2.9,12-4.9,17.9c-2,5.9-4.4,11.6-7.1,17.1c-1.4,2.8-2.8,5.5-4.4,8.3l-1.2,2
			c-0.4,0.7-0.9,1.5-1.4,2.1c-0.9,1.3-1.8,2.6-2.7,3.8c-3.7,5-7.6,9.8-11.8,14.4c-8.4,9.2-17.8,17.6-28.4,24.6
			c-5.3,3.5-11,6.6-17,9.1c-6,2.5-12.4,4.4-19.1,5.4l-2.7,0.3c-0.9,0.1-1.8,0.2-2.5,0.2l-2.3,0.1l-1.1,0.1l-0.4,0l-0.2,0l-0.3,0
			l-0.7,0c-3.5,0-7.3-0.5-11-1.6c-3.8-1.1-7.6-3-10.8-5.7c-3.2-2.7-5.8-6.1-7.5-9.7c-3.5-7.2-4.3-14.4-4.4-21.2
			c0-3.4,0.2-6.8,0.6-10.1c0.2-1.7,0.5-3.3,0.8-4.9l0.5-2.5c0.2-0.9,0.3-1.6,0.6-2.6l-0.2,1c0.1-0.9,0.2-1.5,0.4-2.2l0.4-2
			c0.3-1.3,0.6-2.6,0.9-3.9c0.6-2.5,1.3-5,2-7.5c1.5-5,3.1-9.8,4.9-14.6c3.6-9.6,7.8-18.9,12.6-27.9c4.8-9,10-17.7,15.7-26.2
			c5.7-8.4,12-16.4,18.5-24.2c6.5-7.8,13.6-15.1,20.8-22.2l5.5-5.2c1.9-1.7,3.8-3.4,5.7-5c3.8-3.4,7.7-6.5,11.6-9.8
			c1.9-1.6,4-3.1,6-4.6c2-1.5,4-3.1,6.1-4.5l6.2-4.4l3.1-2.2l3.2-2.1l6.4-4.2c2.1-1.4,4.2-2.6,6.4-3.9l6.5-3.9l6.6-3.6
			c8.8-4.9,17.9-9.2,27.2-13.3c2.3-1,4.7-1.9,7-2.9c2.3-0.9,4.7-1.9,7-2.8c4.8-1.7,9.4-3.5,14.3-4.9l7.2-2.3l7.3-2l3.6-1l3.7-0.9
			l7.3-1.7c9.9-2,19.7-3.7,29.7-4.9c10-1.1,20-1.9,30-2c10-0.1,20,0.2,29.9,1.1c9.9,0.9,19.8,2.3,29.5,4.2c4.9,0.9,9.7,2.1,14.5,3.4
			C1131.5,1098.1,1136.3,1099.5,1140.9,1101.2z"/>
		<path class="st1" d="M845.7,1143.4c-6-3.4-12.4-6.1-18.7-8.6c-6.4-2.5-12.9-4.7-19.4-6.5c-6.6-1.8-13.2-3.4-19.9-4.5
			c-6.7-1.2-13.4-2.1-20.1-2.5c-6.7-0.5-13.4-0.6-20.1-0.4c-6.7,0.2-13.3,0.9-19.8,1.9c-6.5,1-13,2.4-19.3,4.2
			c-6.3,1.7-12.5,3.9-18.6,6.4c-6,2.5-12,5.3-17.6,8.5l-2.3,1.2c-0.8,0.4-1.5,0.8-2.2,1.2l-4,2.5c-1.3,0.8-2.6,1.8-4,2.7
			c-1.3,0.9-2.7,1.8-3.9,2.8c-5.2,3.8-10,8-14.6,12.4l-3.4,3.4l-3.2,3.5c-1.1,1.1-2.1,2.4-3.1,3.6c-1,1.2-2,2.4-3,3.7
			c-7.9,9.9-14.4,21-19.5,32.6c-2.5,5.8-4.7,11.7-6.6,17.7c-0.9,3-1.8,6-2.5,9c-0.3,1.5-0.7,3-1,4.5l-0.4,2.2l-0.2,1l-0.1,0.5
			c0,0.1,0,0.3,0,0.3l-0.3,1.5l-0.3,1.9l-0.3,2.4c-0.2,1.7-0.4,3.4-0.5,5.1c-0.3,3.4-0.4,6.9-0.4,10.5c0,7,0.5,14.1,1.3,21.1
			c1.7,14.1,5.2,27.9,10.3,41.1c5.1,13.2,11.7,25.8,19.5,37.6c7.9,11.8,17,22.9,27.2,33c5.1,5.1,10.4,10,15.8,14.7l17.7,15
			c11.9,10.2,23.8,20.4,35.6,31c11.8,10.6,23.5,21.5,34.9,33.4c11.4,11.9,22.4,25.2,31.8,39.5c1.2,1.8,2.3,3.6,3.4,5.4
			c1.1,1.8,2.2,3.6,3.3,5.4c2,3.6,4.2,7.2,6.1,10.8c1.9,3.6,3.9,7.2,5.7,10.7l2.8,5.3c0.8,1.5,0.8,1.6,1.6,3.3l0.5,1l0.4,0.9
			l0.7,1.7c3.7,9.1,6.2,17.7,8.1,26.5c1.9,8.7,3.1,17.5,3.7,26.4c2.6,35.2-5,71.3-21.1,102.7c-8,15.7-18.1,30.3-29.5,43.3
			c-5.7,6.5-11.8,12.7-18.1,18.5c-1.6,1.5-3.2,2.9-4.8,4.3c-1.6,1.4-3.2,2.8-4.9,4.2l-1.2,1l-1.5,1.2l-2.3,1.8l-2.3,1.8l-2.8,2.1
			l-2.8,2.1l-2.7,1.9c-1.8,1.3-3.6,2.5-5.5,3.7c-1.8,1.2-3.7,2.4-5.6,3.5c-1.9,1.2-3.8,2.3-5.7,3.3c-7.7,4.3-15.7,8.2-24,11.4
			c-16.6,6.5-34.2,10.5-51.8,12c-17.6,1.6-35.2,0.7-52.3-2.1c-17.1-2.8-33.6-7.5-49.5-13.7c-7.9-3.1-15.7-6.6-23.3-10.5
			c-3.8-2-7.6-4-11.5-6.3l-3-1.9l-0.4-0.3c0.2,0.1-1.1-0.7,0.2,0.1l-1-0.7l-1.6-1c-2-1.4-3.9-2.7-5.7-4
			c-14.3-10.8-26.5-23.2-37.1-37.3c-10.5-14.1-19.1-29.8-24.9-46.7c-5.9-16.8-8.7-34.7-8.8-52.2l0-6.1c0-2.4,0.1-4.7,0.3-6.9
			c0.3-4.5,0.8-8.9,1.5-13.2c1.4-8.7,3.4-17.2,6.1-25.6c5.5-16.6,13.8-32.5,24.8-46.4c10.9-13.9,24.6-25.4,39.4-34.2
			c7.4-4.4,15.2-8.1,23-11.2c7.9-3.1,15.9-5.6,24-7.5l1.5-0.4l0.8-0.2l0.4-0.1c-0.1,0,2.1-0.5,1.4-0.3c1.3-0.2,2.4-0.3,3.6-0.5
			c2.3-0.2,4.5-0.4,6.7-0.4c4.5-0.1,8.9,0,13.5,0.5c4.5,0.5,9.1,1.4,13.7,2.8c4.6,1.4,9.2,3.5,13.6,6.3c4.3,2.8,8.3,6.6,11.4,11
			c3.1,4.4,5.2,9.2,6.5,14.1c0.6,2.4,1.1,4.8,1.4,7.2l0.1,1.1l0.1,0.7l0.1,1.5l0.1,1.5l0.1,1.8c0.1,2.4,0,4.6,0,6.8
			c-0.1,2.2-0.3,4.4-0.6,6.5c-1,8.7-3.3,16.9-6.3,24.8c-3,7.8-6.7,15.2-10.8,22.2c-8.3,14-18.4,26.6-29.1,38.2
			c-10.8,11.6-22.4,22.3-34.6,32.2c-12.2,9.9-24.7,19.3-37.9,27.6c11.9-10.1,23.2-20.7,34-31.9c10.7-11.2,20.9-22.8,30.1-35
			c9.2-12.2,17.4-25,23.8-38.5c6.4-13.4,10.7-27.5,11.1-41.3c0.1-1.7,0-3.4,0-5.1c-0.1-1.7-0.2-3.4-0.4-4.9l-0.1-1.1l-0.2-1.4
			l-0.2-1.4l-0.1-0.7c0-0.2,0,0.3,0,0l-0.1-0.3c-0.3-1.5-0.7-2.9-1.2-4.2c-1.9-5.3-5-8.9-9.6-11.3c-4.5-2.5-10.6-3.8-17-4
			c-3.2-0.1-6.5,0-9.8,0.3c-1.6,0.2-3.3,0.4-4.9,0.7c-0.8,0.1-1.6,0.3-2.2,0.4c-0.9,0.2,1.1-0.3,0.7-0.2l-0.3,0.1l-0.6,0.2l-1.3,0.4
			c-13.7,4.6-26.7,10.8-38.1,18.7c-11.4,7.9-21.1,17.7-28.8,28.7c-7.7,11.1-13.3,23.6-16.7,36.7c-1.7,6.6-3,13.3-3.7,20
			c-0.4,3.4-0.6,6.7-0.6,10c0,1.6,0,3.3,0.1,4.7l0.1,1c0,0.2,0,0.3,0,0.3l0.1,1.8l0.1,2.5c0.6,13.5,3.6,26.7,8.3,39.1
			c4.8,12.4,11.7,24.1,20.2,34.6c4.2,5.3,8.9,10.3,13.8,14.9c4.9,4.6,10.2,9,15.5,12.8c1.3,0.9,2.7,1.8,3.9,2.6l2.1,1.3l2,1.1
			c2.9,1.6,5.9,3.2,9.1,4.7c6.3,3,12.8,5.8,19.4,8.2c26.5,9.6,54.5,14.2,81.2,11.4c13.4-1.4,26.4-4.6,38.7-9.5
			c6.2-2.5,12.2-5.4,18-8.7c1.5-0.8,2.9-1.7,4.3-2.6c1.4-0.9,2.9-1.8,4.3-2.7c1.4-0.9,2.8-1.9,4.2-2.9l2.1-1.5l1.9-1.4l1.9-1.4
			l2.3-1.8l2.3-1.8l1.8-1.5c1.3-1.1,2.7-2.3,4-3.4c1.3-1.2,2.6-2.3,3.9-3.5c5.1-4.8,10-9.7,14.5-14.9c9-10.4,16.9-21.6,23.1-33.5
			c6.2-12,10.8-24.6,13.5-37.7c2.8-13.1,3.8-26.6,3-40c-0.4-6.7-1.2-13.4-2.5-19.9c-1.3-6.4-3-12.9-5.2-18.2l-0.4-1l-0.3-0.8
			c0-0.1-0.8-1.8-0.9-2l-2.5-5.1c-1.7-3.4-3.4-6.7-5.1-10c-1.7-3.3-3.5-6.4-5.2-9.6c-1.8-3-3.5-6.2-5.4-9.1
			c-7.4-11.9-16-22.9-25.8-33.7c-9.8-10.8-20.7-21.4-31.7-32c-11-10.6-22.4-21-33.7-31.5l-17.3-15.8c-6.1-5.6-12-11.5-17.7-17.7
			c-11.3-12.4-21.5-25.9-30.3-40.3c-4.4-7.2-8.3-14.7-11.9-22.4c-3.5-7.7-6.6-15.6-9.2-23.7c-5.2-16.1-8.5-32.9-9.7-49.8
			c-0.6-8.5-0.6-17,0-25.5c0.3-4.3,0.7-8.5,1.3-12.8c0.3-2.1,0.7-4.3,1.1-6.5c0.2-1.1,0.4-2.2,0.7-3.3l0.4-1.7l0.5-2l-0.3,1.5l0.2-1
			l0.2-0.8l0.3-1.5l0.7-2.9c0.5-1.9,1-3.7,1.6-5.5c1.1-3.6,2.3-7.2,3.7-10.7c2.7-7,5.7-13.8,9.2-20.4c7-13.2,15.5-25.5,25.6-36.5
			c5-5.5,10.4-10.7,16.1-15.4c5.8-4.7,11.7-9.1,18-12.9c1.5-1,3.2-1.9,4.8-2.8c1.6-0.9,3.1-1.9,4.9-2.7l5.1-2.6
			c0.9-0.5,1.6-0.8,2.4-1.1l2.4-1.1c6.7-3.1,13.5-5.5,20.4-7.7c13.8-4.3,28.2-6.9,42.5-7.7c14.3-0.8,28.7,0.1,42.6,2.7
			c7,1.3,13.8,2.9,20.6,4.9c6.7,2,13.3,4.4,19.8,7.1c6.5,2.7,12.7,5.7,18.9,9C834.3,1135.6,840.2,1139.3,845.7,1143.4z"/>
		<path class="st1" d="M85.2,1861.2c0,0,1.4-0.1,4-0.2c2.6-0.2,6.5-0.4,11.4-0.7c4.9-0.3,10.8-0.8,17.6-1.3
			c6.8-0.6,14.4-1.3,22.8-2.1c8.3-0.8,17.3-1.9,26.8-3.1c9.5-1.2,19.5-2.6,29.8-4.2c5.2-0.8,10.4-1.7,15.7-2.5
			c5.3-0.9,10.6-1.9,16-2.9c5.4-1.1,10.8-2,16.2-3.2c5.4-1.1,10.9-2.2,16.3-3.5l8.1-1.8c2.7-0.7,5.4-1.3,8.1-2
			c5.4-1.3,10.7-2.7,16-4.1c2.6-0.7,5.3-1.4,7.9-2.2c2.6-0.7,5.2-1.5,7.8-2.2c5.2-1.5,10.2-3.2,15.2-4.6c5-1.5,9.8-3.3,14.5-4.8
			c4.8-1.6,9.3-3.4,13.8-4.9c4.5-1.5,8.8-3.4,13-5c4.2-1.5,8.2-3.3,12.1-4.9c3.8-1.6,7.5-3.2,11-4.8c3.5-1.6,6.8-3,9.9-4.4
			c6.1-3,11.5-5.6,15.9-7.7c4.3-2.3,7.8-4,10.1-5.3c2.4-1.2,3.6-1.8,3.6-1.8s-1.1,0.8-3.2,2.4c-2.1,1.5-5.2,3.9-9.2,6.7
			c-4.1,2.7-9.1,6.1-14.9,9.7c-5.9,3.5-12.5,7.6-20.1,11.4c-7.4,4-15.7,8-24.6,12c-4.5,1.9-9,4-13.8,5.9c-4.7,1.9-9.6,3.8-14.6,5.6
			c-10,3.6-20.4,7.1-31.1,10.2c-5.4,1.5-10.7,3.1-16.2,4.4c-2.7,0.7-5.5,1.4-8.2,2.1l-8.3,1.9c-11,2.5-22.1,4.6-33.1,6.5
			c-11,1.8-21.8,3.3-32.3,4.4c-5.3,0.6-10.4,1.1-15.5,1.5c-5.1,0.5-10,0.8-14.9,1.1c-4.8,0.3-9.5,0.5-14.1,0.7
			c-4.6,0.1-9,0.3-13.2,0.3c-8.4,0.2-16.2,0-23-0.2c-6.9-0.2-12.8-0.5-17.7-0.9c-4.9-0.3-8.8-0.7-11.4-1
			C86.6,1861.4,85.2,1861.2,85.2,1861.2z"/>
	</g>
	<path class="st0" d="M755.4,972.2c-59.4-18.9-122.5-27.5-185.2-23.7c-125.6,6.6-247.5,62.5-336.6,151.6
		c-44.2,45-80.2,97.9-105.7,155.5c-25.2,57.7-40,120-42,182.7c-3.6,62.6,5.8,125.7,25.3,184.8c20.4,58.9,50.9,114.2,91,161.3
		c-35.9-50.2-63.9-105.8-80.3-164.6c-16.9-58.5-24.1-120-18.5-180.5c1.8-23.2,5-46.3,9.6-69.1l80.1,225.5L126.3,1348l104.4,234.4
		l-85.9-241.7l122.2,225.6l-104.4-234.4l139.3,215.4l-122.3-225.6l155.6,204l-139.4-215.4l171,191.3l-155.6-204l185.3,177.5
		l-171-191.3l198.5,162.6l-185.3-177.5l210.5,146.7l-198.5-162.6l221.2,130l-210.5-146.7L492,1348.8l-221.2-129.9l238.6,94.2
		l-230.6-112.4l245.2,75.5l-238.6-94.2l250.3,56.2l-245.2-75.4l253.9,36.7l-249.1-55.9c0-0.1,0-0.1,0.1-0.2l254.8,16.8l-249.8-36
		c0-0.2,0.1-0.4,0.1-0.6l252.3-3l-248.5-16.4c0.1-0.4,0.1-0.8,0.2-1.2l247.9-22.2l-245.4,2.9c0-0.1,0-0.1,0-0.2l238.2-45.9
		l-225.4,19.5c24.4-17.2,50.3-32.2,77.3-44.8c54.7-25.7,114.2-40.5,174.5-46.2c121-10.9,245.5,23.9,346.2,95.4
		C870.1,1022,814.6,991.7,755.4,972.2z"/>
</g>
</svg>
