<?xml version="1.0" encoding="utf-8"?>
<!-- Generator: Adobe Illustrator 24.0.0, SVG Export Plug-In . SVG Version: 6.00 Build 0)  -->
<svg version="1.1" id="Layer_3" xmlns="http://www.w3.org/2000/svg" xmlns:xlink="http://www.w3.org/1999/xlink" x="0px" y="0px"
	 viewBox="0 0 600 825.3" style="enable-background:new 0 0 600 825.3;" xml:space="preserve">
<style type="text/css">
	.st0{fill:#DBD5D5;}
</style>
<g>
	<g>
		<g>
			<g>
				<path class="st0" d="M200,31.9l-7.1-10.2l-11.5,3.7l0-12.8l-10.1-3.1l7-9.4h-2.6l-6.5,8.8L140.7,0h-5.2L118,5.1l0,18.1L101,0h-2
					L82.1,23.2l0-17.3l0-0.8L64.5,0h-5.2L30.9,8.8L24.4,0h-2.6l7,9.4l-9.4,2.9l-0.7,0.2l0,12.8L7.1,21.7L0,31.9v2.6l18.6,25.5
					l-0.8,18.3L0,84.1v2L18.2,92l-0.4,19.1L0,136.2v2.6L17.8,164l0.4,19.1L0,189v2l17.8,5.8l0.8,18.3L0,240.5v2.6l7.1,10.2l11.5-3.7
					l0,12.8l10.1,3.1l-7,9.4h2.6l6.5-8.8l28.4,8.8h5.2l16.8-4.9L82,270l0-18.1L99,275.1h2l16.9-23.2l0,17.3v0.8l17.5,5.1h5.2
					l28.4-8.8l6.5,8.8h2.6l-7-9.4l9.4-2.9l0.7-0.2l0-12.8l11.5,3.7l7.1-10.2v-2.6L181.4,215l0.8-18.3L200,191v-2l-18.2-5.9l0.4-19.1
					l17.8-25.1v-2.6l-17.8-25.1L181.8,92l18.2-5.9v-2l-17.8-5.8l-0.8-18.3L200,34.6V31.9z M179.3,59.4l-10.7,14.6l-18.1-5.9
					l-11-15.4l11-15.2l28.7-9.2L179.3,59.4z M100,171.9l17.9,24.5l0,19.1l-17.9,5.8l-17.9-5.8l0-19.1L100,171.9z M82.1,192.9
					l0.1-28.4l10.2-3.3l6.3,9L82.1,192.9z M101.2,170.1l6.3-9l10.2,3.3l0.1,28.4L101.2,170.1z M117.8,162.3l-11-3.6l-6.8,9.6
					l-6.8-9.6l-11,3.6l-0.1-11.6l-11.3-3.5l6.9-9.4l-0.1-0.2l0.1-0.2l-6.9-9.4l11.3-3.5l0.1-11.6l11,3.6l6.8-9.6l6.8,9.6l11-3.6
					l0.1,11.6l11.3,3.5l-6.9,9.4l0.1,0.2l-0.1,0.2l6.9,9.4l-11.3,3.5L117.8,162.3z M75.1,137.7l-6.4,8.7l-26.9-8.9l26.9-8.9l6.4,8.7
					l-0.1,0.2L75.1,137.7z M69.5,148.9l10.5,3.3l0.1,10.8l-27.2,8.9L69.5,148.9z M52.9,103.3l27.2,8.9L80,122.9l-10.5,3.3
					L52.9,103.3z M50.8,100.4L39.6,85.3l11.1-15.4l18-5.9L80,79.4l0.1,30.6L50.8,100.4z M67.4,126.9l-28.9,9.6l-18.7-6v-18.7
					l11.7-15.4l18,5.9L67.4,126.9z M67.4,148.2l-17.9,24.7l-18,5.9l-11.7-15.4v-18.7l18.7-6L67.4,148.2z M50.8,174.7l29.3-9.5
					L80,195.7l-11.3,15.4l-18-5.9l-11.1-15.4L50.8,174.7z M100,103.1L82.1,78.7l0-19.1l17.9-5.8l17.9,5.8l0,19.1L100,103.1z
					 M117.9,82.2l-0.1,28.4l-10.2,3.3l-6.3-9L117.9,82.2z M98.8,105l-6.3,9l-10.2-3.3l-0.1-28.4L98.8,105z M124.9,137.7l0.1-0.2
					l-0.1-0.2l6.4-8.7l26.9,8.9l-26.9,8.9L124.9,137.7z M147.1,171.8l-27.2-8.9l0.1-10.8l10.5-3.3L147.1,171.8z M130.5,126.2
					l-10.5-3.3l-0.1-10.8l27.2-8.9L130.5,126.2z M149.2,174.7l11.2,15.2l-11.1,15.4l-18,5.9L120,195.7l-0.1-30.6L149.2,174.7z
					 M132.6,148.2l28.9-9.6l18.7,6v18.7l-11.7,15.4l-18-5.9L132.6,148.2z M132.6,126.9l17.9-24.7l18-5.9l11.7,15.4v18.7l-18.7,6
					L132.6,126.9z M149.2,100.4l-29.3,9.5l0.1-30.6L131.3,64l18,5.9l11.1,15.4L149.2,100.4z M169.9,11.2l9.3,2.9l0,12l-26.6,8.6
					L169.9,11.2z M120,6.7l18.1-5.3l29.7,9.2l-18.5,25.2l-18,5.8L120,26L120,6.7z M120,47.3l0-17.8L130.5,44l16.7-5.4l-0.6,0.9l0,0
					l-9.2,12.6l-0.4,0.6L147.3,67l-16.8-5.4L120,75.9l0-17.7l-16.7-5.4L120,47.3z M82.1,26.7L100,2.1l17.9,24.6l0,19.1L100,51.6
					l-17.9-5.8L82.1,26.7z M96.7,52.7L80,58.1l0,17.7L69.5,61.5L52.7,67L63,52.7l-9.6-13.3l0,0l-0.6-0.8L69.5,44L80,29.6l0,17.8
					L96.7,52.7z M61.8,1.4L80,6.7L80,26L68.7,41.5l-18-5.8L32.2,10.6L61.8,1.4z M20.7,14.1l9.3-2.9l17.3,23.4l-26.6-8.6L20.7,14.1z
					 M20.7,28.3l28.7,9.2l11,15.2l-11,15.4l-18.1,5.9L20.7,59.4L20.7,28.3z M18.6,56.5l-17-23.2l0,0l0,0l6.3-9.1l10.7,3.4L18.6,56.5
					z M3.7,85.1L3.7,85.1L3.7,85.1l15.4-5l0.7-0.2l0.8-17.1l9.5,13l0.4,0.6l16.8-5.5L37,85.3l10.4,14.1l-16-5.2l-0.7-0.2l-10.8,14.3
					l0.3-17l0-0.8L3.7,85.1z M17.8,143.1v17.3L1.6,137.5l16.2-22.9V132l17.3,5.5L17.8,143.1z M7.9,250.9l-6.3-9.1l17-23.3l0,28.9
					L7.9,250.9z M19.9,195.9l0-0.7L3.7,190l0,0l-0.1,0l16.6-5.4l-0.4-17.7l10.4,13.7l0.4,0.6l16.7-5.4L37,189.8l10.3,14.4l-16.1-5.2
					l-0.7-0.2l-10,13.6L19.9,195.9z M20.7,215.7l10.7-14.6l18.1,5.9l11,15.4l-11,15.2l-28.7,9.2L20.7,215.7z M30.1,263.9l-9.3-2.9
					l0-12l26.6-8.6L30.1,263.9z M80,268.4l-18.1,5.3l-29.7-9.2l18.5-25.2l18-5.8L80,249L80,268.4z M80,227.7l0,17.8l-10.5-14.4
					l-16.7,5.4l0.6-0.9l0,0l9.6-13.3l-10.3-14.3l16,5.2l0.7,0.2L80,199.2l0,17.7l16.7,5.4L80,227.7z M117.9,248.4L100,273
					l-17.9-24.6l0-19.1l17.9-5.8l17.9,5.8L117.9,248.4z M103.3,222.4L120,217l0-17.7l10.1,13.7l0.4,0.6l16.8-5.4L137,222.4l9.6,13.2
					l0,0l0.6,0.9l-16-5.1l-0.7-0.2L120,245.5l0-17.8L103.3,222.4z M138.2,273.7l-18.1-5.3l0-19.4l11.3-15.5l18,5.8l18.5,25.2
					L138.2,273.7z M179.3,261l-9.3,2.9l-17.3-23.4l26.6,8.6L179.3,261z M179.3,246.8l-28.7-9.2l-11-15.2l11-15.4l18.1-5.9l10.7,14.6
					L179.3,246.8z M181.4,218.6l17,23.2l0,0l0,0l-6.3,9.1l-10.7-3.4L181.4,218.6z M196.3,190L196.3,190L196.3,190l-15.5,5l-0.7,0.2
					l-0.8,17.1l-10-13.6l-16.8,5.5l10.3-14.4l-10.4-14.1l16.7,5.4l10.8-14.3l-0.4,17.7L196.3,190z M182.2,132v-17.3l16.2,22.9
					l-16.2,22.9v-17.3l-17.3-5.5L182.2,132z M196.3,85.1L196.3,85.1L196.3,85.1l-16.6,5.4l0.4,17.7l-10.4-13.7l-0.4-0.6l-16.7,5.4
					L163,85.3l-10.3-14.4l16.1,5.2l0.7,0.2l10-13.6l0.7,16.4l0,0.7L196.3,85.1z M181.4,56.5l0-28.9l10.7-3.4l6.3,9.1L181.4,56.5z"/>
			</g>
		</g>
		<g>
			<g>
				<path class="st0" d="M400,31.9l-7.1-10.2l-11.5,3.7l0-12.8l-10.1-3.1l7-9.4h-2.6l-6.5,8.8L340.7,0h-5.2L318,5.1l0,18.1L301,0h-2
					l-16.9,23.2l0-17.3l0-0.8L264.5,0h-5.2l-28.4,8.8L224.4,0h-2.6l7,9.4l-9.4,2.9l-0.7,0.2l0,12.8l-11.5-3.7L200,31.9v2.6
					l18.6,25.5l-0.8,18.3L200,84.1v2l18.2,5.9l-0.4,19.1L200,136.2v2.6l17.8,25.1l0.4,19.1L200,189v2l17.8,5.8l0.8,18.3L200,240.5
					v2.6l7.1,10.2l11.5-3.7l0,12.8l10.1,3.1l-7,9.4h2.6l6.5-8.8l28.4,8.8h5.2l16.8-4.9l0.7-0.2l0-18.1l16.9,23.2h2l16.9-23.2l0,17.3
					v0.8l17.5,5.1h5.2l28.4-8.8l6.5,8.8h2.6l-7-9.4l9.4-2.9l0.7-0.2l0-12.8l11.5,3.7l7.1-10.2v-2.6L381.4,215l0.8-18.3L400,191v-2
					l-18.2-5.9l0.4-19.1l17.8-25.1v-2.6l-17.8-25.1L381.8,92l18.2-5.9v-2l-17.8-5.8l-0.8-18.3L400,34.6V31.9z M379.3,59.4
					l-10.7,14.6l-18.1-5.9l-11-15.4l11-15.2l28.7-9.2L379.3,59.4z M300,171.9l17.9,24.5l0,19.1l-17.9,5.8l-17.9-5.8l0-19.1
					L300,171.9z M282.1,192.9l0.1-28.4l10.2-3.3l6.3,9L282.1,192.9z M301.2,170.1l6.3-9l10.2,3.3l0.1,28.4L301.2,170.1z
					 M317.8,162.3l-11-3.6l-6.8,9.6l-6.8-9.6l-11,3.6l-0.1-11.6l-11.3-3.5l6.9-9.4l-0.1-0.2l0.1-0.2l-6.9-9.4l11.3-3.5l0.1-11.6
					l11,3.6l6.8-9.6l6.8,9.6l11-3.6l0.1,11.6l11.3,3.5l-6.9,9.4l0.1,0.2l-0.1,0.2l6.9,9.4l-11.3,3.5L317.8,162.3z M275.1,137.7
					l-6.4,8.7l-26.9-8.9l26.9-8.9l6.4,8.7l-0.1,0.2L275.1,137.7z M269.5,148.9l10.5,3.3l0.1,10.8l-27.2,8.9L269.5,148.9z
					 M252.9,103.3l27.2,8.9l-0.1,10.8l-10.5,3.3L252.9,103.3z M250.8,100.4l-11.2-15.2l11.1-15.4l18-5.9L280,79.4l0.1,30.6
					L250.8,100.4z M267.4,126.9l-28.9,9.6l-18.7-6v-18.7l11.7-15.4l18,5.9L267.4,126.9z M267.4,148.2l-17.9,24.7l-18,5.9l-11.7-15.4
					v-18.7l18.7-6L267.4,148.2z M250.8,174.7l29.3-9.5l-0.1,30.6l-11.3,15.4l-18-5.9l-11.1-15.4L250.8,174.7z M300,103.1l-17.9-24.5
					l0-19.1l17.9-5.8l17.9,5.8l0,19.1L300,103.1z M317.9,82.2l-0.1,28.4l-10.2,3.3l-6.3-9L317.9,82.2z M298.8,105l-6.3,9l-10.2-3.3
					l-0.1-28.4L298.8,105z M324.9,137.7l0.1-0.2l-0.1-0.2l6.4-8.7l26.9,8.9l-26.9,8.9L324.9,137.7z M347.1,171.8l-27.2-8.9l0.1-10.8
					l10.5-3.3L347.1,171.8z M330.5,126.2l-10.5-3.3l-0.1-10.8l27.2-8.9L330.5,126.2z M349.2,174.7l11.2,15.2l-11.1,15.4l-18,5.9
					L320,195.7l-0.1-30.6L349.2,174.7z M332.6,148.2l28.9-9.6l18.7,6v18.7l-11.7,15.4l-18-5.9L332.6,148.2z M332.6,126.9l17.9-24.7
					l18-5.9l11.7,15.4v18.7l-18.7,6L332.6,126.9z M349.2,100.4l-29.3,9.5l0.1-30.6L331.3,64l18,5.9l11.1,15.4L349.2,100.4z
					 M369.9,11.2l9.3,2.9l0,12l-26.6,8.6L369.9,11.2z M320,6.7l18.1-5.3l29.7,9.2l-18.5,25.2l-18,5.8L320,26L320,6.7z M320,47.3
					l0-17.8L330.5,44l16.7-5.4l-0.6,0.9l0,0l-9.2,12.6l-0.4,0.6L347.3,67l-16.8-5.4L320,75.9l0-17.7l-16.7-5.4L320,47.3z
					 M282.1,26.7L300,2.1l17.9,24.6l0,19.1L300,51.6l-17.9-5.8L282.1,26.7z M296.7,52.7L280,58.1l0,17.7l-10.5-14.3L252.7,67
					L263,52.7l-9.6-13.3l0,0l-0.6-0.8l16.7,5.4L280,29.6l0,17.8L296.7,52.7z M261.8,1.4L280,6.7l0,19.4l-11.3,15.5l-18-5.8
					l-18.5-25.2L261.8,1.4z M220.7,14.1l9.3-2.9l17.3,23.4l-26.6-8.6L220.7,14.1z M220.7,28.3l28.7,9.2l11,15.2l-11,15.4l-18.1,5.9
					l-10.7-14.6L220.7,28.3z M218.6,56.5l-17-23.2l0,0l0,0l6.3-9.1l10.7,3.4L218.6,56.5z M203.7,85.1L203.7,85.1L203.7,85.1l15.4-5
					l0.7-0.2l0.8-17.1l9.5,13l0.4,0.6l16.8-5.5L237,85.3l10.4,14.1l-16-5.2l-0.7-0.2l-10.8,14.3l0.3-17l0-0.8L203.7,85.1z
					 M217.8,143.1v17.3l-16.2-22.9l16.2-22.9V132l17.3,5.5L217.8,143.1z M207.9,250.9l-6.3-9.1l17-23.3l0,28.9L207.9,250.9z
					 M219.9,195.9l0-0.7l-16.1-5.2l0,0l-0.1,0l16.6-5.4l-0.4-17.7l10.4,13.7l0.4,0.6l16.7-5.4L237,189.8l10.3,14.4l-16.1-5.2
					l-0.7-0.2l-10,13.6L219.9,195.9z M220.7,215.7l10.7-14.6l18.1,5.9l11,15.4l-11,15.2l-28.7,9.2L220.7,215.7z M230.1,263.9
					l-9.3-2.9l0-12l26.6-8.6L230.1,263.9z M280,268.4l-18.1,5.3l-29.7-9.2l18.5-25.2l18-5.8L280,249L280,268.4z M280,227.7l0,17.8
					l-10.5-14.4l-16.7,5.4l0.6-0.9l0,0l9.6-13.3l-10.3-14.3l16,5.2l0.7,0.2l10.5-14.3l0,17.7l16.7,5.4L280,227.7z M317.9,248.4
					L300,273l-17.9-24.6l0-19.1l17.9-5.8l17.9,5.8L317.9,248.4z M303.3,222.4L320,217l0-17.7l10.1,13.7l0.4,0.6l16.8-5.4L337,222.4
					l9.6,13.2l0,0l0.6,0.9l-16-5.1l-0.7-0.2L320,245.5l0-17.8L303.3,222.4z M338.2,273.7l-18.1-5.3l0-19.4l11.3-15.5l18,5.8
					l18.5,25.2L338.2,273.7z M379.3,261l-9.3,2.9l-17.3-23.4l26.6,8.6L379.3,261z M379.3,246.8l-28.7-9.2l-11-15.2l11-15.4l18.1-5.9
					l10.7,14.6L379.3,246.8z M381.4,218.6l17,23.2l0,0l0,0l-6.3,9.1l-10.7-3.4L381.4,218.6z M396.3,190L396.3,190L396.3,190l-15.5,5
					l-0.7,0.2l-0.8,17.1l-10-13.6l-16.8,5.5l10.3-14.4l-10.4-14.1l16.7,5.4l10.8-14.3l-0.4,17.7L396.3,190z M382.2,132v-17.3
					l16.2,22.9l-16.2,22.9v-17.3l-17.3-5.5L382.2,132z M396.3,85.1L396.3,85.1L396.3,85.1l-16.6,5.4l0.4,17.7l-10.4-13.7l-0.4-0.6
					l-16.7,5.4L363,85.3l-10.3-14.4l16.1,5.2l0.7,0.2l10-13.6l0.7,16.4l0,0.7L396.3,85.1z M381.4,56.5l0-28.9l10.7-3.4l6.3,9.1
					L381.4,56.5z"/>
			</g>
		</g>
		<g>
			<g>
				<path class="st0" d="M600,31.9l-7.1-10.2l-11.5,3.7l0-12.8l-10.1-3.1l7-9.4h-2.6l-6.5,8.8L540.7,0h-5.2L518,5.1l0,18.1L501,0h-2
					l-16.9,23.2l0-17.3l0-0.8L464.5,0h-5.2l-28.4,8.8L424.4,0h-2.6l7,9.4l-9.4,2.9l-0.7,0.2l0,12.8l-11.5-3.7L400,31.9v2.6
					l18.6,25.5l-0.8,18.3L400,84.1v2l18.2,5.9l-0.4,19.1L400,136.2v2.6l17.8,25.1l0.4,19.1L400,189v2l17.8,5.8l0.8,18.3L400,240.5
					v2.6l7.1,10.2l11.5-3.7l0,12.8l10.1,3.1l-7,9.4h2.6l6.5-8.8l28.4,8.8h5.2l16.8-4.9l0.7-0.2l0-18.1l16.9,23.2h2l16.9-23.2l0,17.3
					v0.8l17.5,5.1h5.2l28.4-8.8l6.5,8.8h2.6l-7-9.4l9.4-2.9l0.7-0.2l0-12.8l11.5,3.7l7.1-10.2v-2.6L581.4,215l0.8-18.3L600,191v-2
					l-18.2-5.9l0.4-19.1l17.8-25.1v-2.6l-17.8-25.1L581.8,92l18.2-5.9v-2l-17.8-5.8l-0.8-18.3L600,34.6V31.9z M579.3,59.4
					l-10.7,14.6l-18.1-5.9l-11-15.4l11-15.2l28.7-9.2L579.3,59.4z M500,171.9l17.9,24.5l0,19.1l-17.9,5.8l-17.9-5.8l0-19.1
					L500,171.9z M482.1,192.9l0.1-28.4l10.2-3.3l6.3,9L482.1,192.9z M501.2,170.1l6.3-9l10.2,3.3l0.1,28.4L501.2,170.1z
					 M517.8,162.3l-11-3.6l-6.8,9.6l-6.8-9.6l-11,3.6l-0.1-11.6l-11.3-3.5l6.9-9.4l-0.1-0.2l0.1-0.2l-6.9-9.4l11.3-3.5l0.1-11.6
					l11,3.6l6.8-9.6l6.8,9.6l11-3.6l0.1,11.6l11.3,3.5l-6.9,9.4l0.1,0.2l-0.1,0.2l6.9,9.4l-11.3,3.5L517.8,162.3z M475.1,137.7
					l-6.4,8.7l-26.9-8.9l26.9-8.9l6.4,8.7l-0.1,0.2L475.1,137.7z M469.5,148.9l10.5,3.3l0.1,10.8l-27.2,8.9L469.5,148.9z
					 M452.9,103.3l27.2,8.9l-0.1,10.8l-10.5,3.3L452.9,103.3z M450.8,100.4l-11.2-15.2l11.1-15.4l18-5.9L480,79.4l0.1,30.6
					L450.8,100.4z M467.4,126.9l-28.9,9.6l-18.7-6v-18.7l11.7-15.4l18,5.9L467.4,126.9z M467.4,148.2l-17.9,24.7l-18,5.9l-11.7-15.4
					v-18.7l18.7-6L467.4,148.2z M450.8,174.7l29.3-9.5l-0.1,30.6l-11.3,15.4l-18-5.9l-11.1-15.4L450.8,174.7z M500,103.1l-17.9-24.5
					l0-19.1l17.9-5.8l17.9,5.8l0,19.1L500,103.1z M517.9,82.2l-0.1,28.4l-10.2,3.3l-6.3-9L517.9,82.2z M498.8,105l-6.3,9l-10.2-3.3
					l-0.1-28.4L498.8,105z M524.9,137.7l0.1-0.2l-0.1-0.2l6.4-8.7l26.9,8.9l-26.9,8.9L524.9,137.7z M547.1,171.8l-27.2-8.9l0.1-10.8
					l10.5-3.3L547.1,171.8z M530.5,126.2l-10.5-3.3l-0.1-10.8l27.2-8.9L530.5,126.2z M549.2,174.7l11.2,15.2l-11.1,15.4l-18,5.9
					L520,195.7l-0.1-30.6L549.2,174.7z M532.6,148.2l28.9-9.6l18.7,6v18.7l-11.7,15.4l-18-5.9L532.6,148.2z M532.6,126.9l17.9-24.7
					l18-5.9l11.7,15.4v18.7l-18.7,6L532.6,126.9z M549.2,100.4l-29.3,9.5l0.1-30.6L531.3,64l18,5.9l11.1,15.4L549.2,100.4z
					 M569.9,11.2l9.3,2.9l0,12l-26.6,8.6L569.9,11.2z M520,6.7l18.1-5.3l29.7,9.2l-18.5,25.2l-18,5.8L520,26L520,6.7z M520,47.3
					l0-17.8L530.5,44l16.7-5.4l-0.6,0.9l0,0l-9.2,12.6l-0.4,0.6L547.3,67l-16.8-5.4L520,75.9l0-17.7l-16.7-5.4L520,47.3z
					 M482.1,26.7L500,2.1l17.9,24.6l0,19.1L500,51.6l-17.9-5.8L482.1,26.7z M496.7,52.7L480,58.1l0,17.7l-10.5-14.3L452.7,67
					L463,52.7l-9.6-13.3l0,0l-0.6-0.8l16.7,5.4L480,29.6l0,17.8L496.7,52.7z M461.8,1.4L480,6.7l0,19.4l-11.3,15.5l-18-5.8
					l-18.5-25.2L461.8,1.4z M420.7,14.1l9.3-2.9l17.3,23.4l-26.6-8.6L420.7,14.1z M420.7,28.3l28.7,9.2l11,15.2l-11,15.4l-18.1,5.9
					l-10.7-14.6L420.7,28.3z M418.6,56.5l-17-23.2l0,0l0,0l6.3-9.1l10.7,3.4L418.6,56.5z M403.7,85.1L403.7,85.1L403.7,85.1l15.4-5
					l0.7-0.2l0.8-17.1l9.5,13l0.4,0.6l16.8-5.5L437,85.3l10.4,14.1l-16-5.2l-0.7-0.2l-10.8,14.3l0.3-17l0-0.8L403.7,85.1z
					 M417.8,143.1v17.3l-16.2-22.9l16.2-22.9V132l17.3,5.5L417.8,143.1z M407.9,250.9l-6.3-9.1l17-23.3l0,28.9L407.9,250.9z
					 M419.9,195.9l0-0.7l-16.1-5.2l0,0l-0.1,0l16.6-5.4l-0.4-17.7l10.4,13.7l0.4,0.6l16.7-5.4L437,189.8l10.3,14.4l-16.1-5.2
					l-0.7-0.2l-10,13.6L419.9,195.9z M420.7,215.7l10.7-14.6l18.1,5.9l11,15.4l-11,15.2l-28.7,9.2L420.7,215.7z M430.1,263.9
					l-9.3-2.9l0-12l26.6-8.6L430.1,263.9z M480,268.4l-18.1,5.3l-29.7-9.2l18.5-25.2l18-5.8L480,249L480,268.4z M480,227.7l0,17.8
					l-10.5-14.4l-16.7,5.4l0.6-0.9l0,0l9.6-13.3l-10.3-14.3l16,5.2l0.7,0.2l10.5-14.3l0,17.7l16.7,5.4L480,227.7z M517.9,248.4
					L500,273l-17.9-24.6l0-19.1l17.9-5.8l17.9,5.8L517.9,248.4z M503.3,222.4L520,217l0-17.7l10.1,13.7l0.4,0.6l16.8-5.4L537,222.4
					l9.6,13.2l0,0l0.6,0.9l-16-5.1l-0.7-0.2L520,245.5l0-17.8L503.3,222.4z M538.2,273.7l-18.1-5.3l0-19.4l11.3-15.5l18,5.8
					l18.5,25.2L538.2,273.7z M579.3,261l-9.3,2.9l-17.3-23.4l26.6,8.6L579.3,261z M579.3,246.8l-28.7-9.2l-11-15.2l11-15.4l18.1-5.9
					l10.7,14.6L579.3,246.8z M581.4,218.6l17,23.2l0,0l0,0l-6.3,9.1l-10.7-3.4L581.4,218.6z M596.3,190L596.3,190L596.3,190l-15.5,5
					l-0.7,0.2l-0.8,17.1l-10-13.6l-16.8,5.5l10.3-14.4l-10.4-14.1l16.7,5.4l10.8-14.3l-0.4,17.7L596.3,190z M582.2,132v-17.3
					l16.2,22.9l-16.2,22.9v-17.3l-17.3-5.5L582.2,132z M596.3,85.1L596.3,85.1L596.3,85.1l-16.6,5.4l0.4,17.7l-10.4-13.7l-0.4-0.6
					l-16.7,5.4L563,85.3l-10.3-14.4l16.1,5.2l0.7,0.2l10-13.6l0.7,16.4l0,0.7L596.3,85.1z M581.4,56.5l0-28.9l10.7-3.4l6.3,9.1
					L581.4,56.5z"/>
			</g>
		</g>
		<g>
			<g>
				<path class="st0" d="M200,307l-7.1-10.2l-11.5,3.7l0-12.8l-10.1-3.1l7-9.4h-2.6l-6.5,8.8l-28.4-8.8h-5.2l-17.5,5.1l0,18.1
					L101,275.1h-2l-16.9,23.2l0-17.3l0-0.8l-17.5-5.1h-5.2l-28.4,8.8l-6.5-8.8h-2.6l7,9.4l-9.4,2.9l-0.7,0.2l0,12.8l-11.5-3.7L0,307
					v2.6l18.6,25.5l-0.8,18.3L0,359.2v2l18.2,5.9l-0.4,19.1L0,411.3v2.6l17.8,25.1l0.4,19.1L0,464.1v2l17.8,5.8l0.8,18.3L0,515.6
					v2.6l7.1,10.2l11.5-3.7l0,12.8l10.1,3.1l-7,9.4h2.6l6.5-8.8l28.4,8.8h5.2l16.8-4.9L82,545l0-18.1L99,550.2h2l16.9-23.2l0,17.3
					v0.8l17.5,5.1h5.2l28.4-8.8l6.5,8.8h2.6l-7-9.4l9.4-2.9l0.7-0.2l0-12.8l11.5,3.7l7.1-10.2v-2.6l-18.6-25.5l0.8-18.3l17.8-5.8v-2
					l-18.2-5.9l0.4-19.1L200,414v-2.6l-17.8-25.1l-0.4-19.1l18.2-5.9v-2l-17.8-5.8l-0.8-18.3l18.6-25.5V307z M179.3,334.4L168.7,349
					l-18.1-5.9l-11-15.4l11-15.2l28.7-9.2L179.3,334.4z M100,447l17.9,24.5l0,19.1l-17.9,5.8l-17.9-5.8l0-19.1L100,447z M82.1,468
					l0.1-28.4l10.2-3.3l6.3,9L82.1,468z M101.2,445.2l6.3-9l10.2,3.3l0.1,28.4L101.2,445.2z M117.8,437.4l-11-3.6l-6.8,9.6l-6.8-9.6
					l-11,3.6l-0.1-11.6l-11.3-3.5l6.9-9.4l-0.1-0.2l0.1-0.2l-6.9-9.4l11.3-3.5l0.1-11.6l11,3.6l6.8-9.6l6.8,9.6l11-3.6l0.1,11.6
					l11.3,3.5l-6.9,9.4l0.1,0.2l-0.1,0.2l6.9,9.4l-11.3,3.5L117.8,437.4z M75.1,412.8l-6.4,8.7l-26.9-8.9l26.9-8.9l6.4,8.7l-0.1,0.2
					L75.1,412.8z M69.5,424l10.5,3.3l0.1,10.8l-27.2,8.9L69.5,424z M52.9,378.4l27.2,8.9L80,398l-10.5,3.3L52.9,378.4z M50.8,375.5
					l-11.2-15.2l11.1-15.4l18-5.9L80,354.5l0.1,30.6L50.8,375.5z M67.4,402l-28.9,9.6l-18.7-6v-18.7l11.7-15.4l18,5.9L67.4,402z
					 M67.4,423.3L49.5,448l-18,5.9l-11.7-15.4v-18.7l18.7-6L67.4,423.3z M50.8,449.7l29.3-9.5L80,470.8l-11.3,15.4l-18-5.9
					l-11.1-15.4L50.8,449.7z M100,378.2l-17.9-24.5l0-19.1l17.9-5.8l17.9,5.8l0,19.1L100,378.2z M117.9,357.3l-0.1,28.4l-10.2,3.3
					l-6.3-9L117.9,357.3z M98.8,380.1l-6.3,9l-10.2-3.3l-0.1-28.4L98.8,380.1z M124.9,412.8l0.1-0.2l-0.1-0.2l6.4-8.7l26.9,8.9
					l-26.9,8.9L124.9,412.8z M147.1,446.9l-27.2-8.9l0.1-10.8l10.5-3.3L147.1,446.9z M130.5,401.3L120,398l-0.1-10.8l27.2-8.9
					L130.5,401.3z M149.2,449.7l11.2,15.2l-11.1,15.4l-18,5.9L120,470.8l-0.1-30.6L149.2,449.7z M132.6,423.3l28.9-9.6l18.7,6v18.7
					l-11.7,15.4l-18-5.9L132.6,423.3z M132.6,402l17.9-24.7l18-5.9l11.7,15.4v18.7l-18.7,6L132.6,402z M149.2,375.5l-29.3,9.5
					l0.1-30.6l11.3-15.4l18,5.9l11.1,15.4L149.2,375.5z M169.9,286.3l9.3,2.9l0,12l-26.6,8.6L169.9,286.3z M120,281.8l18.1-5.3
					l29.7,9.2l-18.5,25.2l-18,5.8L120,301.1L120,281.8z M120,322.4l0-17.8l10.5,14.4l16.7-5.4l-0.6,0.9l0,0l-9.2,12.6l-0.4,0.6
					l10.3,14.3l-16.8-5.4L120,350.9l0-17.7l-16.7-5.4L120,322.4z M82.1,301.8l17.9-24.6l17.9,24.6l0,19.1l-17.9,5.8l-17.9-5.8
					L82.1,301.8z M96.7,327.8L80,333.2l0,17.7l-10.5-14.3l-16.8,5.4L63,327.8l-9.6-13.3l0,0l-0.6-0.8l16.7,5.4L80,304.7l0,17.8
					L96.7,327.8z M61.8,276.5l18.1,5.3l0,19.4l-11.3,15.5l-18-5.8l-18.5-25.2L61.8,276.5z M20.7,289.2l9.3-2.9l17.3,23.4l-26.6-8.6
					L20.7,289.2z M20.7,303.4l28.7,9.2l11,15.2l-11,15.4L31.3,349l-10.7-14.6L20.7,303.4z M18.6,331.6l-17-23.2l0,0l0,0l6.3-9.1
					l10.7,3.4L18.6,331.6z M3.7,360.2L3.7,360.2L3.7,360.2l15.4-5l0.7-0.2l0.8-17.1l9.5,13l0.4,0.6l16.8-5.5L37,360.4l10.4,14.1
					l-16-5.2l-0.7-0.2l-10.8,14.3l0.3-17l0-0.8L3.7,360.2z M17.8,418.2v17.3L1.6,412.6l16.2-22.9v17.3l17.3,5.5L17.8,418.2z
					 M7.9,526l-6.3-9.1l17-23.3l0,28.9L7.9,526z M19.9,471l0-0.7l-16.1-5.2l0,0l-0.1,0l16.6-5.4l-0.4-17.7l10.4,13.7l0.4,0.6
					l16.7-5.4L37,464.9l10.3,14.4L31.3,474l-0.7-0.2l-10,13.6L19.9,471z M20.7,490.8l10.7-14.6l18.1,5.9l11,15.4l-11,15.2l-28.7,9.2
					L20.7,490.8z M30.1,539l-9.3-2.9l0-12l26.6-8.6L30.1,539z M80,543.5l-18.1,5.3l-29.7-9.2l18.5-25.2l18-5.8L80,524.1L80,543.5z
					 M80,502.8l0,17.8l-10.5-14.4l-16.7,5.4l0.6-0.9l0,0l9.6-13.3l-10.3-14.3l16,5.2l0.7,0.2L80,474.3l0,17.7l16.7,5.4L80,502.8z
					 M117.9,523.5L100,548l-17.9-24.6l0-19.1l17.9-5.8l17.9,5.8L117.9,523.5z M103.3,497.5L120,492l0-17.7l10.1,13.7l0.4,0.6
					l16.8-5.4L137,497.5l9.6,13.2l0,0l0.6,0.9l-16-5.1l-0.7-0.2L120,520.6l0-17.8L103.3,497.5z M138.2,548.8l-18.1-5.3l0-19.4
					l11.3-15.5l18,5.8l18.5,25.2L138.2,548.8z M179.3,536.1l-9.3,2.9l-17.3-23.4l26.6,8.6L179.3,536.1z M179.3,521.9l-28.7-9.2
					l-11-15.2l11-15.4l18.1-5.9l10.7,14.6L179.3,521.9z M181.4,493.7l17,23.2l0,0l0,0l-6.3,9.1l-10.7-3.4L181.4,493.7z M196.3,465.1
					L196.3,465.1L196.3,465.1l-15.5,5l-0.7,0.2l-0.8,17.1l-10-13.6l-16.8,5.5l10.3-14.4l-10.4-14.1l16.7,5.4l10.8-14.3l-0.4,17.7
					L196.3,465.1z M182.2,407.1v-17.3l16.2,22.9l-16.2,22.9v-17.3l-17.3-5.5L182.2,407.1z M196.3,360.1L196.3,360.1L196.3,360.1
					l-16.6,5.4l0.4,17.7l-10.4-13.7l-0.4-0.6l-16.7,5.4l10.4-14.1L152.6,346l16.1,5.2l0.7,0.2l10-13.6l0.7,16.4l0,0.7L196.3,360.1z
					 M181.4,331.6l0-28.9l10.7-3.4l6.3,9.1L181.4,331.6z"/>
			</g>
		</g>
		<g>
			<g>
				<path class="st0" d="M400,307l-7.1-10.2l-11.5,3.7l0-12.8l-10.1-3.1l7-9.4h-2.6l-6.5,8.8l-28.4-8.8h-5.2l-17.5,5.1l0,18.1
					L301,275.1h-2l-16.9,23.2l0-17.3l0-0.8l-17.5-5.1h-5.2l-28.4,8.8l-6.5-8.8h-2.6l7,9.4l-9.4,2.9l-0.7,0.2l0,12.8l-11.5-3.7
					L200,307v2.6l18.6,25.5l-0.8,18.3l-17.8,5.8v2l18.2,5.9l-0.4,19.1L200,411.3v2.6l17.8,25.1l0.4,19.1l-18.2,5.9v2l17.8,5.8
					l0.8,18.3L200,515.6v2.6l7.1,10.2l11.5-3.7l0,12.8l10.1,3.1l-7,9.4h2.6l6.5-8.8l28.4,8.8h5.2l16.8-4.9l0.7-0.2l0-18.1l16.9,23.2
					h2l16.9-23.2l0,17.3v0.8l17.5,5.1h5.2l28.4-8.8l6.5,8.8h2.6l-7-9.4l9.4-2.9l0.7-0.2l0-12.8l11.5,3.7l7.1-10.2v-2.6l-18.6-25.5
					l0.8-18.3l17.8-5.8v-2l-18.2-5.9l0.4-19.1L400,414v-2.6l-17.8-25.1l-0.4-19.1l18.2-5.9v-2l-17.8-5.8l-0.8-18.3l18.6-25.5V307z
					 M379.3,334.4L368.7,349l-18.1-5.9l-11-15.4l11-15.2l28.7-9.2L379.3,334.4z M300,447l17.9,24.5l0,19.1l-17.9,5.8l-17.9-5.8
					l0-19.1L300,447z M282.1,468l0.1-28.4l10.2-3.3l6.3,9L282.1,468z M301.2,445.2l6.3-9l10.2,3.3l0.1,28.4L301.2,445.2z
					 M317.8,437.4l-11-3.6l-6.8,9.6l-6.8-9.6l-11,3.6l-0.1-11.6l-11.3-3.5l6.9-9.4l-0.1-0.2l0.1-0.2l-6.9-9.4l11.3-3.5l0.1-11.6
					l11,3.6l6.8-9.6l6.8,9.6l11-3.6l0.1,11.6l11.3,3.5l-6.9,9.4l0.1,0.2l-0.1,0.2l6.9,9.4l-11.3,3.5L317.8,437.4z M275.1,412.8
					l-6.4,8.7l-26.9-8.9l26.9-8.9l6.4,8.7l-0.1,0.2L275.1,412.8z M269.5,424l10.5,3.3l0.1,10.8l-27.2,8.9L269.5,424z M252.9,378.4
					l27.2,8.9L280,398l-10.5,3.3L252.9,378.4z M250.8,375.5l-11.2-15.2l11.1-15.4l18-5.9l11.3,15.4l0.1,30.6L250.8,375.5z
					 M267.4,402l-28.9,9.6l-18.7-6v-18.7l11.7-15.4l18,5.9L267.4,402z M267.4,423.3L249.5,448l-18,5.9l-11.7-15.4v-18.7l18.7-6
					L267.4,423.3z M250.8,449.7l29.3-9.5l-0.1,30.6l-11.3,15.4l-18-5.9l-11.1-15.4L250.8,449.7z M300,378.2l-17.9-24.5l0-19.1
					l17.9-5.8l17.9,5.8l0,19.1L300,378.2z M317.9,357.3l-0.1,28.4l-10.2,3.3l-6.3-9L317.9,357.3z M298.8,380.1l-6.3,9l-10.2-3.3
					l-0.1-28.4L298.8,380.1z M324.9,412.8l0.1-0.2l-0.1-0.2l6.4-8.7l26.9,8.9l-26.9,8.9L324.9,412.8z M347.1,446.9l-27.2-8.9
					l0.1-10.8l10.5-3.3L347.1,446.9z M330.5,401.3L320,398l-0.1-10.8l27.2-8.9L330.5,401.3z M349.2,449.7l11.2,15.2l-11.1,15.4
					l-18,5.9L320,470.8l-0.1-30.6L349.2,449.7z M332.6,423.3l28.9-9.6l18.7,6v18.7l-11.7,15.4l-18-5.9L332.6,423.3z M332.6,402
					l17.9-24.7l18-5.9l11.7,15.4v18.7l-18.7,6L332.6,402z M349.2,375.5l-29.3,9.5l0.1-30.6l11.3-15.4l18,5.9l11.1,15.4L349.2,375.5z
					 M369.9,286.3l9.3,2.9l0,12l-26.6,8.6L369.9,286.3z M320,281.8l18.1-5.3l29.7,9.2l-18.5,25.2l-18,5.8L320,301.1L320,281.8z
					 M320,322.4l0-17.8l10.5,14.4l16.7-5.4l-0.6,0.9l0,0l-9.2,12.6l-0.4,0.6l10.3,14.3l-16.8-5.4L320,350.9l0-17.7l-16.7-5.4
					L320,322.4z M282.1,301.8l17.9-24.6l17.9,24.6l0,19.1l-17.9,5.8l-17.9-5.8L282.1,301.8z M296.7,327.8l-16.7,5.4l0,17.7
					l-10.5-14.3l-16.8,5.4l10.3-14.3l-9.6-13.3l0,0l-0.6-0.8l16.7,5.4l10.5-14.4l0,17.8L296.7,327.8z M261.8,276.5l18.1,5.3l0,19.4
					l-11.3,15.5l-18-5.8l-18.5-25.2L261.8,276.5z M220.7,289.2l9.3-2.9l17.3,23.4l-26.6-8.6L220.7,289.2z M220.7,303.4l28.7,9.2
					l11,15.2l-11,15.4l-18.1,5.9l-10.7-14.6L220.7,303.4z M218.6,331.6l-17-23.2l0,0l0,0l6.3-9.1l10.7,3.4L218.6,331.6z
					 M203.7,360.2L203.7,360.2L203.7,360.2l15.4-5l0.7-0.2l0.8-17.1l9.5,13l0.4,0.6l16.8-5.5L237,360.4l10.4,14.1l-16-5.2l-0.7-0.2
					l-10.8,14.3l0.3-17l0-0.8L203.7,360.2z M217.8,418.2v17.3l-16.2-22.9l16.2-22.9v17.3l17.3,5.5L217.8,418.2z M207.9,526l-6.3-9.1
					l17-23.3l0,28.9L207.9,526z M219.9,471l0-0.7l-16.1-5.2l0,0l-0.1,0l16.6-5.4l-0.4-17.7l10.4,13.7l0.4,0.6l16.7-5.4L237,464.9
					l10.3,14.4l-16.1-5.2l-0.7-0.2l-10,13.6L219.9,471z M220.7,490.8l10.7-14.6l18.1,5.9l11,15.4l-11,15.2l-28.7,9.2L220.7,490.8z
					 M230.1,539l-9.3-2.9l0-12l26.6-8.6L230.1,539z M280,543.5l-18.1,5.3l-29.7-9.2l18.5-25.2l18-5.8l11.3,15.5L280,543.5z
					 M280,502.8l0,17.8l-10.5-14.4l-16.7,5.4l0.6-0.9l0,0l9.6-13.3l-10.3-14.3l16,5.2l0.7,0.2l10.5-14.3l0,17.7l16.7,5.4L280,502.8z
					 M317.9,523.5L300,548l-17.9-24.6l0-19.1l17.9-5.8l17.9,5.8L317.9,523.5z M303.3,497.5L320,492l0-17.7l10.1,13.7l0.4,0.6
					l16.8-5.4L337,497.5l9.6,13.2l0,0l0.6,0.9l-16-5.1l-0.7-0.2L320,520.6l0-17.8L303.3,497.5z M338.2,548.8l-18.1-5.3l0-19.4
					l11.3-15.5l18,5.8l18.5,25.2L338.2,548.8z M379.3,536.1l-9.3,2.9l-17.3-23.4l26.6,8.6L379.3,536.1z M379.3,521.9l-28.7-9.2
					l-11-15.2l11-15.4l18.1-5.9l10.7,14.6L379.3,521.9z M381.4,493.7l17,23.2l0,0l0,0l-6.3,9.1l-10.7-3.4L381.4,493.7z M396.3,465.1
					L396.3,465.1L396.3,465.1l-15.5,5l-0.7,0.2l-0.8,17.1l-10-13.6l-16.8,5.5l10.3-14.4l-10.4-14.1l16.7,5.4l10.8-14.3l-0.4,17.7
					L396.3,465.1z M382.2,407.1v-17.3l16.2,22.9l-16.2,22.9v-17.3l-17.3-5.5L382.2,407.1z M396.3,360.1L396.3,360.1L396.3,360.1
					l-16.6,5.4l0.4,17.7l-10.4-13.7l-0.4-0.6l-16.7,5.4l10.4-14.1L352.6,346l16.1,5.2l0.7,0.2l10-13.6l0.7,16.4l0,0.7L396.3,360.1z
					 M381.4,331.6l0-28.9l10.7-3.4l6.3,9.1L381.4,331.6z"/>
			</g>
		</g>
		<g>
			<g>
				<path class="st0" d="M600,307l-7.1-10.2l-11.5,3.7l0-12.8l-10.1-3.1l7-9.4h-2.6l-6.5,8.8l-28.4-8.8h-5.2l-17.5,5.1l0,18.1
					L501,275.1h-2l-16.9,23.2l0-17.3l0-0.8l-17.5-5.1h-5.2l-28.4,8.8l-6.5-8.8h-2.6l7,9.4l-9.4,2.9l-0.7,0.2l0,12.8l-11.5-3.7
					L400,307v2.6l18.6,25.5l-0.8,18.3l-17.8,5.8v2l18.2,5.9l-0.4,19.1L400,411.3v2.6l17.8,25.1l0.4,19.1l-18.2,5.9v2l17.8,5.8
					l0.8,18.3L400,515.6v2.6l7.1,10.2l11.5-3.7l0,12.8l10.1,3.1l-7,9.4h2.6l6.5-8.8l28.4,8.8h5.2l16.8-4.9l0.7-0.2l0-18.1l16.9,23.2
					h2l16.9-23.2l0,17.3v0.8l17.5,5.1h5.2l28.4-8.8l6.5,8.8h2.6l-7-9.4l9.4-2.9l0.7-0.2l0-12.8l11.5,3.7l7.1-10.2v-2.6l-18.6-25.5
					l0.8-18.3l17.8-5.8v-2l-18.2-5.9l0.4-19.1L600,414v-2.6l-17.8-25.1l-0.4-19.1l18.2-5.9v-2l-17.8-5.8l-0.8-18.3l18.6-25.5V307z
					 M579.3,334.4L568.7,349l-18.1-5.9l-11-15.4l11-15.2l28.7-9.2L579.3,334.4z M500,447l17.9,24.5l0,19.1l-17.9,5.8l-17.9-5.8
					l0-19.1L500,447z M482.1,468l0.1-28.4l10.2-3.3l6.3,9L482.1,468z M501.2,445.2l6.3-9l10.2,3.3l0.1,28.4L501.2,445.2z
					 M517.8,437.4l-11-3.6l-6.8,9.6l-6.8-9.6l-11,3.6l-0.1-11.6l-11.3-3.5l6.9-9.4l-0.1-0.2l0.1-0.2l-6.9-9.4l11.3-3.5l0.1-11.6
					l11,3.6l6.8-9.6l6.8,9.6l11-3.6l0.1,11.6l11.3,3.5l-6.9,9.4l0.1,0.2l-0.1,0.2l6.9,9.4l-11.3,3.5L517.8,437.4z M475.1,412.8
					l-6.4,8.7l-26.9-8.9l26.9-8.9l6.4,8.7l-0.1,0.2L475.1,412.8z M469.5,424l10.5,3.3l0.1,10.8l-27.2,8.9L469.5,424z M452.9,378.4
					l27.2,8.9L480,398l-10.5,3.3L452.9,378.4z M450.8,375.5l-11.2-15.2l11.1-15.4l18-5.9l11.3,15.4l0.1,30.6L450.8,375.5z
					 M467.4,402l-28.9,9.6l-18.7-6v-18.7l11.7-15.4l18,5.9L467.4,402z M467.4,423.3L449.5,448l-18,5.9l-11.7-15.4v-18.7l18.7-6
					L467.4,423.3z M450.8,449.7l29.3-9.5l-0.1,30.6l-11.3,15.4l-18-5.9l-11.1-15.4L450.8,449.7z M500,378.2l-17.9-24.5l0-19.1
					l17.9-5.8l17.9,5.8l0,19.1L500,378.2z M517.9,357.3l-0.1,28.4l-10.2,3.3l-6.3-9L517.9,357.3z M498.8,380.1l-6.3,9l-10.2-3.3
					l-0.1-28.4L498.8,380.1z M524.9,412.8l0.1-0.2l-0.1-0.2l6.4-8.7l26.9,8.9l-26.9,8.9L524.9,412.8z M547.1,446.9l-27.2-8.9
					l0.1-10.8l10.5-3.3L547.1,446.9z M530.5,401.3L520,398l-0.1-10.8l27.2-8.9L530.5,401.3z M549.2,449.7l11.2,15.2l-11.1,15.4
					l-18,5.9L520,470.8l-0.1-30.6L549.2,449.7z M532.6,423.3l28.9-9.6l18.7,6v18.7l-11.7,15.4l-18-5.9L532.6,423.3z M532.6,402
					l17.9-24.7l18-5.9l11.7,15.4v18.7l-18.7,6L532.6,402z M549.2,375.5l-29.3,9.5l0.1-30.6l11.3-15.4l18,5.9l11.1,15.4L549.2,375.5z
					 M569.9,286.3l9.3,2.9l0,12l-26.6,8.6L569.9,286.3z M520,281.8l18.1-5.3l29.7,9.2l-18.5,25.2l-18,5.8L520,301.1L520,281.8z
					 M520,322.4l0-17.8l10.5,14.4l16.7-5.4l-0.6,0.9l0,0l-9.2,12.6l-0.4,0.6l10.3,14.3l-16.8-5.4L520,350.9l0-17.7l-16.7-5.4
					L520,322.4z M482.1,301.8l17.9-24.6l17.9,24.6l0,19.1l-17.9,5.8l-17.9-5.8L482.1,301.8z M496.7,327.8l-16.7,5.4l0,17.7
					l-10.5-14.3l-16.8,5.4l10.3-14.3l-9.6-13.3l0,0l-0.6-0.8l16.7,5.4l10.5-14.4l0,17.8L496.7,327.8z M461.8,276.5l18.1,5.3l0,19.4
					l-11.3,15.5l-18-5.8l-18.5-25.2L461.8,276.5z M420.7,289.2l9.3-2.9l17.3,23.4l-26.6-8.6L420.7,289.2z M420.7,303.4l28.7,9.2
					l11,15.2l-11,15.4l-18.1,5.9l-10.7-14.6L420.7,303.4z M418.6,331.6l-17-23.2l0,0l0,0l6.3-9.1l10.7,3.4L418.6,331.6z
					 M403.7,360.2L403.7,360.2L403.7,360.2l15.4-5l0.7-0.2l0.8-17.1l9.5,13l0.4,0.6l16.8-5.5L437,360.4l10.4,14.1l-16-5.2l-0.7-0.2
					l-10.8,14.3l0.3-17l0-0.8L403.7,360.2z M417.8,418.2v17.3l-16.2-22.9l16.2-22.9v17.3l17.3,5.5L417.8,418.2z M407.9,526l-6.3-9.1
					l17-23.3l0,28.9L407.9,526z M419.9,471l0-0.7l-16.1-5.2l0,0l-0.1,0l16.6-5.4l-0.4-17.7l10.4,13.7l0.4,0.6l16.7-5.4L437,464.9
					l10.3,14.4l-16.1-5.2l-0.7-0.2l-10,13.6L419.9,471z M420.7,490.8l10.7-14.6l18.1,5.9l11,15.4l-11,15.2l-28.7,9.2L420.7,490.8z
					 M430.1,539l-9.3-2.9l0-12l26.6-8.6L430.1,539z M480,543.5l-18.1,5.3l-29.7-9.2l18.5-25.2l18-5.8l11.3,15.5L480,543.5z
					 M480,502.8l0,17.8l-10.5-14.4l-16.7,5.4l0.6-0.9l0,0l9.6-13.3l-10.3-14.3l16,5.2l0.7,0.2l10.5-14.3l0,17.7l16.7,5.4L480,502.8z
					 M517.9,523.5L500,548l-17.9-24.6l0-19.1l17.9-5.8l17.9,5.8L517.9,523.5z M503.3,497.5L520,492l0-17.7l10.1,13.7l0.4,0.6
					l16.8-5.4L537,497.5l9.6,13.2l0,0l0.6,0.9l-16-5.1l-0.7-0.2L520,520.6l0-17.8L503.3,497.5z M538.2,548.8l-18.1-5.3l0-19.4
					l11.3-15.5l18,5.8l18.5,25.2L538.2,548.8z M579.3,536.1l-9.3,2.9l-17.3-23.4l26.6,8.6L579.3,536.1z M579.3,521.9l-28.7-9.2
					l-11-15.2l11-15.4l18.1-5.9l10.7,14.6L579.3,521.9z M581.4,493.7l17,23.2l0,0l0,0l-6.3,9.1l-10.7-3.4L581.4,493.7z M596.3,465.1
					L596.3,465.1L596.3,465.1l-15.5,5l-0.7,0.2l-0.8,17.1l-10-13.6l-16.8,5.5l10.3-14.4l-10.4-14.1l16.7,5.4l10.8-14.3l-0.4,17.7
					L596.3,465.1z M582.2,407.1v-17.3l16.2,22.9l-16.2,22.9v-17.3l-17.3-5.5L582.2,407.1z M596.3,360.1L596.3,360.1L596.3,360.1
					l-16.6,5.4l0.4,17.7l-10.4-13.7l-0.4-0.6l-16.7,5.4l10.4-14.1L552.6,346l16.1,5.2l0.7,0.2l10-13.6l0.7,16.4l0,0.7L596.3,360.1z
					 M581.4,331.6l0-28.9l10.7-3.4l6.3,9.1L581.4,331.6z"/>
			</g>
		</g>
		<g>
			<g>
				<path class="st0" d="M200,582.1l-7.1-10.2l-11.5,3.7l0-12.8l-10.1-3.1l7-9.4h-2.6l-6.5,8.8l-28.4-8.8h-5.2l-17.5,5.1l0,18.1
					L101,550.2h-2l-16.9,23.2l0-17.3l0-0.8l-17.5-5.1h-5.2L30.9,559l-6.5-8.8h-2.6l7,9.4l-9.4,2.9l-0.7,0.2l0,12.8l-11.5-3.7
					L0,582.1v2.6l18.6,25.5l-0.8,18.3L0,634.3v2l18.2,5.9l-0.4,19.1L0,686.4v2.6l17.8,25.1l0.4,19.1L0,739.2v2l17.8,5.8l0.8,18.3
					L0,790.7v2.6l7.1,10.2l11.5-3.7l0,12.8l10.1,3.1l-7,9.4h2.6l6.5-8.8l28.4,8.8h5.2l16.8-4.9l0.7-0.2l0-18.1L99,825.3h2l16.9-23.2
					l0,17.3v0.8l17.5,5.1h5.2l28.4-8.8l6.5,8.8h2.6l-7-9.4l9.4-2.9l0.7-0.2l0-12.8l11.5,3.7l7.1-10.2v-2.6l-18.6-25.5l0.8-18.3
					l17.8-5.8v-2l-18.2-5.9l0.4-19.1L200,689v-2.6l-17.8-25.1l-0.4-19.1l18.2-5.9v-2l-17.8-5.8l-0.8-18.3l18.6-25.5V582.1z
					 M179.3,609.5l-10.7,14.6l-18.1-5.9l-11-15.4l11-15.2l28.7-9.2L179.3,609.5z M100,722.1l17.9,24.5l0,19.1l-17.9,5.8l-17.9-5.8
					l0-19.1L100,722.1z M82.1,743l0.1-28.4l10.2-3.3l6.3,9L82.1,743z M101.2,720.3l6.3-9l10.2,3.3l0.1,28.4L101.2,720.3z
					 M117.8,712.4l-11-3.6l-6.8,9.6l-6.8-9.6l-11,3.6l-0.1-11.6l-11.3-3.5l6.9-9.4l-0.1-0.2l0.1-0.2l-6.9-9.4l11.3-3.5l0.1-11.6
					l11,3.6l6.8-9.6l6.8,9.6l11-3.6l0.1,11.6l11.3,3.5l-6.9,9.4l0.1,0.2l-0.1,0.2l6.9,9.4l-11.3,3.5L117.8,712.4z M75.1,687.9
					l-6.4,8.7l-26.9-8.9l26.9-8.9l6.4,8.7l-0.1,0.2L75.1,687.9z M69.5,699.1l10.5,3.3l0.1,10.8L52.9,722L69.5,699.1z M52.9,653.5
					l27.2,8.9L80,673.1l-10.5,3.3L52.9,653.5z M50.8,650.6l-11.2-15.2L50.7,620l18-5.9L80,629.6l0.1,30.6L50.8,650.6z M67.4,677.1
					l-28.9,9.6l-18.7-6V662l11.7-15.4l18,5.9L67.4,677.1z M67.4,698.4l-17.9,24.7l-18,5.9l-11.7-15.4v-18.7l18.7-6L67.4,698.4z
					 M50.8,724.8l29.3-9.5L80,745.9l-11.3,15.4l-18-5.9L39.6,740L50.8,724.8z M100,653.3l-17.9-24.5l0-19.1L100,604l17.9,5.8l0,19.1
					L100,653.3z M117.9,632.4l-0.1,28.4l-10.2,3.3l-6.3-9L117.9,632.4z M98.8,655.2l-6.3,9l-10.2-3.3l-0.1-28.4L98.8,655.2z
					 M124.9,687.9l0.1-0.2l-0.1-0.2l6.4-8.7l26.9,8.9l-26.9,8.9L124.9,687.9z M147.1,722l-27.2-8.9l0.1-10.8l10.5-3.3L147.1,722z
					 M130.5,676.4l-10.5-3.3l-0.1-10.8l27.2-8.9L130.5,676.4z M149.2,724.8l11.2,15.2l-11.1,15.4l-18,5.9L120,745.9l-0.1-30.6
					L149.2,724.8z M132.6,698.4l28.9-9.6l18.7,6v18.7l-11.7,15.4l-18-5.9L132.6,698.4z M132.6,677.1l17.9-24.7l18-5.9l11.7,15.4
					v18.7l-18.7,6L132.6,677.1z M149.2,650.6l-29.3,9.5l0.1-30.6l11.3-15.4l18,5.9l11.1,15.4L149.2,650.6z M169.9,561.4l9.3,2.9
					l0,12l-26.6,8.6L169.9,561.4z M120,556.9l18.1-5.3l29.7,9.2l-18.5,25.2l-18,5.8L120,576.2L120,556.9z M120,597.5l0-17.8
					l10.5,14.4l16.7-5.4l-0.6,0.9l0,0l-9.2,12.6l-0.4,0.6l10.3,14.3l-16.8-5.4L120,626l0-17.7l-16.7-5.4L120,597.5z M82.1,576.9
					l17.9-24.6l17.9,24.6l0,19.1l-17.9,5.8L82.1,596L82.1,576.9z M96.7,602.9L80,608.3l0,17.7l-10.5-14.3l-16.8,5.4L63,602.9
					l-9.6-13.3l0,0l-0.6-0.8l16.7,5.4L80,579.7l0,17.8L96.7,602.9z M61.8,551.6l18.1,5.3l0,19.4l-11.3,15.5l-18-5.8l-18.5-25.2
					L61.8,551.6z M20.7,564.3l9.3-2.9l17.3,23.4l-26.6-8.6L20.7,564.3z M20.7,578.4l28.7,9.2l11,15.2l-11,15.4l-18.1,5.9l-10.7-14.6
					L20.7,578.4z M18.6,606.7l-17-23.2l0,0l0,0l6.3-9.1l10.7,3.4L18.6,606.7z M3.7,635.3L3.7,635.3L3.7,635.3l15.4-5l0.7-0.2
					l0.8-17.1l9.5,13l0.4,0.6l16.8-5.5L37,635.4l10.4,14.1l-16-5.2l-0.7-0.2l-10.8,14.3l0.3-17l0-0.8L3.7,635.3z M17.8,693.3v17.3
					L1.6,687.7l16.2-22.9v17.3l17.3,5.5L17.8,693.3z M7.9,801.1L1.6,792l17-23.3l0,28.9L7.9,801.1z M19.9,746.1l0-0.7l-16.1-5.2l0,0
					l-0.1,0l16.6-5.4L19.9,717l10.4,13.7l0.4,0.6l16.7-5.4L37,740l10.3,14.4l-16.1-5.2l-0.7-0.2l-10,13.6L19.9,746.1z M20.7,765.9
					l10.7-14.6l18.1,5.9l11,15.4l-11,15.2L20.7,797L20.7,765.9z M30.1,814l-9.3-2.9l0-12l26.6-8.6L30.1,814z M80,818.6l-18.1,5.3
					l-29.7-9.2l18.5-25.2l18-5.8L80,799.2L80,818.6z M80,777.9l0,17.8l-10.5-14.4l-16.7,5.4l0.6-0.9l0,0l9.6-13.3l-10.3-14.3l16,5.2
					l0.7,0.2L80,749.4l0,17.7l16.7,5.4L80,777.9z M117.9,798.5L100,823.1l-17.9-24.6l0-19.1l17.9-5.8l17.9,5.8L117.9,798.5z
					 M103.3,772.5l16.7-5.4l0-17.7l10.1,13.7l0.4,0.6l16.8-5.4L137,772.6l9.6,13.2l0,0l0.6,0.9l-16-5.1l-0.7-0.2L120,795.7l0-17.8
					L103.3,772.5z M138.2,823.9l-18.1-5.3l0-19.4l11.3-15.5l18,5.8l18.5,25.2L138.2,823.9z M179.3,811.2l-9.3,2.9l-17.3-23.4
					l26.6,8.6L179.3,811.2z M179.3,797l-28.7-9.2l-11-15.2l11-15.4l18.1-5.9l10.7,14.6L179.3,797z M181.4,768.7l17,23.2l0,0l0,0
					l-6.3,9.1l-10.7-3.4L181.4,768.7z M196.3,740.2L196.3,740.2L196.3,740.2l-15.5,5l-0.7,0.2l-0.8,17.1l-10-13.6l-16.8,5.5L163,740
					l-10.4-14.1l16.7,5.4l10.8-14.3l-0.4,17.7L196.3,740.2z M182.2,682.2v-17.3l16.2,22.9l-16.2,22.9v-17.3l-17.3-5.5L182.2,682.2z
					 M196.3,635.2L196.3,635.2L196.3,635.2l-16.6,5.4l0.4,17.7l-10.4-13.7l-0.4-0.6l-16.7,5.4l10.4-14.1l-10.3-14.4l16.1,5.2
					l0.7,0.2l10-13.6l0.7,16.4l0,0.7L196.3,635.2z M181.4,606.7l0-28.9l10.7-3.4l6.3,9.1L181.4,606.7z"/>
			</g>
		</g>
		<g>
			<g>
				<path class="st0" d="M400,582.1l-7.1-10.2l-11.5,3.7l0-12.8l-10.1-3.1l7-9.4h-2.6l-6.5,8.8l-28.4-8.8h-5.2l-17.5,5.1l0,18.1
					L301,550.2h-2l-16.9,23.2l0-17.3l0-0.8l-17.5-5.1h-5.2l-28.4,8.8l-6.5-8.8h-2.6l7,9.4l-9.4,2.9l-0.7,0.2l0,12.8l-11.5-3.7
					l-7.1,10.2v2.6l18.6,25.5l-0.8,18.3l-17.8,5.8v2l18.2,5.9l-0.4,19.1L200,686.4v2.6l17.8,25.1l0.4,19.1l-18.2,5.9v2l17.8,5.8
					l0.8,18.3L200,790.7v2.6l7.1,10.2l11.5-3.7l0,12.8l10.1,3.1l-7,9.4h2.6l6.5-8.8l28.4,8.8h5.2l16.8-4.9l0.7-0.2l0-18.1l16.9,23.2
					h2l16.9-23.2l0,17.3v0.8l17.5,5.1h5.2l28.4-8.8l6.5,8.8h2.6l-7-9.4l9.4-2.9l0.7-0.2l0-12.8l11.5,3.7l7.1-10.2v-2.6l-18.6-25.5
					l0.8-18.3l17.8-5.8v-2l-18.2-5.9l0.4-19.1L400,689v-2.6l-17.8-25.1l-0.4-19.1l18.2-5.9v-2l-17.8-5.8l-0.8-18.3l18.6-25.5V582.1z
					 M379.3,609.5l-10.7,14.6l-18.1-5.9l-11-15.4l11-15.2l28.7-9.2L379.3,609.5z M300,722.1l17.9,24.5l0,19.1l-17.9,5.8l-17.9-5.8
					l0-19.1L300,722.1z M282.1,743l0.1-28.4l10.2-3.3l6.3,9L282.1,743z M301.2,720.3l6.3-9l10.2,3.3l0.1,28.4L301.2,720.3z
					 M317.8,712.4l-11-3.6l-6.8,9.6l-6.8-9.6l-11,3.6l-0.1-11.6l-11.3-3.5l6.9-9.4l-0.1-0.2l0.1-0.2l-6.9-9.4l11.3-3.5l0.1-11.6
					l11,3.6l6.8-9.6l6.8,9.6l11-3.6l0.1,11.6l11.3,3.5l-6.9,9.4l0.1,0.2l-0.1,0.2l6.9,9.4l-11.3,3.5L317.8,712.4z M275.1,687.9
					l-6.4,8.7l-26.9-8.9l26.9-8.9l6.4,8.7l-0.1,0.2L275.1,687.9z M269.5,699.1l10.5,3.3l0.1,10.8l-27.2,8.9L269.5,699.1z
					 M252.9,653.5l27.2,8.9l-0.1,10.8l-10.5,3.3L252.9,653.5z M250.8,650.6l-11.2-15.2l11.1-15.4l18-5.9l11.3,15.4l0.1,30.6
					L250.8,650.6z M267.4,677.1l-28.9,9.6l-18.7-6V662l11.7-15.4l18,5.9L267.4,677.1z M267.4,698.4l-17.9,24.7l-18,5.9l-11.7-15.4
					v-18.7l18.7-6L267.4,698.4z M250.8,724.8l29.3-9.5l-0.1,30.6l-11.3,15.4l-18-5.9L239.6,740L250.8,724.8z M300,653.3l-17.9-24.5
					l0-19.1L300,604l17.9,5.8l0,19.1L300,653.3z M317.9,632.4l-0.1,28.4l-10.2,3.3l-6.3-9L317.9,632.4z M298.8,655.2l-6.3,9
					l-10.2-3.3l-0.1-28.4L298.8,655.2z M324.9,687.9l0.1-0.2l-0.1-0.2l6.4-8.7l26.9,8.9l-26.9,8.9L324.9,687.9z M347.1,722
					l-27.2-8.9l0.1-10.8l10.5-3.3L347.1,722z M330.5,676.4l-10.5-3.3l-0.1-10.8l27.2-8.9L330.5,676.4z M349.2,724.8l11.2,15.2
					l-11.1,15.4l-18,5.9L320,745.9l-0.1-30.6L349.2,724.8z M332.6,698.4l28.9-9.6l18.7,6v18.7l-11.7,15.4l-18-5.9L332.6,698.4z
					 M332.6,677.1l17.9-24.7l18-5.9l11.7,15.4v18.7l-18.7,6L332.6,677.1z M349.2,650.6l-29.3,9.5l0.1-30.6l11.3-15.4l18,5.9
					l11.1,15.4L349.2,650.6z M369.9,561.4l9.3,2.9l0,12l-26.6,8.6L369.9,561.4z M320,556.9l18.1-5.3l29.7,9.2l-18.5,25.2l-18,5.8
					L320,576.2L320,556.9z M320,597.5l0-17.8l10.5,14.4l16.7-5.4l-0.6,0.9l0,0l-9.2,12.6l-0.4,0.6l10.3,14.3l-16.8-5.4L320,626
					l0-17.7l-16.7-5.4L320,597.5z M282.1,576.9l17.9-24.6l17.9,24.6l0,19.1l-17.9,5.8l-17.9-5.8L282.1,576.9z M296.7,602.9
					l-16.7,5.4l0,17.7l-10.5-14.3l-16.8,5.4l10.3-14.3l-9.6-13.3l0,0l-0.6-0.8l16.7,5.4l10.5-14.4l0,17.8L296.7,602.9z M261.8,551.6
					l18.1,5.3l0,19.4l-11.3,15.5l-18-5.8l-18.5-25.2L261.8,551.6z M220.7,564.3l9.3-2.9l17.3,23.4l-26.6-8.6L220.7,564.3z
					 M220.7,578.4l28.7,9.2l11,15.2l-11,15.4l-18.1,5.9l-10.7-14.6L220.7,578.4z M218.6,606.7l-17-23.2l0,0l0,0l6.3-9.1l10.7,3.4
					L218.6,606.7z M203.7,635.3L203.7,635.3L203.7,635.3l15.4-5l0.7-0.2l0.8-17.1l9.5,13l0.4,0.6l16.8-5.5L237,635.4l10.4,14.1
					l-16-5.2l-0.7-0.2l-10.8,14.3l0.3-17l0-0.8L203.7,635.3z M217.8,693.3v17.3l-16.2-22.9l16.2-22.9v17.3l17.3,5.5L217.8,693.3z
					 M207.9,801.1l-6.3-9.1l17-23.3l0,28.9L207.9,801.1z M219.9,746.1l0-0.7l-16.1-5.2l0,0l-0.1,0l16.6-5.4l-0.4-17.7l10.4,13.7
					l0.4,0.6l16.7-5.4L237,740l10.3,14.4l-16.1-5.2l-0.7-0.2l-10,13.6L219.9,746.1z M220.7,765.9l10.7-14.6l18.1,5.9l11,15.4
					l-11,15.2l-28.7,9.2L220.7,765.9z M230.1,814l-9.3-2.9l0-12l26.6-8.6L230.1,814z M280,818.6l-18.1,5.3l-29.7-9.2l18.5-25.2
					l18-5.8l11.3,15.5L280,818.6z M280,777.9l0,17.8l-10.5-14.4l-16.7,5.4l0.6-0.9l0,0l9.6-13.3l-10.3-14.3l16,5.2l0.7,0.2
					l10.5-14.3l0,17.7l16.7,5.4L280,777.9z M317.9,798.5L300,823.1l-17.9-24.6l0-19.1l17.9-5.8l17.9,5.8L317.9,798.5z M303.3,772.5
					l16.7-5.4l0-17.7l10.1,13.7l0.4,0.6l16.8-5.4L337,772.6l9.6,13.2l0,0l0.6,0.9l-16-5.1l-0.7-0.2L320,795.7l0-17.8L303.3,772.5z
					 M338.2,823.9l-18.1-5.3l0-19.4l11.3-15.5l18,5.8l18.5,25.2L338.2,823.9z M379.3,811.2l-9.3,2.9l-17.3-23.4l26.6,8.6
					L379.3,811.2z M379.3,797l-28.7-9.2l-11-15.2l11-15.4l18.1-5.9l10.7,14.6L379.3,797z M381.4,768.7l17,23.2l0,0l0,0l-6.3,9.1
					l-10.7-3.4L381.4,768.7z M396.3,740.2L396.3,740.2L396.3,740.2l-15.5,5l-0.7,0.2l-0.8,17.1l-10-13.6l-16.8,5.5L363,740
					l-10.4-14.1l16.7,5.4l10.8-14.3l-0.4,17.7L396.3,740.2z M382.2,682.2v-17.3l16.2,22.9l-16.2,22.9v-17.3l-17.3-5.5L382.2,682.2z
					 M396.3,635.2L396.3,635.2L396.3,635.2l-16.6,5.4l0.4,17.7l-10.4-13.7l-0.4-0.6l-16.7,5.4l10.4-14.1l-10.3-14.4l16.1,5.2
					l0.7,0.2l10-13.6l0.7,16.4l0,0.7L396.3,635.2z M381.4,606.7l0-28.9l10.7-3.4l6.3,9.1L381.4,606.7z"/>
			</g>
		</g>
		<g>
			<g>
				<path class="st0" d="M600,582.1l-7.1-10.2l-11.5,3.7l0-12.8l-10.1-3.1l7-9.4h-2.6l-6.5,8.8l-28.4-8.8h-5.2l-17.5,5.1l0,18.1
					L501,550.2h-2l-16.9,23.2l0-17.3l0-0.8l-17.5-5.1h-5.2l-28.4,8.8l-6.5-8.8h-2.6l7,9.4l-9.4,2.9l-0.7,0.2l0,12.8l-11.5-3.7
					l-7.1,10.2v2.6l18.6,25.5l-0.8,18.3l-17.8,5.8v2l18.2,5.9l-0.4,19.1L400,686.4v2.6l17.8,25.1l0.4,19.1l-18.2,5.9v2l17.8,5.8
					l0.8,18.3L400,790.7v2.6l7.1,10.2l11.5-3.7l0,12.8l10.1,3.1l-7,9.4h2.6l6.5-8.8l28.4,8.8h5.2l16.8-4.9l0.7-0.2l0-18.1l16.9,23.2
					h2l16.9-23.2l0,17.3v0.8l17.5,5.1h5.2l28.4-8.8l6.5,8.8h2.6l-7-9.4l9.4-2.9l0.7-0.2l0-12.8l11.5,3.7l7.1-10.2v-2.6l-18.6-25.5
					l0.8-18.3l17.8-5.8v-2l-18.2-5.9l0.4-19.1L600,689v-2.6l-17.8-25.1l-0.4-19.1l18.2-5.9v-2l-17.8-5.8l-0.8-18.3l18.6-25.5V582.1z
					 M579.3,609.5l-10.7,14.6l-18.1-5.9l-11-15.4l11-15.2l28.7-9.2L579.3,609.5z M500,722.1l17.9,24.5l0,19.1l-17.9,5.8l-17.9-5.8
					l0-19.1L500,722.1z M482.1,743l0.1-28.4l10.2-3.3l6.3,9L482.1,743z M501.2,720.3l6.3-9l10.2,3.3l0.1,28.4L501.2,720.3z
					 M517.8,712.4l-11-3.6l-6.8,9.6l-6.8-9.6l-11,3.6l-0.1-11.6l-11.3-3.5l6.9-9.4l-0.1-0.2l0.1-0.2l-6.9-9.4l11.3-3.5l0.1-11.6
					l11,3.6l6.8-9.6l6.8,9.6l11-3.6l0.1,11.6l11.3,3.5l-6.9,9.4l0.1,0.2l-0.1,0.2l6.9,9.4l-11.3,3.5L517.8,712.4z M475.1,687.9
					l-6.4,8.7l-26.9-8.9l26.9-8.9l6.4,8.7l-0.1,0.2L475.1,687.9z M469.5,699.1l10.5,3.3l0.1,10.8l-27.2,8.9L469.5,699.1z
					 M452.9,653.5l27.2,8.9l-0.1,10.8l-10.5,3.3L452.9,653.5z M450.8,650.6l-11.2-15.2l11.1-15.4l18-5.9l11.3,15.4l0.1,30.6
					L450.8,650.6z M467.4,677.1l-28.9,9.6l-18.7-6V662l11.7-15.4l18,5.9L467.4,677.1z M467.4,698.4l-17.9,24.7l-18,5.9l-11.7-15.4
					v-18.7l18.7-6L467.4,698.4z M450.8,724.8l29.3-9.5l-0.1,30.6l-11.3,15.4l-18-5.9L439.6,740L450.8,724.8z M500,653.3l-17.9-24.5
					l0-19.1L500,604l17.9,5.8l0,19.1L500,653.3z M517.9,632.4l-0.1,28.4l-10.2,3.3l-6.3-9L517.9,632.4z M498.8,655.2l-6.3,9
					l-10.2-3.3l-0.1-28.4L498.8,655.2z M524.9,687.9l0.1-0.2l-0.1-0.2l6.4-8.7l26.9,8.9l-26.9,8.9L524.9,687.9z M547.1,722
					l-27.2-8.9l0.1-10.8l10.5-3.3L547.1,722z M530.5,676.4l-10.5-3.3l-0.1-10.8l27.2-8.9L530.5,676.4z M549.2,724.8l11.2,15.2
					l-11.1,15.4l-18,5.9L520,745.9l-0.1-30.6L549.2,724.8z M532.6,698.4l28.9-9.6l18.7,6v18.7l-11.7,15.4l-18-5.9L532.6,698.4z
					 M532.6,677.1l17.9-24.7l18-5.9l11.7,15.4v18.7l-18.7,6L532.6,677.1z M549.2,650.6l-29.3,9.5l0.1-30.6l11.3-15.4l18,5.9
					l11.1,15.4L549.2,650.6z M569.9,561.4l9.3,2.9l0,12l-26.6,8.6L569.9,561.4z M520,556.9l18.1-5.3l29.7,9.2l-18.5,25.2l-18,5.8
					L520,576.2L520,556.9z M520,597.5l0-17.8l10.5,14.4l16.7-5.4l-0.6,0.9l0,0l-9.2,12.6l-0.4,0.6l10.3,14.3l-16.8-5.4L520,626
					l0-17.7l-16.7-5.4L520,597.5z M482.1,576.9l17.9-24.6l17.9,24.6l0,19.1l-17.9,5.8l-17.9-5.8L482.1,576.9z M496.7,602.9
					l-16.7,5.4l0,17.7l-10.5-14.3l-16.8,5.4l10.3-14.3l-9.6-13.3l0,0l-0.6-0.8l16.7,5.4l10.5-14.4l0,17.8L496.7,602.9z M461.8,551.6
					l18.1,5.3l0,19.4l-11.3,15.5l-18-5.8l-18.5-25.2L461.8,551.6z M420.7,564.3l9.3-2.9l17.3,23.4l-26.6-8.6L420.7,564.3z
					 M420.7,578.4l28.7,9.2l11,15.2l-11,15.4l-18.1,5.9l-10.7-14.6L420.7,578.4z M418.6,606.7l-17-23.2l0,0l0,0l6.3-9.1l10.7,3.4
					L418.6,606.7z M403.7,635.3L403.7,635.3L403.7,635.3l15.4-5l0.7-0.2l0.8-17.1l9.5,13l0.4,0.6l16.8-5.5L437,635.4l10.4,14.1
					l-16-5.2l-0.7-0.2l-10.8,14.3l0.3-17l0-0.8L403.7,635.3z M417.8,693.3v17.3l-16.2-22.9l16.2-22.9v17.3l17.3,5.5L417.8,693.3z
					 M407.9,801.1l-6.3-9.1l17-23.3l0,28.9L407.9,801.1z M419.9,746.1l0-0.7l-16.1-5.2l0,0l-0.1,0l16.6-5.4l-0.4-17.7l10.4,13.7
					l0.4,0.6l16.7-5.4L437,740l10.3,14.4l-16.1-5.2l-0.7-0.2l-10,13.6L419.9,746.1z M420.7,765.9l10.7-14.6l18.1,5.9l11,15.4
					l-11,15.2l-28.7,9.2L420.7,765.9z M430.1,814l-9.3-2.9l0-12l26.6-8.6L430.1,814z M480,818.6l-18.1,5.3l-29.7-9.2l18.5-25.2
					l18-5.8l11.3,15.5L480,818.6z M480,777.9l0,17.8l-10.5-14.4l-16.7,5.4l0.6-0.9l0,0l9.6-13.3l-10.3-14.3l16,5.2l0.7,0.2
					l10.5-14.3l0,17.7l16.7,5.4L480,777.9z M517.9,798.5L500,823.1l-17.9-24.6l0-19.1l17.9-5.8l17.9,5.8L517.9,798.5z M503.3,772.5
					l16.7-5.4l0-17.7l10.1,13.7l0.4,0.6l16.8-5.4L537,772.6l9.6,13.2l0,0l0.6,0.9l-16-5.1l-0.7-0.2L520,795.7l0-17.8L503.3,772.5z
					 M538.2,823.9l-18.1-5.3l0-19.4l11.3-15.5l18,5.8l18.5,25.2L538.2,823.9z M579.3,811.2l-9.3,2.9l-17.3-23.4l26.6,8.6
					L579.3,811.2z M579.3,797l-28.7-9.2l-11-15.2l11-15.4l18.1-5.9l10.7,14.6L579.3,797z M581.4,768.7l17,23.2l0,0l0,0l-6.3,9.1
					l-10.7-3.4L581.4,768.7z M596.3,740.2L596.3,740.2L596.3,740.2l-15.5,5l-0.7,0.2l-0.8,17.1l-10-13.6l-16.8,5.5L563,740
					l-10.4-14.1l16.7,5.4l10.8-14.3l-0.4,17.7L596.3,740.2z M582.2,682.2v-17.3l16.2,22.9l-16.2,22.9v-17.3l-17.3-5.5L582.2,682.2z
					 M596.3,635.2L596.3,635.2L596.3,635.2l-16.6,5.4l0.4,17.7l-10.4-13.7l-0.4-0.6l-16.7,5.4l10.4-14.1l-10.3-14.4l16.1,5.2
					l0.7,0.2l10-13.6l0.7,16.4l0,0.7L596.3,635.2z M581.4,606.7l0-28.9l10.7-3.4l6.3,9.1L581.4,606.7z"/>
			</g>
		</g>
	</g>
</g>
</svg>
