<?xml version="1.0" encoding="utf-8"?>
<!-- Generator: Adobe Illustrator 23.1.0, SVG Export Plug-In . SVG Version: 6.00 Build 0)  -->
<svg version="1.1" id="Logo" xmlns="http://www.w3.org/2000/svg" xmlns:xlink="http://www.w3.org/1999/xlink" x="0px" y="0px"
	 viewBox="0 0 5527.9 4154.1" style="enable-background:new 0 0 5527.9 4154.1;" xml:space="preserve">
<style type="text/css">
	.st0{fill:#636569;}
	.st1{fill:#A2D45E;}
	.st2{fill:#4A8B2C;}
</style>
<g>
	<g>
		<path class="st0" d="M0,4057.7l68-317.8h111.1l67.6,317.8h-83.1l-8.4-48H91.6l-8.4,48H0z M103.6,3942.1h39.1l-7.1-40.9
			c-1.8-9.2-3.3-20.6-4.7-34.2c-1.3-13.6-2.3-25-2.9-34.2l-0.9-13.3h-7.6c-2.4,33.8-5.3,61-8.9,81.8L103.6,3942.1z"/>
		<path class="st0" d="M339.1,4063.5c-25.2,0-43.3-6.5-54.2-19.6c-11-13-16.4-33.3-16.4-60.9v-262.2h81.8v253.3
			c0,14.5,6.4,21.8,19.1,21.8l13.8-1.3l8,7.6v51.1C375.7,4060.1,358.4,4063.5,339.1,4063.5z"/>
		<path class="st0" d="M486.7,4057.7v-317.8h105.8l21.8,76.9c2.4,8.6,4.8,18.3,7.3,29.1s4.4,19.5,5.6,26l2.2,10.2h3.1
			c4.4-24.3,9.5-46.1,15.1-65.3l22.2-76.9h105.8v317.8h-81.8v-105.8l1.8-73.3l-4.4-0.4c-5.3,26.7-9.8,46.4-13.3,59.1L646.3,4048
			h-30.7L584,3937.3l-12.9-59.1l-4.4,0.4l1.8,73.3v105.8H486.7z"/>
		<path class="st0" d="M875.1,4063.5c-19.9,0-35.8-6.7-47.8-20s-18-30.1-18-50.2v-12.4c0-43.3,20.7-67.4,62.2-72.4l57.8-7.1v-2.2
			c0-10.7-3.4-18.4-10.2-23.1c-6.8-4.7-19.9-7.1-39.1-7.1c-6.5,0-13.7,0.4-21.6,1.1c-7.9,0.7-14.2,1.4-18.9,2l-6.7,0.9l-7.6-4.9
			c0-3,1.5-12.6,4.4-28.9c3-16.3,5.3-27.4,7.1-33.3l7.1-0.9c5-0.6,12.3-1.3,21.8-2s18.7-1.1,27.6-1.1c42.4,0,72.7,7.7,90.9,23.1
			c18.2,15.4,27.3,39.7,27.3,72.9v79.6c0,5.3,1,9.3,2.9,12s5.4,4.4,10.4,5.3l10.2,1.3l3.1,8l-9.3,42.7c-1.2,1.2-2.8,2.7-4.9,4.7
			c-2.1,1.9-6.8,4.4-14.2,7.6c-7.4,3.1-15.4,4.7-24,4.7c-23.1,0-39.6-9.5-49.3-28.4h-3.1C917.9,4054,898.5,4063.5,875.1,4063.5z
			 M910.2,4000.8c7.4,0,13.8-2.7,19.1-8v-52l-19.6,7.6c-12.4,4.7-18.7,12.6-18.7,23.6v8.9c0,5.9,1.7,10.7,5.1,14.4
			C899.6,3999,904.3,4000.8,910.2,4000.8z"/>
		<path class="st0" d="M1060,4057.7v-336.9h81.8v104.9h0.9c18.7-16,39.6-24,62.7-24c20.1,0,36.2,6.4,48.2,19.3
			c12,12.9,18,29.9,18,50.9v185.8h-81.8v-172c0-11.3-6.4-16.9-19.1-16.9c-8.9,0-18.5,2.8-28.9,8.4v180.4H1060V4057.7z"/>
		<path class="st0" d="M1364,4063.5c-19.9,0-35.8-6.7-47.8-20s-18-30.1-18-50.2v-12.4c0-43.3,20.7-67.4,62.2-72.4l57.8-7.1v-2.2
			c0-10.7-3.4-18.4-10.2-23.1c-6.8-4.7-19.9-7.1-39.1-7.1c-6.5,0-13.7,0.4-21.6,1.1c-7.9,0.7-14.2,1.4-18.9,2l-6.7,0.9l-7.6-4.9
			c0-3,1.5-12.6,4.4-28.9c3-16.3,5.3-27.4,7.1-33.3l7.1-0.9c5-0.6,12.3-1.3,21.8-2s18.7-1.1,27.6-1.1c42.4,0,72.7,7.7,90.9,23.1
			c18.2,15.4,27.3,39.7,27.3,72.9v79.6c0,5.3,1,9.3,2.9,12s5.4,4.4,10.4,5.3l10.2,1.3l3.1,8l-9.3,42.7c-1.2,1.2-2.8,2.7-4.9,4.7
			c-2.1,1.9-6.8,4.4-14.2,7.6c-7.4,3.1-15.4,4.7-24,4.7c-23.1,0-39.6-9.5-49.3-28.4h-3.1C1406.8,4054,1387.4,4063.5,1364,4063.5z
			 M1399.1,4000.8c7.4,0,13.8-2.7,19.1-8v-52l-19.6,7.6c-12.4,4.7-18.7,12.6-18.7,23.6v8.9c0,5.9,1.7,10.7,5.1,14.4
			C1388.5,3999,1393.2,4000.8,1399.1,4000.8z"/>
		<path class="st0" d="M1715.5,4063.5c-15.4,0-28.9-2.4-40.4-7.3s-21.9-13-30.9-24.2c-9-11.3-15.9-27-20.4-47.3
			c-4.6-20.3-6.9-44.8-6.9-73.6v-16.9c0-41.2,5.1-73.6,15.3-97.3c10.2-23.7,24.7-40.1,43.3-49.1c18.7-9,43.3-13.6,73.8-13.6
			c9.2,0,19.5,0.7,30.9,2.2s20.5,3,27.3,4.4l9.8,2.2l-6.7,61.3l-5.8,3.1c-21-3.8-36.7-5.8-47.1-5.8c-22.2,0-37.2,6.4-44.9,19.3
			c-7.7,12.9-11.6,38.3-11.6,76.2v15.1c0,24.3,1,42.4,3.1,54.4s5.1,19.9,9.1,23.6c4,3.7,10.1,5.6,18.4,5.6c1.8,0,5.9-0.6,12.4-1.8
			v-109.8h81.8v173.3h-43.1l-10.7-17.8c-9.8,8-18.7,13.9-26.9,17.8C1737.4,4061.5,1727.4,4063.5,1715.5,4063.5z"/>
		<path class="st0" d="M1857.3,4057.7v-250.2h48l22.2,27.6c14.5-22.2,34.2-33.3,59.1-33.3l12,0.9l-5.8,73.3l-9.3,4.4
			c-5.6-1.2-11.6-1.8-17.8-1.8c-9.8,0-18.7,2.5-26.7,7.6v171.6h-81.7V4057.7z"/>
		<path class="st0" d="M2115.5,4063.5c-30.2,0-54.4-10.7-72.4-32.2c-18.1-21.5-27.1-51-27.1-88.7v-20c0-37.9,9-67.6,27.1-88.9
			c18.1-21.3,42.2-32,72.4-32h7.6c30.2,0,54.4,10.7,72.4,32c18.1,21.3,27.1,51,27.1,88.9v20c0,37.6-9,67.2-27.1,88.7
			s-42.2,32.2-72.4,32.2H2115.5z M2119.5,4000.8c14.2,0,21.3-9.9,21.3-29.8v-77.3c0-19.6-7.1-29.3-21.3-29.3
			c-14.5,0-21.8,9.8-21.8,29.3v77.3C2097.8,3990.9,2105,4000.8,2119.5,4000.8z"/>
		<path class="st0" d="M2321.7,4063.5c-22.2,0-39.9-7-52.9-21.1s-19.6-35.3-19.6-63.8v-171.1h81.8v165.3c0,15.4,8,23.1,24,23.1
			c8.6,0,16.6-2.4,24-7.1v-181.3h81.8v169.8c0,10.1,4.6,15.9,13.8,17.3l9.8,1.3l3.6,8l-9.8,42.7c-0.9,1.2-2.4,2.7-4.4,4.7
			c-2.1,1.9-6.8,4.4-14.2,7.6c-7.4,3.1-15.4,4.7-24,4.7c-22.8,0-39.4-9.5-49.8-28.4h-2.7C2366.5,4054,2346,4063.5,2321.7,4063.5z"/>
		<path class="st0" d="M2509.7,4154.1v-346.7h48l21.3,25.8c18.4-21,40.3-31.6,65.8-31.6c26.7,0,46.9,9.9,60.7,29.8
			c13.8,19.9,20.7,52,20.7,96.4v14.2c0,41.2-7,71.7-21.1,91.6c-14.1,19.9-33.4,29.8-58,29.8c-21,0-39.3-6.1-54.7-18.2h-0.9v108.9
			H2509.7z M2613.3,4000.8c10.1,0,17.8-4.8,23.1-14.4c5.3-9.6,8-27,8-52.2v-5.3c0-22.8-2.1-38.5-6.2-47.1
			c-4.2-8.6-11.7-12.9-22.7-12.9c-6.2,0-14.2,1.3-24,4v125.3C2598.6,3999.9,2605.9,4000.8,2613.3,4000.8z"/>
		<path class="st0" d="M2967.5,4057.7c-56.6,0-84.9-27.1-84.9-81.3V3743l74.7-26.7v253.8c0,5.3,1,8.8,3.1,10.4
			c2.1,1.6,5.8,2.4,11.1,2.4h27.6v74.7h-31.6V4057.7z"/>
		<path class="st0" d="M2992.4,4057.7V3983h60.9c-8.3-16-12.4-33-12.4-51.1c0-15.7,3-29.7,8.9-42s13.6-21.8,22.9-28.7
			c9.3-6.8,19-12,28.9-15.6s19.8-5.3,29.6-5.3v-59.6c17.2,1.8,34.6,4.8,52.2,9.1c17.6,4.3,36,10.8,55.1,19.6
			c19.1,8.7,36,19,50.7,30.7s26.7,26.6,36.2,44.7c9.5,18.1,14.2,37.9,14.2,59.6c0,13.3-1.5,26.2-4.4,38.7h46.2v74.7h-42.2
			c-19,0-35-4.4-48-13.3c-13.6,7.7-29.7,12.7-48.2,14.9s-36.1,2.1-52.7-0.4c-16.6-2.5-29.9-5-40-7.3c-10.1-2.4-17.6-4.4-22.7-6.2
			c-31.1,8.3-72.7,12.4-124.9,12.4h-10.3V4057.7z M3132.4,3971.5c6.5-2.7,12.1-8.4,16.9-17.1c4.7-8.7,5.9-17.1,3.6-25.1
			c-2.4-8-9-12-20-12s-17.7,4-20.2,12s-1.5,16.4,3.1,25.1C3120.3,3963.1,3125.9,3968.8,3132.4,3971.5z M3212.9,3983
			c16.3,2.7,29,0.5,38.2-6.4c9.2-7,13.8-17.8,13.8-32.7c0-13.3-5.2-26.6-15.6-39.8c-10.4-13.2-25.8-23.6-46.2-31.3
			c13.3,16,20,35.7,20,59.1C3223.1,3950.6,3219.7,3967.6,3212.9,3983z"/>
		<path class="st0" d="M3374.6,4057.7V3983h35.6c-3-8.6-4.4-18.4-4.4-29.3c0-19.6,3.9-38.3,11.8-56.2c7.8-17.9,19.6-32.8,35.3-44.7
			c25.5-19.6,60.9-29.3,106.2-29.3c16.3,0,36.9,1.8,61.8,5.3V3983h41.3v74.7H3374.6z M3521.3,3983h24.9v-84
			c-18.7-0.6-33.9,3.6-45.6,12.4c-11.7,8.9-17.6,21-17.6,36.4c0,13,3.3,22.2,10,27.3C3499.7,3980.4,3509.1,3983,3521.3,3983z"/>
		<path class="st0" d="M3655.5,4057.7V3983h27.6c5.3,0,9-0.8,11.1-2.4c2.1-1.6,3.1-5.1,3.1-10.4V3743l74.7-26.7v260
			c0,54.2-28.4,81.3-85.3,81.3L3655.5,4057.7L3655.5,4057.7z"/>
		<path class="st0" d="M3798.6,4066.6V3743l75.1-26.7v323.1L3798.6,4066.6z"/>
		<path class="st0" d="M4086.2,4057.7c-36.4-0.6-64.7-9.8-84.7-27.8c-20-17.9-30-43.3-30-76.2c0-19.6,4.1-38.3,12.2-56.2
			c8.1-17.9,20.2-32.8,36.2-44.7c36.7-27.6,91-35.7,162.7-24.4V3983h47.1v74.7h-121.8v-27.6L4086.2,4057.7z M4066.6,3811l-47.6-42.7
			l47.6-43.6l31.1,28.4l31.1-28.4l47.6,43.6l-47.6,42.7l-31.1-28L4066.6,3811z M4090.2,3983h17.8v-84c-18.7,1.2-33.2,6.2-43.6,14.9
			c-10.4,8.7-15.6,20.1-15.6,34c0,13,3.6,22.2,10.7,27.3C4066.6,3980.4,4076.8,3983,4090.2,3983z"/>
		<path class="st0" d="M4223.1,4057.7V3983h47.6c-4.7-18.7-6.2-36.7-4.2-54.2c1.9-17.5,6.1-33.2,12.7-47.1
			c6.5-13.9,16.9-25.6,31.1-35.1s31.4-15.6,51.6-18.2c27-3.6,56.3,1.3,88,14.7v71.6c-16.6-6.5-31.3-10.7-44.2-12.4
			c-12.9-1.8-23-1.7-30.2,0.2c-7.3,1.9-13.3,5.1-18,9.6c-4.7,4.4-7.9,8.7-9.6,12.7c-1.6,4-2.7,8.1-3.3,12.2
			c-1.5,10.7,1.3,21,8.2,31.1c7,10.1,19.3,15.1,37.1,15.1h78.2v74.7h-245V4057.7z"/>
		<path class="st0" d="M4611.5,4162.1l-75.1-43.6c13.9-6.2,24.9-11.3,32.9-15.3s17-10.1,26.9-18.2c9.9-8.2,17.7-17.1,23.3-26.9
			h-10.7c-37.6,0-66.8-9-87.6-26.9c-20.7-17.9-31.1-43.8-31.1-77.6c0-19.6,4.1-38.3,12.2-56.2s20.2-32.8,36.2-44.7
			c36.7-27.6,91.1-35.7,163.1-24.4V3983h41.3v74.7h-48c-5,22.5-14.1,42-27.1,58.4C4654.9,4132.6,4636.1,4147.9,4611.5,4162.1z
			 M4608.8,3983h18.2v-84c-18.7,1.5-33.3,6.5-43.8,15.1s-15.8,19.9-15.8,33.8c0,13,3.6,22.2,10.7,27.3
			C4585.3,3980.4,4595.5,3983,4608.8,3983z"/>
		<path class="st0" d="M4736.4,4057.7V3983h35.6c-3-8.6-4.4-18.4-4.4-29.3c0-19.6,3.9-38.3,11.8-56.2c7.8-17.9,19.6-32.8,35.3-44.7
			c25.5-19.6,60.9-29.3,106.2-29.3c16.3,0,36.9,1.8,61.8,5.3V3983h41.3v74.7H4736.4z M4883.1,3983h24.9v-84
			c-18.7-0.6-33.9,3.6-45.6,12.4c-11.7,8.9-17.6,21-17.6,36.4c0,13,3.3,22.2,10,27.3C4861.5,3980.4,4870.9,3983,4883.1,3983z"/>
		<path class="st0" d="M5017.3,4057.7V3983h154.2c-0.9-2.4-3-10.1-6.2-23.1c-0.6-1.8-0.9-3.1-0.9-4c-4.7-20.4-11.8-35.1-21.1-44
			s-23-13.2-41.1-12.9c-21.3,0.6-46.5,6.4-75.6,17.3l32.4-82.7c15.4-5,35.1-7.8,59.1-8.4c33.2,0.3,58.8,9.6,76.9,27.8
			s31.6,46.9,40.4,86c4.4,15.7,8.9,27,13.3,33.8s11.3,10.2,20.4,10.2h14.7v74.7L5017.3,4057.7L5017.3,4057.7z M5157.3,4163
			l-47.1-42.7l47.1-43.1l47.6,43.1L5157.3,4163z"/>
		<path class="st0" d="M5277.3,4057.7V3983h35.6c-3-9.8-4.4-19.6-4.4-29.3c0-19.6,4.1-38.2,12.2-56s20.2-32.7,36.2-44.9
			c26.1-19.6,62.2-29.3,108.4-29.3c16.3,0,37.2,1.8,62.7,5.3v228.9H5277.3z M5427.1,3983h26.2v-84c-20.2-0.6-36.4,3.6-48.9,12.4
			c-12.4,8.9-18.7,21-18.7,36.4c0,13,3.6,22.2,10.7,27.3C5403.5,3980.4,5413.7,3983,5427.1,3983z"/>
	</g>
</g>
<g>
	<path class="st1" d="M3528.9,2403.8c460.8-646.6,310.1-1544.3-336.5-2005.1C2764.1,93.5,2225.6,56.6,1776.9,254.4
		C2263.2-80.2,2926.4-94,3435,268.4C4085,731.6,4236.5,1634,3773.3,2284c-173.2,243-407.7,416.3-667.5,513.9
		C3267.4,2699.6,3412.2,2567.6,3528.9,2403.8z"/>
	<path class="st2" d="M3605.9,2993.7c-272.5,0-527.2-75.8-744.3-207.5c-352-213.4-605.1-573.7-674.3-995.8
		c-12.5-76.3-19-154.5-19-234.3c0-525.9,282.4-985.9,703.9-1236.5c-554.7,201.9-950.8,733.9-950.8,1358.4
		c0,798.2,647,1445.2,1445.2,1445.2c298.4,0,575.7-90.4,805.9-245.4C3998.6,2952.4,3807.1,2993.7,3605.9,2993.7z"/>
	<path class="st0" d="M3659.2,1537.5c-153.6-147.2-384.1-330.7-384.1-330.7l-0.4,0.2c-285.8-226.2-626-442.4-1005.6-630.7
		c-271.8-134.9-542.7-245-804.3-330.1c305.1,118.8,623.3,276.8,939.1,472c253.1,156.4,485.5,324.9,692.8,498.7
		c-267.5-153.7-568.3-294.9-893.4-414.7c-284.7-105-565.8-185.5-835-242.1c316.1,85.4,649.4,208.5,984.3,368.8
		c238.5,114.1,461.8,239.4,666.3,371.6l-6.3,2.3l-53.3,17.1c0,0-392.6-8.5-450.2,29.9c64,40.5,119.5,138.7,341.4,102.4
		c-110.7,167.1-362.4,319.9-663.2,338.3c31,189.3,99,366.1,196.3,522.8c246.8-98.9,461.8-264.7,620.1-477.3
		c-120.4,247.4-308.6,453.2-538.1,595.7c108.6,141.3,242.9,261.8,395.9,354.6c92.6-62.4,194.6-213.5,228.3-258.4
		c66.4-88.3,159.7-335.2,268.5-343.8c108.8-8.5,102.4,55.5,194.2,14.9c-46.9-38.4-229.4-138.7-263-236.9
		c-33.6-98.2-54.9-292.3-18.7-373.4c53.3,72.5,64,106.7,91.8,149.4c10.7-79-4.3-221.9,59.7-283.8c44.8,83.2,23.5,130.2,23.5,130.2
		s134.4,42.7,138.7,147.2c-49.1,4.3-72.6-10.4-72.6-10.4s86.1,307.2,136.6,375.2c56.9,76.7,196.3,283.8,260.3,260.3
		c105.9-38.8,98.2-77.2,132.8-117.7c16.7-19.6-90.1-63.6-66.6-87.1s79,66.1,119.5,27.7C4160.5,2117.2,3812.8,1684.8,3659.2,1537.5z"
		/>
</g>
</svg>
