<?xml version="1.0" encoding="utf-8"?>
<!-- Generator: Adobe Illustrator 23.1.0, SVG Export Plug-In . SVG Version: 6.00 Build 0)  -->
<svg version="1.1" id="NN_Logo" xmlns="http://www.w3.org/2000/svg" xmlns:xlink="http://www.w3.org/1999/xlink" x="0px" y="0px"
	 viewBox="0 0 797.9 448.3" style="enable-background:new 0 0 797.9 448.3;" xml:space="preserve">
<style type="text/css">
	.st0{fill:#020202;}
	.st1{fill:#555555;}
	.st2{fill:#FFFFFF;}
	.st3{fill:#ED1E24;}
	.st4{fill:#19B24B;}
	.st5{fill:#68BE55;}
	.st6{fill:#F15757;}
	.st7{fill:#1DB24C;}
	.st8{fill:#1CB24B;}
	.st9{opacity:0.8;}
</style>
<g>
	<g>
		<path class="st0" d="M115.6,442.9c128.9-17,106.8-85,106.6-217.7C73.1,228.2,159.6,422.5,115.6,442.9z"/>
		<path class="st1" d="M144,385.6c95-12.5,78.7-62.6,78.5-160.3C112.7,227.4,176.4,370.6,144,385.6z"/>
		<path class="st2" d="M151.6,415.9c35.1-53.7,55-112.6,54.3-178.6c14.8,57.4,4.5,113.4-19.7,168.6c6.6-25.6,11.3-50.2,13.4-73.7
			C190.5,367.6,175.2,396.8,151.6,415.9z"/>
	</g>
	<path class="st3" d="M776.4,113.5c-4.7-17-20.7-27.3-40.2-31.1c4.5-1.2,9.2-2.8,13.4-5.2c5.8-3.3,14.1-12.5,14.1-13.1
		c-3.1,0.1-7.5-3.5-10.1-7.5c-1.4-2.2-7.1-15.2-11.1-20.9c-2-2.9-12.1-19.4-26.6-21.9c-3.7-0.6-9.1-0.4-12.1,0.5
		c-14.6,1.9-24.9,19.2-24.9,38.2c0,6.7,1.4,13,3.9,18.5c1.5,3.3,3,5.7,5.2,8.2c1.4,1.6,3.2,3.2,5,4.6c-5.4,1.2-10.2,3-15.4,5.2
		c-8.7,3.8-14.2,8-15.9,10.2c-1.8-0.6-3.6-1-5.4-1.2c-12.2-1.1-21.6,7.8-21.2,18.6c0.1,3,0.8,5.8,2,8.3
		c-6.9,6.3-13.1,16.1-13.2,26.2c0,11.1,10,20.2,20.9,20.3c7.1,0.1,15.4-3.9,5.4-7.2c-8.1-2.6-19.6,2.2-21.5-9.7
		c-1.4-9.1,5.9-18.3,13.6-22.8c4.4,3.8,10.2,6,15.9,6c1.7,0,0.9,0,1.1,0.1c-4.6,4.6-6.5,11.3-4.1,17.6c4.4,12.1,12.7,12.7,21.6,13.3
		c-28.6-14.6-7.6-25.6,4.4-34.1c18.1-12.8,26.3,4.7,28.2,7.6c3.9,5.9,5,14,8.2,13.8s4.1-2.9,2.7-3.8c0,0-2.9-3.6-4.8-6.8
		c-4.7-7.8-16.6-29.3-38.4-20.1c-0.7,0.3-1.4,3.2-2.1,3.5c2.5-1.8,2.7-6.1,2.7-9.7c0-4.5-1.8-8.7-4.6-12.1c1.5-1.1,6-4.2,20.4-7.1
		c15.2-3.1,28.6-3.3,47.3,0.3c24.1,4.5,51.5,31.1,9.3,65.8c-15.8,13-46.2,34.3-81.4,25.6c-24.7-6.1-17.8,10.3,1.5,9.8
		C750.1,199.1,788.5,157.1,776.4,113.5z M675.5,118.2c0.2,4.9-1,9.5-4.1,12.7c-0.6,0.7-2.3,1.9-4.2,2.8c-1.7,0.7-3.7,1.1-6,1.2
		c-8.5,0.3-15.6-8.8-15.6-17.3s6.1-15.2,14.6-15.2C668.7,102.4,675.1,110.1,675.5,118.2z M707.6,84.9c-12.5,0.9-23.7-11.6-24.9-28
		s8-30.5,20.5-31.4s23.7,11.6,24.9,28S720.1,84,707.6,84.9z M692.6,171.5c2-2.9,11.4-17.4,9-21.3c-1.6-2.6-7.4,0.5-7.8,6.2
		c-0.6,8.9-12.3,36.6-52.3,19.4c-5.1-2.2-21.5-14.1-40.9-18.1c10.4-4.2,17.9-15.7,17.9-29.2c0-17.1-12-31-26.7-31
		c-14.8,0-28.4,9.5-28.4,26.6c0,13.2,8.1,27.1,18.7,32.7c-1.9,0.3-3.9,0.6-5.8,1.1c-17.9,4.8-17.7,17.4-18.4,22.5
		c1.4-1.6,8.4-5.9,10.5-6.6c16.7-5.4,34.2-4.6,55.8,5C647.6,189.3,675.6,196.4,692.6,171.5z M588,128.1c0-12.9,6.4-23.3,14.2-23.3
		s14.2,10.4,14.2,23.3s-6.4,23.3-14.2,23.3S588,141,588,128.1z"/>
	<path class="st4" d="M655,51.7C474,5.5,444.8,120.7,316.3,186C435.3,151.4,465,32,655,51.7z"/>
	<g>
		<path class="st4" d="M332.8,0C203.8,16.3,225.6,84.4,225,217.1C374.2,215,288.8,20.2,332.8,0z"/>
		<path class="st5" d="M304.2,57.2c-95,12-79,62.2-79.4,159.9C334.7,215.5,271.7,72,304.2,57.2z"/>
		<path class="st2" d="M296.7,26.9c-35.3,53.5-55.6,112.3-55.2,178.4C227,147.8,237.6,91.9,262,36.8c-6.8,25.5-11.5,50.1-13.8,73.6
			C257.6,75,273,45.8,296.7,26.9z"/>
	</g>
	<g>
		<path class="st3" d="M0,107.1C15.4,236.2,83.6,215,216.3,216.5C215.3,67.3,19.8,151.3,0,107.1z"/>
		<path class="st6" d="M57,136.2c11.3,95.1,61.6,79.5,159.3,80.6C215.6,106.9,71.6,168.8,57,136.2z"/>
		<path class="st2" d="M26.6,143.4c53.2,35.7,111.9,56.5,177.9,56.6c-57.6,14-113.4,3.1-168.3-21.8c25.5,7,50.1,11.9,73.5,14.4
			C74.4,182.9,45.4,167.3,26.6,143.4z"/>
	</g>
	<path class="st0" d="M240.1,375.1c212.3,160.7,336.9,7.8,513.9,0C602.2,349.7,485.7,508.2,240.1,375.1z"/>
	<g>
		<path class="st7" d="M796.2,264.8c-2.1,0-4.2,0-6.3,0c-0.8,0-1-0.3-1-1c0-15,0-30,0-45c0-0.5-0.1-1,0.6-1.2c2.3-0.6,4.4-1.5,6.7-2
			C796.2,232,796.2,248.4,796.2,264.8z"/>
		<path class="st7" d="M683.6,215.3c0.1,0.4,0.5,0.2,0.8,0.3c2.1,0.6,3.3,2.5,3,4.5c-0.3,1.9-2.3,3.5-4.3,3.4
			c-2.1-0.1-3.8-1.6-4-3.5c-0.2-2.2,1-4,3.2-4.5c0.2-0.1,0.6,0.1,0.7-0.3C683.2,215.3,683.4,215.3,683.6,215.3z"/>
		<path class="st7" d="M604.3,215.3c1.6,0.6,3.1,1.3,3.6,3.2c0.5,2.1-0.6,4.2-2.7,4.9c-2,0.6-4-0.4-4.8-2.4s0.2-4.3,2.2-5.2
			c0.4-0.2,0.9,0,1.2-0.5C603.9,215.3,604.1,215.3,604.3,215.3z"/>
		<path class="st8" d="M445,247.5c-1.4-8.4-6.5-14.6-14.1-16.3c-6.1-1.3-12.1-0.5-17.6,2.7c-3.6,2.1-6.2,5.1-8.7,8.8v-4.3
			c0-6.8,0-13.5,0-20.3c0-1.2-0.3-1.4-1.4-1c-1.5,0.5-3,1-4.5,1.4c-1.2,0.3-1.6,0.8-1.6,2.1c0.1,12.1,0,24.2,0.1,36.3
			c0,1-0.2,1.4-1.4,1.4c-3.4-0.1-6.9,0.1-10.3,0c-4.9,0-7.3-2.5-7.3-7.4c0-6.5,0-13,0-19.5c0-1.1-0.2-1.4-1.3-1
			c-1.6,0.5-3.1,1.1-4.7,1.4c-1.1,0.2-1.3,0.8-1.3,1.8c0,5.9,0.1,11.8-0.1,17.7c-0.2,4.7-2.6,6.9-7.3,6.9c-4.6,0-9.1,0-13.7,0
			c-4.9,0-7.3-2.5-7.3-7.4c0-6.5,0-13.1,0-19.6c0-1-0.2-1.2-1.1-0.9c-1.6,0.5-3.2,1.1-4.9,1.5c-1.1,0.2-1.3,0.8-1.3,1.8
			c0,6.1,0,12.1-0.1,18.2c-0.1,3.7-2.5,6.2-6.2,6.3c-5.5,0.2-11,0.1-16.6,0c-3.4-0.1-5.6-2.4-6-5.8c-0.1-0.7-0.1-1.5-0.1-2.2
			c0-5.7,0-11.3,0-17c0-3.1,0-3.2-3.2-3.1c-5.1,0.1-10.1-0.3-15.2,0.2c-5.2,0.6-8.9,3.3-10.5,8.3c-1.9,5.6-1.7,11.3-0.1,17
			c0.9,3.1,2.6,5.6,5.5,7.2c3.8,2.1,7.8,2.2,11.9,1.5c3.1-0.5,5.6-1.9,7.2-4.8c1.3,2.4,3.2,3.7,5.6,4.4c1.5,0.4,3,0.7,4.6,0.7
			c5.6,0,11.2,0,16.8,0c3.5,0,6.6-1,9.3-3.3c0.5-0.5,0.8-0.5,1.3,0c2.7,2.4,5.9,3.4,9.4,3.4c5.1,0,10.2,0,15.3,0
			c3.6,0,6.9-1,9.7-3.4c0.5-0.5,0.8-0.4,1.2,0c2.7,2.4,6,3.4,9.6,3.4c19.1,0,38.1,0,57.2,0c3,0,3,0,3.1-3
			C445.4,257,445.8,252.3,445,247.5z M299.2,243.4c0,2.9,0.2,5.9-0.4,8.8c-0.9,4.5-3.1,6.3-7.5,6.3c-4.2,0-6.4-1.9-7.2-6.3
			c-0.6-3.5-0.6-7,0.2-10.5c0.8-3.4,2.9-5.2,6.4-5.3c2.5-0.1,5.1,0,7.6-0.1c0.7,0,0.9,0.2,0.9,0.9
			C299.1,239.3,299.2,241.3,299.2,243.4z M438.4,257.5c0,0.9-0.5,0.9-1.2,0.9c-5.3,0-10.6,0-15.9,0c-5.3,0-10.6,0-15.9,0
			c-0.9,0-1.2-0.1-0.9-1.1c2-6.9,5.9-12.5,11.6-16.8c3.4-2.5,7.2-3.6,11.4-2.9c5.8,1,8.8,4.9,10.1,10.4
			C438.5,251.1,438.6,254.3,438.4,257.5z"/>
		<path class="st8" d="M782.6,217.2c0-1.4-0.4-1.5-1.5-1.1c-1.5,0.5-3.1,1-4.6,1.4c-1,0.2-1.2,0.7-1.2,1.7c0,10.3,0,20.5,0,30.8
			c0,0.6,0,1.1,0,1.7c-0.3,4.2-2.3,6.4-6.4,6.6c-3.9,0.3-7.8,0.1-11.7,0.2c-1.1,0-1.5-0.3-1.5-1.4c0-4.6-0.2-9.1-1.3-13.5
			c-1.4-5.6-4.5-10-10.2-11.9c-8.8-2.9-17.1-0.7-24,5.8c-0.6,0.5-0.2,0.7,0.2,1c1.3,1.2,2.7,2.4,3.9,3.7c0.6,0.6,0.9,0.5,1.4-0.1
			c1.7-1.8,3.6-3.2,5.9-4.2c7.5-3.2,14.4,0.5,15.9,8.5c0.7,3.6,0.7,7.3,0.7,11c0,1-0.3,1.2-1.3,1.2c-14.2-0.1-28.4-0.1-42.7-0.1
			c-1,0-1.3-0.3-1.2-1.2c0.1-3.2,0-6.3-0.6-9.5c-1.3-7.4-4.7-13.5-12.2-15.8c-8.5-2.7-16.4-1-23.1,5c-4.1,3.8-6.8,8.5-8.6,13.8
			c-0.1,0.3-0.1,0.7-0.6,0.9V237c-2.1,0.6-4,1.2-6,1.7c-0.9,0.2-1.2,0.6-1.2,1.6c0.1,5.7,0,11.3,0,17c0,0.8-0.1,1.2-1,1.2
			c-6.5,0-13,0-19.5,0c-2.7,0-3.8-1.2-3.8-3.9v-37.1c0-0.3,0-0.6,0-0.8c0.1-0.8-0.2-0.9-0.9-0.7c-1.7,0.6-3.4,1.1-5.1,1.6
			c-1,0.3-1.3,0.8-1.3,1.8c0,11.8,0,23.7,0,35.5c0,6.5,3.6,10.1,10.1,10.1h139.2c0.4,0,0.7,0,1.1,0c7.2-0.2,12.5-5.3,13-12.4
			c0.1-0.9,0.1-1.7,0.1-2.6C782.6,238.9,782.6,228,782.6,217.2z M695.7,257.3c0,0.9-0.4,1.1-1.3,1.1c-5.3,0-10.6,0-15.9,0
			c-5.2,0-10.5,0-15.7,0c-1,0-1.3-0.3-1.1-1.2c0.3-2,0.9-3.8,1.9-5.6c3-5.3,6.8-9.9,12.3-12.6c8.7-4.2,17-0.2,19.1,9.2
			C695.8,251.2,695.9,254.2,695.7,257.3z"/>
		<path class="st8" d="M512.4,215.9c-1.8,0.5-3.5,1.1-5.3,1.6c-1,0.2-1.2,0.7-1.2,1.6c0,10.3,0,20.5,0,30.8c0,0.6,0,1.1,0,1.7
			c-0.3,4.3-2.3,6.4-6.5,6.7c-5.5,0.4-11,0.2-16.5,0.3c-1.1,0-1.2-0.3-1.2-1.3c0-4.5,0.5-8.9-0.3-13.3c-0.8-4.9-2.7-9.1-7.5-11.3
			c-3.2-1.4-6.5-1.5-9.9-1c-3.9,0.6-7,2.7-9.1,6.1c-2.6,4.2-3.2,8.9-2.8,13.7c0.6,6.9,4.9,11.7,11.6,13.1c2.5,0.5,5.1,0.4,7.7,0.4
			c2.6,0,2.6,0,1.6,2.4c-1.8,4.4-5.8,6.4-11.2,5.7c-3-0.4-5.9-1.3-9.1-2.6c1,2.2,1.9,4,2.7,5.9c0.4,1.1,1.1,1.7,2.1,2
			c4.4,1.5,9,1.9,13.4,0.2c5.5-2.1,8.5-6.4,9.8-12c0.3-1.2,0.7-1.7,2-1.7c5.7,0.1,11.4,0.1,17.1,0c8.5-0.1,13.5-6.3,13.5-12.6
			c0.1-11.9,0.1-23.7,0.1-35.6C513.3,215.8,513,215.7,512.4,215.9z M474.5,257.5c0,0.5,0,0.9-0.7,0.9c-2.7-0.1-5.4,0.3-8.1-0.2
			c-3.5-0.6-5.5-2.6-6.1-6.2c-0.6-3.3-0.4-6.5,0.8-9.6c1.2-3.4,3.9-5,7.5-4.7c3.4,0.3,5.4,2.1,6.2,5.8c0.6,2.9,0.5,5.8,0.4,7.9
			C474.5,254,474.5,255.7,474.5,257.5z"/>
		<path class="st8" d="M612.6,230.3c-2,0.6-3.9,1.2-5.8,1.7c-1,0.3-1.4,0.7-1.4,1.9c0.1,5.7,0.1,11.4,0,17.1c0,4.4-2.2,7.3-6.1,7.4
			c-5.7,0.2-11.4,0.1-17.1,0c-3.1-0.1-5.2-2-5.8-5.1c-0.2-0.9-0.2-1.8-0.2-2.7c0-5.8,0-11.6,0-17.4c0-2.8,0-2.9-2.9-2.8
			c-5.1,0.1-10.3-0.3-15.4,0.2c-5.2,0.6-8.8,3.3-10.6,8.4c-1.5,4.3-1.5,8.8-0.9,13.2c0.4,3.2,1.4,6.3,3.7,8.7
			c3.3,3.6,7.7,4.1,12.2,3.9c3.9-0.2,7.4-1.3,9.5-5c2.8,3.6,5.4,5,9.8,5c6,0.1,12.1,0.1,18.1,0c7.1-0.1,12.8-5.4,13-12.3
			C612.7,245.2,612.6,237.9,612.6,230.3z M568.7,243.7c0,2.7,0.2,5.7-0.4,8.6c-0.9,4.3-3.1,6.1-7.3,6.1s-6.4-1.7-7.3-6
			c-0.8-3.6-0.7-7.3,0.1-10.9c0.8-3.3,2.9-5,6.3-5.2c2.6-0.1,5.1,0,7.7-0.1c0.7,0,0.9,0.2,0.9,0.9
			C568.7,239.3,568.7,241.3,568.7,243.7z"/>
		<path class="st7" d="M527.3,240.1c0,7.8,0,15.6,0,23.5c0,1-0.2,1.4-1.3,1.3c-1.7-0.1-3.4-0.1-5.1,0c-0.8,0-1-0.3-1-1
			c0-3.2,0-6.4,0-9.7c0-11.6,0-23.3,0-34.9c0-1.1,0.3-1.6,1.3-1.8c1.6-0.4,3.3-0.9,4.9-1.5c1-0.4,1.2-0.2,1.2,0.9
			c0,6.4,0,12.8,0,19.2C527.3,237.3,527.3,238.7,527.3,240.1z"/>
		<path class="st7" d="M292.6,219.6c0,2.2-1.8,4-4,4.1c-2.2,0-4.1-1.8-4.1-4c0-2.1,1.7-3.9,3.9-4
			C290.6,215.6,292.6,217.4,292.6,219.6z"/>
		<path class="st7" d="M562.1,219.6c0,2.2-1.8,4-4,4s-4-1.8-4-4c0-2.1,1.8-3.9,3.9-3.9C560.2,215.6,562.1,217.4,562.1,219.6z"/>
		<path class="st7" d="M378.5,219.6c0,2.2-1.8,4.1-4,4.1c-2.1,0-4-1.8-4-3.9c-0.1-2.2,1.8-4,4-4.1
			C376.6,215.7,378.4,217.4,378.5,219.6z"/>
		<path class="st7" d="M334.1,279.5c-2.2,0-3.9-1.7-4-3.9c0-2.2,1.7-4,3.9-4c2.2,0,4,1.7,4.1,3.8
			C338.1,277.6,336.3,279.4,334.1,279.5z"/>
		<path class="st7" d="M344.2,271.5c2.2,0,4.1,1.8,4,4c0,2.1-1.9,3.9-4,3.9c-2.1,0-3.9-1.8-3.9-4
			C340.3,273.3,342.1,271.5,344.2,271.5z"/>
		<path class="st7" d="M302.8,219.6c0,2.2-1.9,4-4,4s-3.9-1.9-3.9-4s1.9-4,4-3.9C301,215.7,302.8,217.5,302.8,219.6z"/>
		<path class="st7" d="M572.3,219.7c0,2.2-1.9,4-4.1,4c-2.1-0.1-3.9-1.9-3.8-4.1c0.1-2.2,1.9-3.9,4-3.9
			C570.6,215.7,572.4,217.5,572.3,219.7z"/>
	</g>
	<g>
		<path d="M306.2,347.4c-4.7,0-0.5-4.2-11.1-25.9c-0.9-1.8-6.9-13.3-9.1-13.3c-1.7,0-1.2,7.5-1.2,8.8c0,19.3,2.8,26.3,2.8,29.8
			c0,0.9-1.3,0.6-1.9,0.6h-6.4c-1.7,0-3.8,1.3-3.8-24.3c0-33.8,3.6-32.6,4.7-32.6h5.4c2.6,0,7.8,5.5,20.6,29.1
			c0.2,0.3,0.5,1.2,1.2,1.2s0.5-2.9,0.5-3.9c0-12.8-3.5-24.1-3.5-25.7c0-1,1.5-0.8,2.8-0.8h5.2c1.5,0,4.7-1.2,4.7,32.6
			c0,25.6-2.1,24.3-3.8,24.3h-7.1V347.4z"/>
		<path d="M338.9,318.9c2-0.3,3.6-0.7,3.6-2.9c0-3.5-3.6-5.3-6.6-5.3c-7,0-6,5.9-7.5,5.9c-2.2,0-4.6-2.7-4.6-5.6
			c0-5.1,5.7-8.3,12-8.3c2.2,0,11.6-0.1,15,9.5c1.4,4,1.6,24.2,1.6,26.6c0,3,0.5,4.8,0.5,7.1c0,1.4-6.4,1.6-12.5,1.6
			c-16.5,0-17.6-8.5-17.6-12.6C322.8,326.2,331.3,320.2,338.9,318.9z M343.2,330.9c0-2.4,0.4-5.3-2.9-5.3c-4,0-8.3,3.4-8.3,7.6
			c0,3.8,3.4,6.1,7,6.1c4,0,4.2-2.1,4.2-5.4L343.2,330.9L343.2,330.9z"/>
		<path d="M375.3,295.1c0,1.8-2.1,6-2.1,6.8c0,1.2,0.3,2.1,1.4,2.1c0.9,0,1.7-0.3,2.6-0.3c2.6,0,2.7,1.8,2.7,4.2c0,1,0,3.6-1.4,3.6
			c-0.5,0-1.9-0.6-3.1-0.6c-3.8,0-3.8,4.4-3.8,10.5c0,18.2,3.8,21.2,3.8,22.4c0,1-7.9,4.9-9.5,4.9c-2.6,0-3.3-15.3-3.3-19
			c0-8.4,0.4-11.7,0.4-13c0-2.1,0.6-5.7-2.5-5.7c-1.2,0-1.9,0.8-2.7,0.8c-0.9,0-0.8-0.9-0.8-2.1c0-5.2,1.5-5.8,4.1-5.8
			c0.3,0,0.8,0.3,1.3,0.3c2.1,0,2.3-3.4,2.7-5.7c0.3-2.6,8-4.5,9.4-4.5C374.9,293.6,375.3,293.8,375.3,295.1z"/>
		<path d="M387.7,347.4c-3.4,0-3.6,1.4-3.6-22.6c0-23.4,1.1-21.1,3.4-21.1h3.8c2.9,0,2.9,0.2,2.9,1c0,2.5-0.8,5.1-0.8,12.5
			c0,17.2,2.7,27.8,2.7,28.5c0,2.2-2.1,1.8-3.6,1.8h-4.8V347.4z M384.8,293.8c0-2.9,2.5-4.7,5.3-4.7s5.3,1.8,5.3,4.7
			s-2.5,4.5-5.3,4.5S384.8,296.7,384.8,293.8z"/>
		<path d="M400.6,325.4c0-11,5.3-22.8,17.2-22.8s17.2,11.8,17.2,22.8c0,16.1-9.3,23-17.2,23C409.9,348.4,400.6,341.5,400.6,325.4z
			 M426.4,323.7c0-5.4-1.9-13.1-8.7-13.1s-8.7,7.7-8.7,13.1c0,5.5,1.8,13.3,8.7,13.3C424.6,337,426.4,329.2,426.4,323.7z"/>
		<path d="M460.6,347.4c-0.9,0-2.4,0.2-2.4-1.1c0-0.7,3.5-9.8,3.5-23.7c0-4.9-0.4-10.9-5.1-10.9c-2.6,0-7.9,1.7-7.9,15.3
			c0,8.2,2,18.7,2,19.6c0,1-1.2,0.9-1.8,0.9H443c-2.5,0-3.6,1.2-3.6-16.9c0-31,2.4-29.1,7.7-29.1c2.4,0,4.9-0.3,4.9,1.2
			c0,0.7-0.6,1.5-0.6,2.5c0,0.7,0.3,1.3,1,1.3c1.2,0,4.3-2.8,8.7-2.8c1.9,0,9.8,0.3,9.8,18.3c0,26.9-2.1,25.5-4.4,25.5L460.6,347.4
			L460.6,347.4z"/>
		<path d="M492.5,318.9c2-0.3,3.6-0.7,3.6-2.9c0-3.5-3.6-5.3-6.6-5.3c-7,0-6,5.9-7.5,5.9c-2.2,0-4.6-2.7-4.6-5.6
			c0-5.1,5.7-8.3,12-8.3c2.2,0,11.6-0.1,15,9.5c1.4,4,1.6,24.2,1.6,26.6c0,3,0.5,4.8,0.5,7.1c0,1.4-6.4,1.6-12.5,1.6
			c-16.5,0-17.6-8.5-17.6-12.6C476.4,326.2,484.8,320.2,492.5,318.9z M496.7,330.9c0-2.4,0.4-5.3-2.9-5.3c-4,0-8.3,3.4-8.3,7.6
			c0,3.8,3.4,6.1,7,6.1c4,0,4.2-2.1,4.2-5.4V330.9z"/>
		<path d="M515.5,347.4c-2.4,0-2.1-22.9-2.1-24.5c0-3.2-0.3-33.9,2.8-33.9h6.5c0.8,0,2.8-0.2,2.8,1.3c0,0.4-2.9,10.3-2.9,27.3
			c0,18.8,2.6,28,2.6,28.9c0,1.2-1.8,0.8-2.5,0.8h-7.2V347.4z"/>
		<path d="M581.2,347.4c-4.7,0-0.5-4.2-11.1-25.9c-0.9-1.8-6.9-13.3-9.1-13.3c-1.7,0-1.2,7.5-1.2,8.8c0,19.3,2.8,26.3,2.8,29.8
			c0,0.9-1.3,0.6-1.9,0.6h-6.4c-1.7,0-3.8,1.3-3.8-24.3c0-33.8,3.6-32.6,4.7-32.6h5.4c2.6,0,7.8,5.5,20.6,29.1
			c0.2,0.3,0.5,1.2,1.2,1.2s0.5-2.9,0.5-3.9c0-12.8-3.5-24.1-3.5-25.7c0-1,1.5-0.8,2.8-0.8h5.2c1.5,0,4.7-1.2,4.7,32.6
			c0,25.6-2.1,24.3-3.8,24.3h-7.1V347.4z"/>
		<path d="M627.5,303.6c2.9,0,2.9,14.4,2.9,20.9c0,25.1-1.8,23.9-6.7,23.9c-7.2,0-1.7-3.8-5.6-3.8c-0.6,0-2.2,1.4-3.4,2.3
			c-1.2,0.8-2.8,1.6-5.1,1.6c-5.7,0-10.9-3.6-10.9-23.1c0-1.2,0.5-21.7,3.4-21.7h6.3c0.9,0,2.7-0.3,2.7,1c0,1-3.1,7.9-3.1,20.8
			c0,3.8-0.1,14.2,5.8,14.2c2.3,0,7.5-0.7,7.5-15.4c0-8.2-2.4-18.7-2.4-19.8c0-0.9,1.6-0.8,2.3-0.8h6.3V303.6z"/>
		<path d="M640.6,347.4c-2.5,0-3.8,2.1-3.8-20.5c0-18.9-0.5-23.2,1.4-23.3h5.7c1,0,2.3-0.3,2.3,1c0.1,1,0.3,2.3,1.6,2.3
			c1,0,2.2-1.1,3.6-2.2c1.4-1,3.1-2.1,4.9-2.1c3.5,0,6.4,3,6.4,6.7c0,4.8-3.9,7.7-6,7.7c-0.8,0,0.1-4.6-4.6-4.6
			c-5.7,0-6.2,9.2-6.2,13.3c0,13.6,2.3,19.4,2.3,20.6c-0.1,1.1-1.6,1.1-2.3,1.1H640.6z"/>
		<path d="M665.4,336.2c0-3.2,1.6-7.3,2.2-7.3c0.3,0,2.1,10.3,11.8,10.3c2.8,0,6.1-1.4,6.1-4.9c0-7-18.5-5.2-18.5-18.8
			c0-8.3,6.7-12.9,14.1-12.9c8.5,0,13.3,5.1,13.3,6.5c0,1.3-3.8,6.8-5.4,6.8c-1.8,0-2.2-5.3-8.5-5.3c-2.1,0-5,1-5,3
			c0,7,20,6.9,20,20.8c0,8.9-7.4,14-15.6,14C672.6,348.4,665.4,344.2,665.4,336.2z"/>
		<path d="M699.6,327.3c0-16.6,9.2-24.8,18.3-24.8c7.5,0,13.9,4.2,13.9,12.3c0,14.7-22,11.6-22,18.7c0,3.2,5.2,5.5,8.6,5.5
			c11.2,0,11.2-8.5,12.2-8.5s1.2,3.6,1.2,4.1c0,8.7-6.7,13.7-14.9,13.7C704.6,348.4,699.6,338.3,699.6,327.3z M708.8,320.6
			c0,0.8,0.3,1.5,1.2,1.5c0.8,0,13.3-2.7,13.3-6.2c0-3.4-3.1-5.2-5.7-5.2C712,310.6,708.8,316.6,708.8,320.6z"/>
		<path d="M741,347.4c-2.5,0-3.8,2.1-3.8-20.5c0-18.9-0.5-23.2,1.4-23.3h5.7c1,0,2.3-0.3,2.3,1c0.1,1,0.3,2.3,1.6,2.3
			c1,0,2.2-1.1,3.6-2.2c1.4-1,3.1-2.1,4.9-2.1c3.5,0,6.4,3,6.4,6.7c0,4.8-3.9,7.7-6,7.7c-0.8,0,0.1-4.6-4.6-4.6
			c-5.7,0-6.2,9.2-6.2,13.3c0,13.6,2.3,19.4,2.3,20.6c-0.1,1.1-1.6,1.1-2.3,1.1H741z"/>
		<path d="M766.3,339.8c0-0.8,0.1-2.8,2-2.8c7.9,0,9.9-2.5,9.9-3.4c0-2.9-11.9-7.7-11.9-26.7c0-3.1-0.1-3.2,2.6-3.2h5.6
			c0.9,0,2.4-0.2,2.4,1.2c0,1-0.6,3.1-0.6,5.1c0,8,6.7,15.5,8.1,15.5c2.7,0,4.6-8.2,4.6-13.5c0-3.4-0.8-6.3-0.8-7.4
			c0-1.2,1.7-1,2.5-1h6.1c1.3,0.2,1.1,2.4,1.1,5.3c0.6,20-14.8,39.5-29.9,39.5c-1.6,0-1.6-1-1.6-2.6L766.3,339.8L766.3,339.8z"/>
	</g>
	<g class="st9">
		<path class="st6" d="M693.8,156.3c-0.2,3.5-2.2,9.8-6.8,15.2c1.9-0.1,3.9-0.2,5.8-0.4c2.3-3.4,11.2-17.2,8.8-21.1
			C700,147.6,694.2,150.6,693.8,156.3z"/>
		<path class="st6" d="M618.5,128.4c0-17.1-12-31-26.7-31c-6.1,0-12,1.6-16.8,4.7c-2.3,4.6-3.6,9.3-3.6,14.3
			c0,15.6,12.3,29.7,32.1,39.8C612.3,151.1,618.5,140.6,618.5,128.4z M588,128.1c0-12.9,6.4-23.3,14.2-23.3s14.2,10.4,14.2,23.3
			s-6.4,23.3-14.2,23.3S588,141,588,128.1z"/>
		<path class="st6" d="M776.4,113.5c-4.7-17-20.7-27.3-40.2-31.1c4.5-1.2,9.2-2.8,13.4-5.2c0.3-0.2,0.6-0.4,0.9-0.5
			c-7.1-3.6-15.1-6.7-23.9-9.1c-3.1,9.8-10.2,16.8-18.9,17.4c-11.4,0.8-21.7-9.5-24.3-23.8c-1.2,0-2.4-0.1-3.5-0.1
			c0.7,3.5,1.7,6.9,3.1,9.9c1.5,3.3,3,5.7,5.2,8.2c1.4,1.6,3.2,3.2,5,4.6c-5.4,1.2-10.2,3-15.4,5.2c-8.7,3.8-14.2,8-15.9,10.2
			c-1.8-0.6-3.6-1-5.4-1.2c-12.2-1.1-21.6,7.8-21.2,18.6c0.1,3,0.8,5.8,2,8.3c-6.9,6.3-13.1,16.1-13.2,26.2c0,6.1,3,11.6,7.5,15.3
			c6.5,1.6,13.3,2.9,20.4,3.8c3.6-1.4,4.9-3.9-1.6-6c-8.1-2.6-19.6,2.2-21.5-9.7c-1.4-9.1,5.9-18.3,13.6-22.8c4.4,3.8,10.2,6,15.9,6
			c1.7,0,0.9,0,1.1,0.1c-4.6,4.6-6.5,11.3-4.1,17.6c4.4,12.1,12.7,12.7,21.6,13.3c-28.6-14.6-7.6-25.6,4.4-34.1
			c18.1-12.8,26.3,4.7,28.2,7.6c3.9,5.9,5,14,8.2,13.8s4.1-2.9,2.7-3.8c0,0-2.9-3.6-4.8-6.8c-4.7-7.8-16.6-29.3-38.4-20.1
			c0.5-1.9,0.6-4.1,0.6-6.2c0-4.5-1.8-8.7-4.6-12.1c1.5-1.1,6-4.2,20.4-7.1c15.2-3.1,28.6-3.3,47.3,0.3
			c18.6,3.5,39.2,20.2,28.1,43.5c4-3.7,7.2-7.7,9.5-11.9C778.8,125.8,778.1,119.7,776.4,113.5z M675.1,128.9
			c0.1-0.1,0.2-0.2,0.3-0.3C675.3,128.8,675.2,128.9,675.1,128.9z M675.5,118.2c0.2,4.9-1,9.5-4.1,12.7c-0.6,0.7-2.3,1.9-4.2,2.8
			c-1.7,0.7-3.7,1.1-6,1.2c-8.5,0.3-15.6-8.8-15.6-17.3s6.1-15.2,14.6-15.2C668.7,102.4,675.1,110.1,675.5,118.2z"/>
	</g>
</g>
</svg>
