<?xml version="1.0" encoding="utf-8"?>
<!-- Generator: Adobe Illustrator 23.1.0, SVG Export Plug-In . SVG Version: 6.00 Build 0)  -->
<svg version="1.1" id="Layer_3" xmlns="http://www.w3.org/2000/svg" xmlns:xlink="http://www.w3.org/1999/xlink" x="0px" y="0px"
	 viewBox="0 0 500 380" style="enable-background:new 0 0 500 380;" xml:space="preserve">
<style type="text/css">
	.st0{fill:#FFFFFF;}
	.st1{clip-path:url(#SVGID_4_);fill:url(#SVGID_5_);}
	.st2{clip-path:url(#SVGID_4_);fill:url(#SVGID_6_);}
	.st3{clip-path:url(#SVGID_4_);fill:url(#SVGID_7_);}
</style>
<g>
	<rect x="0" transform="matrix(-1 -1.224647e-16 1.224647e-16 -1 500 380)" class="st0" width="500" height="380"/>
	<g>
		<defs>
			<rect id="SVGID_1_" x="0" transform="matrix(-1 -1.224647e-16 1.224647e-16 -1 500 380)" width="500" height="380"/>
		</defs>
		<clipPath id="SVGID_2_">
			<use xlink:href="#SVGID_1_"  style="overflow:visible;"/>
		</clipPath>
		<g style="opacity:0.5;clip-path:url(#SVGID_2_);">
			
				<image style="overflow:visible;" width="2722" height="1542" xlink:href="30747E4E.png"  transform="matrix(0.24 0 0 0.24 -106.56 -34.08)">
			</image>
		</g>
		<g style="opacity:0.5;clip-path:url(#SVGID_2_);">
			
				<image style="overflow:visible;" width="2719" height="1898" xlink:href="30747E52.png"  transform="matrix(0.24 0 0 0.24 -117.6 -27.12)">
			</image>
		</g>
		<g style="opacity:0.5;clip-path:url(#SVGID_2_);">
			
				<image style="overflow:visible;" width="2778" height="1835" xlink:href="30747E55.png"  transform="matrix(0.24 0 0 0.24 -85.44 41.52)">
			</image>
		</g>
		<g style="opacity:0.5;clip-path:url(#SVGID_2_);">
			
				<image style="overflow:visible;" width="2722" height="1542" xlink:href="30747E56.png"  transform="matrix(0.24 0 0 0.24 -103.68 -0.24)">
			</image>
		</g>
		<g style="opacity:0.5;clip-path:url(#SVGID_2_);">
			
				<image style="overflow:visible;" width="2722" height="1542" xlink:href="30747E54.png"  transform="matrix(0.24 0 0 0.24 -103.68 -0.24)">
			</image>
		</g>
		<g style="opacity:0.5;clip-path:url(#SVGID_2_);">
			
				<image style="overflow:visible;" width="2957" height="2527" xlink:href="30747E53.png"  transform="matrix(0.24 0 0 0.24 -64.32 -118.56)">
			</image>
		</g>
		<g style="opacity:0.5;clip-path:url(#SVGID_2_);">
			
				<image style="overflow:visible;" width="2726" height="1648" xlink:href="30747E5D.png"  transform="matrix(0.24 0 0 0.24 -55.2 -145.2)">
			</image>
		</g>
		<g style="opacity:0.5;clip-path:url(#SVGID_2_);">
			
				<image style="overflow:visible;" width="2718" height="2023" xlink:href="30747E5E.png"  transform="matrix(0.24 0 0 0.24 17.28 30.24)">
			</image>
		</g>
		<g style="opacity:0.5;clip-path:url(#SVGID_2_);">
			
				<image style="overflow:visible;" width="3097" height="2139" xlink:href="30747E5C.png"  transform="matrix(0.24 0 0 0.24 -121.68 -109.92)">
			</image>
		</g>
		<g style="opacity:0.5;clip-path:url(#SVGID_2_);">
			
				<image style="overflow:visible;" width="2726" height="1648" xlink:href="D64191.png"  transform="matrix(0.24 0 0 0.24 -32.16 24.72)">
			</image>
		</g>
		<g style="opacity:0.5;clip-path:url(#SVGID_2_);">
			
				<image style="overflow:visible;" width="2766" height="2003" xlink:href="D64197.png"  transform="matrix(0.24 0 0 0.24 -60.72 -160.32)">
			</image>
		</g>
		<g style="opacity:0.5;clip-path:url(#SVGID_2_);">
			
				<image style="overflow:visible;" width="2953" height="1691" xlink:href="D64190.png"  transform="matrix(0.24 0 0 0.24 -153.12 -121.2)">
			</image>
		</g>
	</g>
	<g>
		<defs>
			<rect id="SVGID_3_" x="0" transform="matrix(-1 -1.224647e-16 1.224647e-16 -1 500 380)" width="500" height="380"/>
		</defs>
		<clipPath id="SVGID_4_">
			<use xlink:href="#SVGID_3_"  style="overflow:visible;"/>
		</clipPath>
		
			<radialGradient id="SVGID_5_" cx="123.5" cy="107.5" r="198.5" gradientTransform="matrix(-1 0 0 -1 500 380)" gradientUnits="userSpaceOnUse">
			<stop  offset="0" style="stop-color:#FFFFFF"/>
			<stop  offset="0.1455" style="stop-color:#D3D3D3"/>
			<stop  offset="0.4609" style="stop-color:#7A7A7A"/>
			<stop  offset="0.7178" style="stop-color:#383838"/>
			<stop  offset="0.9034" style="stop-color:#101010"/>
			<stop  offset="0.9989" style="stop-color:#000000"/>
		</radialGradient>
		<circle class="st1" cx="376.5" cy="272.5" r="198.5"/>
		
			<radialGradient id="SVGID_6_" cx="107" cy="217.5" r="198.5" gradientTransform="matrix(-1 0 0 -1 500 380)" gradientUnits="userSpaceOnUse">
			<stop  offset="0" style="stop-color:#FFFFFF"/>
			<stop  offset="0.1455" style="stop-color:#D3D3D3"/>
			<stop  offset="0.4609" style="stop-color:#7A7A7A"/>
			<stop  offset="0.7178" style="stop-color:#383838"/>
			<stop  offset="0.9034" style="stop-color:#101010"/>
			<stop  offset="0.9989" style="stop-color:#000000"/>
		</radialGradient>
		<circle class="st2" cx="393" cy="162.5" r="198.5"/>
		
			<radialGradient id="SVGID_7_" cx="406.5" cy="316.5" r="198.5" gradientTransform="matrix(-1 0 0 -1 500 380)" gradientUnits="userSpaceOnUse">
			<stop  offset="0" style="stop-color:#FFFFFF"/>
			<stop  offset="0.1455" style="stop-color:#D3D3D3"/>
			<stop  offset="0.4609" style="stop-color:#7A7A7A"/>
			<stop  offset="0.7178" style="stop-color:#383838"/>
			<stop  offset="0.9034" style="stop-color:#101010"/>
			<stop  offset="0.9989" style="stop-color:#000000"/>
		</radialGradient>
		<circle class="st3" cx="93.5" cy="63.5" r="198.5"/>
	</g>
</g>
</svg>
