<?xml version="1.0" encoding="utf-8"?>
<!-- Generator: Adobe Illustrator 23.1.0, SVG Export Plug-In . SVG Version: 6.00 Build 0)  -->
<svg version="1.1" id="Layer_1" xmlns="http://www.w3.org/2000/svg" xmlns:xlink="http://www.w3.org/1999/xlink" x="0px" y="0px"
	 viewBox="0 0 842 595" style="enable-background:new 0 0 842 595;" xml:space="preserve">
<style type="text/css">
	.st0{clip-path:url(#SVGID_2_);}
	.st1{opacity:0.3;fill:url(#SVGID_3_);}
	.st2{opacity:0.5;fill:url(#SVGID_4_);}
	.st3{opacity:0.5;fill:url(#SVGID_5_);}
	.st4{opacity:0.3;fill:url(#SVGID_6_);}
	.st5{opacity:0.4;fill:url(#SVGID_7_);}
	.st6{opacity:0.3;fill:url(#SVGID_8_);}
	.st7{opacity:0.3;fill:url(#SVGID_9_);}
	.st8{display:none;}
	.st9{display:inline;}
	.st10{fill:#B3B3B3;}
</style>
<g>
	<defs>
		<rect id="SVGID_1_" x="0.5" y="0.5" width="841" height="594"/>
	</defs>
	<clipPath id="SVGID_2_">
		<use xlink:href="#SVGID_1_"  style="overflow:visible;"/>
	</clipPath>
	<g class="st0">
		<g>
			<linearGradient id="SVGID_3_" gradientUnits="userSpaceOnUse" x1="0" y1="297.5" x2="842" y2="297.5">
				<stop  offset="0" style="stop-color:#B3B3B3"/>
				<stop  offset="1" style="stop-color:#FFFFFF"/>
			</linearGradient>
			<rect class="st1" width="842" height="595"/>
			<g>
				<linearGradient id="SVGID_4_" gradientUnits="userSpaceOnUse" x1="45.7856" y1="408.5581" x2="717.7524" y2="-258.9085">
					<stop  offset="0" style="stop-color:#FFFFFF"/>
					<stop  offset="0.4752" style="stop-color:#FDFDFD"/>
					<stop  offset="0.6464" style="stop-color:#F6F6F6"/>
					<stop  offset="0.7685" style="stop-color:#EBEBEB"/>
					<stop  offset="0.8671" style="stop-color:#DADADA"/>
					<stop  offset="0.9506" style="stop-color:#C4C4C4"/>
					<stop  offset="1" style="stop-color:#B3B3B3"/>
				</linearGradient>
				<path class="st2" d="M971.7-36.7C928.9-322.1,642.2-515.6,331.4-469s-528,315.8-485.2,601.2c42.8,285.4,329.5,478.9,640.3,432.3
					C797.3,517.9,1014.6,248.7,971.7-36.7z"/>
				
					<linearGradient id="SVGID_5_" gradientUnits="userSpaceOnUse" x1="-2293.5071" y1="-261.4187" x2="-1869.6685" y2="-261.4187" gradientTransform="matrix(0.9889 -0.1484 -0.1484 -0.9889 2400.385 -229.4178)">
					<stop  offset="0" style="stop-color:#FFFFFF"/>
					<stop  offset="0.3863" style="stop-color:#FDFDFD"/>
					<stop  offset="0.5769" style="stop-color:#F5F5F5"/>
					<stop  offset="0.7247" style="stop-color:#E8E8E8"/>
					<stop  offset="0.8504" style="stop-color:#D5D5D5"/>
					<stop  offset="0.961" style="stop-color:#BDBDBD"/>
					<stop  offset="1" style="stop-color:#B3B3B3"/>
				</linearGradient>
				<path class="st3" d="M590.3,306.6c-16-106.3-122.7-178.4-238.4-161S155.2,263.2,171.1,369.5s122.7,178.4,238.4,161
					C525.3,513.1,606.2,412.8,590.3,306.6z"/>
				<linearGradient id="SVGID_6_" gradientUnits="userSpaceOnUse" x1="311.6112" y1="550.4312" x2="379.1074" y2="-102.0365">
					<stop  offset="0" style="stop-color:#FFFFFF"/>
					<stop  offset="0.2028" style="stop-color:#F7F7F7"/>
					<stop  offset="0.5214" style="stop-color:#E0E0E0"/>
					<stop  offset="0.9138" style="stop-color:#BCBCBC"/>
					<stop  offset="1" style="stop-color:#B3B3B3"/>
				</linearGradient>
				<path class="st4" d="M923.9-13c-42.8-285.4-329.5-478.9-640.3-432.3s-528,315.8-485.2,601.2c42.8,285.4,329.5,478.9,640.3,432.3
					S966.8,272.4,923.9-13z"/>
				<linearGradient id="SVGID_7_" gradientUnits="userSpaceOnUse" x1="294.5463" y1="-100.4944" x2="699.5458" y2="411.5058">
					<stop  offset="0" style="stop-color:#FFFFFF"/>
					<stop  offset="0.4433" style="stop-color:#FDFDFD"/>
					<stop  offset="0.6218" style="stop-color:#F6F6F6"/>
					<stop  offset="0.7526" style="stop-color:#EAEAEA"/>
					<stop  offset="0.8601" style="stop-color:#D8D8D8"/>
					<stop  offset="0.9523" style="stop-color:#C2C2C2"/>
					<stop  offset="1" style="stop-color:#B3B3B3"/>
				</linearGradient>
				<path class="st5" d="M866.1,96.2C837.8-92.4,648.4-220.2,443-189.4C237.7-158.6,94.1,19.2,122.5,207.8
					c28.3,188.6,217.7,316.4,423.1,285.6S894.4,284.8,866.1,96.2z"/>
				
					<linearGradient id="SVGID_8_" gradientUnits="userSpaceOnUse" x1="-1340" y1="-1010" x2="-288" y2="-1010" gradientTransform="matrix(0 1 -1 0 -488 864)">
					<stop  offset="0" style="stop-color:#FFFFFF"/>
					<stop  offset="0.4752" style="stop-color:#FDFDFD"/>
					<stop  offset="0.6464" style="stop-color:#F6F6F6"/>
					<stop  offset="0.7685" style="stop-color:#EBEBEB"/>
					<stop  offset="0.8671" style="stop-color:#DADADA"/>
					<stop  offset="0.9506" style="stop-color:#C4C4C4"/>
					<stop  offset="1" style="stop-color:#B3B3B3"/>
				</linearGradient>
				<ellipse class="st6" cx="522" cy="50" rx="483" ry="526"/>
				
					<linearGradient id="SVGID_9_" gradientUnits="userSpaceOnUse" x1="-2309" y1="-46" x2="-1257" y2="-46" gradientTransform="matrix(-1 0 0 -1 -1261 47)">
					<stop  offset="0" style="stop-color:#FFFFFF"/>
					<stop  offset="0.4752" style="stop-color:#FDFDFD"/>
					<stop  offset="0.6464" style="stop-color:#F6F6F6"/>
					<stop  offset="0.7685" style="stop-color:#EBEBEB"/>
					<stop  offset="0.8671" style="stop-color:#DADADA"/>
					<stop  offset="0.9506" style="stop-color:#C4C4C4"/>
					<stop  offset="1" style="stop-color:#B3B3B3"/>
				</linearGradient>
				<ellipse class="st7" cx="522" cy="93" rx="526" ry="483"/>
			</g>
		</g>
		<g class="st8">
			<g class="st9">
				<path class="st10" d="M389,267c0.5,0,1.1,0,1.6,0c0.6,0,1.1,0,1.7-0.1c0.6-0.1,1.4-0.7,2.3-1.9c0.9-1.2,1.6-2.3,2-3.6h0.3v6
					h-14.8v-0.3c0.2,0,0.4,0,0.6,0c0.2,0,0.5,0,0.7-0.1c0.3,0,0.5-0.1,0.6-0.3c0.1-0.2,0.2-0.4,0.3-0.8l0-0.9v-8.9l0-0.9
					c0-0.4-0.1-0.7-0.3-0.8c-0.2-0.2-0.4-0.3-0.6-0.3c-0.3,0-0.5-0.1-0.7-0.1c-0.2,0-0.4,0-0.6,0v-0.3h14.4v5.6h-0.3
					c-0.6-1.4-1.4-2.6-2.3-3.5c-0.9-1-1.7-1.5-2.3-1.5c-0.6-0.1-1.1-0.1-1.6-0.1c-0.4,0-0.7,0-0.8,0H389l0,6.2l0.8,0
					c0.7-0.1,1.3-0.4,1.6-1c0.4-0.6,0.6-1.3,0.6-2.2h0.4v6.8H392c0-0.8-0.2-1.6-0.6-2.2c-0.4-0.6-0.9-1-1.6-1.1l-0.8,0V267z"/>
				<path class="st10" d="M407.6,267.4h-9.2v-0.3h0.6c0.3,0,0.5-0.1,0.8-0.1c0.3,0,0.4-0.1,0.6-0.3c0.1-0.2,0.2-0.4,0.3-0.8l0-0.9
					v-8.9l0-0.9c0-0.4-0.1-0.7-0.3-0.8c-0.1-0.2-0.4-0.3-0.6-0.3c-0.3,0-0.5-0.1-0.7-0.1c-0.2,0-0.4,0-0.6,0v-0.3l8.8,0
					c2,0,3.4,0.2,4.1,0.7c0.7,0.5,1.1,0.9,1.4,1.5c0.3,0.5,0.4,1.1,0.4,1.7c0,0.6-0.1,1.1-0.3,1.6c-0.2,0.5-0.4,0.9-0.8,1.3
					c-0.4,0.3-0.8,0.6-1.4,0.7c-0.5,0.2-1.2,0.2-2.1,0.2c-0.8,0-1.5,0-2,0c-0.5,0-0.9,0-1.3,0v3.6l0,0.9c0,0.4,0.1,0.7,0.3,0.8
					c0.1,0.2,0.4,0.3,0.6,0.3c0.3,0,0.5,0.1,0.8,0.1c0.3,0,0.4,0,0.5,0V267.4z M408.3,257.5c0-0.7-0.1-1.4-0.3-2.1
					c-0.2-0.7-0.5-1.1-0.9-1.2c-0.4-0.1-0.8-0.2-1.1-0.2c-0.4,0-0.6,0-0.8,0v7c0.3,0,0.5,0,0.8,0c0.3,0,0.6-0.1,1-0.1
					c0.4-0.1,0.7-0.5,0.9-1.1C408.2,259.1,408.3,258.3,408.3,257.5z"/>
				<path class="st10" d="M425.8,263.4c0,1.2-0.5,2.3-1.6,3.1c-1,0.8-2.2,1.2-3.4,1.2c-1.1,0-2.1-0.3-3.2-1c-1.1-0.7-1.7-1-1.8-1
					c-0.4,0-0.7,0.2-0.8,0.5c-0.1,0.3-0.2,0.8-0.3,1.6h-0.3v-6.7h0.3c0.1,0.3,0.2,0.7,0.4,1.3c0.2,0.6,0.5,1.3,1,2.1
					c0.5,0.8,1.1,1.5,2,2.1c0.8,0.6,1.7,0.8,2.8,0.8c0.6,0,1.1-0.2,1.5-0.5c0.4-0.3,0.6-0.7,0.6-1.2c0-0.5-0.1-1-0.4-1.3
					c-0.3-0.3-0.8-0.6-1.6-0.9c-0.8-0.3-1.5-0.6-2.4-0.9c-0.8-0.3-1.7-0.8-2.7-1.4c-0.9-0.6-1.4-1.6-1.4-3.2c0-1.2,0.5-2.3,1.5-3.1
					c1-0.9,2.1-1.3,3.4-1.3c0.7,0,1.4,0.2,2.1,0.5l2,1.1c0.4,0,0.6-0.2,0.7-0.5c0.1-0.3,0.2-0.7,0.2-1.1h0.4v5h-0.3
					c-0.1-0.2-0.2-0.6-0.4-1.1c-0.2-0.5-0.6-1.1-1.1-1.7s-1.1-1.1-1.6-1.4c-0.5-0.3-1.2-0.4-2-0.4c-0.5,0-1,0.2-1.4,0.5
					c-0.4,0.3-0.7,0.7-0.7,1.1c0,0.5,0.2,0.9,0.5,1.2c0.3,0.3,0.7,0.6,1.1,0.8c0.4,0.2,1,0.4,1.8,0.7c0.8,0.3,1.6,0.6,2.4,1
					c0.8,0.4,1.5,0.9,2,1.7C425.6,261.5,425.8,262.4,425.8,263.4z"/>
				<path class="st10" d="M433.9,265l0,0.9c0,0.4,0.1,0.7,0.3,0.8c0.1,0.1,0.3,0.2,0.6,0.3c0.2,0,0.4,0.1,0.6,0.1c0.2,0,0.4,0,0.6,0
					v0.3h-8.9v-0.3c0.1,0,0.3,0,0.4,0c0.1,0,0.4,0,0.7-0.1c0.3,0,0.6-0.1,0.7-0.3c0.1-0.2,0.2-0.4,0.3-0.8l0-0.9v-8.8l0-0.9
					c0-0.4-0.1-0.7-0.3-0.9c-0.1-0.2-0.4-0.3-0.6-0.3s-0.6-0.1-0.9-0.1c-0.3,0-0.5,0-0.6,0v-0.3h7V265z"/>
				<path class="st10" d="M450,260.6c0,1.8-0.6,3.4-1.8,4.9c-1.2,1.4-2.7,2.2-4.6,2.2c-2,0-3.6-0.8-4.7-2.3
					c-1.2-1.5-1.7-3.1-1.7-4.8c0-1.8,0.6-3.4,1.9-4.9c1.2-1.4,2.8-2.2,4.6-2.2c1.9,0,3.4,0.7,4.6,2.2
					C449.4,257.2,450,258.8,450,260.6z M445.3,260.6c0-1,0-1.9-0.1-2.7c0-0.7-0.1-1.5-0.2-2.2c-0.1-0.7-0.3-1.2-0.5-1.5
					c-0.2-0.3-0.6-0.4-1-0.4c-0.4,0-0.7,0.1-1,0.4c-0.2,0.3-0.4,0.7-0.5,1.3c-0.1,0.6-0.2,1.4-0.2,2.3c-0.1,0.9-0.1,1.8-0.1,2.7
					c0,1,0,1.8,0.1,2.6c0,0.8,0.1,1.5,0.2,2.2c0.1,0.7,0.3,1.2,0.5,1.5c0.2,0.3,0.6,0.4,1,0.4c0.4,0,0.7-0.1,1-0.4
					c0.2-0.3,0.4-0.7,0.5-1.3c0.1-0.6,0.2-1.4,0.2-2.3C445.3,262.2,445.3,261.4,445.3,260.6z"/>
			</g>
			<g class="st9">
				<path class="st10" d="M395.9,283.4c-0.1,0-0.2,0-0.4,0c-0.2,0-0.4,0-0.7,0.1c-0.3,0.1-0.6,0.2-0.8,0.3c-0.2,0.2-0.4,0.5-0.6,0.9
					l-0.6,1.4l-3.8,10.7h-1.9l-3.8-10.8l-0.6-1.5c-0.2-0.4-0.4-0.7-0.5-0.9c-0.2-0.2-0.4-0.3-0.8-0.3l-0.8-0.1v-0.3h8.7v0.3
					l-0.8,0.1c-0.3,0.1-0.5,0.1-0.7,0.2c-0.2,0.1-0.3,0.3-0.3,0.6c0,0.2,0.1,0.6,0.3,1.2c0.2,0.6,0.5,1.3,0.8,2.3
					c0.4,1,0.9,2.4,1.6,4.3c0.4-1.2,0.9-2.4,1.3-3.7c0.5-1.3,0.8-2.2,0.9-2.7c0.2-0.6,0.2-1,0.2-1.2c0-0.3-0.1-0.5-0.2-0.7
					c-0.2-0.1-0.3-0.2-0.5-0.3c-0.2,0-0.4-0.1-0.6-0.1c-0.2,0-0.4,0-0.5,0v-0.3h5V283.4z"/>
				<path class="st10" d="M402.3,296.4c0.5,0,1.1,0,1.6,0c0.6,0,1.1,0,1.7-0.1c0.6-0.1,1.4-0.7,2.3-1.9c0.9-1.2,1.6-2.3,2-3.6h0.3v6
					h-14.8v-0.3c0.2,0,0.4,0,0.6,0c0.2,0,0.5,0,0.7-0.1c0.3,0,0.5-0.1,0.6-0.3c0.1-0.2,0.2-0.4,0.3-0.8l0-0.9v-8.9l0-0.9
					c0-0.4-0.1-0.7-0.3-0.8c-0.2-0.2-0.4-0.3-0.6-0.3c-0.3,0-0.5-0.1-0.7-0.1c-0.2,0-0.4,0-0.6,0v-0.3h14.4v5.6h-0.3
					c-0.6-1.4-1.4-2.6-2.3-3.5c-0.9-1-1.7-1.5-2.3-1.5c-0.6-0.1-1.1-0.1-1.6-0.1c-0.4,0-0.7,0-0.8,0h-0.2l0,6.2l0.8,0
					c0.7-0.1,1.3-0.4,1.6-1c0.4-0.6,0.6-1.3,0.6-2.1h0.4v6.8h-0.4c0-0.8-0.2-1.6-0.6-2.2c-0.4-0.6-0.9-1-1.6-1.1l-0.8,0V296.4z"/>
				<path class="st10" d="M419.6,297c-2.2,0-3.9-0.7-5.3-2c-1.4-1.3-2.1-3-2.1-5.1c0-2.1,0.7-3.8,2.1-5.1c1.4-1.3,3.1-2,5.3-2
					c0.9,0,1.7,0.2,2.4,0.5l2,1.1c0.4,0,0.6-0.1,0.8-0.4c0.1-0.3,0.2-0.6,0.3-1.1h0.4v5.9h-0.3c-0.6-1.5-0.9-2.6-1.2-3.1
					c-0.2-0.5-0.6-1.1-1.2-1.6c-0.5-0.5-1.2-0.8-2.1-0.8c-1.1,0-1.9,0.6-2.4,1.8c-0.5,1.2-0.8,2.7-0.8,4.3c0,1.8,0.3,3.3,0.9,4.6
					c0.6,1.3,1.6,1.9,2.8,1.9c1.1,0,2.1-0.4,2.7-1.2c0.7-0.8,1.1-1.9,1.4-3.2l0.3,0.1c-0.2,1.5-0.7,2.7-1.7,3.7
					C423,296.5,421.5,297,419.6,297z"/>
				<path class="st10" d="M426.3,283.1h14.8v6h-0.3c-0.3-0.8-0.7-1.6-1.2-2.4c-0.5-0.9-1-1.6-1.5-2.2c-0.5-0.6-1-1-1.4-1l-0.8,0
					v10.9l0,0.9c0,0.4,0.1,0.7,0.3,0.8c0.1,0.2,0.3,0.3,0.6,0.3c0.3,0,0.5,0.1,0.8,0.1c0.2,0,0.4,0,0.6,0v0.3h-9.2v-0.3l1.2-0.1
					c0.4,0,0.6-0.1,0.8-0.3c0.1-0.2,0.2-0.4,0.3-0.8l0-0.9v-11l-0.7,0c-0.4,0-0.8,0.3-1.3,0.9c-0.5,0.6-1,1.3-1.5,2.3
					c-0.5,0.9-0.9,1.7-1.2,2.5h-0.3V283.1z"/>
				<path class="st10" d="M457.4,290c0,2-0.8,3.7-2.3,5c-1.5,1.4-3.3,2-5.4,2c-2.2,0-4-0.7-5.4-2c-1.4-1.3-2.2-3-2.2-5.1
					c0-2.1,0.7-3.8,2.2-5.1c1.5-1.3,3.3-2,5.4-2c2.1,0,3.9,0.7,5.4,2C456.6,286.2,457.4,287.9,457.4,290z M451.6,284.8
					c-0.4-1.1-1-1.6-1.9-1.6c-0.5,0-0.9,0.2-1.2,0.5c-0.3,0.3-0.6,0.7-0.8,1.3c-0.2,0.6-0.3,1.3-0.4,2.2c-0.1,0.9-0.1,1.8-0.1,2.8
					c0,1.3,0,2.3,0.1,3.2c0.1,0.8,0.3,1.6,0.6,2.4c0.3,0.8,0.9,1.2,1.8,1.2c0.5,0,0.9-0.2,1.2-0.5c0.3-0.3,0.6-0.7,0.8-1.3
					c0.2-0.6,0.3-1.3,0.4-2.2c0.1-0.9,0.1-1.8,0.1-2.8c0-1.1,0-2.1-0.1-2.9C452,286.3,451.9,285.5,451.6,284.8z"/>
				<path class="st10" d="M465.6,290v4.4l0,0.9c0,0.4,0.1,0.7,0.3,0.9c0.2,0.2,0.4,0.3,0.8,0.3l1,0.1v0.3h-9v-0.3h0.6
					c0.3,0,0.5-0.1,0.8-0.1c0.3,0,0.4-0.1,0.6-0.3c0.1-0.2,0.2-0.4,0.3-0.8l0-0.9v-8.9l0-0.9c0-0.4-0.1-0.7-0.3-0.8
					c-0.1-0.2-0.4-0.3-0.6-0.3c-0.3,0-0.5-0.1-0.7-0.1c-0.2,0-0.4,0-0.6,0v-0.3l8.4,0c1.2,0,2.1,0.1,2.8,0.2
					c0.7,0.1,1.3,0.3,1.8,0.6c0.5,0.3,0.8,0.7,1.1,1.1c0.3,0.4,0.4,1,0.4,1.5c0,0.4-0.1,0.9-0.2,1.3c-0.2,0.4-0.4,0.8-0.7,1.1
					c-0.3,0.3-0.7,0.6-1.2,0.7c-0.5,0.2-1.2,0.3-2.3,0.3v0.1c0.6,0.1,1.2,0.3,1.6,0.4c0.4,0.1,0.8,0.3,1.2,0.5
					c0.4,0.2,0.7,0.6,0.9,1.1c0.3,0.5,0.5,1,0.7,1.5c0.2,0.6,0.3,1,0.5,1.2c0.1,0.2,0.3,0.3,0.6,0.3c0.3,0,0.5-0.2,0.6-0.6
					c0.1-0.4,0.2-0.9,0.2-1.4h0.3c0,0.6,0,1.1-0.1,1.5c-0.1,0.4-0.3,0.7-0.6,1.1c-0.3,0.4-0.7,0.7-1.3,1c-0.6,0.2-1.2,0.4-1.8,0.4
					c-1,0-1.8-0.3-2.4-0.9c-0.6-0.6-1-1.3-1.1-2.3c-0.1-0.9-0.3-1.7-0.3-2.4c-0.1-0.7-0.3-1.2-0.5-1.3c-0.2-0.1-0.5-0.2-0.7-0.2
					C466.1,290,465.9,290,465.6,290z M467.1,289.6c0.5-0.1,0.8-0.4,1.1-1c0.2-0.6,0.4-1.3,0.4-2c0-0.6-0.1-1.2-0.4-1.8
					c-0.3-0.6-0.6-0.9-0.9-1c-0.4-0.1-0.7-0.2-0.9-0.2c-0.3,0-0.5,0-0.7,0v6.2h0.6C466.6,289.6,466.9,289.6,467.1,289.6z"/>
				<path class="st10" d="M489.7,296.8l-9.2,0v-0.3h0.6c0.3,0,0.5-0.1,0.8-0.1c0.3,0,0.4-0.1,0.6-0.3c0.1-0.2,0.2-0.4,0.3-0.8l0-0.9
					v-8.9l0-0.9c0-0.4-0.1-0.7-0.3-0.8c-0.2-0.2-0.4-0.3-0.6-0.3c-0.3,0-0.5-0.1-0.7-0.1c-0.2,0-0.4,0-0.6,0v-0.3l8.7,0
					c1.2,0,2.1,0,2.8,0.1c0.7,0.1,1.2,0.3,1.7,0.6c0.4,0.3,0.8,0.7,1,1.1c0.3,0.4,0.4,1,0.4,1.6c0,0.9-0.3,1.6-0.8,2
					c-0.5,0.4-1.1,0.7-1.6,0.8c-0.5,0.1-1.2,0.2-2,0.2v0.2c0.9,0,1.6,0,2.1,0.1c0.5,0.1,0.9,0.2,1.4,0.4c0.5,0.2,0.9,0.5,1.2,1.1
					c0.4,0.5,0.5,1.2,0.5,2c0,0.8-0.2,1.4-0.5,2c-0.4,0.5-0.8,0.9-1.4,1.2c-0.6,0.3-1.3,0.4-2.1,0.4
					C491,296.8,490.3,296.8,489.7,296.8z M489.1,289.4c0.5-0.1,0.9-0.4,1.1-0.9c0.2-0.5,0.3-1.2,0.3-2c0-0.6-0.1-1.3-0.3-1.8
					c-0.2-0.6-0.5-0.9-0.9-1c-0.3-0.1-0.7-0.1-1-0.2c-0.3,0-0.6,0-0.8,0v6.1c0.2,0,0.5,0,0.7,0C488.4,289.5,488.7,289.4,489.1,289.4
					z M489.7,296.3c0.4-0.1,0.7-0.5,0.9-1.2c0.2-0.7,0.3-1.4,0.3-2.2c0-0.7-0.1-1.3-0.4-2c-0.3-0.6-0.6-1-1-1
					c-0.4-0.1-0.7-0.1-0.9-0.1c-0.2,0-0.4,0-0.5,0h-0.6v6.6h0.2c0.5,0,0.8,0,1.1,0C489.1,296.4,489.4,296.4,489.7,296.3z"/>
				<path class="st10" d="M499.6,292.5l-0.6,2c-0.1,0.5-0.2,0.8-0.2,1.1c0,0.3,0.1,0.5,0.2,0.6c0.1,0.1,0.3,0.2,0.6,0.2
					c0.2,0,0.4,0.1,0.7,0.1c0.2,0,0.4,0,0.6,0v0.3h-5.3v-0.3l1.1-0.1c0.4,0,0.7-0.2,0.9-0.3c0.2-0.2,0.4-0.4,0.5-0.6
					c0.1-0.2,0.2-0.5,0.4-0.8c0.1-0.3,0.2-0.6,0.3-0.9l3.6-10.7h2.1l4,10.7l0.6,1.5c0.2,0.4,0.4,0.7,0.5,0.8
					c0.2,0.2,0.4,0.3,0.8,0.3l0.8,0.1v0.3h-8.9v-0.3c0.2,0,0.3,0,0.4,0c0.1,0,0.3,0,0.6-0.1c0.3,0,0.5-0.1,0.7-0.2
					c0.1-0.1,0.2-0.3,0.2-0.5c0-0.3-0.1-0.7-0.3-1.2l-0.7-2H499.6z M503,292.1l-1.7-4.6l-1.6,4.6H503z"/>
				<path class="st10" d="M519,297c-2.2,0-3.9-0.7-5.3-2c-1.4-1.3-2.1-3-2.1-5.1c0-2.1,0.7-3.8,2.1-5.1c1.4-1.3,3.1-2,5.3-2
					c0.9,0,1.7,0.2,2.4,0.5l2,1.1c0.4,0,0.6-0.1,0.8-0.4c0.1-0.3,0.2-0.6,0.3-1.1h0.4v5.9h-0.3c-0.6-1.5-0.9-2.6-1.2-3.1
					c-0.2-0.5-0.6-1.1-1.2-1.6c-0.5-0.5-1.2-0.8-2.1-0.8c-1.1,0-1.9,0.6-2.4,1.8c-0.5,1.2-0.8,2.7-0.8,4.3c0,1.8,0.3,3.3,0.9,4.6
					c0.6,1.3,1.6,1.9,2.8,1.9c1.1,0,2.1-0.4,2.7-1.2c0.7-0.8,1.1-1.9,1.4-3.2l0.3,0.1c-0.2,1.5-0.7,2.7-1.7,3.7
					C522.3,296.5,520.9,297,519,297z"/>
				<path class="st10" d="M533.4,290.4l-0.5,0.6v3.4l0,0.9c0,0.4,0.1,0.7,0.3,0.8c0.1,0.1,0.4,0.2,0.8,0.3l0.7,0.1v0.3h-8.4v-0.3
					l0.9-0.1c0.4,0,0.6-0.2,0.8-0.3c0.1-0.2,0.2-0.4,0.3-0.8l0-0.9v-8.9l0-0.9c0-0.4-0.1-0.7-0.3-0.8c-0.1-0.2-0.4-0.3-0.8-0.3
					l-1-0.1v-0.3h8.5v0.3l-0.7,0.1c-0.4,0-0.6,0.1-0.8,0.3c-0.1,0.1-0.2,0.4-0.3,0.9l0,0.9v5.1c0.4-0.4,0.9-1,1.5-1.8
					c0.7-0.8,1.3-1.5,2-2.3c0.7-0.8,1.1-1.4,1.4-1.7c0.2-0.3,0.3-0.6,0.3-0.8c0-0.2-0.1-0.3-0.2-0.4s-0.3-0.1-0.5-0.2l-0.9-0.1v-0.3
					h4.8v0.3c-0.2,0-0.3,0-0.5,0c-0.2,0-0.4,0-0.6,0.1c-0.3,0.1-0.5,0.1-0.8,0.3c-0.3,0.1-0.6,0.4-1,0.8l-1.9,2.2l5.1,7.9
					c0.5,0.7,0.8,1.2,1,1.3c0.2,0.2,0.4,0.3,0.7,0.3c0.3,0,0.4,0.1,0.6,0.1c0.1,0,0.2,0,0.3,0v0.3h-9v-0.3l0.8,0
					c0.3,0,0.5-0.1,0.6-0.1c0.1,0,0.2-0.2,0.2-0.4c0-0.1,0-0.3-0.1-0.4c-0.1-0.2-0.2-0.4-0.4-0.8c-0.2-0.3-0.5-0.7-0.8-1.2
					c-0.3-0.4-0.7-1-1.1-1.7C534,291.3,533.6,290.7,533.4,290.4z"/>
				<path class="st10" d="M549.2,289.7c0,2,0.2,3.6,0.6,4.9c0.4,1.3,1.1,2,2,2c0.5,0,0.8-0.1,1.1-0.3c0.3-0.2,0.4-0.4,0.5-0.6
					c0.1-0.2,0.1-0.5,0.1-0.8c0-0.3,0-0.7,0-1.2V293c0-0.5,0-0.9-0.1-1.1c0-0.4-0.1-0.7-0.3-0.8c-0.1-0.2-0.3-0.2-0.6-0.3
					c-0.3,0-0.5-0.1-0.8-0.1c-0.2,0-0.4,0-0.6,0v-0.3h8.8v0.3l-0.9,0.1c-0.4,0-0.6,0.1-0.8,0.3c-0.1,0.1-0.2,0.4-0.3,0.9l0,0.9v2.5
					l0,1.7h-0.3c-0.2-0.4-0.4-0.7-0.9-1c-0.4-0.3-0.9-0.5-1.3-0.5c-0.4,0-1.1,0.3-1.9,0.8c-0.8,0.5-1.9,0.8-3.2,0.8
					c-1.9,0-3.4-0.7-4.7-2c-1.3-1.3-1.9-3-1.9-5.1c0-2.1,0.7-3.8,2.1-5.1c1.4-1.3,3.2-1.9,5.3-1.9c1.2,0,2.3,0.3,3.3,0.8
					c1.1,0.5,1.6,0.8,1.8,0.8c0.4,0,0.6-0.1,0.7-0.4c0.1-0.3,0.2-0.7,0.4-1.2h0.4v6.1h-0.3c-0.4-1.6-1-2.9-1.9-3.9
					c-0.9-1.1-2-1.6-3.3-1.6c-1.1,0-1.9,0.6-2.4,1.9C549.5,286.6,549.2,288,549.2,289.7z"/>
				<path class="st10" d="M567.5,290v4.4l0,0.9c0,0.4,0.1,0.7,0.3,0.9c0.2,0.2,0.4,0.3,0.8,0.3l1,0.1v0.3h-9v-0.3h0.6
					c0.3,0,0.5-0.1,0.8-0.1c0.3,0,0.4-0.1,0.6-0.3c0.1-0.2,0.2-0.4,0.3-0.8l0-0.9v-8.9l0-0.9c0-0.4-0.1-0.7-0.3-0.8
					c-0.2-0.2-0.4-0.3-0.6-0.3c-0.3,0-0.5-0.1-0.7-0.1c-0.2,0-0.4,0-0.6,0v-0.3l8.4,0c1.2,0,2.1,0.1,2.8,0.2
					c0.7,0.1,1.3,0.3,1.8,0.6c0.5,0.3,0.8,0.7,1.1,1.1c0.3,0.4,0.4,1,0.4,1.5c0,0.4-0.1,0.9-0.2,1.3c-0.2,0.4-0.4,0.8-0.7,1.1
					c-0.3,0.3-0.7,0.6-1.2,0.7c-0.5,0.2-1.2,0.3-2.3,0.3v0.1c0.6,0.1,1.2,0.3,1.6,0.4c0.4,0.1,0.8,0.3,1.2,0.5
					c0.4,0.2,0.7,0.6,0.9,1.1c0.3,0.5,0.5,1,0.7,1.5c0.2,0.6,0.3,1,0.5,1.2c0.1,0.2,0.3,0.3,0.6,0.3c0.3,0,0.5-0.2,0.6-0.6
					c0.1-0.4,0.2-0.9,0.2-1.4h0.3c0,0.6,0,1.1-0.1,1.5c-0.1,0.4-0.3,0.7-0.6,1.1c-0.3,0.4-0.7,0.7-1.3,1c-0.6,0.2-1.2,0.4-1.8,0.4
					c-1,0-1.8-0.3-2.4-0.9c-0.6-0.6-1-1.3-1.1-2.3c-0.1-0.9-0.3-1.7-0.3-2.4c-0.1-0.7-0.3-1.2-0.5-1.3c-0.2-0.1-0.5-0.2-0.7-0.2
					C568,290,567.7,290,567.5,290z M569,289.6c0.5-0.1,0.8-0.4,1.1-1c0.2-0.6,0.4-1.3,0.4-2c0-0.6-0.1-1.2-0.4-1.8
					c-0.3-0.6-0.6-0.9-0.9-1c-0.4-0.1-0.7-0.2-0.9-0.2c-0.3,0-0.5,0-0.7,0v6.2h0.6C568.5,289.6,568.7,289.6,569,289.6z"/>
				<path class="st10" d="M593.4,290c0,2-0.8,3.7-2.3,5c-1.5,1.4-3.3,2-5.4,2c-2.2,0-4-0.7-5.4-2c-1.4-1.3-2.2-3-2.2-5.1
					c0-2.1,0.7-3.8,2.2-5.1c1.5-1.3,3.3-2,5.4-2c2.1,0,3.9,0.7,5.4,2C592.6,286.2,593.4,287.9,593.4,290z M587.7,284.8
					c-0.4-1.1-1-1.6-1.9-1.6c-0.5,0-0.9,0.2-1.2,0.5c-0.3,0.3-0.6,0.7-0.8,1.3c-0.2,0.6-0.3,1.3-0.4,2.2c-0.1,0.9-0.1,1.8-0.1,2.8
					c0,1.3,0,2.3,0.2,3.2c0.1,0.8,0.3,1.6,0.6,2.4c0.3,0.8,0.9,1.2,1.8,1.2c0.5,0,0.9-0.2,1.2-0.5c0.3-0.3,0.6-0.7,0.8-1.3
					c0.2-0.6,0.3-1.3,0.4-2.2c0.1-0.9,0.1-1.8,0.1-2.8c0-1.1,0-2.1-0.1-2.9C588,286.3,587.9,285.5,587.7,284.8z"/>
				<path class="st10" d="M610.6,283.4c-0.2,0-0.3,0-0.6,0c-0.2,0-0.5,0-0.8,0.1c-0.3,0.1-0.6,0.2-0.8,0.5c-0.2,0.3-0.3,0.6-0.3,1
					l0,0.9v5.6l0,0.9c-0.2,1.7-0.7,2.9-1.4,3.6c-0.8,0.7-1.9,1-3.5,1c-2.1,0-3.7-0.4-4.8-1.2c-1.1-0.8-1.7-1.8-1.7-2.9v-7.4l0-0.9
					c0-0.4-0.1-0.7-0.3-0.8c-0.1-0.2-0.4-0.3-0.8-0.3l-0.8-0.1v-0.3h8.8v0.3c-0.2,0-0.3,0-0.6,0c-0.2,0-0.5,0-0.8,0.1
					c-0.3,0-0.6,0.1-0.7,0.3c-0.1,0.1-0.2,0.4-0.2,0.8l0,0.9v7.5c0,0.2,0,0.3,0,0.5c0,0.2,0.1,0.5,0.1,1c0.1,0.4,0.3,0.9,0.8,1.3
					c0.4,0.4,1,0.6,1.8,0.6c1.1,0,1.8-0.3,2.4-0.8c0.5-0.5,0.9-1.1,1.1-1.8c0.2-0.7,0.3-1.3,0.3-1.8l0-0.9v-5.4l0-0.9
					c0-0.4-0.1-0.7-0.3-0.9c-0.2-0.2-0.4-0.3-0.8-0.4c-0.3-0.1-0.6-0.1-0.8-0.1c-0.2,0-0.4,0-0.6,0v-0.3h5.5V283.4z"/>
				<path class="st10" d="M627.1,283.4c-0.2,0-0.3,0-0.5,0c-0.2,0-0.5,0-0.8,0.1c-0.4,0.1-0.6,0.2-0.8,0.4c-0.2,0.2-0.3,0.5-0.3,0.9
					l0,0.9v11h-2.3l-8.9-11.4h-0.1v8.8l0,0.9c0,0.4,0.1,0.7,0.3,0.9c0.2,0.2,0.4,0.3,0.8,0.4c0.3,0.1,0.6,0.1,0.9,0.1
					c0.2,0,0.4,0,0.5,0v0.3h-5.4v-0.3c0.2,0,0.3,0,0.5,0c0.2,0,0.6-0.1,1.1-0.1c0.5-0.1,0.8-0.5,0.9-1.3l0-0.9v-8.5l0-0.9
					c-0.2-0.3-0.4-0.5-0.6-0.7c-0.2-0.2-0.5-0.4-0.7-0.5c-0.3-0.1-0.5-0.1-0.8-0.1h-0.6v-0.3h7.2l6.7,8.6h0.1v-6l0-0.9
					c0-0.4-0.1-0.7-0.3-0.9c-0.2-0.2-0.4-0.3-0.8-0.4c-0.3-0.1-0.6-0.1-0.8-0.1c-0.2,0-0.4,0-0.6,0v-0.3h5.4V283.4z"/>
				<path class="st10" d="M627.7,296.8v-0.3c0.2,0,0.4,0,0.6,0c0.2,0,0.5,0,0.7-0.1c0.3,0,0.5-0.1,0.6-0.3c0.1-0.2,0.2-0.4,0.3-0.8
					l0-0.9v-8.9l0-0.9c0-0.4-0.1-0.7-0.3-0.8c-0.2-0.2-0.4-0.3-0.6-0.3c-0.3,0-0.5-0.1-0.7-0.1c-0.2,0-0.4,0-0.6,0v-0.3l7,0
					c1.5,0,2.8,0.1,4.1,0.4c1.3,0.3,2.5,1,3.6,2.1c1.1,1.1,1.6,2.7,1.6,4.8c0,2-0.5,3.4-1.5,4.3c-1,0.9-2,1.5-3.1,1.7
					c-1.1,0.2-2.4,0.3-3.8,0.3H627.7z M636.5,283.7c-0.2-0.1-0.4-0.1-0.8-0.2c-0.4,0-0.7,0-0.9,0h-0.2v13c0.1,0,0.2,0,0.2,0
					c0.1,0,0.2,0,0.3,0c0.5,0,0.9,0,1.3-0.1c0.4-0.1,0.8-0.2,1.1-0.5c0.3-0.3,0.7-0.9,1-2c0.3-1.1,0.5-2.2,0.5-3.4
					c0-1.6-0.2-3.1-0.6-4.4C637.9,284.8,637.3,284,636.5,283.7z"/>
			</g>
		</g>
	</g>
</g>
</svg>
